<svg width="12" height="14" viewBox="0 0 12 14" fill="none" xmlns="http://www.w3.org/2000/svg">
<path fill-rule="evenodd" clip-rule="evenodd" d="M5.64667 0.435319C5.75262 0.369097 5.87506 0.333984 6 0.333984C6.12495 0.333984 6.24738 0.369097 6.35334 0.435319L10.956 3.31199L6 6.22732L1.044 3.31199L5.64667 0.435319ZM0.00533564 4.24799C0.00170708 4.27651 -7.4337e-05 4.30523 2.37538e-06 4.33399V9.66732C2.1087e-06 9.78039 0.0287607 9.8916 0.0835735 9.9905C0.138386 10.0894 0.217452 10.1727 0.313336 10.2327L5.33334 13.37V7.38199L0.00533564 4.24799ZM6.66667 13.37L11.6867 10.2327C11.7826 10.1727 11.8616 10.0894 11.9164 9.9905C11.9712 9.8916 12 9.78039 12 9.66732V4.33399C12 4.30532 11.998 4.27599 11.9947 4.24799L6.66667 7.38132V13.37Z" fill="white"/>
</svg>
