<svg width="15" height="12" viewBox="0 0 15 12" fill="none" xmlns="http://www.w3.org/2000/svg">
<path d="M1.5 0C1.10218 0 0.720644 0.158035 0.43934 0.43934C0.158035 0.720644 0 1.10218 0 1.5V4.5C0.397825 4.5 0.779356 4.65804 1.06066 4.93934C1.34196 5.22064 1.5 5.60218 1.5 6C1.5 6.39782 1.34196 6.77936 1.06066 7.06066C0.779356 7.34196 0.397825 7.5 0 7.5V10.5C0 10.8978 0.158035 11.2794 0.43934 11.5607C0.720644 11.842 1.10218 12 1.5 12H13.5C13.8978 12 14.2794 11.842 14.5607 11.5607C14.842 11.2794 15 10.8978 15 10.5V7.5C14.6022 7.5 14.2206 7.34196 13.9393 7.06066C13.658 6.77936 13.5 6.39782 13.5 6C13.5 5.60218 13.658 5.22064 13.9393 4.93934C14.2206 4.65804 14.6022 4.5 15 4.5V1.5C15 1.10218 14.842 0.720644 14.5607 0.43934C14.2794 0.158035 13.8978 0 13.5 0H1.5ZM10.125 2.25L11.25 3.375L4.875 9.75L3.75 8.625L10.125 2.25ZM5.1075 2.28C5.8425 2.28 6.435 2.8725 6.435 3.6075C6.435 3.95958 6.29514 4.29723 6.04618 4.54618C5.79723 4.79514 5.45958 4.935 5.1075 4.935C4.3725 4.935 3.78 4.3425 3.78 3.6075C3.78 3.25543 3.91986 2.91777 4.16882 2.66882C4.41777 2.41986 4.75543 2.28 5.1075 2.28ZM9.8925 7.065C10.6275 7.065 11.22 7.6575 11.22 8.3925C11.22 8.74457 11.0801 9.08223 10.8312 9.33118C10.5822 9.58014 10.2446 9.72 9.8925 9.72C9.1575 9.72 8.565 9.1275 8.565 8.3925C8.565 8.04042 8.70486 7.70277 8.95382 7.45382C9.20277 7.20486 9.54042 7.065 9.8925 7.065Z" fill="#32FF9D"/>
</svg>
