<svg width="180" height="180" viewBox="0 0 180 180" fill="none" xmlns="http://www.w3.org/2000/svg">
<rect width="180" height="180" rx="40" fill="#1E2023"/>
<path d="M141.559 123.473C141.77 123.452 141.983 123.499 142.163 123.61C145.434 125.621 146.642 127.792 145.678 129.939C144.688 132.146 141.434 134.261 136.206 136.097C130.977 137.932 123.935 139.431 115.704 140.46C107.472 141.49 98.3042 142.019 89.0131 141.999C79.722 141.98 70.594 141.414 62.4377 140.351C54.2814 139.287 47.3485 137.76 42.2532 135.903C37.1579 134.047 34.0574 131.919 33.2264 129.707C32.4168 127.553 33.7858 125.385 37.2134 123.384C37.3916 123.281 37.5992 123.238 37.8044 123.258L47.0131 124.192C47.9842 124.291 48.2967 125.681 47.6551 126.416C46.7989 127.398 46.5492 128.408 46.9272 129.413C47.5559 131.086 49.9015 132.696 53.7562 134.101C57.611 135.505 62.8559 136.661 69.0264 137.465C75.197 138.27 82.1026 138.698 89.1316 138.713C96.1607 138.727 103.096 138.327 109.324 137.548C115.551 136.769 120.879 135.636 124.834 134.247C128.79 132.859 131.251 131.259 132.001 129.589C132.45 128.588 132.275 127.581 131.497 126.599C130.896 125.841 131.22 124.471 132.184 124.378L141.559 123.473Z" fill="#D9D9D9"/>
<path d="M111.196 51.1415L103.596 46.763C96.9236 42.9224 93.5872 41 90 41C86.4128 41 83.0764 42.9182 76.4036 46.763L75.1838 47.4677L109.091 68.7306L124.352 60.3489C121.897 57.2964 117.938 55.0154 111.196 51.1331M127.042 65.87L111.85 74.21V86.8702C111.85 87.6996 111.55 88.4951 111.015 89.0817C110.481 89.6682 109.756 89.9977 109 89.9977C108.244 89.9977 107.519 89.6682 106.985 89.0817C106.45 88.4951 106.15 87.6996 106.15 86.8702V77.3375L92.85 84.635V124C95.5784 123.254 98.683 121.469 103.596 118.637L111.196 114.259C119.37 109.551 123.459 107.199 125.731 102.966C128 98.738 128 93.4713 128 82.9504V82.4625C128 74.5686 128 69.6313 127.042 65.87ZM87.15 124V84.635L52.9576 65.87C52 69.6313 52 74.5686 52 82.4541V82.942C52 93.4713 52 98.738 54.2686 102.966C56.541 107.199 60.6298 109.555 68.8036 114.263L76.4036 118.637C81.317 121.469 84.4216 123.254 87.15 124ZM55.648 60.353L90 79.2015L102.962 72.0916L69.195 50.9163L68.8036 51.1415C62.0662 55.0196 58.1028 57.3006 55.648 60.3572" fill="#32FF9D"/>
<circle cx="128" cy="41" r="5" fill="#32FF9D"/>
</svg>
