<svg width="19" height="19" viewBox="0 0 19 19" fill="none" xmlns="http://www.w3.org/2000/svg">
<circle cx="9.5" cy="9.5" r="9.25" stroke="white" stroke-width="0.5"/>
<path d="M10.2105 10.5473V13.7907H6C5.99987 13.2795 6.11744 12.7751 6.3437 12.3161C6.56997 11.8571 6.89892 11.4557 7.30535 11.1426C7.71179 10.8295 8.18492 10.6131 8.68849 10.5099C9.19205 10.4068 9.7127 10.4196 10.2105 10.5473ZM9.36842 10.0233C7.97263 10.0233 6.84211 8.8993 6.84211 7.51163C6.84211 6.12395 7.97263 5 9.36842 5C10.7642 5 11.8947 6.12395 11.8947 7.51163C11.8947 8.8993 10.7642 10.0233 9.36842 10.0233ZM12.7368 11.6977H14V12.5349H12.7368V14L10.6316 12.1163L12.7368 10.2326V11.6977Z" fill="white"/>
</svg>
