<svg width="41" height="41" viewBox="0 0 41 41" fill="none" xmlns="http://www.w3.org/2000/svg">
<path d="M15.375 20.4995C15.3596 19.817 15.4806 19.1383 15.7311 18.5033C15.9816 17.8682 16.3564 17.2896 16.8336 16.8014C17.3108 16.3132 17.8807 15.9252 18.5098 15.6603C19.139 15.3954 19.8147 15.2588 20.4974 15.2586C21.1801 15.2585 21.8559 15.3947 22.4852 15.6593C23.1145 15.9239 23.6846 16.3116 24.162 16.7996C24.6394 17.2875 25.0145 17.8659 25.2653 18.5009C25.5161 19.1358 25.6375 19.8145 25.6224 20.497C25.5928 21.836 25.0402 23.1103 24.0828 24.047C23.1254 24.9836 21.8394 25.5083 20.5 25.5086C19.1606 25.509 17.8743 24.985 16.9164 24.0488C15.9586 23.1126 15.4053 21.8386 15.375 20.4995ZM26.5988 9.22964C28.6309 10.3277 30.3284 11.9549 31.5114 13.9388C32.6944 15.9227 33.319 18.1896 33.319 20.4995C33.319 22.8094 32.6944 25.0763 31.5114 27.0602C30.3284 29.0442 28.6309 30.6713 26.5988 31.7694C28.3643 28.9609 29.4688 24.9531 29.4688 20.4995C29.4688 16.0459 28.3643 12.0381 26.5988 9.22964ZM11.5312 20.4995C11.5312 24.9531 12.6357 28.9609 14.4012 31.7694C12.3691 30.6713 10.6716 29.0442 9.4886 27.0602C8.30558 25.0763 7.68101 22.8094 7.68101 20.4995C7.68101 18.1896 8.30558 15.9227 9.4886 13.9388C10.6716 11.9549 12.3691 10.3277 14.4012 9.22964C12.6357 12.0381 11.5312 16.0459 11.5312 20.4995ZM3.84375 20.4995C3.84375 27.3824 6.02187 33.5606 9.47612 37.7861C3.77969 34.1448 0 27.7642 0 20.4995C0 13.2348 3.77712 6.8542 9.47612 3.21289C6.02187 7.43845 3.84375 13.6166 3.84375 20.4995ZM31.5239 3.21289C37.2203 6.8542 41 13.2348 41 20.4995C41 27.7642 37.2229 34.1448 31.5239 37.7861C34.9781 33.5606 37.1562 27.3824 37.1562 20.4995C37.1562 13.6166 34.9781 7.43845 31.5239 3.21289Z" fill="white"/>
<circle cx="20.5" cy="20.5" r="5.5" fill="#32FF9D"/>
</svg>
