<svg width="18" height="556" viewBox="0 0 18 556" fill="none" xmlns="http://www.w3.org/2000/svg">
<circle cx="9" cy="9" r="9" fill="#32FF9D"/>
<circle cx="8.5" cy="132.5" r="5.5" fill="#7A8390"/>
<line x1="8.5" y1="17" x2="8.5" y2="127" stroke="url(#paint0_linear_553_5163)" stroke-width="3"/>
<line x1="9" y1="519" x2="9" y2="555" stroke="url(#paint1_linear_553_5163)" stroke-width="2" stroke-linecap="round" stroke-dasharray="5 5"/>
<line x1="9" y1="415" x2="9" y2="517" stroke="#7A8390" stroke-width="2" stroke-linecap="round" stroke-dasharray="5 5"/>
<line x1="9" y1="238" x2="9.00001" y2="380" stroke="#7A8390" stroke-width="2" stroke-linecap="round" stroke-dasharray="5 5"/>
<line x1="9" y1="140" x2="9" y2="203" stroke="#7A8390" stroke-width="2" stroke-linecap="round" stroke-dasharray="5 5"/>
<circle cx="8.5" cy="512.5" r="5.5" fill="#7A8390"/>
<path d="M17.5332 389.459C18.1556 390.082 18.1556 391.084 17.5332 391.697L13.4295 395.802L15.6659 405.501L14.1785 407L10.0853 399.158L5.97099 403.274L6.35077 405.881L5.22198 407L3.36527 403.644L0 401.776L1.11824 400.636L3.7556 401.026L7.83824 396.942L0 392.815L1.49802 391.327L11.193 393.565L15.2967 389.459C15.8875 388.847 16.9424 388.847 17.5332 389.459Z" fill="#7A8390"/>
<path d="M17.5332 211.459C18.1556 212.082 18.1556 213.084 17.5332 213.697L13.4295 217.802L15.6659 227.501L14.1785 229L10.0853 221.158L5.97099 225.274L6.35077 227.881L5.22198 229L3.36527 225.644L0 223.776L1.11824 222.636L3.7556 223.026L7.83824 218.942L0 214.815L1.49802 213.327L11.193 215.565L15.2967 211.459C15.8875 210.847 16.9424 210.847 17.5332 211.459Z" fill="#7A8390"/>
<defs>
<linearGradient id="paint0_linear_553_5163" x1="6.5" y1="17" x2="6.5" y2="127" gradientUnits="userSpaceOnUse">
<stop stop-color="#32FF9D"/>
<stop offset="1" stop-color="#7A8390"/>
</linearGradient>
<linearGradient id="paint1_linear_553_5163" x1="7.5" y1="518" x2="7.5" y2="556" gradientUnits="userSpaceOnUse">
<stop stop-color="#7A8390"/>
<stop offset="1" stop-color="#35393F"/>
</linearGradient>
</defs>
</svg>
