<svg width="115" height="24" viewBox="0 0 115 24" fill="none" xmlns="http://www.w3.org/2000/svg">
<path d="M4.625 1.5V24H0.875V1.5H4.625ZM19.3555 23.668C18.5742 23.8893 17.7474 24 16.875 24C14.4531 24 12.3893 23.1471 10.6836 21.4414C8.97786 19.7357 8.125 17.6719 8.125 15.25C8.125 12.8281 8.97786 10.7643 10.6836 9.05859C12.3893 7.35286 14.4531 6.5 16.875 6.5C19.2969 6.5 21.3607 7.35286 23.0664 9.05859C24.7721 10.7643 25.625 12.8281 25.625 15.25V24H21.875V15.1133C21.849 13.7982 21.3607 12.6654 20.4102 11.7148C19.4336 10.7383 18.2552 10.25 16.875 10.25C15.4948 10.25 14.3164 10.7383 13.3398 11.7148C12.3633 12.6914 11.875 13.8698 11.875 15.25C11.875 16.6302 12.3633 17.8086 13.3398 18.7852C14.3164 19.7617 15.4948 20.25 16.875 20.25C17.7865 20.25 18.6133 20.0352 19.3555 19.6055V23.668ZM19.375 15.25C19.375 15.9401 19.1276 16.5326 18.6328 17.0273C18.151 17.5091 17.5651 17.75 16.875 17.75C16.1849 17.75 15.5924 17.5091 15.0977 17.0273C14.6159 16.5326 14.375 15.9401 14.375 15.25C14.375 14.5599 14.6159 13.974 15.0977 13.4922C15.5924 12.9974 16.1849 12.75 16.875 12.75C17.5651 12.75 18.151 12.9974 18.6328 13.4922C19.1276 13.974 19.375 14.5599 19.375 15.25ZM34.125 6.5H36.625V10.25H34.6914C33.3633 10.263 32.7188 10.5234 32.7578 11.0312C32.7578 11.7865 34.1445 12.5091 36.918 13.1992C38.9492 13.707 40.362 14.3385 41.1562 15.0938C41.9635 15.849 42.3672 16.9362 42.3672 18.3555C42.3672 20.2174 41.8268 21.6237 40.7461 22.5742C39.6654 23.5247 38.0833 24 36 24H29.125L29.1055 20.25H35.9023C37.543 20.1849 38.3958 19.7552 38.4609 18.9609C38.4609 18.2839 37.9271 17.8086 36.8594 17.5352C33.2526 16.6367 31.0586 15.7448 30.2773 14.8594C29.5091 13.9609 29.125 12.8802 29.125 11.6172C29.125 8.17969 30.7917 6.47396 34.125 6.5ZM48.875 10.25V15.25C48.875 16.6302 49.3633 17.8086 50.3398 18.7852C51.3164 19.7617 52.4948 20.25 53.875 20.25V24C51.4531 24 49.3893 23.1471 47.6836 21.4414C45.9779 19.7357 45.125 17.6719 45.125 15.25V1.5H48.875V6.5H53.875V10.25H48.875ZM69.875 6.5C72.2969 6.5 74.3607 7.35286 76.0664 9.05859C77.7721 10.7643 78.625 12.8281 78.625 15.25V24H74.875V15.25C74.875 13.8698 74.3867 12.6914 73.4102 11.7148C72.4336 10.7383 71.2552 10.25 69.875 10.25V6.5ZM61.125 6.5C63.5469 6.5 65.6107 7.35286 67.3164 9.05859C69.0221 10.7643 69.875 12.8281 69.875 15.25V24H66.125V15.25C66.125 13.8698 65.6367 12.6914 64.6602 11.7148C63.6836 10.7383 62.5052 10.25 61.125 10.25V24H57.375V6.5H61.125ZM85.875 6.5V24H82.125V6.5H85.875ZM86.4023 2.75C86.4023 3.4401 86.1549 4.03255 85.6602 4.52734C85.1784 5.00911 84.5924 5.25 83.9023 5.25C83.2122 5.25 82.6198 5.00911 82.125 4.52734C81.6432 4.03255 81.4023 3.4401 81.4023 2.75C81.4023 2.0599 81.6432 1.47396 82.125 0.992188C82.6198 0.497396 83.2122 0.25 83.9023 0.25C84.5924 0.25 85.1784 0.497396 85.6602 0.992188C86.1549 1.47396 86.4023 2.0599 86.4023 2.75ZM93.125 1.5V24H89.375V1.5H93.125ZM110.219 14C110.01 13.1406 109.574 12.3789 108.91 11.7148C107.934 10.7383 106.755 10.25 105.375 10.25C103.995 10.25 102.816 10.7383 101.84 11.7148C100.863 12.6914 100.375 13.8698 100.375 15.25C100.375 16.6302 100.863 17.8086 101.84 18.7852C102.816 19.7617 103.995 20.25 105.375 20.25C106.755 20.25 107.927 19.7682 108.891 18.8047L111.547 21.4609C109.854 23.1536 107.797 24 105.375 24C102.953 24 100.889 23.1471 99.1836 21.4414C97.4779 19.7357 96.625 17.6719 96.625 15.25C96.625 12.8281 97.4779 10.7643 99.1836 9.05859C100.889 7.35286 102.953 6.5 105.375 6.5C107.797 6.5 109.861 7.35286 111.566 9.05859C113.272 10.7643 114.125 12.8281 114.125 15.25C114.125 16.1354 114.014 16.9688 113.793 17.75H105.375V14H110.219Z" fill="white"/>
</svg>
