<svg width="19" height="19" viewBox="0 0 19 19" fill="none" xmlns="http://www.w3.org/2000/svg">
<path d="M13 8.5C13 8.04037 12.9095 7.58525 12.7336 7.16061C12.5577 6.73597 12.2999 6.35013 11.9749 6.02513C11.6499 5.70012 11.264 5.44231 10.8394 5.26642C10.4148 5.09053 9.95963 5 9.5 5C9.04037 5 8.58525 5.09053 8.16061 5.26642C7.73597 5.44231 7.35013 5.70012 7.02513 6.02513C6.70012 6.35013 6.44231 6.73597 6.26642 7.16061C6.09053 7.58525 6 8.04037 6 8.5C6 9.1935 6.2045 9.8385 6.5525 10.3825H6.5485L9.5 15L12.4515 10.3825H12.448C12.8084 9.82079 13 9.16741 13 8.5ZM9.5 10C9.10218 10 8.72064 9.84196 8.43934 9.56066C8.15804 9.27936 8 8.89782 8 8.5C8 8.10218 8.15804 7.72064 8.43934 7.43934C8.72064 7.15804 9.10218 7 9.5 7C9.89782 7 10.2794 7.15804 10.5607 7.43934C10.842 7.72064 11 8.10218 11 8.5C11 8.89782 10.842 9.27936 10.5607 9.56066C10.2794 9.84196 9.89782 10 9.5 10Z" fill="white"/>
<circle cx="9.5" cy="9.5" r="9.25" stroke="white" stroke-width="0.5"/>
</svg>
