<svg width="132" height="38" viewBox="0 0 132 38" fill="none" xmlns="http://www.w3.org/2000/svg">
<circle cx="129" cy="27" r="3" fill="#32FF9D"/>
<path d="M12.25 7.5V30H8.5V7.5H12.25ZM26.9805 29.668C26.1992 29.8893 25.3724 30 24.5 30C22.0781 30 20.0143 29.1471 18.3086 27.4414C16.6029 25.7357 15.75 23.6719 15.75 21.25C15.75 18.8281 16.6029 16.7643 18.3086 15.0586C20.0143 13.3529 22.0781 12.5 24.5 12.5C26.9219 12.5 28.9857 13.3529 30.6914 15.0586C32.3971 16.7643 33.25 18.8281 33.25 21.25V30H29.5V21.1133C29.474 19.7982 28.9857 18.6654 28.0352 17.7148C27.0586 16.7383 25.8802 16.25 24.5 16.25C23.1198 16.25 21.9414 16.7383 20.9648 17.7148C19.9883 18.6914 19.5 19.8698 19.5 21.25C19.5 22.6302 19.9883 23.8086 20.9648 24.7852C21.9414 25.7617 23.1198 26.25 24.5 26.25C25.4115 26.25 26.2383 26.0352 26.9805 25.6055V29.668ZM27 21.25C27 21.9401 26.7526 22.5326 26.2578 23.0273C25.776 23.5091 25.1901 23.75 24.5 23.75C23.8099 23.75 23.2174 23.5091 22.7227 23.0273C22.2409 22.5326 22 21.9401 22 21.25C22 20.5599 22.2409 19.974 22.7227 19.4922C23.2174 18.9974 23.8099 18.75 24.5 18.75C25.1901 18.75 25.776 18.9974 26.2578 19.4922C26.7526 19.974 27 20.5599 27 21.25ZM41.75 12.5H44.25V16.25H42.3164C40.9883 16.263 40.3438 16.5234 40.3828 17.0312C40.3828 17.7865 41.7695 18.5091 44.543 19.1992C46.5742 19.707 47.987 20.3385 48.7812 21.0938C49.5885 21.849 49.9922 22.9362 49.9922 24.3555C49.9922 26.2174 49.4518 27.6237 48.3711 28.5742C47.2904 29.5247 45.7083 30 43.625 30H36.75L36.7305 26.25H43.5273C45.168 26.1849 46.0208 25.7552 46.0859 24.9609C46.0859 24.2839 45.5521 23.8086 44.4844 23.5352C40.8776 22.6367 38.6836 21.7448 37.9023 20.8594C37.1341 19.9609 36.75 18.8802 36.75 17.6172C36.75 14.1797 38.4167 12.474 41.75 12.5ZM56.5 16.25V21.25C56.5 22.6302 56.9883 23.8086 57.9648 24.7852C58.9414 25.7617 60.1198 26.25 61.5 26.25V30C59.0781 30 57.0143 29.1471 55.3086 27.4414C53.6029 25.7357 52.75 23.6719 52.75 21.25V7.5H56.5V12.5H61.5V16.25H56.5ZM77.5 12.5C79.9219 12.5 81.9857 13.3529 83.6914 15.0586C85.3971 16.7643 86.25 18.8281 86.25 21.25V30H82.5V21.25C82.5 19.8698 82.0117 18.6914 81.0352 17.7148C80.0586 16.7383 78.8802 16.25 77.5 16.25V12.5ZM68.75 12.5C71.1719 12.5 73.2357 13.3529 74.9414 15.0586C76.6471 16.7643 77.5 18.8281 77.5 21.25V30H73.75V21.25C73.75 19.8698 73.2617 18.6914 72.2852 17.7148C71.3086 16.7383 70.1302 16.25 68.75 16.25V30H65V12.5H68.75ZM93.5 12.5V30H89.75V12.5H93.5ZM94.0273 8.75C94.0273 9.4401 93.7799 10.0326 93.2852 10.5273C92.8034 11.0091 92.2174 11.25 91.5273 11.25C90.8372 11.25 90.2448 11.0091 89.75 10.5273C89.2682 10.0326 89.0273 9.4401 89.0273 8.75C89.0273 8.0599 89.2682 7.47396 89.75 6.99219C90.2448 6.4974 90.8372 6.25 91.5273 6.25C92.2174 6.25 92.8034 6.4974 93.2852 6.99219C93.7799 7.47396 94.0273 8.0599 94.0273 8.75ZM100.75 7.5V30H97V7.5H100.75ZM117.844 20C117.635 19.1406 117.199 18.3789 116.535 17.7148C115.559 16.7383 114.38 16.25 113 16.25C111.62 16.25 110.441 16.7383 109.465 17.7148C108.488 18.6914 108 19.8698 108 21.25C108 22.6302 108.488 23.8086 109.465 24.7852C110.441 25.7617 111.62 26.25 113 26.25C114.38 26.25 115.552 25.7682 116.516 24.8047L119.172 27.4609C117.479 29.1536 115.422 30 113 30C110.578 30 108.514 29.1471 106.809 27.4414C105.103 25.7357 104.25 23.6719 104.25 21.25C104.25 18.8281 105.103 16.7643 106.809 15.0586C108.514 13.3529 110.578 12.5 113 12.5C115.422 12.5 117.486 13.3529 119.191 15.0586C120.897 16.7643 121.75 18.8281 121.75 21.25C121.75 22.1354 121.639 22.9688 121.418 23.75H113V20H117.844Z" fill="white"/>
</svg>
