<svg width="28" height="28" viewBox="0 0 28 28" fill="none" xmlns="http://www.w3.org/2000/svg">
<path d="M12.6875 14C12.6875 14.3481 12.8258 14.6819 13.0719 14.9281C13.3181 15.1742 13.6519 15.3125 14 15.3125C14.3481 15.3125 14.6819 15.1742 14.9281 14.9281C15.1742 14.6819 15.3125 14.3481 15.3125 14C15.3125 13.6519 15.1742 13.3181 14.9281 13.0719C14.6819 12.8258 14.3481 12.6875 14 12.6875C13.6519 12.6875 13.3181 12.8258 13.0719 13.0719C12.8258 13.3181 12.6875 13.6519 12.6875 14ZM18.1563 14C18.1563 14.3481 18.2945 14.6819 18.5407 14.9281C18.7868 15.1742 19.1207 15.3125 19.4688 15.3125C19.8168 15.3125 20.1507 15.1742 20.3968 14.9281C20.643 14.6819 20.7813 14.3481 20.7813 14C20.7813 13.6519 20.643 13.3181 20.3968 13.0719C20.1507 12.8258 19.8168 12.6875 19.4688 12.6875C19.1207 12.6875 18.7868 12.8258 18.5407 13.0719C18.2945 13.3181 18.1563 13.6519 18.1563 14ZM7.21875 14C7.21875 14.3481 7.35703 14.6819 7.60317 14.9281C7.84932 15.1742 8.18316 15.3125 8.53125 15.3125C8.87935 15.3125 9.21319 15.1742 9.45933 14.9281C9.70547 14.6819 9.84375 14.3481 9.84375 14C9.84375 13.6519 9.70547 13.3181 9.45933 13.0719C9.21319 12.8258 8.87935 12.6875 8.53125 12.6875C8.18316 12.6875 7.84932 12.8258 7.60317 13.0719C7.35703 13.3181 7.21875 13.6519 7.21875 14ZM25.2984 9.25312C24.6805 7.78477 23.7945 6.4668 22.6652 5.33477C21.5438 4.20931 20.2126 3.3147 18.7469 2.70156C17.243 2.06992 15.6461 1.75 14 1.75H13.9453C12.2883 1.7582 10.6832 2.08633 9.17383 2.73164C7.72068 3.35107 6.40192 4.24727 5.29102 5.37031C4.17266 6.49961 3.29492 7.81211 2.68789 9.275C2.05899 10.7898 1.7418 12.4004 1.75 14.0574C1.75928 15.9564 2.20853 17.8273 3.0625 19.5234V23.6797C3.0625 24.0133 3.19502 24.3332 3.43091 24.5691C3.66679 24.805 3.98672 24.9375 4.32031 24.9375H8.4793C10.1754 25.7915 12.0464 26.2407 13.9453 26.25H14.0027C15.6406 26.25 17.2293 25.9328 18.725 25.3121C20.1833 24.7063 21.5096 23.8221 22.6297 22.709C23.759 21.5906 24.6477 20.2836 25.2684 18.8262C25.9137 17.3168 26.2418 15.7117 26.25 14.0547C26.2582 12.3895 25.9355 10.7734 25.2984 9.25312ZM21.1668 21.2297C19.25 23.1273 16.707 24.1719 14 24.1719H13.9535C12.3047 24.1637 10.6668 23.7535 9.22031 22.9824L8.99063 22.8594H5.14063V19.0094L5.01758 18.7797C4.24649 17.3332 3.83633 15.6953 3.82813 14.0465C3.81719 11.3203 4.85899 8.76094 6.77032 6.8332C8.67891 4.90547 11.2301 3.83906 13.9563 3.82812H14.0027C15.3699 3.82812 16.6961 4.09336 17.9457 4.61836C19.1652 5.12969 20.259 5.86523 21.1996 6.80586C22.1375 7.74375 22.8758 8.84023 23.3871 10.0598C23.9176 11.323 24.1828 12.6629 24.1773 14.0465C24.1609 16.7699 23.0918 19.3211 21.1668 21.2297Z" fill="#32FF9D"/>
</svg>
