<svg width="7" height="7" viewBox="0 0 7 7" fill="none" xmlns="http://www.w3.org/2000/svg">
<path d="M6.98613 4.46588C6.76438 5.1899 6.31999 5.82553 5.71617 6.28231C5.18604 6.68139 4.5552 6.92479 3.89446 6.98518C3.23371 7.04558 2.56921 6.92058 1.97554 6.62421C1.38188 6.32785 0.88254 5.87185 0.533582 5.3074C0.184624 4.74295 -0.000143887 4.09239 1.67982e-05 3.42875C-0.00236878 2.65413 0.249394 1.90012 0.716682 1.2824C1.17336 0.678448 1.80885 0.233953 2.53271 0.0121616C2.58042 -0.00253181 2.63123 -0.00393882 2.67968 0.00809192C2.72813 0.0201227 2.77238 0.045136 2.80768 0.0804417C2.84298 0.115747 2.86798 0.16001 2.88001 0.208469C2.89204 0.256927 2.89063 0.307749 2.87594 0.355468C2.71766 0.879157 2.70439 1.43599 2.83754 1.96663C2.9707 2.49727 3.24529 2.98183 3.63206 3.36869C4.01883 3.75554 4.50329 4.0302 5.03381 4.16338C5.56433 4.29657 6.12104 4.28329 6.64461 4.12497C6.69232 4.11028 6.74313 4.10887 6.79158 4.1209C6.84003 4.13293 6.88428 4.15795 6.91958 4.19325C6.95487 4.22856 6.97988 4.27282 6.99191 4.32128C7.00394 4.36974 7.00253 4.42056 6.98784 4.46828L6.98613 4.46588Z" fill="#4B6690"/>
</svg>
