<svg width="213" height="22" viewBox="0 0 213 22" fill="none" xmlns="http://www.w3.org/2000/svg">
<path d="M4.0752 13.1436C4.55762 13.4229 5.09505 13.5625 5.6875 13.5625C6.58464 13.5625 7.35059 13.2451 7.98535 12.6104C8.62012 11.9756 8.9375 11.2096 8.9375 10.3125C8.9375 9.41536 8.62012 8.64941 7.98535 8.01465C7.35059 7.37988 6.58464 7.0625 5.6875 7.0625C4.79036 7.0625 4.02441 7.37988 3.38965 8.01465C2.77181 8.63249 2.45443 9.36882 2.4375 10.2236V19.25H0V10.3125C0 8.73828 0.554362 7.39681 1.66309 6.28809C2.77181 5.17936 4.11328 4.625 5.6875 4.625C7.26172 4.625 8.60319 5.17936 9.71191 6.28809C10.8206 7.39681 11.375 8.73828 11.375 10.3125C11.375 11.8867 10.8206 13.2282 9.71191 14.3369C8.60319 15.4456 7.26172 16 5.6875 16C5.12044 16 4.58301 15.9281 4.0752 15.7842V13.1436ZM20.9498 15.7842C20.442 15.9281 19.9046 16 19.3375 16C17.7633 16 16.4218 15.4456 15.3131 14.3369C14.2044 13.2282 13.65 11.8867 13.65 10.3125C13.65 8.73828 14.2044 7.39681 15.3131 6.28809C16.4218 5.17936 17.7633 4.625 19.3375 4.625C20.9117 4.625 22.2532 5.17936 23.3619 6.28809C24.4706 7.39681 25.025 8.73828 25.025 10.3125V16H22.5875V10.2236C22.5706 9.36882 22.2532 8.63249 21.6354 8.01465C21.0006 7.37988 20.2346 7.0625 19.3375 7.0625C18.4404 7.0625 17.6744 7.37988 17.0396 8.01465C16.4049 8.64941 16.0875 9.41536 16.0875 10.3125C16.0875 11.2096 16.4049 11.9756 17.0396 12.6104C17.6744 13.2451 18.4404 13.5625 19.3375 13.5625C19.9299 13.5625 20.4674 13.4229 20.9498 13.1436V15.7842ZM20.9625 10.3125C20.9625 10.7611 20.8017 11.1462 20.4801 11.4678C20.1669 11.7809 19.7861 11.9375 19.3375 11.9375C18.8889 11.9375 18.5038 11.7809 18.1822 11.4678C17.8691 11.1462 17.7125 10.7611 17.7125 10.3125C17.7125 9.86393 17.8691 9.48307 18.1822 9.16992C18.5038 8.84831 18.8889 8.6875 19.3375 8.6875C19.7861 8.6875 20.1669 8.84831 20.4801 9.16992C20.8017 9.48307 20.9625 9.86393 20.9625 10.3125ZM37.0119 14.3369C35.9032 15.4456 34.5617 16 32.9875 16C31.4133 16 30.0718 15.4456 28.9631 14.3369C27.8544 13.2282 27.3 11.8867 27.3 10.3125C27.3 8.73828 27.8544 7.39681 28.9631 6.28809C30.0718 5.17936 31.4133 4.625 32.9875 4.625C34.5617 4.625 35.9032 5.17936 37.0119 6.28809L37.0246 6.30078L35.298 8.02734L35.2854 8.01465C34.6506 7.37988 33.8846 7.0625 32.9875 7.0625C32.0904 7.0625 31.3244 7.37988 30.6896 8.01465C30.0549 8.64941 29.7375 9.41536 29.7375 10.3125C29.7375 11.2096 30.0549 11.9756 30.6896 12.6104C31.3244 13.2451 32.0904 13.5625 32.9875 13.5625C33.8846 13.5625 34.6506 13.2451 35.2854 12.6104L35.298 12.5977L37.0246 14.3242L37.0119 14.3369ZM31.3625 10.3125C31.3625 9.86393 31.5191 9.48307 31.8322 9.16992C32.1538 8.84831 32.5389 8.6875 32.9875 8.6875C33.4361 8.6875 33.8169 8.84831 34.1301 9.16992C34.4517 9.48307 34.6125 9.86393 34.6125 10.3125C34.6125 10.7611 34.4517 11.1462 34.1301 11.4678C33.8169 11.7809 33.4361 11.9375 32.9875 11.9375C32.5389 11.9375 32.1538 11.7809 31.8322 11.4678C31.5191 11.1462 31.3625 10.7611 31.3625 10.3125ZM43.3875 10.3125C44.9617 10.3125 46.3032 10.8669 47.4119 11.9756C48.5206 13.0843 49.075 14.4258 49.075 16H46.6375C46.6375 15.1029 46.3201 14.3369 45.6854 13.7021C45.0506 13.0674 44.2846 12.75 43.3875 12.75V10.3125ZM41.7625 1.375V16H39.325V1.375H41.7625ZM46.1805 4.625L43.3875 8.6875H46.2439L49.075 4.625H46.1805ZM58.6498 15.7842C58.142 15.9281 57.6046 16 57.0375 16C55.4633 16 54.1218 15.4456 53.0131 14.3369C51.9044 13.2282 51.35 11.8867 51.35 10.3125C51.35 8.73828 51.9044 7.39681 53.0131 6.28809C54.1218 5.17936 55.4633 4.625 57.0375 4.625C58.6117 4.625 59.9532 5.17936 61.0619 6.28809C62.1706 7.39681 62.725 8.73828 62.725 10.3125V16H60.2875V10.2236C60.2706 9.36882 59.9532 8.63249 59.3354 8.01465C58.7006 7.37988 57.9346 7.0625 57.0375 7.0625C56.1404 7.0625 55.3744 7.37988 54.7396 8.01465C54.1049 8.64941 53.7875 9.41536 53.7875 10.3125C53.7875 11.2096 54.1049 11.9756 54.7396 12.6104C55.3744 13.2451 56.1404 13.5625 57.0375 13.5625C57.6299 13.5625 58.1674 13.4229 58.6498 13.1436V15.7842ZM58.6625 10.3125C58.6625 10.7611 58.5017 11.1462 58.1801 11.4678C57.8669 11.7809 57.4861 11.9375 57.0375 11.9375C56.5889 11.9375 56.2038 11.7809 55.8822 11.4678C55.5691 11.1462 55.4125 10.7611 55.4125 10.3125C55.4125 9.86393 55.5691 9.48307 55.8822 9.16992C56.2038 8.84831 56.5889 8.6875 57.0375 8.6875C57.4861 8.6875 57.8669 8.84831 58.1801 9.16992C58.5017 9.48307 58.6625 9.86393 58.6625 10.3125ZM76.375 16C76.375 17.5742 75.8206 18.9157 74.7119 20.0244C73.6032 21.1331 72.2617 21.6875 70.6875 21.6875V19.25C71.5846 19.25 72.3506 18.9326 72.9854 18.2979C73.6201 17.6631 73.9375 16.8971 73.9375 16V10.2236C73.9206 9.36882 73.6032 8.63249 72.9854 8.01465C72.3506 7.37988 71.5846 7.0625 70.6875 7.0625C69.7904 7.0625 69.0244 7.37988 68.3896 8.01465C67.7549 8.64941 67.4375 9.41536 67.4375 10.3125C67.4375 11.2096 67.7549 11.9756 68.3896 12.6104C69.0244 13.2451 69.7904 13.5625 70.6875 13.5625C71.2799 13.5625 71.8174 13.4229 72.2998 13.1436V15.7842C71.792 15.9281 71.2546 16 70.6875 16C69.1133 16 67.7718 15.4456 66.6631 14.3369C65.5544 13.2282 65 11.8867 65 10.3125C65 8.73828 65.5544 7.39681 66.6631 6.28809C67.7718 5.17936 69.1133 4.625 70.6875 4.625C72.2617 4.625 73.6032 5.17936 74.7119 6.28809C75.8206 7.39681 76.375 8.73828 76.375 10.3125V16ZM72.3125 10.3125C72.3125 10.7611 72.1517 11.1462 71.8301 11.4678C71.5169 11.7809 71.1361 11.9375 70.6875 11.9375C70.2389 11.9375 69.8538 11.7809 69.5322 11.4678C69.2191 11.1462 69.0625 10.7611 69.0625 10.3125C69.0625 9.86393 69.2191 9.48307 69.5322 9.16992C69.8538 8.84831 70.2389 8.6875 70.6875 8.6875C71.1361 8.6875 71.5169 8.84831 71.8301 9.16992C72.1517 9.48307 72.3125 9.86393 72.3125 10.3125ZM87.4859 9.5C87.3505 8.94141 87.067 8.44629 86.6354 8.01465C86.0006 7.37988 85.2346 7.0625 84.3375 7.0625C83.4404 7.0625 82.6744 7.37988 82.0396 8.01465C81.4049 8.64941 81.0875 9.41536 81.0875 10.3125C81.0875 11.2096 81.4049 11.9756 82.0396 12.6104C82.6744 13.2451 83.4404 13.5625 84.3375 13.5625C85.2346 13.5625 85.9964 13.2493 86.6227 12.623L88.3492 14.3496C87.249 15.4499 85.9117 16 84.3375 16C82.7633 16 81.4218 15.4456 80.3131 14.3369C79.2044 13.2282 78.65 11.8867 78.65 10.3125C78.65 8.73828 79.2044 7.39681 80.3131 6.28809C81.4218 5.17936 82.7633 4.625 84.3375 4.625C85.9117 4.625 87.2532 5.17936 88.3619 6.28809C89.4706 7.39681 90.025 8.73828 90.025 10.3125C90.025 10.888 89.9531 11.4297 89.8092 11.9375H84.3375V9.5H87.4859ZM95.55 4.625H97.175V7.0625H95.9182C95.0549 7.07096 94.6359 7.24023 94.6613 7.57031C94.6613 8.0612 95.5627 8.53092 97.3654 8.97949C98.6857 9.30957 99.604 9.72005 100.12 10.2109C100.645 10.7018 100.907 11.4085 100.907 12.3311C100.907 13.5413 100.556 14.4554 99.8537 15.0732C99.1512 15.6911 98.1229 16 96.7688 16H92.3L92.2873 13.5625H96.7053C97.7717 13.5202 98.326 13.2409 98.3684 12.7246C98.3684 12.2845 98.0214 11.9756 97.3273 11.7979C94.9829 11.2139 93.5568 10.6341 93.049 10.0586C92.5497 9.47461 92.3 8.77214 92.3 7.95117C92.3 5.7168 93.3833 4.60807 95.55 4.625ZM110.662 7.0625V10.3125C110.662 11.2096 110.98 11.9756 111.615 12.6104C112.249 13.2451 113.015 13.5625 113.912 13.5625V16C112.338 16 110.997 15.4456 109.888 14.3369C108.779 13.2282 108.225 11.8867 108.225 10.3125V1.375H110.662V4.625H113.912V7.0625H110.662ZM121.875 16C120.301 16 118.959 15.4456 117.851 14.3369C116.742 13.2282 116.188 11.8867 116.188 10.3125C116.188 8.73828 116.742 7.39681 117.851 6.28809C118.959 5.17936 120.301 4.625 121.875 4.625C123.449 4.625 124.791 5.17936 125.899 6.28809C127.008 7.39681 127.562 8.73828 127.562 10.3125C127.562 11.8867 127.008 13.2282 125.899 14.3369C124.791 15.4456 123.449 16 121.875 16ZM121.875 13.5625C122.772 13.5625 123.538 13.2451 124.173 12.6104C124.808 11.9756 125.125 11.2096 125.125 10.3125C125.125 9.41536 124.808 8.64941 124.173 8.01465C123.538 7.37988 122.772 7.0625 121.875 7.0625C120.978 7.0625 120.212 7.37988 119.577 8.01465C118.942 8.64941 118.625 9.41536 118.625 10.3125C118.625 11.2096 118.942 11.9756 119.577 12.6104C120.212 13.2451 120.978 13.5625 121.875 13.5625ZM123.5 10.3125C123.5 10.7611 123.339 11.1462 123.018 11.4678C122.704 11.7809 122.324 11.9375 121.875 11.9375C121.426 11.9375 121.041 11.7809 120.72 11.4678C120.407 11.1462 120.25 10.7611 120.25 10.3125C120.25 9.86393 120.407 9.48307 120.72 9.16992C121.041 8.84831 121.426 8.6875 121.875 8.6875C122.324 8.6875 122.704 8.84831 123.018 9.16992C123.339 9.48307 123.5 9.86393 123.5 10.3125ZM141.05 7.0625C140.153 7.0625 139.387 7.37988 138.752 8.01465C138.117 8.64941 137.8 9.41536 137.8 10.3125V16H135.363V10.3125C135.363 8.73828 135.917 7.39681 137.026 6.28809C138.134 5.17936 139.476 4.625 141.05 4.625V7.0625ZM152.161 9.5C152.026 8.94141 151.742 8.44629 151.31 8.01465C150.676 7.37988 149.91 7.0625 149.012 7.0625C148.115 7.0625 147.349 7.37988 146.715 8.01465C146.08 8.64941 145.762 9.41536 145.762 10.3125C145.762 11.2096 146.08 11.9756 146.715 12.6104C147.349 13.2451 148.115 13.5625 149.012 13.5625C149.91 13.5625 150.671 13.2493 151.298 12.623L153.024 14.3496C151.924 15.4499 150.587 16 149.012 16C147.438 16 146.097 15.4456 144.988 14.3369C143.879 13.2282 143.325 11.8867 143.325 10.3125C143.325 8.73828 143.879 7.39681 144.988 6.28809C146.097 5.17936 147.438 4.625 149.012 4.625C150.587 4.625 151.928 5.17936 153.037 6.28809C154.146 7.39681 154.7 8.73828 154.7 10.3125C154.7 10.888 154.628 11.4297 154.484 11.9375H149.012V9.5H152.161ZM166.687 14.3369C165.578 15.4456 164.237 16 162.663 16C161.088 16 159.747 15.4456 158.638 14.3369C157.529 13.2282 156.975 11.8867 156.975 10.3125C156.975 8.73828 157.529 7.39681 158.638 6.28809C159.747 5.17936 161.088 4.625 162.663 4.625C164.237 4.625 165.578 5.17936 166.687 6.28809L166.7 6.30078L164.973 8.02734L164.96 8.01465C164.326 7.37988 163.56 7.0625 162.663 7.0625C161.765 7.0625 160.999 7.37988 160.365 8.01465C159.73 8.64941 159.413 9.41536 159.413 10.3125C159.413 11.2096 159.73 11.9756 160.365 12.6104C160.999 13.2451 161.765 13.5625 162.663 13.5625C163.56 13.5625 164.326 13.2451 164.96 12.6104L164.973 12.5977L166.7 14.3242L166.687 14.3369ZM161.038 10.3125C161.038 9.86393 161.194 9.48307 161.507 9.16992C161.829 8.84831 162.214 8.6875 162.663 8.6875C163.111 8.6875 163.492 8.84831 163.805 9.16992C164.127 9.48307 164.288 9.86393 164.288 10.3125C164.288 10.7611 164.127 11.1462 163.805 11.4678C163.492 11.7809 163.111 11.9375 162.663 11.9375C162.214 11.9375 161.829 11.7809 161.507 11.4678C161.194 11.1462 161.038 10.7611 161.038 10.3125ZM177.836 9.5C177.701 8.94141 177.417 8.44629 176.985 8.01465C176.351 7.37988 175.585 7.0625 174.688 7.0625C173.79 7.0625 173.024 7.37988 172.39 8.01465C171.755 8.64941 171.438 9.41536 171.438 10.3125C171.438 11.2096 171.755 11.9756 172.39 12.6104C173.024 13.2451 173.79 13.5625 174.688 13.5625C175.585 13.5625 176.346 13.2493 176.973 12.623L178.699 14.3496C177.599 15.4499 176.262 16 174.688 16C173.113 16 171.772 15.4456 170.663 14.3369C169.554 13.2282 169 11.8867 169 10.3125C169 8.73828 169.554 7.39681 170.663 6.28809C171.772 5.17936 173.113 4.625 174.688 4.625C176.262 4.625 177.603 5.17936 178.712 6.28809C179.821 7.39681 180.375 8.73828 180.375 10.3125C180.375 10.888 180.303 11.4297 180.159 11.9375H174.688V9.5H177.836ZM185.087 4.625V16H182.65V4.625H185.087ZM185.43 2.1875C185.43 2.63607 185.269 3.02116 184.948 3.34277C184.635 3.65592 184.254 3.8125 183.805 3.8125C183.357 3.8125 182.972 3.65592 182.65 3.34277C182.337 3.02116 182.18 2.63607 182.18 2.1875C182.18 1.73893 182.337 1.35807 182.65 1.04492C182.972 0.723307 183.357 0.5625 183.805 0.5625C184.254 0.5625 184.635 0.723307 184.948 1.04492C185.269 1.35807 185.43 1.73893 185.43 2.1875ZM187.363 4.625H190.27L193.05 10.3125L195.868 4.625H198.738L193.05 16L187.363 4.625ZM209.848 9.5C209.713 8.94141 209.429 8.44629 208.998 8.01465C208.363 7.37988 207.597 7.0625 206.7 7.0625C205.803 7.0625 205.037 7.37988 204.402 8.01465C203.767 8.64941 203.45 9.41536 203.45 10.3125C203.45 11.2096 203.767 11.9756 204.402 12.6104C205.037 13.2451 205.803 13.5625 206.7 13.5625C207.597 13.5625 208.359 13.2493 208.985 12.623L210.712 14.3496C209.611 15.4499 208.274 16 206.7 16C205.126 16 203.784 15.4456 202.676 14.3369C201.567 13.2282 201.012 11.8867 201.012 10.3125C201.012 8.73828 201.567 7.39681 202.676 6.28809C203.784 5.17936 205.126 4.625 206.7 4.625C208.274 4.625 209.616 5.17936 210.724 6.28809C211.833 7.39681 212.387 8.73828 212.387 10.3125C212.387 10.888 212.316 11.4297 212.172 11.9375H206.7V9.5H209.848Z" fill="white"/>
</svg>
