<svg width="113" height="106" viewBox="0 0 113 106" fill="none" xmlns="http://www.w3.org/2000/svg">
<path d="M108.559 87.4728C108.77 87.4524 108.983 87.4991 109.163 87.61C112.434 89.6213 113.642 91.7916 112.678 93.939C111.688 96.1464 108.434 98.2614 103.206 100.097C97.9773 101.932 90.9353 103.431 82.7035 104.46C74.4717 105.49 65.3042 106.019 56.0131 105.999C46.722 105.98 37.594 105.414 29.4377 104.351C21.2814 103.287 14.3485 101.76 9.25319 99.9032C4.15789 98.0467 1.05742 95.9186 0.226424 93.7074C-0.583212 91.5531 0.785774 89.3846 4.21344 87.3845C4.39157 87.2805 4.59923 87.2376 4.80442 87.2584L14.0131 88.1921C14.9842 88.2906 15.2967 89.6805 14.6551 90.4161C13.7989 91.3977 13.5492 92.4076 13.9272 93.4134C14.5559 95.0863 16.9015 96.6963 20.7562 98.1008C24.611 99.5053 29.8559 100.661 36.0264 101.465C42.197 102.27 49.1026 102.698 56.1316 102.713C63.1607 102.727 70.0962 102.327 76.3238 101.548C82.5515 100.769 87.879 99.6355 91.8345 98.2471C95.79 96.8587 98.2514 95.2586 99.0006 93.5886C99.4495 92.588 99.2755 91.5808 98.4973 90.5991C97.896 89.8408 98.2203 88.4712 99.1836 88.3781L108.559 87.4728Z" fill="#D9D9D9"/>
<path d="M78.1964 15.1415L70.5964 10.763C63.9236 6.92238 60.5872 5 57 5C53.4128 5 50.0764 6.91821 43.4036 10.763L42.1838 11.4677L76.0912 32.7306L91.352 24.3489C88.8972 21.2964 84.9376 19.0154 78.1964 15.1331M94.0424 29.87L78.85 38.21V50.8702C78.85 51.6996 78.5497 52.4951 78.0153 53.0817C77.4808 53.6682 76.7559 53.9977 76 53.9977C75.2441 53.9977 74.5192 53.6682 73.9847 53.0817C73.4503 52.4951 73.15 51.6996 73.15 50.8702V41.3375L59.85 48.635V88C62.5784 87.2536 65.683 85.4688 70.5964 82.6374L78.1964 78.2589C86.3702 73.5509 90.459 71.199 92.7314 66.9664C95 62.738 95 57.4713 95 46.9504V46.4625C95 38.5686 95 33.6313 94.0424 29.87ZM54.15 88V48.635L19.9576 29.87C19 33.6313 19 38.5686 19 46.4541V46.942C19 57.4713 19 62.738 21.2686 66.9664C23.541 71.199 27.6298 73.5551 35.8036 78.263L43.4036 82.6374C48.317 85.4688 51.4216 87.2536 54.15 88ZM22.648 24.353L57 43.2015L69.9618 36.0916L36.195 14.9163L35.8036 15.1415C29.0662 19.0196 25.1028 21.3006 22.648 24.3572" fill="#32FF9D"/>
<circle cx="95" cy="5" r="5" fill="#32FF9D"/>
</svg>
