<svg width="187" height="186" viewBox="0 0 187 186" fill="none" xmlns="http://www.w3.org/2000/svg">
<g filter="url(#filter0_f_652_3017)">
<rect x="8" y="8" width="171" height="170" rx="30" fill="url(#paint0_linear_652_3017)"/>
<rect x="9.5" y="9.5" width="168" height="167" rx="28.5" stroke="white" stroke-width="3"/>
</g>
<rect x="8" y="8" width="171" height="170" rx="30" fill="url(#paint1_linear_652_3017)"/>
<circle cx="93.5" cy="110.5" r="33" stroke="#BEF8DC" stroke-width="3" stroke-linejoin="bevel" stroke-dasharray="2 2"/>
<g filter="url(#filter1_d_652_3017)">
<path d="M27.752 39C27.416 39 27.248 38.832 27.248 38.496V31.368C27.248 31.032 27.416 30.864 27.752 30.864H30.56C31.292 30.864 31.852 31.06 32.24 31.452C32.632 31.84 32.828 32.4 32.828 33.132V33.492C32.828 34.224 32.632 34.786 32.24 35.178C31.852 35.566 31.292 35.76 30.56 35.76H28.256V38.496C28.256 38.832 28.088 39 27.752 39ZM28.256 34.752H30.56C31.016 34.752 31.34 34.656 31.532 34.464C31.724 34.272 31.82 33.948 31.82 33.492V33.132C31.82 32.68 31.724 32.358 31.532 32.166C31.34 31.97 31.016 31.872 30.56 31.872H28.256V34.752ZM35.693 36.372V36.66C35.693 37.176 35.787 37.528 35.975 37.716C36.163 37.9 36.517 37.992 37.037 37.992H38.021C38.429 37.992 38.731 37.954 38.927 37.878C39.123 37.802 39.253 37.668 39.317 37.476C39.361 37.324 39.421 37.208 39.497 37.128C39.577 37.048 39.697 37.008 39.857 37.008C40.025 37.008 40.153 37.052 40.241 37.14C40.329 37.228 40.357 37.356 40.325 37.524C40.237 38.02 40.001 38.39 39.617 38.634C39.233 38.878 38.701 39 38.021 39H37.037C36.241 39 35.649 38.808 35.261 38.424C34.877 38.04 34.685 37.452 34.685 36.66V35.268C34.685 34.456 34.877 33.86 35.261 33.48C35.649 33.096 36.241 32.908 37.037 32.916H38.021C38.821 32.916 39.413 33.108 39.797 33.492C40.181 33.872 40.373 34.464 40.373 35.268V35.868C40.373 36.204 40.205 36.372 39.869 36.372H35.693ZM37.037 33.924C36.517 33.916 36.163 34.006 35.975 34.194C35.787 34.382 35.693 34.74 35.693 35.268V35.364H39.365V35.268C39.365 34.744 39.271 34.39 39.083 34.206C38.899 34.018 38.545 33.924 38.021 33.924H37.037ZM43.6825 39C43.3465 39 43.1785 38.832 43.1785 38.496V33.42C43.1785 33.084 43.3465 32.916 43.6825 32.916C44.0185 32.916 44.1865 33.084 44.1865 33.42V33.618C44.6105 33.15 45.2345 32.916 46.0585 32.916H46.3945C47.1945 32.916 47.7865 33.108 48.1705 33.492C48.5545 33.876 48.7465 34.468 48.7465 35.268V38.496C48.7465 38.832 48.5785 39 48.2425 39C47.9065 39 47.7385 38.832 47.7385 38.496V35.268C47.7385 34.744 47.6425 34.39 47.4505 34.206C47.2625 34.018 46.9105 33.924 46.3945 33.924H46.0585C45.5785 33.924 45.1605 33.98 44.8045 34.092C44.4485 34.2 44.2425 34.372 44.1865 34.608V38.496C44.1865 38.832 44.0185 39 43.6825 39ZM53.7878 39C52.9918 39 52.3998 38.808 52.0118 38.424C51.6278 38.036 51.4358 37.444 51.4358 36.648V35.268C51.4358 34.468 51.6278 33.876 52.0118 33.492C52.3998 33.108 52.9918 32.916 53.7878 32.916H56.1158V31.056C56.1158 30.72 56.2838 30.552 56.6198 30.552C56.9558 30.552 57.1238 30.72 57.1238 31.056V38.496C57.1238 38.832 56.9558 39 56.6198 39C56.2838 39 56.1158 38.832 56.1158 38.496V38.412C55.9278 38.604 55.6818 38.75 55.3778 38.85C55.0738 38.95 54.6958 39 54.2438 39H53.7878ZM53.7878 37.992H54.2438C54.7718 37.992 55.2158 37.924 55.5758 37.788C55.9358 37.652 56.1158 37.444 56.1158 37.164V33.924H53.7878C53.2678 33.924 52.9138 34.02 52.7258 34.212C52.5378 34.4 52.4438 34.752 52.4438 35.268V36.648C52.4438 37.168 52.5378 37.522 52.7258 37.71C52.9178 37.898 53.2718 37.992 53.7878 37.992ZM60.441 31.932C60.061 31.932 59.871 31.74 59.871 31.356V31.002C59.871 30.626 60.061 30.438 60.441 30.438H60.789C61.153 30.438 61.335 30.626 61.335 31.002V31.356C61.335 31.74 61.153 31.932 60.789 31.932H60.441ZM60.609 39C60.273 39 60.105 38.832 60.105 38.496V33.42C60.105 33.084 60.273 32.916 60.609 32.916C60.945 32.916 61.113 33.084 61.113 33.42V38.496C61.113 38.832 60.945 39 60.609 39ZM64.7129 39C64.3769 39 64.2089 38.832 64.2089 38.496V33.42C64.2089 33.084 64.3769 32.916 64.7129 32.916C65.0489 32.916 65.2169 33.084 65.2169 33.42V33.618C65.6409 33.15 66.2649 32.916 67.0889 32.916H67.4249C68.2249 32.916 68.8169 33.108 69.2009 33.492C69.5849 33.876 69.7769 34.468 69.7769 35.268V38.496C69.7769 38.832 69.6089 39 69.2729 39C68.9369 39 68.7689 38.832 68.7689 38.496V35.268C68.7689 34.744 68.6729 34.39 68.4809 34.206C68.2929 34.018 67.9409 33.924 67.4249 33.924H67.0889C66.6089 33.924 66.1909 33.98 65.8349 34.092C65.4789 34.2 65.2729 34.372 65.2169 34.608V38.496C65.2169 38.832 65.0489 39 64.7129 39ZM74.1942 41.4C73.7102 41.4 73.3282 41.302 73.0482 41.106C72.7722 40.91 72.5942 40.612 72.5142 40.212C72.4862 40.044 72.5162 39.912 72.6042 39.816C72.6922 39.72 72.8262 39.672 73.0062 39.672C73.1582 39.672 73.2682 39.712 73.3362 39.792C73.4082 39.876 73.4702 40 73.5222 40.164C73.5702 40.252 73.6442 40.312 73.7442 40.344C73.8482 40.376 73.9982 40.392 74.1942 40.392H76.4262C76.7262 40.392 76.9202 40.344 77.0082 40.248C77.1002 40.156 77.1462 39.964 77.1462 39.672V38.274C76.9302 38.51 76.6622 38.69 76.3422 38.814C76.0262 38.938 75.6702 39 75.2742 39H74.8182C74.0222 39 73.4302 38.808 73.0422 38.424C72.6582 38.04 72.4662 37.452 72.4662 36.66V35.268C72.4662 34.464 72.6562 33.872 73.0362 33.492C73.4202 33.108 74.0142 32.916 74.8182 32.916H75.8022C76.0862 32.916 76.3402 32.958 76.5642 33.042C76.7922 33.126 76.9862 33.254 77.1462 33.426V33.42C77.1462 33.084 77.3142 32.916 77.6502 32.916C77.9862 32.916 78.1542 33.084 78.1542 33.42V39.672C78.1542 40.26 78.0122 40.694 77.7282 40.974C77.4482 41.258 77.0142 41.4 76.4262 41.4H74.1942ZM74.8182 37.992H75.2742C75.8022 37.992 76.2462 37.926 76.6062 37.794C76.9662 37.662 77.1462 37.452 77.1462 37.164V34.764C77.1462 34.44 77.0282 34.22 76.7922 34.104C76.5602 33.984 76.2302 33.924 75.8022 33.924H74.8182C74.3022 33.924 73.9482 34.016 73.7562 34.2C73.5682 34.384 73.4742 34.74 73.4742 35.268V36.66C73.4742 37.168 73.5682 37.518 73.7562 37.71C73.9442 37.898 74.2982 37.992 74.8182 37.992ZM87.9089 39C86.9929 39 86.3149 38.782 85.8749 38.346C85.4389 37.906 85.2209 37.228 85.2209 36.312V33.54C85.2209 32.616 85.4409 31.938 85.8809 31.506C86.3209 31.07 86.9969 30.856 87.9089 30.864H89.3489C90.2689 30.864 90.9469 31.082 91.3829 31.518C91.8189 31.954 92.0369 32.632 92.0369 33.552V36.312C92.0369 37.228 91.8189 37.906 91.3829 38.346C90.9469 38.782 90.2689 39 89.3489 39H87.9089ZM87.9089 37.992H89.3489C89.7769 37.992 90.1129 37.942 90.3569 37.842C90.6009 37.738 90.7729 37.564 90.8729 37.32C90.9769 37.076 91.0289 36.74 91.0289 36.312V33.552C91.0289 33.128 90.9769 32.794 90.8729 32.55C90.7729 32.306 90.6009 32.132 90.3569 32.028C90.1129 31.924 89.7769 31.872 89.3489 31.872H87.9089C87.4849 31.868 87.1509 31.916 86.9069 32.016C86.6629 32.116 86.4889 32.288 86.3849 32.532C86.2809 32.776 86.2289 33.112 86.2289 33.54V36.312C86.2289 36.74 86.2789 37.076 86.3789 37.32C86.4829 37.564 86.6569 37.738 86.9009 37.842C87.1449 37.942 87.4809 37.992 87.9089 37.992ZM95.3434 39C95.0074 39 94.8394 38.832 94.8394 38.496V33.42C94.8394 33.084 95.0074 32.916 95.3434 32.916C95.6794 32.916 95.8474 33.084 95.8474 33.42V33.888C96.0834 33.568 96.3834 33.326 96.7474 33.162C97.1154 32.998 97.5354 32.916 98.0074 32.916C98.3434 32.916 98.5114 33.084 98.5114 33.42C98.5114 33.756 98.3434 33.924 98.0074 33.924C97.3154 33.924 96.7874 34.052 96.4234 34.308C96.0594 34.564 95.8674 34.902 95.8474 35.322V38.496C95.8474 38.832 95.6794 39 95.3434 39ZM102.39 39C101.594 39 101.002 38.808 100.614 38.424C100.23 38.036 100.038 37.444 100.038 36.648V35.268C100.038 34.468 100.23 33.876 100.614 33.492C101.002 33.108 101.594 32.916 102.39 32.916H104.718V31.056C104.718 30.72 104.886 30.552 105.222 30.552C105.558 30.552 105.726 30.72 105.726 31.056V38.496C105.726 38.832 105.558 39 105.222 39C104.886 39 104.718 38.832 104.718 38.496V38.412C104.53 38.604 104.284 38.75 103.98 38.85C103.676 38.95 103.298 39 102.846 39H102.39ZM102.39 37.992H102.846C103.374 37.992 103.818 37.924 104.178 37.788C104.538 37.652 104.718 37.444 104.718 37.164V33.924H102.39C101.87 33.924 101.516 34.02 101.328 34.212C101.14 34.4 101.046 34.752 101.046 35.268V36.648C101.046 37.168 101.14 37.522 101.328 37.71C101.52 37.898 101.874 37.992 102.39 37.992ZM109.427 36.372V36.66C109.427 37.176 109.521 37.528 109.709 37.716C109.897 37.9 110.251 37.992 110.771 37.992H111.755C112.163 37.992 112.465 37.954 112.661 37.878C112.857 37.802 112.987 37.668 113.051 37.476C113.095 37.324 113.155 37.208 113.231 37.128C113.311 37.048 113.431 37.008 113.591 37.008C113.759 37.008 113.887 37.052 113.975 37.14C114.063 37.228 114.091 37.356 114.059 37.524C113.971 38.02 113.735 38.39 113.351 38.634C112.967 38.878 112.435 39 111.755 39H110.771C109.975 39 109.383 38.808 108.995 38.424C108.611 38.04 108.419 37.452 108.419 36.66V35.268C108.419 34.456 108.611 33.86 108.995 33.48C109.383 33.096 109.975 32.908 110.771 32.916H111.755C112.555 32.916 113.147 33.108 113.531 33.492C113.915 33.872 114.107 34.464 114.107 35.268V35.868C114.107 36.204 113.939 36.372 113.603 36.372H109.427ZM110.771 33.924C110.251 33.916 109.897 34.006 109.709 34.194C109.521 34.382 109.427 34.74 109.427 35.268V35.364H113.099V35.268C113.099 34.744 113.005 34.39 112.817 34.206C112.633 34.018 112.279 33.924 111.755 33.924H110.771ZM117.417 39C117.081 39 116.913 38.832 116.913 38.496V33.42C116.913 33.084 117.081 32.916 117.417 32.916C117.753 32.916 117.921 33.084 117.921 33.42V33.888C118.157 33.568 118.457 33.326 118.821 33.162C119.189 32.998 119.609 32.916 120.081 32.916C120.417 32.916 120.585 33.084 120.585 33.42C120.585 33.756 120.417 33.924 120.081 33.924C119.389 33.924 118.861 34.052 118.497 34.308C118.133 34.564 117.941 34.902 117.921 35.322V38.496C117.921 38.832 117.753 39 117.417 39Z" fill="white"/>
</g>
<rect x="70.5" y="99.5" width="46" height="22" rx="11" stroke="white"/>
<path d="M97.705 116C97.285 116 97.075 115.79 97.075 115.37V107.63L97.42 107.39L95.77 108.935C95.645 109.055 95.5125 109.127 95.3725 109.152C95.2325 109.172 95.095 109.115 94.96 108.98C94.69 108.71 94.705 108.425 95.005 108.125L97.015 106.145C97.225 105.935 97.485 105.83 97.795 105.83C98.155 105.83 98.335 106.04 98.335 106.46V115.37C98.335 115.79 98.125 116 97.705 116ZM104.795 116C103.92 116 103.243 115.817 102.763 115.452C102.288 115.082 102 114.515 101.9 113.75C101.88 113.54 101.925 113.377 102.035 113.262C102.145 113.147 102.305 113.09 102.515 113.09C102.9 113.09 103.115 113.295 103.16 113.705C103.23 114.095 103.388 114.365 103.633 114.515C103.878 114.665 104.265 114.74 104.795 114.74H106.355C107 114.74 107.438 114.622 107.668 114.387C107.903 114.147 108.02 113.71 108.02 113.075V112.04C108.02 111.395 107.903 110.957 107.668 110.727C107.433 110.492 106.995 110.375 106.355 110.375H105.245C104.505 110.375 103.97 110.465 103.64 110.645C103.49 110.735 103.353 110.802 103.228 110.847C103.108 110.892 102.965 110.89 102.8 110.84L102.65 110.795C102.3 110.695 102.125 110.46 102.125 110.09V106.46C102.125 106.04 102.335 105.83 102.755 105.83H108.65C109.07 105.83 109.28 106.04 109.28 106.46C109.28 106.88 109.07 107.09 108.65 107.09H103.385V109.385C103.895 109.205 104.515 109.115 105.245 109.115H106.355C107.345 109.115 108.08 109.355 108.56 109.835C109.04 110.315 109.28 111.05 109.28 112.04V113.075C109.28 114.065 109.04 114.8 108.56 115.28C108.08 115.76 107.345 116 106.355 116H104.795Z" fill="white"/>
<path fill-rule="evenodd" clip-rule="evenodd" d="M83.6467 104.435C83.7526 104.369 83.8751 104.334 84 104.334C84.1249 104.334 84.2474 104.369 84.3533 104.435L88.956 107.312L84 110.227L79.044 107.312L83.6467 104.435ZM78.0053 108.248C78.0017 108.277 77.9999 108.305 78 108.334V113.667C78 113.78 78.0288 113.892 78.0836 113.99C78.1384 114.089 78.2175 114.173 78.3133 114.233L83.3333 117.37V111.382L78.0053 108.248ZM84.6667 117.37L89.6867 114.233C89.7826 114.173 89.8616 114.089 89.9164 113.99C89.9712 113.892 90 113.78 90 113.667V108.334C90 108.305 89.998 108.276 89.9947 108.248L84.6667 111.381V117.37Z" fill="white"/>
<path d="M145 110.5C145 138.943 121.943 162 93.5 162C65.0573 162 42 138.943 42 110.5C42 82.0573 65.0573 59 93.5 59C121.943 59 145 82.0573 145 110.5ZM56.2427 110.5C56.2427 131.077 72.9234 147.757 93.5 147.757C114.077 147.757 130.757 131.077 130.757 110.5C130.757 89.9234 114.077 73.2427 93.5 73.2427C72.9234 73.2427 56.2427 89.9234 56.2427 110.5Z" fill="#BEF8DC"/>
<g filter="url(#filter2_d_652_3017)">
<path d="M93.5 66.1276C93.5 62.1911 90.2938 58.9493 86.395 59.4924C78.7305 60.56 71.3731 63.3462 64.8881 67.6793C56.419 73.3382 49.8181 81.3814 45.9202 90.7918C42.0223 100.202 41.0024 110.557 42.9896 120.547C44.9767 130.537 49.8816 139.714 57.084 146.916C64.2864 154.118 73.4628 159.023 83.4529 161.01C93.4429 162.998 103.798 161.978 113.208 158.08C122.619 154.182 130.662 147.581 136.321 139.112C140.654 132.627 143.44 125.269 144.508 117.605C145.051 113.706 141.809 110.5 137.872 110.5C133.936 110.5 130.814 113.72 130.065 117.584C129.127 122.424 127.233 127.054 124.468 131.192C120.375 137.317 114.559 142.091 107.753 144.91C100.947 147.729 93.4587 148.466 86.2339 147.029C79.0091 145.592 72.3727 142.045 67.1639 136.836C61.9551 131.627 58.4079 124.991 56.9708 117.766C55.5337 110.541 56.2712 103.053 59.0902 96.247C61.9092 89.4414 66.683 83.6245 72.8078 79.532C76.9462 76.7668 81.5758 74.8728 86.4157 73.935C90.2803 73.1863 93.5 70.064 93.5 66.1276Z" fill="white"/>
</g>
<circle cx="153.76" cy="34.76" r="14.76" fill="url(#paint2_linear_652_3017)"/>
<path d="M161.027 38.8954C160.998 39.1939 160.892 39.4797 160.72 39.7242C160.556 39.9611 160.337 40.1547 160.082 40.2883C159.826 40.422 159.543 40.4917 159.254 40.4914H157.007C156.97 40.6939 156.913 40.8912 156.839 41.0824C156.684 41.46 156.457 41.8039 156.171 42.0949C155.882 42.3852 155.538 42.6148 155.159 42.7699C154.797 42.9143 154.412 42.9874 154.022 42.9852H153.938C153.54 42.9855 153.146 42.9046 152.78 42.7474C152.406 42.5931 152.067 42.3666 151.781 42.0809C151.496 41.7952 151.269 41.4559 151.115 41.0824C151.036 40.8924 150.98 40.6942 150.946 40.4914H148.774C148.491 40.5133 148.208 40.4652 147.948 40.3514C147.688 40.2376 147.461 40.0616 147.285 39.8389C147.117 39.569 147.013 39.2644 146.98 38.9482C146.946 38.6321 146.985 38.3124 147.093 38.0134C147.259 37.5694 147.486 37.1509 147.768 36.7699C148.09 36.379 148.304 35.9112 148.391 35.4124C148.391 33.1872 148.391 32.4424 149.603 31.0002C150.002 30.5226 150.499 30.1355 151.06 29.8647L151.667 29.5737C151.692 29.5594 151.714 29.5381 151.727 29.5122C151.756 29.4854 151.774 29.4505 151.781 29.4124C151.872 28.9015 152.145 28.4406 152.549 28.1149C152.648 28.0403 152.769 28 152.894 28C153.018 28 153.139 28.0403 153.239 28.1149C153.341 28.1872 153.418 28.29 153.458 28.4086C153.498 28.5272 153.499 28.6555 153.461 28.7749C153.461 28.7749 152.572 31.5529 154.229 33.2329C155.886 34.9129 158.656 33.3327 158.687 33.3177C158.773 33.2671 158.871 33.2404 158.971 33.2404C159.07 33.2404 159.168 33.2671 159.254 33.3177C159.341 33.3674 159.413 33.439 159.462 33.5252C159.512 33.6115 159.539 33.7093 159.539 33.8089V35.4432C159.642 35.9757 159.877 36.4737 160.221 36.8929C160.496 37.2604 160.72 37.6632 160.889 38.0899C161.001 38.3427 161.048 38.6202 161.027 38.8954" fill="white"/>
<path d="M156.477 32.5656C157.031 32.5656 157.561 32.3458 157.953 31.9545C158.344 31.5632 158.564 31.0325 158.564 30.4791C158.564 29.9257 158.344 29.395 157.953 29.0037C157.561 28.6124 157.031 28.3926 156.477 28.3926C155.924 28.3926 155.393 28.6124 155.002 29.0037C154.611 29.395 154.391 29.9257 154.391 30.4791C154.391 31.0325 154.611 31.5632 155.002 31.9545C155.393 32.3458 155.924 32.5656 156.477 32.5656Z" fill="white"/>
<circle cx="137.5" cy="117.5" r="5.5" fill="#91E2BB"/>
<g filter="url(#filter3_d_652_3017)">
<circle cx="137.5" cy="117.5" r="4.5" fill="white"/>
</g>
<defs>
<filter id="filter0_f_652_3017" x="0.5" y="0.5" width="186" height="185" filterUnits="userSpaceOnUse" color-interpolation-filters="sRGB">
<feFlood flood-opacity="0" result="BackgroundImageFix"/>
<feBlend mode="normal" in="SourceGraphic" in2="BackgroundImageFix" result="shape"/>
<feGaussianBlur stdDeviation="3.75" result="effect1_foregroundBlur_652_3017"/>
</filter>
<filter id="filter1_d_652_3017" x="23.248" y="28.4375" width="101.337" height="18.9629" filterUnits="userSpaceOnUse" color-interpolation-filters="sRGB">
<feFlood flood-opacity="0" result="BackgroundImageFix"/>
<feColorMatrix in="SourceAlpha" type="matrix" values="0 0 0 0 0 0 0 0 0 0 0 0 0 0 0 0 0 0 127 0" result="hardAlpha"/>
<feOffset dy="2"/>
<feGaussianBlur stdDeviation="2"/>
<feComposite in2="hardAlpha" operator="out"/>
<feColorMatrix type="matrix" values="0 0 0 0 0 0 0 0 0 0 0 0 0 0 0 0 0 0 0.35 0"/>
<feBlend mode="normal" in2="BackgroundImageFix" result="effect1_dropShadow_652_3017"/>
<feBlend mode="normal" in="SourceGraphic" in2="effect1_dropShadow_652_3017" result="shape"/>
</filter>
<filter id="filter2_d_652_3017" x="38" y="59.4336" width="110.567" height="110.566" filterUnits="userSpaceOnUse" color-interpolation-filters="sRGB">
<feFlood flood-opacity="0" result="BackgroundImageFix"/>
<feColorMatrix in="SourceAlpha" type="matrix" values="0 0 0 0 0 0 0 0 0 0 0 0 0 0 0 0 0 0 127 0" result="hardAlpha"/>
<feOffset dy="4"/>
<feGaussianBlur stdDeviation="2"/>
<feComposite in2="hardAlpha" operator="out"/>
<feColorMatrix type="matrix" values="0 0 0 0 0 0 0 0 0 0 0 0 0 0 0 0 0 0 0.25 0"/>
<feBlend mode="normal" in2="BackgroundImageFix" result="effect1_dropShadow_652_3017"/>
<feBlend mode="normal" in="SourceGraphic" in2="effect1_dropShadow_652_3017" result="shape"/>
</filter>
<filter id="filter3_d_652_3017" x="129" y="113" width="17" height="17" filterUnits="userSpaceOnUse" color-interpolation-filters="sRGB">
<feFlood flood-opacity="0" result="BackgroundImageFix"/>
<feColorMatrix in="SourceAlpha" type="matrix" values="0 0 0 0 0 0 0 0 0 0 0 0 0 0 0 0 0 0 127 0" result="hardAlpha"/>
<feOffset dy="4"/>
<feGaussianBlur stdDeviation="2"/>
<feComposite in2="hardAlpha" operator="out"/>
<feColorMatrix type="matrix" values="0 0 0 0 0 0 0 0 0 0 0 0 0 0 0 0 0 0 0.25 0"/>
<feBlend mode="normal" in2="BackgroundImageFix" result="effect1_dropShadow_652_3017"/>
<feBlend mode="normal" in="SourceGraphic" in2="effect1_dropShadow_652_3017" result="shape"/>
</filter>
<linearGradient id="paint0_linear_652_3017" x1="20.5" y1="117" x2="179" y2="113.5" gradientUnits="userSpaceOnUse">
<stop stop-color="#73CE9F"/>
<stop offset="1" stop-color="#A6EFCE"/>
</linearGradient>
<linearGradient id="paint1_linear_652_3017" x1="20.5" y1="117" x2="179" y2="113.5" gradientUnits="userSpaceOnUse">
<stop stop-color="#73CE9F"/>
<stop offset="1" stop-color="#A6EFCE"/>
</linearGradient>
<linearGradient id="paint2_linear_652_3017" x1="167.5" y1="35" x2="140" y2="36" gradientUnits="userSpaceOnUse">
<stop stop-color="#67DFA2"/>
<stop offset="1" stop-color="#61CF97"/>
</linearGradient>
</defs>
</svg>
