<svg width="22" height="34" viewBox="0 0 22 34" fill="none" xmlns="http://www.w3.org/2000/svg">
<path fill-rule="evenodd" clip-rule="evenodd" d="M9.63708 0.0905777C8.42721 0.089641 7.25738 0.516236 6.34128 1.29243C5.42519 2.06863 4.82399 3.14262 4.64749 4.31821C4.471 5.4938 4.731 6.69251 5.38 7.69538C6.02901 8.69824 7.02368 9.43831 8.18233 9.7804L8.46791 9.85629L4.39094 14.4347L1.32691 15.9394C0.943371 16.1275 0.647555 16.4525 0.500044 16.8478C0.352533 17.2432 0.364487 17.6789 0.533459 18.0659C0.70243 18.4529 1.01563 18.7617 1.40892 18.9293C1.80222 19.0968 2.24584 19.1103 2.64894 18.967L2.82869 18.8895L5.89271 17.3848C6.18492 17.2413 6.45428 17.0568 6.69232 16.837L6.9191 16.606L8.62917 14.6872L9.73787 19.0396C9.8381 19.4356 10.0124 19.8099 10.2519 20.1434L10.4367 20.3777L7.19795 23.2864C6.78104 23.6602 6.46675 24.1312 6.28411 24.6558L6.20516 24.9198L4.96544 29.7886H4.59756C4.1694 29.7891 3.75758 29.9501 3.44625 30.2388C3.13491 30.5275 2.94756 30.922 2.92247 31.3418C2.89737 31.7616 3.03644 32.175 3.31124 32.4975C3.58605 32.82 3.97586 33.0272 4.40102 33.0769L4.59756 33.0884H6.14637C6.52258 33.0884 6.88982 32.9756 7.199 32.7651C7.50819 32.5546 7.74459 32.2564 7.8766 31.9104L7.93876 31.7124L9.46405 25.7217L14.5204 21.1812C15.1554 20.8636 15.6712 20.3561 15.9934 19.7318C16.3155 19.1075 16.4274 18.3989 16.3128 17.7081L16.2556 17.4392L15.3939 14.0536L15.9365 14.4331L18.2765 18.2641C18.4968 18.6255 18.8495 18.8904 19.2623 19.0045C19.6751 19.1187 20.1167 19.0735 20.4967 18.8781C20.8766 18.6828 21.1661 18.3521 21.3058 17.9539C21.4455 17.5557 21.4249 17.1201 21.2481 16.7363L21.1574 16.5648L18.8174 12.7354C18.628 12.4251 18.3879 12.1475 18.1068 11.9137L17.8884 11.7487L13.2487 8.49018C13.9391 7.79262 14.4048 6.91071 14.5878 5.95465C14.7708 4.9986 14.6629 4.01078 14.2775 3.11461C13.8922 2.21845 13.2466 1.45368 12.4212 0.915847C11.5959 0.378015 10.6275 0.0909711 9.63708 0.0905777ZM16.2724 23.4927C16.1377 23.0923 15.852 22.7578 15.4741 22.5578C15.0961 22.3578 14.6545 22.3076 14.24 22.4174C13.8255 22.5272 13.4695 22.7887 13.2452 23.1482C13.0209 23.5078 12.9452 23.938 13.0337 24.3506L13.0841 24.5354L13.7997 26.6407C13.9313 27.0289 14.1352 27.3898 14.4011 27.7048L14.6111 27.9309L17.3946 30.6647C17.2137 30.9981 17.1548 31.3823 17.2276 31.7532C17.3005 32.1242 17.5007 32.4593 17.7949 32.7026C18.0891 32.946 18.4593 33.0828 18.8439 33.0903C19.2284 33.0977 19.6039 32.9754 19.9076 32.7436L20.0655 32.605L20.8937 31.7916C21.1858 31.5047 21.3612 31.123 21.3872 30.7181C21.4132 30.3132 21.2879 29.9129 21.0348 29.5923L20.8937 29.4356L16.9864 25.5979L16.2724 23.4927ZM9.63708 3.39036C10.0826 3.39036 10.5099 3.56419 10.8249 3.87361C11.1399 4.18302 11.3169 4.60268 11.3169 5.04026C11.3169 5.47784 11.1399 5.89749 10.8249 6.20691C10.5099 6.51632 10.0826 6.69015 9.63708 6.69015C9.19156 6.69015 8.76428 6.51632 8.44925 6.20691C8.13422 5.89749 7.95724 5.47784 7.95724 5.04026C7.95724 4.60268 8.13422 4.18302 8.44925 3.87361C8.76428 3.56419 9.19156 3.39036 9.63708 3.39036Z" fill="#32FF9D"/>
</svg>
