<svg width="179" height="178" viewBox="0 0 179 178" fill="none" xmlns="http://www.w3.org/2000/svg">
<g filter="url(#filter0_d_652_3040)">
<rect x="4" width="171" height="170" rx="30" fill="#24272C"/>
</g>
<g filter="url(#filter1_d_652_3040)">
<path d="M23.752 30C23.416 30 23.248 29.832 23.248 29.496V22.368C23.248 22.032 23.416 21.864 23.752 21.864H26.56C27.292 21.864 27.852 22.06 28.24 22.452C28.632 22.84 28.828 23.4 28.828 24.132V24.492C28.828 25.224 28.632 25.786 28.24 26.178C27.852 26.566 27.292 26.76 26.56 26.76H24.256V29.496C24.256 29.832 24.088 30 23.752 30ZM24.256 25.752H26.56C27.016 25.752 27.34 25.656 27.532 25.464C27.724 25.272 27.82 24.948 27.82 24.492V24.132C27.82 23.68 27.724 23.358 27.532 23.166C27.34 22.97 27.016 22.872 26.56 22.872H24.256V25.752ZM31.693 27.372V27.66C31.693 28.176 31.787 28.528 31.975 28.716C32.163 28.9 32.517 28.992 33.037 28.992H34.021C34.429 28.992 34.731 28.954 34.927 28.878C35.123 28.802 35.253 28.668 35.317 28.476C35.361 28.324 35.421 28.208 35.497 28.128C35.577 28.048 35.697 28.008 35.857 28.008C36.025 28.008 36.153 28.052 36.241 28.14C36.329 28.228 36.357 28.356 36.325 28.524C36.237 29.02 36.001 29.39 35.617 29.634C35.233 29.878 34.701 30 34.021 30H33.037C32.241 30 31.649 29.808 31.261 29.424C30.877 29.04 30.685 28.452 30.685 27.66V26.268C30.685 25.456 30.877 24.86 31.261 24.48C31.649 24.096 32.241 23.908 33.037 23.916H34.021C34.821 23.916 35.413 24.108 35.797 24.492C36.181 24.872 36.373 25.464 36.373 26.268V26.868C36.373 27.204 36.205 27.372 35.869 27.372H31.693ZM33.037 24.924C32.517 24.916 32.163 25.006 31.975 25.194C31.787 25.382 31.693 25.74 31.693 26.268V26.364H35.365V26.268C35.365 25.744 35.271 25.39 35.083 25.206C34.899 25.018 34.545 24.924 34.021 24.924H33.037ZM39.6825 30C39.3465 30 39.1785 29.832 39.1785 29.496V24.42C39.1785 24.084 39.3465 23.916 39.6825 23.916C40.0185 23.916 40.1865 24.084 40.1865 24.42V24.888C40.4225 24.568 40.7225 24.326 41.0865 24.162C41.4545 23.998 41.8745 23.916 42.3465 23.916C42.6825 23.916 42.8505 24.084 42.8505 24.42C42.8505 24.756 42.6825 24.924 42.3465 24.924C41.6545 24.924 41.1265 25.052 40.7625 25.308C40.3985 25.564 40.2065 25.902 40.1865 26.322V29.496C40.1865 29.832 40.0185 30 39.6825 30ZM45.6316 30C45.2956 30 45.1276 29.832 45.1276 29.496V24.924H44.6836C44.3476 24.924 44.1796 24.756 44.1796 24.42C44.1796 24.084 44.3476 23.916 44.6836 23.916H45.1276V23.868C45.1276 23.08 45.3176 22.498 45.6976 22.122C46.0776 21.742 46.6596 21.552 47.4436 21.552C47.7316 21.552 47.8756 21.72 47.8756 22.056C47.8756 22.392 47.7316 22.56 47.4436 22.56C46.9396 22.56 46.5956 22.65 46.4116 22.83C46.2276 23.01 46.1356 23.356 46.1356 23.868V23.916H47.3716C47.7076 23.916 47.8756 24.084 47.8756 24.42C47.8756 24.756 47.7076 24.924 47.3716 24.924H46.1356V29.496C46.1356 29.832 45.9676 30 45.6316 30ZM51.8292 30C51.0332 30 50.4412 29.808 50.0532 29.424C49.6692 29.04 49.4772 28.452 49.4772 27.66V26.268C49.4772 25.464 49.6692 24.872 50.0532 24.492C50.4412 24.108 51.0332 23.916 51.8292 23.916H52.8132C53.6132 23.916 54.2052 24.108 54.5892 24.492C54.9732 24.876 55.1652 25.468 55.1652 26.268V27.648C55.1652 28.444 54.9732 29.036 54.5892 29.424C54.2052 29.808 53.6132 30 52.8132 30H51.8292ZM50.4852 27.66C50.4852 28.176 50.5792 28.528 50.7672 28.716C50.9552 28.9 51.3092 28.992 51.8292 28.992H52.8132C53.3372 28.992 53.6912 28.898 53.8752 28.71C54.0632 28.522 54.1572 28.168 54.1572 27.648V26.268C54.1572 25.744 54.0632 25.39 53.8752 25.206C53.6912 25.018 53.3372 24.924 52.8132 24.924H51.8292C51.4812 24.924 51.2092 24.964 51.0132 25.044C50.8212 25.12 50.6852 25.256 50.6052 25.452C50.5252 25.644 50.4852 25.916 50.4852 26.268V27.66ZM58.4747 30C58.1387 30 57.9707 29.832 57.9707 29.496V24.42C57.9707 24.084 58.1387 23.916 58.4747 23.916C58.8107 23.916 58.9787 24.084 58.9787 24.42V24.888C59.2147 24.568 59.5147 24.326 59.8787 24.162C60.2467 23.998 60.6667 23.916 61.1387 23.916C61.4747 23.916 61.6427 24.084 61.6427 24.42C61.6427 24.756 61.4747 24.924 61.1387 24.924C60.4467 24.924 59.9187 25.052 59.5547 25.308C59.1907 25.564 58.9987 25.902 58.9787 26.322V29.496C58.9787 29.832 58.8107 30 58.4747 30ZM70.3517 23.916C71.1077 23.916 71.6497 24.094 71.9777 24.45C72.3097 24.806 72.4757 25.396 72.4757 26.22V29.496C72.4757 29.832 72.3077 30 71.9717 30C71.6357 30 71.4677 29.832 71.4677 29.496V26.22C71.4677 25.764 71.3797 25.434 71.2037 25.23C71.0317 25.026 70.7477 24.924 70.3517 24.924H69.8597C69.4037 24.924 69.0777 25.026 68.8817 25.23C68.6857 25.434 68.5877 25.764 68.5877 26.22V29.496C68.5877 29.832 68.4197 30 68.0837 30C67.7477 30 67.5797 29.832 67.5797 29.496V26.22C67.5797 25.764 67.4917 25.434 67.3157 25.23C67.1437 25.026 66.8597 24.924 66.4637 24.924H65.9717C65.5157 24.924 65.1897 25.026 64.9937 25.23C64.7977 25.434 64.6997 25.764 64.6997 26.22V29.496C64.6997 29.832 64.5317 30 64.1957 30C63.8597 30 63.6917 29.832 63.6917 29.496V24.42C63.6917 24.084 63.8597 23.916 64.1957 23.916C64.5317 23.916 64.6997 24.084 64.6997 24.42V24.696C64.9117 24.42 65.1437 24.222 65.3957 24.102C65.6517 23.978 65.9557 23.916 66.3077 23.916H66.4637C66.9597 23.916 67.3497 23.986 67.6337 24.126C67.9177 24.262 68.1337 24.484 68.2817 24.792C68.4937 24.476 68.7177 24.252 68.9537 24.12C69.1937 23.984 69.4957 23.916 69.8597 23.916H70.3517ZM77.0856 30C76.4136 30 75.9136 29.836 75.5856 29.508C75.2576 29.18 75.0936 28.68 75.0936 28.008C75.0936 27.336 75.2556 26.836 75.5796 26.508C75.9076 26.18 76.4096 26.016 77.0856 26.016H79.6236C79.5996 25.596 79.4896 25.31 79.2936 25.158C79.0976 25.002 78.7616 24.924 78.2856 24.924H77.5896C77.1896 24.924 76.8916 24.952 76.6956 25.008C76.4996 25.06 76.3616 25.156 76.2816 25.296C76.2096 25.464 76.1356 25.58 76.0596 25.644C75.9836 25.708 75.8696 25.74 75.7176 25.74C75.5496 25.74 75.4176 25.694 75.3216 25.602C75.2256 25.506 75.1976 25.38 75.2376 25.224C75.3576 24.772 75.6076 24.442 75.9876 24.234C76.3716 24.022 76.9056 23.916 77.5896 23.916H78.2856C79.0856 23.916 79.6776 24.108 80.0616 24.492C80.4456 24.876 80.6376 25.468 80.6376 26.268V29.496C80.6376 29.832 80.4696 30 80.1336 30C79.7976 30 79.6296 29.832 79.6296 29.496V29.226C79.2016 29.742 78.5776 30 77.7576 30H77.0856ZM77.0856 28.992H77.7576C78.0536 28.992 78.3316 28.966 78.5916 28.914C78.8516 28.858 79.0736 28.758 79.2576 28.614C79.4456 28.47 79.5696 28.264 79.6296 27.996V27.024H77.0856C76.6896 27.024 76.4256 27.09 76.2936 27.222C76.1656 27.354 76.1016 27.616 76.1016 28.008C76.1016 28.404 76.1656 28.668 76.2936 28.8C76.4256 28.928 76.6896 28.992 77.0856 28.992ZM84.1223 30C83.7863 30 83.6183 29.832 83.6183 29.496V24.42C83.6183 24.084 83.7863 23.916 84.1223 23.916C84.4583 23.916 84.6263 24.084 84.6263 24.42V24.618C85.0503 24.15 85.6743 23.916 86.4983 23.916H86.8343C87.6343 23.916 88.2263 24.108 88.6103 24.492C88.9943 24.876 89.1863 25.468 89.1863 26.268V29.496C89.1863 29.832 89.0183 30 88.6823 30C88.3463 30 88.1783 29.832 88.1783 29.496V26.268C88.1783 25.744 88.0823 25.39 87.8903 25.206C87.7023 25.018 87.3503 24.924 86.8343 24.924H86.4983C86.0183 24.924 85.6003 24.98 85.2443 25.092C84.8883 25.2 84.6823 25.372 84.6263 25.608V29.496C84.6263 29.832 84.4583 30 84.1223 30ZM94.2276 30C93.4316 30 92.8396 29.808 92.4516 29.424C92.0676 29.036 91.8756 28.444 91.8756 27.648V26.256C91.8756 25.456 92.0656 24.864 92.4456 24.48C92.8296 24.096 93.4236 23.908 94.2276 23.916H95.2116C95.8076 23.916 96.2756 24.016 96.6156 24.216C96.9596 24.416 97.1796 24.724 97.2756 25.14C97.3116 25.308 97.2816 25.438 97.1856 25.53C97.0936 25.622 96.9596 25.668 96.7836 25.668C96.6276 25.668 96.5136 25.628 96.4416 25.548C96.3696 25.468 96.3036 25.356 96.2436 25.212C96.1836 25.104 96.0736 25.03 95.9136 24.99C95.7536 24.946 95.5196 24.924 95.2116 24.924H94.2276C93.7116 24.916 93.3576 25.006 93.1656 25.194C92.9776 25.378 92.8836 25.732 92.8836 26.256V27.648C92.8836 28.168 92.9776 28.522 93.1656 28.71C93.3576 28.898 93.7116 28.992 94.2276 28.992H95.2116C95.5196 28.992 95.7536 28.972 95.9136 28.932C96.0736 28.888 96.1836 28.812 96.2436 28.704C96.3036 28.552 96.3696 28.438 96.4416 28.362C96.5176 28.286 96.6356 28.248 96.7956 28.248C96.9636 28.248 97.0936 28.294 97.1856 28.386C97.2816 28.478 97.3116 28.608 97.2756 28.776C97.1796 29.188 96.9596 29.496 96.6156 29.7C96.2756 29.9 95.8076 30 95.2116 30H94.2276ZM100.691 27.372V27.66C100.691 28.176 100.785 28.528 100.973 28.716C101.161 28.9 101.515 28.992 102.035 28.992H103.019C103.427 28.992 103.729 28.954 103.925 28.878C104.121 28.802 104.251 28.668 104.315 28.476C104.359 28.324 104.419 28.208 104.495 28.128C104.575 28.048 104.695 28.008 104.855 28.008C105.023 28.008 105.151 28.052 105.239 28.14C105.327 28.228 105.355 28.356 105.323 28.524C105.235 29.02 104.999 29.39 104.615 29.634C104.231 29.878 103.699 30 103.019 30H102.035C101.239 30 100.647 29.808 100.259 29.424C99.8747 29.04 99.6827 28.452 99.6827 27.66V26.268C99.6827 25.456 99.8747 24.86 100.259 24.48C100.647 24.096 101.239 23.908 102.035 23.916H103.019C103.819 23.916 104.411 24.108 104.795 24.492C105.179 24.872 105.371 25.464 105.371 26.268V26.868C105.371 27.204 105.203 27.372 104.867 27.372H100.691ZM102.035 24.924C101.515 24.916 101.161 25.006 100.973 25.194C100.785 25.382 100.691 25.74 100.691 26.268V26.364H104.363V26.268C104.363 25.744 104.269 25.39 104.081 25.206C103.897 25.018 103.543 24.924 103.019 24.924H102.035Z" fill="white"/>
</g>
<g filter="url(#filter2_d_652_3040)">
<path d="M30.4561 131C30.2881 131 30.2041 130.916 30.2041 130.748V126.008C30.2041 125.84 30.2881 125.756 30.4561 125.756C30.5735 125.756 30.6681 125.811 30.7401 125.92L32.6961 128.896L32.5841 128.912L34.5481 125.92C34.6175 125.811 34.7188 125.756 34.8521 125.756C34.9961 125.756 35.0681 125.84 35.0681 126.008V130.748C35.0681 130.916 34.9841 131 34.8161 131C34.6481 131 34.5641 130.916 34.5641 130.748V126.512L34.7161 126.564L32.9241 129.264C32.8521 129.373 32.7508 129.428 32.6201 129.428C32.5161 129.428 32.4281 129.373 32.3561 129.264L30.5641 126.564L30.7081 126.612V130.748C30.7081 130.916 30.6241 131 30.4561 131ZM38.3662 131C37.8569 131 37.4822 130.88 37.2422 130.64C37.0022 130.4 36.8822 130.028 36.8822 129.524V128.612C36.8822 128.097 37.0022 127.721 37.2422 127.484C37.4822 127.244 37.8569 127.125 38.3662 127.128H39.0222C39.5342 127.128 39.9089 127.248 40.1462 127.488C40.3862 127.725 40.5062 128.1 40.5062 128.612V129.516C40.5062 130.025 40.3862 130.4 40.1462 130.64C39.9089 130.88 39.5342 131 39.0222 131H38.3662ZM37.3862 129.524C37.3862 129.889 37.4569 130.143 37.5982 130.284C37.7422 130.425 37.9982 130.496 38.3662 130.496H39.0222C39.3929 130.496 39.6489 130.425 39.7902 130.284C39.9315 130.14 40.0022 129.884 40.0022 129.516V128.612C40.0022 128.241 39.9315 127.985 39.7902 127.844C39.6489 127.703 39.3929 127.632 39.0222 127.632H38.3662C38.1209 127.629 37.9262 127.659 37.7822 127.72C37.6409 127.779 37.5395 127.88 37.4782 128.024C37.4169 128.165 37.3862 128.361 37.3862 128.612V129.524ZM42.5764 131C42.4084 131 42.3244 130.916 42.3244 130.748V127.38C42.3244 127.212 42.4084 127.128 42.5764 127.128C42.7444 127.128 42.8284 127.212 42.8284 127.38V127.676C43.0924 127.311 43.5364 127.128 44.1604 127.128H44.3844C44.8964 127.128 45.2711 127.248 45.5084 127.488C45.7484 127.725 45.8684 128.1 45.8684 128.612V130.748C45.8684 130.916 45.7844 131 45.6164 131C45.4484 131 45.3644 130.916 45.3644 130.748V128.612C45.3644 128.241 45.2924 127.985 45.1484 127.844C45.0071 127.703 44.7524 127.632 44.3844 127.632H44.1604C43.7791 127.632 43.4698 127.688 43.2324 127.8C42.9951 127.912 42.8604 128.087 42.8284 128.324V130.748C42.8284 130.916 42.7444 131 42.5764 131Z" fill="white"/>
</g>
<g filter="url(#filter3_d_652_3040)">
<path d="M54.0765 131.004C53.9965 131.004 53.9339 130.983 53.8885 130.94C53.8459 130.895 53.8245 130.832 53.8245 130.752V126.26H52.1725C52.0925 126.26 52.0299 126.239 51.9845 126.196C51.9419 126.151 51.9205 126.088 51.9205 126.008C51.9205 125.928 51.9419 125.867 51.9845 125.824C52.0299 125.779 52.0925 125.756 52.1725 125.756H55.9805C56.0605 125.756 56.1219 125.779 56.1645 125.824C56.2099 125.867 56.2325 125.928 56.2325 126.008C56.2325 126.088 56.2099 126.151 56.1645 126.196C56.1219 126.239 56.0605 126.26 55.9805 126.26H54.3285V130.752C54.3285 130.829 54.3059 130.891 54.2605 130.936C54.2179 130.981 54.1565 131.004 54.0765 131.004ZM59.9178 127.128C60.0858 127.128 60.1698 127.212 60.1698 127.38V130.748C60.1698 130.916 60.0858 131 59.9178 131C59.7498 131 59.6658 130.916 59.6658 130.748V130.448C59.4044 130.816 58.9604 131 58.3338 131H58.1098C57.6004 131 57.2258 130.88 56.9858 130.64C56.7458 130.4 56.6258 130.025 56.6258 129.516V127.38C56.6258 127.212 56.7098 127.128 56.8778 127.128C57.0458 127.128 57.1298 127.212 57.1298 127.38V129.516C57.1298 129.884 57.2004 130.14 57.3418 130.284C57.4858 130.425 57.7418 130.496 58.1098 130.496H58.3338C58.7151 130.496 59.0244 130.44 59.2618 130.328C59.5018 130.213 59.6364 130.039 59.6658 129.804V127.38C59.6658 127.212 59.7498 127.128 59.9178 127.128ZM62.4932 129.264V129.524C62.4932 129.889 62.5639 130.143 62.7052 130.284C62.8492 130.425 63.1052 130.496 63.4732 130.496H64.1292C64.4466 130.496 64.6772 130.459 64.8212 130.384C64.9679 130.309 65.0572 130.18 65.0892 129.996C65.1079 129.916 65.1372 129.856 65.1772 129.816C65.2172 129.776 65.2772 129.756 65.3572 129.756C65.4399 129.756 65.5026 129.779 65.5452 129.824C65.5906 129.867 65.6066 129.931 65.5932 130.016C65.5506 130.349 65.4079 130.597 65.1652 130.76C64.9252 130.92 64.5799 131 64.1292 131H63.4732C62.9639 131 62.5892 130.88 62.3492 130.64C62.1092 130.4 61.9892 130.028 61.9892 129.524V128.612C61.9892 128.095 62.1092 127.717 62.3492 127.48C62.5892 127.24 62.9639 127.123 63.4732 127.128H64.1292C64.6412 127.128 65.0159 127.248 65.2532 127.488C65.4932 127.725 65.6132 128.1 65.6132 128.612V129.012C65.6132 129.18 65.5292 129.264 65.3612 129.264H62.4932ZM63.4732 127.632C63.1052 127.627 62.8492 127.695 62.7052 127.836C62.5639 127.977 62.4932 128.236 62.4932 128.612V128.76H65.1092V128.612C65.1092 128.241 65.0386 127.985 64.8972 127.844C64.7559 127.703 64.4999 127.632 64.1292 127.632H63.4732Z" fill="white"/>
</g>
<g filter="url(#filter4_d_652_3040)">
<path d="M73.375 131C73.2577 131 73.1777 130.932 73.135 130.796L71.619 126.092C71.595 126.017 71.6057 125.943 71.651 125.868C71.699 125.791 71.7683 125.752 71.859 125.752C71.9123 125.752 71.9603 125.768 72.003 125.8C72.0457 125.829 72.0763 125.876 72.095 125.94L73.479 130.24H73.343L74.655 125.96C74.6763 125.888 74.7137 125.836 74.767 125.804C74.823 125.769 74.8803 125.752 74.939 125.752C75.003 125.752 75.063 125.769 75.119 125.804C75.175 125.836 75.2123 125.888 75.231 125.96L76.543 130.24H76.407L77.791 125.94C77.8123 125.876 77.843 125.829 77.883 125.8C77.9257 125.771 77.9723 125.756 78.023 125.756C78.1217 125.756 78.1937 125.792 78.239 125.864C78.2843 125.933 78.2937 126.009 78.267 126.092L76.751 130.796C76.7083 130.932 76.6203 131 76.487 131H76.471C76.335 131 76.247 130.932 76.207 130.796L74.863 126.468H74.999L73.651 130.796C73.6297 130.871 73.5977 130.924 73.555 130.956C73.5123 130.985 73.4523 131 73.375 131ZM79.4018 129.264V129.524C79.4018 129.889 79.4725 130.143 79.6138 130.284C79.7578 130.425 80.0138 130.496 80.3818 130.496H81.0378C81.3551 130.496 81.5858 130.459 81.7298 130.384C81.8765 130.309 81.9658 130.18 81.9978 129.996C82.0165 129.916 82.0458 129.856 82.0858 129.816C82.1258 129.776 82.1858 129.756 82.2658 129.756C82.3485 129.756 82.4111 129.779 82.4538 129.824C82.4991 129.867 82.5151 129.931 82.5018 130.016C82.4591 130.349 82.3165 130.597 82.0738 130.76C81.8338 130.92 81.4885 131 81.0378 131H80.3818C79.8725 131 79.4978 130.88 79.2578 130.64C79.0178 130.4 78.8978 130.028 78.8978 129.524V128.612C78.8978 128.095 79.0178 127.717 79.2578 127.48C79.4978 127.24 79.8725 127.123 80.3818 127.128H81.0378C81.5498 127.128 81.9245 127.248 82.1618 127.488C82.4018 127.725 82.5218 128.1 82.5218 128.612V129.012C82.5218 129.18 82.4378 129.264 82.2698 129.264H79.4018ZM80.3818 127.632C80.0138 127.627 79.7578 127.695 79.6138 127.836C79.4725 127.977 79.4018 128.236 79.4018 128.612V128.76H82.0178V128.612C82.0178 128.241 81.9471 127.985 81.8058 127.844C81.6645 127.703 81.4085 127.632 81.0378 127.632H80.3818ZM85.6881 131C85.1787 131 84.8041 130.88 84.5641 130.64C84.3241 130.4 84.2041 130.025 84.2041 129.516V128.612C84.2041 128.1 84.3241 127.725 84.5641 127.488C84.8041 127.248 85.1787 127.128 85.6881 127.128H87.3241V125.676C87.3241 125.508 87.4081 125.424 87.5761 125.424C87.7441 125.424 87.8281 125.508 87.8281 125.676V130.748C87.8281 130.916 87.7441 131 87.5761 131C87.4081 131 87.3241 130.916 87.3241 130.748V130.5C87.2067 130.663 87.0401 130.787 86.8241 130.872C86.6081 130.957 86.3307 131 85.9921 131H85.6881ZM85.6881 130.496H85.9921C86.3867 130.496 86.7067 130.437 86.9521 130.32C87.2001 130.2 87.3241 130.021 87.3241 129.784V127.632H85.6881C85.3201 127.632 85.0641 127.704 84.9201 127.848C84.7787 127.989 84.7081 128.244 84.7081 128.612V129.516C84.7081 129.884 84.7787 130.14 84.9201 130.284C85.0641 130.425 85.3201 130.496 85.6881 130.496Z" fill="white"/>
</g>
<g filter="url(#filter5_d_652_3040)">
<path d="M96.0922 131.004C96.0122 131.004 95.9495 130.983 95.9042 130.94C95.8615 130.895 95.8402 130.832 95.8402 130.752V126.26H94.1882C94.1082 126.26 94.0455 126.239 94.0002 126.196C93.9575 126.151 93.9362 126.088 93.9362 126.008C93.9362 125.928 93.9575 125.867 94.0002 125.824C94.0455 125.779 94.1082 125.756 94.1882 125.756H97.9962C98.0762 125.756 98.1375 125.779 98.1802 125.824C98.2255 125.867 98.2482 125.928 98.2482 126.008C98.2482 126.088 98.2255 126.151 98.1802 126.196C98.1375 126.239 98.0762 126.26 97.9962 126.26H96.3442V130.752C96.3442 130.829 96.3215 130.891 96.2762 130.936C96.2335 130.981 96.1722 131.004 96.0922 131.004ZM99.696 131C99.528 131 99.444 130.916 99.444 130.748V125.676C99.444 125.508 99.528 125.424 99.696 125.424C99.864 125.424 99.948 125.508 99.948 125.676V127.676C100.212 127.311 100.656 127.128 101.28 127.128H101.504C102.016 127.128 102.391 127.248 102.628 127.488C102.868 127.725 102.988 128.1 102.988 128.612V130.748C102.988 130.916 102.904 131 102.736 131C102.568 131 102.484 130.916 102.484 130.748V128.612C102.484 128.241 102.412 127.985 102.268 127.844C102.127 127.703 101.872 127.632 101.504 127.632H101.28C100.899 127.632 100.589 127.688 100.352 127.8C100.115 127.912 99.98 128.087 99.948 128.324V130.748C99.948 130.916 99.864 131 99.696 131ZM105.119 131C104.951 131 104.867 130.916 104.867 130.748V127.38C104.867 127.212 104.951 127.128 105.119 127.128C105.287 127.128 105.371 127.212 105.371 127.38V127.892C105.518 127.644 105.719 127.455 105.975 127.324C106.231 127.193 106.531 127.128 106.875 127.128C107.043 127.128 107.127 127.212 107.127 127.38C107.127 127.548 107.043 127.632 106.875 127.632C106.406 127.632 106.043 127.732 105.787 127.932C105.534 128.132 105.395 128.411 105.371 128.768V130.748C105.371 130.916 105.287 131 105.119 131Z" fill="white"/>
</g>
<g filter="url(#filter6_d_652_3040)">
<path d="M117.714 131C117.546 131 117.462 130.916 117.462 130.748V126.008C117.462 125.84 117.546 125.756 117.714 125.756H120.618C120.698 125.756 120.759 125.779 120.802 125.824C120.847 125.867 120.87 125.928 120.87 126.008C120.87 126.176 120.786 126.26 120.618 126.26H117.966V128.096H119.718C119.886 128.096 119.97 128.18 119.97 128.348C119.97 128.516 119.886 128.6 119.718 128.6H117.966V130.748C117.966 130.916 117.882 131 117.714 131ZM121.739 131C121.571 131 121.487 130.916 121.487 130.748V127.38C121.487 127.212 121.571 127.128 121.739 127.128C121.907 127.128 121.991 127.212 121.991 127.38V127.892C122.138 127.644 122.339 127.455 122.595 127.324C122.851 127.193 123.151 127.128 123.495 127.128C123.663 127.128 123.747 127.212 123.747 127.38C123.747 127.548 123.663 127.632 123.495 127.632C123.026 127.632 122.663 127.732 122.407 127.932C122.154 128.132 122.015 128.411 121.991 128.768V130.748C121.991 130.916 121.907 131 121.739 131ZM125.191 126.424C124.983 126.424 124.879 126.319 124.879 126.108V125.908C124.879 125.703 124.983 125.6 125.191 125.6H125.387C125.587 125.6 125.687 125.703 125.687 125.908V126.108C125.687 126.319 125.587 126.424 125.387 126.424H125.191ZM125.287 131C125.119 131 125.035 130.916 125.035 130.748V127.38C125.035 127.212 125.119 127.128 125.287 127.128C125.455 127.128 125.539 127.212 125.539 127.38V130.748C125.539 130.916 125.455 131 125.287 131Z" fill="white"/>
</g>
<g filter="url(#filter7_d_652_3040)">
<path d="M137.544 130.996C137.075 130.996 136.72 130.895 136.48 130.692C136.243 130.489 136.108 130.172 136.076 129.74C136.071 129.657 136.091 129.593 136.136 129.548C136.181 129.503 136.244 129.48 136.324 129.48C136.404 129.48 136.464 129.501 136.504 129.544C136.547 129.587 136.573 129.648 136.584 129.728C136.603 130.013 136.684 130.212 136.828 130.324C136.972 130.436 137.211 130.492 137.544 130.492H138.696C139.064 130.492 139.317 130.423 139.456 130.284C139.597 130.143 139.668 129.891 139.668 129.528C139.668 129.16 139.596 128.907 139.452 128.768C139.311 128.627 139.059 128.556 138.696 128.556H137.636C137.153 128.556 136.799 128.443 136.572 128.216C136.345 127.987 136.232 127.632 136.232 127.152C136.232 126.672 136.344 126.32 136.568 126.096C136.795 125.869 137.148 125.756 137.628 125.756H138.692C139.132 125.756 139.464 125.852 139.688 126.044C139.915 126.233 140.044 126.531 140.076 126.936C140.084 127.016 140.065 127.08 140.02 127.128C139.975 127.173 139.911 127.196 139.828 127.196C139.751 127.196 139.691 127.175 139.648 127.132C139.605 127.087 139.58 127.025 139.572 126.948C139.551 126.689 139.473 126.511 139.34 126.412C139.207 126.311 138.991 126.26 138.692 126.26H137.628C137.287 126.26 137.052 126.325 136.924 126.456C136.799 126.584 136.736 126.816 136.736 127.152C136.736 127.488 136.8 127.723 136.928 127.856C137.059 127.987 137.295 128.052 137.636 128.052H138.696C139.2 128.052 139.572 128.172 139.812 128.412C140.052 128.649 140.172 129.021 140.172 129.528C140.172 130.032 140.052 130.403 139.812 130.64C139.575 130.877 139.203 130.996 138.696 130.996H137.544ZM143.155 131C142.731 131 142.418 130.899 142.215 130.696C142.012 130.493 141.911 130.18 141.911 129.756C141.911 129.329 142.012 129.015 142.215 128.812C142.418 128.609 142.731 128.508 143.155 128.508H144.935C144.924 128.18 144.846 127.952 144.699 127.824C144.555 127.696 144.307 127.632 143.955 127.632H143.491C143.176 127.632 142.944 127.663 142.795 127.724C142.648 127.783 142.554 127.885 142.511 128.032C142.484 128.112 142.451 128.171 142.411 128.208C142.374 128.243 142.316 128.26 142.239 128.26C142.156 128.26 142.091 128.237 142.043 128.192C141.998 128.144 141.982 128.08 141.995 128C142.046 127.696 142.194 127.475 142.439 127.336C142.684 127.197 143.035 127.128 143.491 127.128H143.955C144.467 127.128 144.842 127.248 145.079 127.488C145.319 127.725 145.439 128.1 145.439 128.612V130.748C145.439 130.916 145.355 131 145.187 131C145.019 131 144.935 130.916 144.935 130.748V130.42C144.671 130.807 144.227 131 143.603 131H143.155ZM143.155 130.496H143.603C143.843 130.496 144.056 130.471 144.243 130.42C144.432 130.369 144.587 130.285 144.707 130.168C144.83 130.051 144.906 129.892 144.935 129.692V129.012H143.155C142.87 129.012 142.675 129.064 142.571 129.168C142.467 129.272 142.415 129.468 142.415 129.756C142.415 130.041 142.467 130.236 142.571 130.34C142.675 130.444 142.87 130.496 143.155 130.496ZM148.913 131C148.409 131 148.039 130.883 147.805 130.648C147.57 130.413 147.453 130.047 147.453 129.548V127.632H147.005C146.837 127.632 146.753 127.548 146.753 127.38C146.753 127.212 146.837 127.128 147.005 127.128H147.453V126.36C147.453 126.192 147.537 126.108 147.705 126.108C147.873 126.108 147.957 126.192 147.957 126.36V127.128H148.933C149.101 127.128 149.185 127.212 149.185 127.38C149.185 127.548 149.101 127.632 148.933 127.632H147.957V129.548C147.957 129.908 148.026 130.156 148.165 130.292C148.303 130.428 148.553 130.496 148.913 130.496C149.001 130.496 149.065 130.517 149.105 130.56C149.147 130.6 149.169 130.663 149.169 130.748C149.169 130.916 149.083 131 148.913 131Z" fill="white"/>
</g>
<rect x="57.5" y="139.5" width="64" height="22" rx="11" stroke="#B6B6B6"/>
<path d="M92.065 156H86.455C86.025 156 85.81 155.79 85.81 155.37C85.81 154.7 85.915 154.13 86.125 153.66C86.34 153.185 86.6125 152.785 86.9425 152.46C87.2775 152.13 87.6325 151.852 88.0075 151.627C88.3825 151.397 88.73 151.19 89.05 151.005C89.605 150.69 90.0675 150.417 90.4375 150.187C90.8125 149.957 91.0925 149.722 91.2775 149.482C91.4625 149.242 91.555 148.95 91.555 148.605C91.555 148.01 91.4475 147.61 91.2325 147.405C91.0225 147.195 90.625 147.09 90.04 147.09H88.435C87.965 147.09 87.6175 147.152 87.3925 147.277C87.1675 147.402 87.025 147.635 86.965 147.975C86.93 148.175 86.8625 148.327 86.7625 148.432C86.6625 148.537 86.51 148.59 86.305 148.59C86.095 148.59 85.935 148.535 85.825 148.425C85.715 148.31 85.67 148.145 85.69 147.93C85.795 147.225 86.0725 146.7 86.5225 146.355C86.9725 146.005 87.61 145.83 88.435 145.83H90.04C90.98 145.83 91.6775 146.057 92.1325 146.512C92.5875 146.967 92.815 147.665 92.815 148.605C92.815 149.205 92.6675 149.707 92.3725 150.112C92.0775 150.512 91.69 150.867 91.21 151.177C90.73 151.482 90.215 151.79 89.665 152.1C89.265 152.33 88.885 152.56 88.525 152.79C88.17 153.02 87.865 153.287 87.61 153.592C87.36 153.897 87.195 154.28 87.115 154.74H92.065C92.485 154.74 92.695 154.95 92.695 155.37C92.695 155.79 92.485 156 92.065 156ZM99.0579 155.985C97.9129 155.985 97.0654 155.712 96.5154 155.167C95.9704 154.617 95.6979 153.77 95.6979 152.625V149.16C95.6979 148.005 95.9704 147.155 96.5154 146.61C97.0654 146.065 97.9129 145.8 99.0579 145.815H99.9579C101.108 145.815 101.955 146.087 102.5 146.632C103.045 147.172 103.318 148.02 103.318 149.175V152.625C103.318 153.77 103.045 154.617 102.5 155.167C101.955 155.712 101.108 155.985 99.9579 155.985H99.0579ZM99.0579 154.725H99.9579C100.493 154.725 100.913 154.66 101.218 154.53C101.523 154.4 101.738 154.182 101.863 153.877C101.993 153.572 102.058 153.155 102.058 152.625V149.175C102.058 148.64 101.993 148.22 101.863 147.915C101.738 147.61 101.523 147.395 101.218 147.27C100.913 147.14 100.493 147.075 99.9579 147.075H99.0579C98.5279 147.065 98.1104 147.122 97.8054 147.247C97.5004 147.367 97.2829 147.582 97.1529 147.892C97.0229 148.197 96.9579 148.62 96.9579 149.16V152.625C96.9579 153.155 97.0204 153.572 97.1454 153.877C97.2754 154.182 97.4929 154.4 97.7979 154.53C98.1029 154.66 98.5229 154.725 99.0579 154.725ZM99.3279 151.635C98.9279 151.635 98.7279 151.435 98.7279 151.035V150.66C98.7279 150.27 98.9279 150.075 99.3279 150.075H99.6879C100.068 150.075 100.258 150.27 100.258 150.66V151.035C100.258 151.435 100.068 151.635 99.6879 151.635H99.3279ZM109.597 156C108.722 156 108.044 155.817 107.564 155.452C107.089 155.082 106.802 154.515 106.702 153.75C106.682 153.54 106.727 153.377 106.837 153.262C106.947 153.147 107.107 153.09 107.317 153.09C107.702 153.09 107.917 153.295 107.962 153.705C108.032 154.095 108.189 154.365 108.434 154.515C108.679 154.665 109.067 154.74 109.597 154.74H111.157C111.802 154.74 112.239 154.622 112.469 154.387C112.704 154.147 112.822 153.71 112.822 153.075V152.04C112.822 151.395 112.704 150.957 112.469 150.727C112.234 150.492 111.797 150.375 111.157 150.375H110.047C109.307 150.375 108.772 150.465 108.442 150.645C108.292 150.735 108.154 150.802 108.029 150.847C107.909 150.892 107.767 150.89 107.602 150.84L107.452 150.795C107.102 150.695 106.927 150.46 106.927 150.09V146.46C106.927 146.04 107.137 145.83 107.557 145.83H113.452C113.872 145.83 114.082 146.04 114.082 146.46C114.082 146.88 113.872 147.09 113.452 147.09H108.187V149.385C108.697 149.205 109.317 149.115 110.047 149.115H111.157C112.147 149.115 112.882 149.355 113.362 149.835C113.842 150.315 114.082 151.05 114.082 152.04V153.075C114.082 154.065 113.842 154.8 113.362 155.28C112.882 155.76 112.147 156 111.157 156H109.597Z" fill="#B6B6B6"/>
<path fill-rule="evenodd" clip-rule="evenodd" d="M70.6467 144.435C70.7526 144.369 70.8751 144.334 71 144.334C71.1249 144.334 71.2474 144.369 71.3533 144.435L75.956 147.312L71 150.227L66.044 147.312L70.6467 144.435ZM65.0053 148.248C65.0017 148.277 64.9999 148.305 65 148.334V153.667C65 153.78 65.0288 153.892 65.0836 153.99C65.1384 154.089 65.2175 154.173 65.3133 154.233L70.3333 157.37V151.382L65.0053 148.248ZM71.6667 157.37L76.6867 154.233C76.7826 154.173 76.8616 154.089 76.9164 153.99C76.9712 153.892 77 153.78 77 153.667V148.334C77 148.305 76.998 148.276 76.9947 148.248L71.6667 151.381V157.37Z" fill="#B6B6B6"/>
<circle cx="149.76" cy="26.76" r="14.76" fill="url(#paint0_linear_652_3040)"/>
<line x1="23" y1="120.5" x2="158" y2="120.5" stroke="white"/>
<rect x="32" y="85" width="11" height="30" rx="5.5" fill="white"/>
<rect x="53" y="69" width="11" height="46" rx="5.5" fill="white"/>
<rect x="74" y="80" width="11" height="35" rx="5.5" fill="white"/>
<rect x="95" y="94" width="11" height="21" rx="5.5" fill="white"/>
<rect x="137" y="80" width="11" height="35" rx="5.5" fill="white"/>
<g filter="url(#filter8_d_652_3040)">
<rect x="116" y="55" width="11" height="60" rx="5.5" fill="#32FF9D"/>
</g>
<path d="M119.514 46.48C120.074 46.7933 120.354 47.32 120.354 48.06C120.354 48.72 120.195 49.2083 119.879 49.525C119.562 49.8417 119.07 50 118.404 50H117.264C116.6 50 116.109 49.8417 115.789 49.525C115.472 49.2083 115.314 48.72 115.314 48.06C115.314 47.2967 115.604 46.7633 116.184 46.46C115.744 46.13 115.524 45.6567 115.524 45.04C115.524 44.4233 115.675 43.9667 115.979 43.67C116.285 43.37 116.75 43.22 117.374 43.22H118.344C118.97 43.22 119.435 43.37 119.739 43.67C120.042 43.9667 120.194 44.4233 120.194 45.04C120.194 45.6833 119.967 46.1633 119.514 46.48ZM117.374 44.06C116.98 44.06 116.714 44.13 116.574 44.27C116.434 44.4067 116.364 44.6633 116.364 45.04C116.364 45.46 116.429 45.745 116.559 45.895C116.692 46.045 116.91 46.12 117.214 46.12L118.354 46.13C118.64 46.13 118.855 46.0883 118.999 46.005C119.142 45.9183 119.237 45.795 119.284 45.635C119.33 45.4717 119.354 45.2733 119.354 45.04C119.354 44.6633 119.284 44.4067 119.144 44.27C119.007 44.13 118.74 44.06 118.344 44.06H117.374ZM118.404 49.16C118.834 49.16 119.125 49.0833 119.279 48.93C119.435 48.7733 119.514 48.4833 119.514 48.06C119.514 47.6333 119.435 47.3433 119.279 47.19C119.125 47.0367 118.834 46.96 118.404 46.96H117.264C116.834 46.96 116.54 47.0367 116.384 47.19C116.23 47.3433 116.154 47.6333 116.154 48.06C116.154 48.4833 116.23 48.7733 116.384 48.93C116.54 49.0833 116.834 49.16 117.264 49.16H118.404ZM124.85 49.99C124.087 49.99 123.522 49.8083 123.155 49.445C122.792 49.0783 122.61 48.5133 122.61 47.75V45.44C122.61 44.67 122.792 44.1033 123.155 43.74C123.522 43.3767 124.087 43.2 124.85 43.21H125.45C126.217 43.21 126.782 43.3917 127.145 43.755C127.509 44.115 127.69 44.68 127.69 45.45V47.75C127.69 48.5133 127.509 49.0783 127.145 49.445C126.782 49.8083 126.217 49.99 125.45 49.99H124.85ZM124.85 49.15H125.45C125.807 49.15 126.087 49.1067 126.29 49.02C126.494 48.9333 126.637 48.7883 126.72 48.585C126.807 48.3817 126.85 48.1033 126.85 47.75V45.45C126.85 45.0933 126.807 44.8133 126.72 44.61C126.637 44.4067 126.494 44.2633 126.29 44.18C126.087 44.0933 125.807 44.05 125.45 44.05H124.85C124.497 44.0433 124.219 44.0817 124.015 44.165C123.812 44.245 123.667 44.3883 123.58 44.595C123.494 44.7983 123.45 45.08 123.45 45.44V47.75C123.45 48.1033 123.492 48.3817 123.575 48.585C123.662 48.7883 123.807 48.9333 124.01 49.02C124.214 49.1067 124.494 49.15 124.85 49.15ZM125.03 47.09C124.764 47.09 124.63 46.9567 124.63 46.69V46.44C124.63 46.18 124.764 46.05 125.03 46.05H125.27C125.524 46.05 125.65 46.18 125.65 46.44V46.69C125.65 46.9567 125.524 47.09 125.27 47.09H125.03Z" fill="white"/>
<path d="M97.8587 90C97.5787 90 97.4387 89.86 97.4387 89.58V84.42L97.6687 84.26L96.5687 85.29C96.4853 85.37 96.397 85.4183 96.3037 85.435C96.2103 85.4483 96.1187 85.41 96.0287 85.32C95.8487 85.14 95.8587 84.95 96.0587 84.75L97.3987 83.43C97.5387 83.29 97.712 83.22 97.9187 83.22C98.1587 83.22 98.2787 83.36 98.2787 83.64V89.58C98.2787 89.86 98.1387 90 97.8587 90ZM102.895 89.99C102.132 89.99 101.567 89.8083 101.2 89.445C100.837 89.0783 100.655 88.5133 100.655 87.75V85.44C100.655 84.67 100.837 84.1033 101.2 83.74C101.567 83.3767 102.132 83.2 102.895 83.21H103.495C104.262 83.21 104.827 83.3917 105.19 83.755C105.554 84.115 105.735 84.68 105.735 85.45V87.75C105.735 88.5133 105.554 89.0783 105.19 89.445C104.827 89.8083 104.262 89.99 103.495 89.99H102.895ZM102.895 89.15H103.495C103.852 89.15 104.132 89.1067 104.335 89.02C104.539 88.9333 104.682 88.7883 104.765 88.585C104.852 88.3817 104.895 88.1033 104.895 87.75V85.45C104.895 85.0933 104.852 84.8133 104.765 84.61C104.682 84.4067 104.539 84.2633 104.335 84.18C104.132 84.0933 103.852 84.05 103.495 84.05H102.895C102.542 84.0433 102.264 84.0817 102.06 84.165C101.857 84.245 101.712 84.3883 101.625 84.595C101.539 84.7983 101.495 85.08 101.495 85.44V87.75C101.495 88.1033 101.537 88.3817 101.62 88.585C101.707 88.7883 101.852 88.9333 102.055 89.02C102.259 89.1067 102.539 89.15 102.895 89.15ZM103.075 87.09C102.809 87.09 102.675 86.9567 102.675 86.69V86.44C102.675 86.18 102.809 86.05 103.075 86.05H103.315C103.569 86.05 103.695 86.18 103.695 86.44V86.69C103.695 86.9567 103.569 87.09 103.315 87.09H103.075Z" fill="#A3A3A3"/>
<path d="M78.2442 76H74.5042C74.2175 76 74.0742 75.86 74.0742 75.58C74.0742 75.1333 74.1442 74.7533 74.2842 74.44C74.4275 74.1233 74.6092 73.8567 74.8292 73.64C75.0525 73.42 75.2892 73.235 75.5392 73.085C75.7892 72.9317 76.0208 72.7933 76.2342 72.67C76.6042 72.46 76.9125 72.2783 77.1592 72.125C77.4092 71.9717 77.5958 71.815 77.7192 71.655C77.8425 71.495 77.9042 71.3 77.9042 71.07C77.9042 70.6733 77.8325 70.4067 77.6892 70.27C77.5492 70.13 77.2842 70.06 76.8942 70.06H75.8242C75.5108 70.06 75.2792 70.1017 75.1292 70.185C74.9792 70.2683 74.8842 70.4233 74.8442 70.65C74.8208 70.7833 74.7758 70.885 74.7092 70.955C74.6425 71.025 74.5408 71.06 74.4042 71.06C74.2642 71.06 74.1575 71.0233 74.0842 70.95C74.0108 70.8733 73.9808 70.7633 73.9942 70.62C74.0642 70.15 74.2492 69.8 74.5492 69.57C74.8492 69.3367 75.2742 69.22 75.8242 69.22H76.8942C77.5208 69.22 77.9858 69.3717 78.2892 69.675C78.5925 69.9783 78.7442 70.4433 78.7442 71.07C78.7442 71.47 78.6458 71.805 78.4492 72.075C78.2525 72.3417 77.9942 72.5783 77.6742 72.785C77.3542 72.9883 77.0108 73.1933 76.6442 73.4C76.3775 73.5533 76.1242 73.7067 75.8842 73.86C75.6475 74.0133 75.4442 74.1917 75.2742 74.395C75.1075 74.5983 74.9975 74.8533 74.9442 75.16H78.2442C78.5242 75.16 78.6642 75.3 78.6642 75.58C78.6642 75.86 78.5242 76 78.2442 76ZM82.5961 76C82.0128 76 81.5611 75.8783 81.2411 75.635C80.9245 75.3883 80.7328 75.01 80.6661 74.5C80.6528 74.36 80.6828 74.2517 80.7561 74.175C80.8295 74.0983 80.9361 74.06 81.0761 74.06C81.3328 74.06 81.4761 74.1967 81.5061 74.47C81.5528 74.73 81.6578 74.91 81.8211 75.01C81.9845 75.11 82.2428 75.16 82.5961 75.16H83.6361C84.0661 75.16 84.3578 75.0817 84.5111 74.925C84.6678 74.765 84.7461 74.4733 84.7461 74.05V73.36C84.7461 72.93 84.6678 72.6383 84.5111 72.485C84.3545 72.3283 84.0628 72.25 83.6361 72.25H82.8961C82.4028 72.25 82.0461 72.31 81.8261 72.43C81.7261 72.49 81.6345 72.535 81.5511 72.565C81.4711 72.595 81.3761 72.5933 81.2661 72.56L81.1661 72.53C80.9328 72.4633 80.8161 72.3067 80.8161 72.06V69.64C80.8161 69.36 80.9561 69.22 81.2361 69.22H85.1661C85.4461 69.22 85.5861 69.36 85.5861 69.64C85.5861 69.92 85.4461 70.06 85.1661 70.06H81.6561V71.59C81.9961 71.47 82.4095 71.41 82.8961 71.41H83.6361C84.2961 71.41 84.7861 71.57 85.1061 71.89C85.4261 72.21 85.5861 72.7 85.5861 73.36V74.05C85.5861 74.71 85.4261 75.2 85.1061 75.52C84.7861 75.84 84.2961 76 83.6361 76H82.5961Z" fill="#A3A3A3"/>
<path d="M141.244 76H137.504C137.218 76 137.074 75.86 137.074 75.58C137.074 75.1333 137.144 74.7533 137.284 74.44C137.428 74.1233 137.609 73.8567 137.829 73.64C138.053 73.42 138.289 73.235 138.539 73.085C138.789 72.9317 139.021 72.7933 139.234 72.67C139.604 72.46 139.913 72.2783 140.159 72.125C140.409 71.9717 140.596 71.815 140.719 71.655C140.843 71.495 140.904 71.3 140.904 71.07C140.904 70.6733 140.833 70.4067 140.689 70.27C140.549 70.13 140.284 70.06 139.894 70.06H138.824C138.511 70.06 138.279 70.1017 138.129 70.185C137.979 70.2683 137.884 70.4233 137.844 70.65C137.821 70.7833 137.776 70.885 137.709 70.955C137.643 71.025 137.541 71.06 137.404 71.06C137.264 71.06 137.158 71.0233 137.084 70.95C137.011 70.8733 136.981 70.7633 136.994 70.62C137.064 70.15 137.249 69.8 137.549 69.57C137.849 69.3367 138.274 69.22 138.824 69.22H139.894C140.521 69.22 140.986 69.3717 141.289 69.675C141.593 69.9783 141.744 70.4433 141.744 71.07C141.744 71.47 141.646 71.805 141.449 72.075C141.253 72.3417 140.994 72.5783 140.674 72.785C140.354 72.9883 140.011 73.1933 139.644 73.4C139.378 73.5533 139.124 73.7067 138.884 73.86C138.648 74.0133 138.444 74.1917 138.274 74.395C138.108 74.5983 137.998 74.8533 137.944 75.16H141.244C141.524 75.16 141.664 75.3 141.664 75.58C141.664 75.86 141.524 76 141.244 76ZM145.596 76C145.013 76 144.561 75.8783 144.241 75.635C143.924 75.3883 143.733 75.01 143.666 74.5C143.653 74.36 143.683 74.2517 143.756 74.175C143.829 74.0983 143.936 74.06 144.076 74.06C144.333 74.06 144.476 74.1967 144.506 74.47C144.553 74.73 144.658 74.91 144.821 75.01C144.984 75.11 145.243 75.16 145.596 75.16H146.636C147.066 75.16 147.358 75.0817 147.511 74.925C147.668 74.765 147.746 74.4733 147.746 74.05V73.36C147.746 72.93 147.668 72.6383 147.511 72.485C147.354 72.3283 147.063 72.25 146.636 72.25H145.896C145.403 72.25 145.046 72.31 144.826 72.43C144.726 72.49 144.634 72.535 144.551 72.565C144.471 72.595 144.376 72.5933 144.266 72.56L144.166 72.53C143.933 72.4633 143.816 72.3067 143.816 72.06V69.64C143.816 69.36 143.956 69.22 144.236 69.22H148.166C148.446 69.22 148.586 69.36 148.586 69.64C148.586 69.92 148.446 70.06 148.166 70.06H144.656V71.59C144.996 71.47 145.409 71.41 145.896 71.41H146.636C147.296 71.41 147.786 71.57 148.106 71.89C148.426 72.21 148.586 72.7 148.586 73.36V74.05C148.586 74.71 148.426 75.2 148.106 75.52C147.786 75.84 147.296 76 146.636 76H145.596Z" fill="#A3A3A3"/>
<path d="M55.1649 65C54.8849 65 54.7449 64.86 54.7449 64.58L54.7549 59.2L55.0849 58.96L52.1249 62.97L52.0549 62.76L56.1649 62.74C56.3016 62.74 56.4049 62.78 56.4749 62.86C56.5483 62.94 56.5849 63.04 56.5849 63.16C56.5849 63.44 56.4449 63.58 56.1649 63.58H51.6549C51.3749 63.58 51.2349 63.44 51.2349 63.16C51.2349 63.0267 51.2916 62.88 51.4049 62.72L54.5449 58.48C54.6316 58.3633 54.7199 58.2917 54.8099 58.265C54.9033 58.235 55.0116 58.22 55.1349 58.22C55.4416 58.22 55.5949 58.36 55.5949 58.64L55.5849 64.58C55.5849 64.86 55.4449 65 55.1649 65ZM60.3354 65C59.7521 65 59.3004 64.8783 58.9804 64.635C58.6637 64.3883 58.4721 64.01 58.4054 63.5C58.3921 63.36 58.4221 63.2517 58.4954 63.175C58.5687 63.0983 58.6754 63.06 58.8154 63.06C59.0721 63.06 59.2154 63.1967 59.2454 63.47C59.2921 63.73 59.3971 63.91 59.5604 64.01C59.7237 64.11 59.9821 64.16 60.3354 64.16H61.3754C61.8054 64.16 62.0971 64.0817 62.2504 63.925C62.4071 63.765 62.4854 63.4733 62.4854 63.05V62.36C62.4854 61.93 62.4071 61.6383 62.2504 61.485C62.0937 61.3283 61.8021 61.25 61.3754 61.25H60.6354C60.1421 61.25 59.7854 61.31 59.5654 61.43C59.4654 61.49 59.3737 61.535 59.2904 61.565C59.2104 61.595 59.1154 61.5933 59.0054 61.56L58.9054 61.53C58.6721 61.4633 58.5554 61.3067 58.5554 61.06V58.64C58.5554 58.36 58.6954 58.22 58.9754 58.22H62.9054C63.1854 58.22 63.3254 58.36 63.3254 58.64C63.3254 58.92 63.1854 59.06 62.9054 59.06H59.3954V60.59C59.7354 60.47 60.1487 60.41 60.6354 60.41H61.3754C62.0354 60.41 62.5254 60.57 62.8454 60.89C63.1654 61.21 63.3254 61.7 63.3254 62.36V63.05C63.3254 63.71 63.1654 64.2 62.8454 64.52C62.5254 64.84 62.0354 65 61.3754 65H60.3354Z" fill="#A3A3A3"/>
<path d="M35.6661 81H31.9261C31.6394 81 31.4961 80.86 31.4961 80.58C31.4961 80.1333 31.5661 79.7533 31.7061 79.44C31.8494 79.1233 32.0311 78.8567 32.2511 78.64C32.4744 78.42 32.7111 78.235 32.9611 78.085C33.2111 77.9317 33.4427 77.7933 33.6561 77.67C34.0261 77.46 34.3344 77.2783 34.5811 77.125C34.8311 76.9717 35.0177 76.815 35.1411 76.655C35.2644 76.495 35.3261 76.3 35.3261 76.07C35.3261 75.6733 35.2544 75.4067 35.1111 75.27C34.9711 75.13 34.7061 75.06 34.3161 75.06H33.2461C32.9327 75.06 32.7011 75.1017 32.5511 75.185C32.4011 75.2683 32.3061 75.4233 32.2661 75.65C32.2427 75.7833 32.1977 75.885 32.1311 75.955C32.0644 76.025 31.9627 76.06 31.8261 76.06C31.6861 76.06 31.5794 76.0233 31.5061 75.95C31.4327 75.8733 31.4027 75.7633 31.4161 75.62C31.4861 75.15 31.6711 74.8 31.9711 74.57C32.2711 74.3367 32.6961 74.22 33.2461 74.22H34.3161C34.9427 74.22 35.4077 74.3717 35.7111 74.675C36.0144 74.9783 36.1661 75.4433 36.1661 76.07C36.1661 76.47 36.0677 76.805 35.8711 77.075C35.6744 77.3417 35.4161 77.5783 35.0961 77.785C34.7761 77.9883 34.4327 78.1933 34.0661 78.4C33.7994 78.5533 33.5461 78.7067 33.3061 78.86C33.0694 79.0133 32.8661 79.1917 32.6961 79.395C32.5294 79.5983 32.4194 79.8533 32.3661 80.16H35.6661C35.9461 80.16 36.0861 80.3 36.0861 80.58C36.0861 80.86 35.9461 81 35.6661 81ZM40.328 80.99C39.5647 80.99 38.9997 80.8083 38.633 80.445C38.2697 80.0783 38.088 79.5133 38.088 78.75V76.44C38.088 75.67 38.2697 75.1033 38.633 74.74C38.9997 74.3767 39.5647 74.2 40.328 74.21H40.928C41.6947 74.21 42.2597 74.3917 42.623 74.755C42.9863 75.115 43.168 75.68 43.168 76.45V78.75C43.168 79.5133 42.9863 80.0783 42.623 80.445C42.2597 80.8083 41.6947 80.99 40.928 80.99H40.328ZM40.328 80.15H40.928C41.2847 80.15 41.5647 80.1067 41.768 80.02C41.9713 79.9333 42.1147 79.7883 42.198 79.585C42.2847 79.3817 42.328 79.1033 42.328 78.75V76.45C42.328 76.0933 42.2847 75.8133 42.198 75.61C42.1147 75.4067 41.9713 75.2633 41.768 75.18C41.5647 75.0933 41.2847 75.05 40.928 75.05H40.328C39.9747 75.0433 39.6963 75.0817 39.493 75.165C39.2897 75.245 39.1447 75.3883 39.058 75.595C38.9713 75.7983 38.928 76.08 38.928 76.44V78.75C38.928 79.1033 38.9697 79.3817 39.053 79.585C39.1397 79.7883 39.2847 79.9333 39.488 80.02C39.6913 80.1067 39.9713 80.15 40.328 80.15ZM40.508 78.09C40.2413 78.09 40.108 77.9567 40.108 77.69V77.44C40.108 77.18 40.2413 77.05 40.508 77.05H40.748C41.0013 77.05 41.128 77.18 41.128 77.44V77.69C41.128 77.9567 41.0013 78.09 40.748 78.09H40.508Z" fill="#A3A3A3"/>
<path d="M143 34V22.8H146.111V34H143ZM148.444 34V18H151.556V34H148.444ZM153.889 34V27.6H157V34H153.889Z" fill="white"/>
<defs>
<filter id="filter0_d_652_3040" x="0" y="0" width="179" height="178" filterUnits="userSpaceOnUse" color-interpolation-filters="sRGB">
<feFlood flood-opacity="0" result="BackgroundImageFix"/>
<feColorMatrix in="SourceAlpha" type="matrix" values="0 0 0 0 0 0 0 0 0 0 0 0 0 0 0 0 0 0 127 0" result="hardAlpha"/>
<feOffset dy="4"/>
<feGaussianBlur stdDeviation="2"/>
<feComposite in2="hardAlpha" operator="out"/>
<feColorMatrix type="matrix" values="0 0 0 0 0 0 0 0 0 0 0 0 0 0 0 0 0 0 0.25 0"/>
<feBlend mode="normal" in2="BackgroundImageFix" result="effect1_dropShadow_652_3040"/>
<feBlend mode="normal" in="SourceGraphic" in2="effect1_dropShadow_652_3040" result="shape"/>
</filter>
<filter id="filter1_d_652_3040" x="19.248" y="19.5527" width="90.1227" height="16.4473" filterUnits="userSpaceOnUse" color-interpolation-filters="sRGB">
<feFlood flood-opacity="0" result="BackgroundImageFix"/>
<feColorMatrix in="SourceAlpha" type="matrix" values="0 0 0 0 0 0 0 0 0 0 0 0 0 0 0 0 0 0 127 0" result="hardAlpha"/>
<feOffset dy="2"/>
<feGaussianBlur stdDeviation="2"/>
<feComposite in2="hardAlpha" operator="out"/>
<feColorMatrix type="matrix" values="0 0 0 0 0 0 0 0 0 0 0 0 0 0 0 0 0 0 0.35 0"/>
<feBlend mode="normal" in2="BackgroundImageFix" result="effect1_dropShadow_652_3040"/>
<feBlend mode="normal" in="SourceGraphic" in2="effect1_dropShadow_652_3040" result="shape"/>
</filter>
<filter id="filter2_d_652_3040" x="26.2041" y="123.756" width="23.6643" height="13.2441" filterUnits="userSpaceOnUse" color-interpolation-filters="sRGB">
<feFlood flood-opacity="0" result="BackgroundImageFix"/>
<feColorMatrix in="SourceAlpha" type="matrix" values="0 0 0 0 0 0 0 0 0 0 0 0 0 0 0 0 0 0 127 0" result="hardAlpha"/>
<feOffset dy="2"/>
<feGaussianBlur stdDeviation="2"/>
<feComposite in2="hardAlpha" operator="out"/>
<feColorMatrix type="matrix" values="0 0 0 0 0 0 0 0 0 0 0 0 0 0 0 0 0 0 0.35 0"/>
<feBlend mode="normal" in2="BackgroundImageFix" result="effect1_dropShadow_652_3040"/>
<feBlend mode="normal" in="SourceGraphic" in2="effect1_dropShadow_652_3040" result="shape"/>
</filter>
<filter id="filter3_d_652_3040" x="47.9205" y="123.756" width="21.6927" height="13.248" filterUnits="userSpaceOnUse" color-interpolation-filters="sRGB">
<feFlood flood-opacity="0" result="BackgroundImageFix"/>
<feColorMatrix in="SourceAlpha" type="matrix" values="0 0 0 0 0 0 0 0 0 0 0 0 0 0 0 0 0 0 127 0" result="hardAlpha"/>
<feOffset dy="2"/>
<feGaussianBlur stdDeviation="2"/>
<feComposite in2="hardAlpha" operator="out"/>
<feColorMatrix type="matrix" values="0 0 0 0 0 0 0 0 0 0 0 0 0 0 0 0 0 0 0.35 0"/>
<feBlend mode="normal" in2="BackgroundImageFix" result="effect1_dropShadow_652_3040"/>
<feBlend mode="normal" in="SourceGraphic" in2="effect1_dropShadow_652_3040" result="shape"/>
</filter>
<filter id="filter4_d_652_3040" x="67.583" y="123.424" width="24.2451" height="13.5762" filterUnits="userSpaceOnUse" color-interpolation-filters="sRGB">
<feFlood flood-opacity="0" result="BackgroundImageFix"/>
<feColorMatrix in="SourceAlpha" type="matrix" values="0 0 0 0 0 0 0 0 0 0 0 0 0 0 0 0 0 0 127 0" result="hardAlpha"/>
<feOffset dy="2"/>
<feGaussianBlur stdDeviation="2"/>
<feComposite in2="hardAlpha" operator="out"/>
<feColorMatrix type="matrix" values="0 0 0 0 0 0 0 0 0 0 0 0 0 0 0 0 0 0 0.35 0"/>
<feBlend mode="normal" in2="BackgroundImageFix" result="effect1_dropShadow_652_3040"/>
<feBlend mode="normal" in="SourceGraphic" in2="effect1_dropShadow_652_3040" result="shape"/>
</filter>
<filter id="filter5_d_652_3040" x="89.9362" y="123.424" width="21.1913" height="13.5801" filterUnits="userSpaceOnUse" color-interpolation-filters="sRGB">
<feFlood flood-opacity="0" result="BackgroundImageFix"/>
<feColorMatrix in="SourceAlpha" type="matrix" values="0 0 0 0 0 0 0 0 0 0 0 0 0 0 0 0 0 0 127 0" result="hardAlpha"/>
<feOffset dy="2"/>
<feGaussianBlur stdDeviation="2"/>
<feComposite in2="hardAlpha" operator="out"/>
<feColorMatrix type="matrix" values="0 0 0 0 0 0 0 0 0 0 0 0 0 0 0 0 0 0 0.35 0"/>
<feBlend mode="normal" in2="BackgroundImageFix" result="effect1_dropShadow_652_3040"/>
<feBlend mode="normal" in="SourceGraphic" in2="effect1_dropShadow_652_3040" result="shape"/>
</filter>
<filter id="filter6_d_652_3040" x="113.462" y="123.6" width="16.2254" height="13.4004" filterUnits="userSpaceOnUse" color-interpolation-filters="sRGB">
<feFlood flood-opacity="0" result="BackgroundImageFix"/>
<feColorMatrix in="SourceAlpha" type="matrix" values="0 0 0 0 0 0 0 0 0 0 0 0 0 0 0 0 0 0 127 0" result="hardAlpha"/>
<feOffset dy="2"/>
<feGaussianBlur stdDeviation="2"/>
<feComposite in2="hardAlpha" operator="out"/>
<feColorMatrix type="matrix" values="0 0 0 0 0 0 0 0 0 0 0 0 0 0 0 0 0 0 0.35 0"/>
<feBlend mode="normal" in2="BackgroundImageFix" result="effect1_dropShadow_652_3040"/>
<feBlend mode="normal" in="SourceGraphic" in2="effect1_dropShadow_652_3040" result="shape"/>
</filter>
<filter id="filter7_d_652_3040" x="132.068" y="123.756" width="21.1167" height="13.2441" filterUnits="userSpaceOnUse" color-interpolation-filters="sRGB">
<feFlood flood-opacity="0" result="BackgroundImageFix"/>
<feColorMatrix in="SourceAlpha" type="matrix" values="0 0 0 0 0 0 0 0 0 0 0 0 0 0 0 0 0 0 127 0" result="hardAlpha"/>
<feOffset dy="2"/>
<feGaussianBlur stdDeviation="2"/>
<feComposite in2="hardAlpha" operator="out"/>
<feColorMatrix type="matrix" values="0 0 0 0 0 0 0 0 0 0 0 0 0 0 0 0 0 0 0.35 0"/>
<feBlend mode="normal" in2="BackgroundImageFix" result="effect1_dropShadow_652_3040"/>
<feBlend mode="normal" in="SourceGraphic" in2="effect1_dropShadow_652_3040" result="shape"/>
</filter>
<filter id="filter8_d_652_3040" x="113.2" y="54.2" width="16.6" height="65.6" filterUnits="userSpaceOnUse" color-interpolation-filters="sRGB">
<feFlood flood-opacity="0" result="BackgroundImageFix"/>
<feColorMatrix in="SourceAlpha" type="matrix" values="0 0 0 0 0 0 0 0 0 0 0 0 0 0 0 0 0 0 127 0" result="hardAlpha"/>
<feOffset dy="2"/>
<feGaussianBlur stdDeviation="1.4"/>
<feComposite in2="hardAlpha" operator="out"/>
<feColorMatrix type="matrix" values="0 0 0 0 0 0 0 0 0 0 0 0 0 0 0 0 0 0 0.55 0"/>
<feBlend mode="normal" in2="BackgroundImageFix" result="effect1_dropShadow_652_3040"/>
<feBlend mode="normal" in="SourceGraphic" in2="effect1_dropShadow_652_3040" result="shape"/>
</filter>
<linearGradient id="paint0_linear_652_3040" x1="163.5" y1="27" x2="136" y2="28" gradientUnits="userSpaceOnUse">
<stop stop-color="#1E2023"/>
<stop offset="1" stop-color="#1E2023"/>
</linearGradient>
</defs>
</svg>
