<svg width="20" height="31" viewBox="0 0 20 31" fill="none" xmlns="http://www.w3.org/2000/svg">
<path d="M11.5 0.0830093C12.6104 0.082134 13.684 0.480746 14.5247 1.20603C15.3655 1.93131 15.9172 2.93485 16.0792 4.03333C16.2412 5.1318 16.0025 6.25188 15.4069 7.18896C14.8113 8.12605 13.8984 8.81757 12.8351 9.13722L12.573 9.20813L16.3146 13.4863L19.1266 14.8907C19.4822 15.0644 19.7574 15.3681 19.8952 15.739C20.033 16.11 20.023 16.5197 19.8671 16.8834C19.7112 17.2471 19.4214 17.5369 19.0577 17.6929C18.694 17.8488 18.2843 17.859 17.9134 17.7212L17.7484 17.6488L14.9364 16.2428C14.6682 16.1087 14.421 15.9363 14.2026 15.7309L13.9944 15.5151L12.425 13.7221L11.4075 17.7891C11.3156 18.1591 11.1556 18.5089 10.9358 18.8204L10.7662 19.0393L13.7385 21.7573C14.1211 22.1066 14.4096 22.5467 14.5772 23.0369L14.6496 23.2836L15.7874 27.833H16.125C16.518 27.8334 16.8959 27.9839 17.1816 28.2537C17.4674 28.5234 17.6393 28.8921 17.6623 29.2843C17.6854 29.6766 17.5577 30.0628 17.3055 30.3642C17.0533 30.6655 16.6956 30.8591 16.3054 30.9056L16.125 30.9163H14.7036C14.3583 30.9163 14.0213 30.8109 13.7375 30.6142C13.4538 30.4175 13.2368 30.1389 13.1157 29.8156L13.0586 29.6306L11.6588 24.0328L7.01839 19.7901C6.43563 19.4934 5.96224 19.0192 5.66657 18.4358C5.3709 17.8525 5.26825 17.1904 5.37344 16.5449L5.42585 16.2936L6.21673 13.1301L5.71877 13.4847L3.57123 17.0645C3.369 17.4021 3.04531 17.6496 2.66647 17.7563C2.28764 17.863 1.88235 17.8207 1.53367 17.6382C1.18499 17.4557 0.91931 17.1467 0.791086 16.7746C0.662862 16.4025 0.6818 15.9955 0.844019 15.6369L0.927269 15.4766L3.07481 11.8983C3.24863 11.6084 3.46894 11.349 3.72694 11.1306L3.92735 10.9764L8.18544 7.93163C7.55187 7.27982 7.12442 6.45577 6.95649 5.56243C6.78857 4.66908 6.88761 3.74606 7.24125 2.90868C7.59489 2.0713 8.18744 1.3567 8.94487 0.854144C9.7023 0.351592 10.591 0.0833768 11.5 0.0830093ZM7.36219 20.9741C7.55434 21.0381 7.73202 21.1392 7.88507 21.2719C8.03811 21.4045 8.16353 21.566 8.25415 21.7471C8.34478 21.9282 8.39883 22.1254 8.41323 22.3274C8.42763 22.5294 8.40208 22.7322 8.33806 22.9243L7.68131 24.8915C7.53006 25.3457 7.27512 25.7585 6.93669 26.0971L4.38214 28.6516C4.5549 28.9777 4.60495 29.355 4.52319 29.7149C4.44143 30.0748 4.23328 30.3934 3.93658 30.6128C3.63987 30.8323 3.27429 30.938 2.90625 30.9108C2.53821 30.8836 2.19213 30.7253 1.93089 30.4646L1.17085 29.7046C0.879011 29.4126 0.715067 29.0167 0.715067 28.6038C0.715067 28.191 0.879011 27.7951 1.17085 27.5031L4.75677 23.9172L5.41198 21.95C5.47591 21.7579 5.57708 21.5802 5.7097 21.4271C5.84232 21.2741 6.0038 21.1487 6.1849 21.058C6.36601 20.9674 6.5632 20.9134 6.7652 20.899C6.9672 20.8846 7.17006 20.9101 7.36219 20.9741Z" fill="#FF862E"/>
</svg>
