<svg width="20" height="17" viewBox="0 0 20 17" fill="none" xmlns="http://www.w3.org/2000/svg">
<path d="M1.87556 6.25462C1.84522 6.1307 1.84393 6.00164 1.87177 5.87715C1.89961 5.75266 1.95586 5.63598 2.0363 5.5359C2.11673 5.43581 2.21925 5.35493 2.33615 5.29932C2.45305 5.24371 2.58127 5.21483 2.71119 5.21484H17.7164C17.8464 5.21483 17.9746 5.24371 18.0915 5.29932C18.2084 5.35493 18.3109 5.43581 18.3913 5.5359C18.4718 5.63598 18.528 5.75266 18.5559 5.87715C18.5837 6.00164 18.5824 6.1307 18.5521 6.25462L16.3867 15.1056C16.3417 15.2897 16.2347 15.4536 16.0831 15.5708C15.9315 15.688 15.7441 15.7517 15.5511 15.7517H4.87652C4.6835 15.7517 4.4961 15.688 4.3445 15.5708C4.19291 15.4536 4.08596 15.2897 4.04089 15.1056L1.87556 6.25462Z" stroke="#1E2023" stroke-width="2" stroke-linecap="round" stroke-linejoin="round"/>
<path d="M8.0657 5.21475V1H4.62866V5.21475H8.0657ZM8.0657 5.21475L10.8583 1.42147L16.2287 5.21475" stroke="#1E2023" stroke-width="2" stroke-linecap="round" stroke-linejoin="round"/>
<path d="M6.34717 8.58691H9.7842" stroke="#1E2023" stroke-width="2" stroke-linecap="round"/>
</svg>
