<svg width="195" height="195" viewBox="0 0 195 195" fill="none" xmlns="http://www.w3.org/2000/svg">
<g filter="url(#filter0_d_652_2995)">
<rect x="12" y="10" width="171" height="171" rx="30" fill="url(#paint0_linear_652_2995)"/>
</g>
<g filter="url(#filter1_d_652_2995)">
<path d="M51.88 111C50.76 111 50.2 110.44 50.2 109.32V88.68L51.12 88.04L46.72 92.16C46.3867 92.48 46.0333 92.6733 45.66 92.74C45.2867 92.7933 44.92 92.64 44.56 92.28C43.84 91.56 43.88 90.8 44.68 90L50.04 84.72C50.6 84.16 51.2933 83.88 52.12 83.88C53.08 83.88 53.56 84.44 53.56 85.56V109.32C53.56 110.44 53 111 51.88 111ZM66.6056 111C65.4723 111 64.9256 110.413 64.9656 109.24C65.0056 107.187 65.139 105.44 65.3656 104C65.5923 102.547 65.939 101.3 66.4056 100.26C66.8723 99.2067 67.479 98.28 68.2256 97.48C68.9856 96.6667 69.9123 95.88 71.0056 95.12C71.8056 94.4933 72.4723 93.8067 73.0056 93.06C73.5523 92.3133 73.9723 91.4667 74.2656 90.52C74.5723 89.56 74.7656 88.4667 74.8456 87.24H62.2056C61.0856 87.24 60.5256 86.68 60.5256 85.56C60.5256 84.44 61.0856 83.88 62.2056 83.88H76.5656C77.6856 83.88 78.2456 84.44 78.2456 85.56C78.2456 87.4667 78.059 89.1733 77.6856 90.68C77.3256 92.1733 76.7523 93.5067 75.9656 94.68C75.1923 95.8533 74.1923 96.9067 72.9656 97.84C72.0856 98.4533 71.3523 99.08 70.7656 99.72C70.179 100.347 69.7123 101.08 69.3656 101.92C69.019 102.747 68.7656 103.753 68.6056 104.94C68.4456 106.113 68.3523 107.547 68.3256 109.24C68.2856 110.413 67.7123 111 66.6056 111ZM85.7647 111C84.698 111 84.1647 110.467 84.1647 109.4V108.4C84.1647 107.36 84.698 106.84 85.7647 106.84H86.7247C87.738 106.84 88.2447 107.36 88.2447 108.4V109.4C88.2447 110.467 87.738 111 86.7247 111H85.7647ZM85.7647 97.8C84.698 97.8 84.1647 97.2667 84.1647 96.2V95.2C84.1647 94.16 84.698 93.64 85.7647 93.64H86.7247C87.738 93.64 88.2447 94.16 88.2447 95.2V96.2C88.2447 97.2667 87.738 97.8 86.7247 97.8H85.7647ZM106.066 110.96C103.013 110.96 100.753 110.233 99.2859 108.78C97.8326 107.313 97.1059 105.053 97.1059 102V92.76C97.1059 89.68 97.8326 87.4133 99.2859 85.96C100.753 84.5067 103.013 83.8 106.066 83.84H108.466C111.533 83.84 113.793 84.5667 115.246 86.02C116.699 87.46 117.426 89.72 117.426 92.8V102C117.426 105.053 116.699 107.313 115.246 108.78C113.793 110.233 111.533 110.96 108.466 110.96H106.066ZM106.066 107.6H108.466C109.893 107.6 111.013 107.427 111.826 107.08C112.639 106.733 113.213 106.153 113.546 105.34C113.893 104.527 114.066 103.413 114.066 102V92.8C114.066 91.3733 113.893 90.2533 113.546 89.44C113.213 88.6267 112.639 88.0533 111.826 87.72C111.013 87.3733 109.893 87.2 108.466 87.2H106.066C104.653 87.1733 103.539 87.3267 102.726 87.66C101.913 87.98 101.333 88.5533 100.986 89.38C100.639 90.1933 100.466 91.32 100.466 92.76V102C100.466 103.413 100.633 104.527 100.966 105.34C101.313 106.153 101.893 106.733 102.706 107.08C103.519 107.427 104.639 107.6 106.066 107.6ZM106.786 99.36C105.719 99.36 105.186 98.8267 105.186 97.76V96.76C105.186 95.72 105.719 95.2 106.786 95.2H107.746C108.759 95.2 109.266 95.72 109.266 96.76V97.76C109.266 98.8267 108.759 99.36 107.746 99.36H106.786ZM135.41 110.96C132.356 110.96 130.096 110.233 128.63 108.78C127.176 107.313 126.45 105.053 126.45 102V92.76C126.45 89.68 127.176 87.4133 128.63 85.96C130.096 84.5067 132.356 83.8 135.41 83.84H137.81C140.876 83.84 143.136 84.5667 144.59 86.02C146.043 87.46 146.77 89.72 146.77 92.8V102C146.77 105.053 146.043 107.313 144.59 108.78C143.136 110.233 140.876 110.96 137.81 110.96H135.41ZM135.41 107.6H137.81C139.236 107.6 140.356 107.427 141.17 107.08C141.983 106.733 142.556 106.153 142.89 105.34C143.236 104.527 143.41 103.413 143.41 102V92.8C143.41 91.3733 143.236 90.2533 142.89 89.44C142.556 88.6267 141.983 88.0533 141.17 87.72C140.356 87.3733 139.236 87.2 137.81 87.2H135.41C133.996 87.1733 132.883 87.3267 132.07 87.66C131.256 87.98 130.676 88.5533 130.33 89.38C129.983 90.1933 129.81 91.32 129.81 92.76V102C129.81 103.413 129.976 104.527 130.31 105.34C130.656 106.153 131.236 106.733 132.05 107.08C132.863 107.427 133.983 107.6 135.41 107.6ZM136.13 99.36C135.063 99.36 134.53 98.8267 134.53 97.76V96.76C134.53 95.72 135.063 95.2 136.13 95.2H137.09C138.103 95.2 138.61 95.72 138.61 96.76V97.76C138.61 98.8267 138.103 99.36 137.09 99.36H136.13Z" fill="white"/>
</g>
<path d="M49.875 130.01C49.1383 130.01 48.5983 129.838 48.255 129.495C47.9117 129.152 47.74 128.612 47.74 127.875V125.585C47.74 124.845 47.9117 124.305 48.255 123.965C48.6017 123.622 49.1417 123.453 49.875 123.46H50.475C51.215 123.46 51.755 123.632 52.095 123.975C52.4383 124.315 52.61 124.855 52.61 125.595V127.875C52.61 128.612 52.4383 129.152 52.095 129.495C51.755 129.838 51.215 130.01 50.475 130.01H49.875ZM49.875 129.38H50.475C50.8517 129.38 51.1483 129.332 51.365 129.235C51.585 129.138 51.7417 128.982 51.835 128.765C51.9317 128.545 51.98 128.248 51.98 127.875V125.595C51.98 125.218 51.9317 124.922 51.835 124.705C51.7417 124.485 51.585 124.328 51.365 124.235C51.1483 124.138 50.8517 124.09 50.475 124.09H49.875C49.5017 124.087 49.205 124.132 48.985 124.225C48.7683 124.315 48.6117 124.47 48.515 124.69C48.4183 124.91 48.37 125.208 48.37 125.585V127.875C48.37 128.248 48.4167 128.545 48.51 128.765C48.6067 128.982 48.765 129.138 48.985 129.235C49.205 129.332 49.5017 129.38 49.875 129.38ZM50.075 127.16C49.8583 127.16 49.75 127.05 49.75 126.83V126.62C49.75 126.407 49.8583 126.3 50.075 126.3H50.28C50.49 126.3 50.595 126.407 50.595 126.62V126.83C50.595 127.05 50.49 127.16 50.28 127.16H50.075ZM56.4177 130C55.8443 130 55.4077 129.878 55.1077 129.635C54.811 129.392 54.6377 129.012 54.5877 128.495C54.581 128.388 54.6043 128.307 54.6577 128.25C54.7143 128.193 54.7943 128.165 54.8977 128.165C55.091 128.165 55.1977 128.268 55.2177 128.475C55.2543 128.805 55.3627 129.037 55.5427 129.17C55.726 129.303 56.0177 129.37 56.4177 129.37H57.4577C57.9177 129.37 58.2343 129.282 58.4077 129.105C58.5843 128.925 58.6727 128.608 58.6727 128.155V127.465C58.6727 127.005 58.5843 126.688 58.4077 126.515C58.2343 126.338 57.9177 126.25 57.4577 126.25H56.7177C56.1377 126.25 55.731 126.342 55.4977 126.525C55.4277 126.575 55.361 126.612 55.2977 126.635C55.2377 126.658 55.1643 126.657 55.0777 126.63L55.0077 126.61C54.831 126.56 54.7427 126.443 54.7427 126.26V123.76C54.7427 123.55 54.8477 123.445 55.0577 123.445H58.9527C59.1627 123.445 59.2677 123.55 59.2677 123.76C59.2677 123.97 59.1627 124.075 58.9527 124.075H55.3727V125.865C55.7093 125.702 56.1577 125.62 56.7177 125.62H57.4577C58.091 125.62 58.556 125.77 58.8527 126.07C59.1527 126.367 59.3027 126.832 59.3027 127.465V128.155C59.3027 128.785 59.1527 129.25 58.8527 129.55C58.556 129.85 58.091 130 57.4577 130H56.4177ZM61.5891 127.58C61.5124 127.58 61.4457 127.553 61.3891 127.5C61.3357 127.443 61.3091 127.377 61.3091 127.3C61.3091 127.22 61.3357 127.153 61.3891 127.1C61.4457 127.047 61.5124 127.02 61.5891 127.02H64.3491C64.4291 127.02 64.4957 127.047 64.5491 127.1C64.6024 127.153 64.6291 127.22 64.6291 127.3C64.6291 127.377 64.6024 127.443 64.5491 127.5C64.4957 127.553 64.4291 127.58 64.3491 127.58H61.5891ZM68.2473 130C68.0373 130 67.9323 129.895 67.9323 129.685V124.26L68.1673 124.185L67.0773 125.235C67.0107 125.298 66.9407 125.335 66.8673 125.345C66.7973 125.352 66.7273 125.32 66.6573 125.25C66.524 125.11 66.529 124.965 66.6723 124.815L67.9073 123.605C68.0107 123.498 68.1407 123.445 68.2973 123.445C68.474 123.445 68.5623 123.55 68.5623 123.76V129.685C68.5623 129.895 68.4573 130 68.2473 130ZM71.6341 130C71.4241 130 71.3208 129.89 71.3241 129.67C71.3308 129.183 71.3575 128.762 71.4041 128.405C71.4541 128.048 71.5325 127.735 71.6391 127.465C71.7491 127.195 71.8975 126.952 72.0841 126.735C72.2708 126.518 72.5075 126.312 72.7941 126.115C73.0208 125.948 73.2058 125.772 73.3491 125.585C73.4925 125.395 73.6008 125.178 73.6741 124.935C73.7475 124.692 73.7908 124.405 73.8041 124.075H70.5541C70.3441 124.075 70.2391 123.97 70.2391 123.76C70.2391 123.55 70.3441 123.445 70.5541 123.445H74.1241C74.3341 123.445 74.4391 123.55 74.4391 123.76C74.4391 124.22 74.3958 124.623 74.3091 124.97C74.2258 125.317 74.0891 125.623 73.8991 125.89C73.7125 126.157 73.4658 126.402 73.1591 126.625C72.9291 126.785 72.7375 126.95 72.5841 127.12C72.4308 127.29 72.3091 127.487 72.2191 127.71C72.1291 127.933 72.0641 128.203 72.0241 128.52C71.9841 128.833 71.9608 129.217 71.9541 129.67C71.9508 129.89 71.8441 130 71.6341 130ZM83.3052 130H79.4752C79.2585 130 79.1502 129.895 79.1502 129.685C79.1502 129.282 79.2085 128.937 79.3252 128.65C79.4418 128.36 79.6035 128.108 79.8102 127.895C80.0168 127.682 80.2568 127.488 80.5302 127.315C80.8035 127.138 81.0952 126.962 81.4052 126.785C81.7485 126.588 82.0368 126.415 82.2702 126.265C82.5068 126.115 82.6835 125.958 82.8002 125.795C82.9202 125.628 82.9802 125.427 82.9802 125.19C82.9802 124.767 82.9002 124.475 82.7402 124.315C82.5802 124.155 82.2885 124.075 81.8652 124.075H80.7952C80.4352 124.075 80.1702 124.133 80.0002 124.25C79.8335 124.367 79.7335 124.573 79.7002 124.87C79.6868 124.97 79.6552 125.047 79.6052 125.1C79.5552 125.153 79.4785 125.18 79.3752 125.18C79.2718 125.18 79.1918 125.152 79.1352 125.095C79.0818 125.038 79.0585 124.957 79.0652 124.85C79.1152 124.37 79.2802 124.017 79.5602 123.79C79.8435 123.56 80.2552 123.445 80.7952 123.445H81.8652C82.4652 123.445 82.9052 123.587 83.1852 123.87C83.4685 124.15 83.6102 124.59 83.6102 125.19C83.6102 125.553 83.5235 125.858 83.3502 126.105C83.1768 126.348 82.9468 126.565 82.6602 126.755C82.3735 126.945 82.0585 127.137 81.7152 127.33C81.3452 127.543 81.0235 127.74 80.7502 127.92C80.4802 128.1 80.2635 128.302 80.1002 128.525C79.9402 128.748 79.8402 129.03 79.8002 129.37H83.3052C83.5152 129.37 83.6202 129.475 83.6202 129.685C83.6202 129.895 83.5152 130 83.3052 130ZM87.6035 130.01C86.8668 130.01 86.3268 129.838 85.9835 129.495C85.6402 129.152 85.4685 128.612 85.4685 127.875V125.585C85.4685 124.845 85.6402 124.305 85.9835 123.965C86.3302 123.622 86.8702 123.453 87.6035 123.46H88.2035C88.9435 123.46 89.4835 123.632 89.8235 123.975C90.1668 124.315 90.3385 124.855 90.3385 125.595V127.875C90.3385 128.612 90.1668 129.152 89.8235 129.495C89.4835 129.838 88.9435 130.01 88.2035 130.01H87.6035ZM87.6035 129.38H88.2035C88.5802 129.38 88.8768 129.332 89.0935 129.235C89.3135 129.138 89.4702 128.982 89.5635 128.765C89.6602 128.545 89.7085 128.248 89.7085 127.875V125.595C89.7085 125.218 89.6602 124.922 89.5635 124.705C89.4702 124.485 89.3135 124.328 89.0935 124.235C88.8768 124.138 88.5802 124.09 88.2035 124.09H87.6035C87.2302 124.087 86.9335 124.132 86.7135 124.225C86.4968 124.315 86.3402 124.47 86.2435 124.69C86.1468 124.91 86.0985 125.208 86.0985 125.585V127.875C86.0985 128.248 86.1452 128.545 86.2385 128.765C86.3352 128.982 86.4935 129.138 86.7135 129.235C86.9335 129.332 87.2302 129.38 87.6035 129.38ZM87.8035 127.16C87.5868 127.16 87.4785 127.05 87.4785 126.83V126.62C87.4785 126.407 87.5868 126.3 87.8035 126.3H88.0085C88.2185 126.3 88.3235 126.407 88.3235 126.62V126.83C88.3235 127.05 88.2185 127.16 88.0085 127.16H87.8035ZM96.3462 130H92.5162C92.2995 130 92.1912 129.895 92.1912 129.685C92.1912 129.282 92.2495 128.937 92.3662 128.65C92.4828 128.36 92.6445 128.108 92.8512 127.895C93.0578 127.682 93.2978 127.488 93.5712 127.315C93.8445 127.138 94.1362 126.962 94.4462 126.785C94.7895 126.588 95.0778 126.415 95.3112 126.265C95.5478 126.115 95.7245 125.958 95.8412 125.795C95.9612 125.628 96.0212 125.427 96.0212 125.19C96.0212 124.767 95.9412 124.475 95.7812 124.315C95.6212 124.155 95.3295 124.075 94.9062 124.075H93.8362C93.4762 124.075 93.2112 124.133 93.0412 124.25C92.8745 124.367 92.7745 124.573 92.7412 124.87C92.7278 124.97 92.6962 125.047 92.6462 125.1C92.5962 125.153 92.5195 125.18 92.4162 125.18C92.3128 125.18 92.2328 125.152 92.1762 125.095C92.1228 125.038 92.0995 124.957 92.1062 124.85C92.1562 124.37 92.3212 124.017 92.6012 123.79C92.8845 123.56 93.2962 123.445 93.8362 123.445H94.9062C95.5062 123.445 95.9462 123.587 96.2262 123.87C96.5095 124.15 96.6512 124.59 96.6512 125.19C96.6512 125.553 96.5645 125.858 96.3912 126.105C96.2178 126.348 95.9878 126.565 95.7012 126.755C95.4145 126.945 95.0995 127.137 94.7562 127.33C94.3862 127.543 94.0645 127.74 93.7912 127.92C93.5212 128.1 93.3045 128.302 93.1412 128.525C92.9812 128.748 92.8812 129.03 92.8412 129.37H96.3462C96.5562 129.37 96.6612 129.475 96.6612 129.685C96.6612 129.895 96.5562 130 96.3462 130ZM101.241 130C101.031 130 100.926 129.895 100.926 129.685L100.956 124.25L101.161 124.155L98.1464 128.13L98.0664 127.975L102.086 127.965C102.19 127.965 102.268 127.993 102.321 128.05C102.375 128.107 102.401 128.183 102.401 128.28C102.401 128.49 102.296 128.595 102.086 128.595H97.7514C97.5414 128.595 97.4364 128.49 97.4364 128.28C97.4364 128.18 97.4797 128.07 97.5664 127.95L100.841 123.64C100.905 123.557 100.968 123.503 101.031 123.48C101.098 123.457 101.176 123.445 101.266 123.445C101.48 123.445 101.586 123.55 101.586 123.76L101.556 129.685C101.556 129.895 101.451 130 101.241 130Z" fill="#FFF0E4"/>
<g filter="url(#filter2_d_652_2995)">
<path d="M36.48 43.024C36.348 43.108 36.222 43.134 36.102 43.102C35.982 43.07 35.88 42.988 35.796 42.856L33.936 39.76H32.256V42.496C32.256 42.832 32.088 43 31.752 43C31.416 43 31.248 42.832 31.248 42.496V35.368C31.248 35.032 31.416 34.864 31.752 34.864H34.56C35.292 34.864 35.852 35.06 36.24 35.452C36.632 35.84 36.828 36.4 36.828 37.132V37.492C36.828 38.128 36.68 38.636 36.384 39.016C36.088 39.392 35.66 39.626 35.1 39.718L36.672 42.34C36.824 42.62 36.76 42.848 36.48 43.024ZM32.256 38.752H34.56C35.016 38.752 35.34 38.656 35.532 38.464C35.724 38.272 35.82 37.948 35.82 37.492V37.132C35.82 36.68 35.724 36.358 35.532 36.166C35.34 35.97 35.016 35.872 34.56 35.872H32.256V38.752ZM40.068 40.372V40.66C40.068 41.176 40.162 41.528 40.35 41.716C40.538 41.9 40.892 41.992 41.412 41.992H42.396C42.804 41.992 43.106 41.954 43.302 41.878C43.498 41.802 43.628 41.668 43.692 41.476C43.736 41.324 43.796 41.208 43.872 41.128C43.952 41.048 44.072 41.008 44.232 41.008C44.4 41.008 44.528 41.052 44.616 41.14C44.704 41.228 44.732 41.356 44.7 41.524C44.612 42.02 44.376 42.39 43.992 42.634C43.608 42.878 43.076 43 42.396 43H41.412C40.616 43 40.024 42.808 39.636 42.424C39.252 42.04 39.06 41.452 39.06 40.66V39.268C39.06 38.456 39.252 37.86 39.636 37.48C40.024 37.096 40.616 36.908 41.412 36.916H42.396C43.196 36.916 43.788 37.108 44.172 37.492C44.556 37.872 44.748 38.464 44.748 39.268V39.868C44.748 40.204 44.58 40.372 44.244 40.372H40.068ZM41.412 37.924C40.892 37.916 40.538 38.006 40.35 38.194C40.162 38.382 40.068 38.74 40.068 39.268V39.364H43.74V39.268C43.74 38.744 43.646 38.39 43.458 38.206C43.274 38.018 42.92 37.924 42.396 37.924H41.412ZM48.9815 43C48.4735 43 48.0715 42.896 47.7755 42.688C47.4795 42.476 47.2895 42.16 47.2055 41.74C47.1775 41.572 47.2095 41.44 47.3015 41.344C47.3975 41.248 47.5295 41.2 47.6975 41.2C47.8615 41.2 47.9795 41.242 48.0515 41.326C48.1275 41.406 48.1895 41.528 48.2375 41.692C48.2855 41.812 48.3655 41.892 48.4775 41.932C48.5935 41.972 48.7615 41.992 48.9815 41.992H50.9495C51.2615 41.992 51.4715 41.942 51.5795 41.842C51.6875 41.738 51.7415 41.524 51.7415 41.2C51.7415 40.88 51.6875 40.668 51.5795 40.564C51.4715 40.46 51.2615 40.408 50.9495 40.408H49.0175C48.4415 40.408 48.0075 40.262 47.7155 39.97C47.4235 39.678 47.2775 39.244 47.2775 38.668C47.2775 38.08 47.4195 37.642 47.7035 37.354C47.9915 37.062 48.4295 36.916 49.0175 36.916H50.8895C51.8295 36.916 52.3855 37.312 52.5575 38.104C52.5895 38.272 52.5575 38.402 52.4615 38.494C52.3655 38.586 52.2335 38.632 52.0655 38.632C51.9095 38.632 51.7935 38.592 51.7175 38.512C51.6415 38.428 51.5815 38.312 51.5375 38.164C51.4895 38.068 51.4155 38.004 51.3155 37.972C51.2195 37.94 51.0775 37.924 50.8895 37.924H49.0175C48.7135 37.924 48.5155 37.97 48.4235 38.062C48.3315 38.154 48.2855 38.356 48.2855 38.668C48.2855 38.956 48.3335 39.15 48.4295 39.25C48.5295 39.35 48.7255 39.4 49.0175 39.4H50.9495C51.5495 39.4 51.9995 39.55 52.2995 39.85C52.5995 40.15 52.7495 40.6 52.7495 41.2C52.7495 41.804 52.5995 42.256 52.2995 42.556C51.9995 42.852 51.5495 43 50.9495 43H48.9815ZM56.2094 40.372V40.66C56.2094 41.176 56.3034 41.528 56.4914 41.716C56.6794 41.9 57.0334 41.992 57.5534 41.992H58.5374C58.9454 41.992 59.2474 41.954 59.4434 41.878C59.6394 41.802 59.7694 41.668 59.8334 41.476C59.8774 41.324 59.9374 41.208 60.0134 41.128C60.0934 41.048 60.2134 41.008 60.3734 41.008C60.5414 41.008 60.6694 41.052 60.7574 41.14C60.8454 41.228 60.8734 41.356 60.8414 41.524C60.7534 42.02 60.5174 42.39 60.1334 42.634C59.7494 42.878 59.2174 43 58.5374 43H57.5534C56.7574 43 56.1654 42.808 55.7774 42.424C55.3934 42.04 55.2014 41.452 55.2014 40.66V39.268C55.2014 38.456 55.3934 37.86 55.7774 37.48C56.1654 37.096 56.7574 36.908 57.5534 36.916H58.5374C59.3374 36.916 59.9294 37.108 60.3134 37.492C60.6974 37.872 60.8894 38.464 60.8894 39.268V39.868C60.8894 40.204 60.7214 40.372 60.3854 40.372H56.2094ZM57.5534 37.924C57.0334 37.916 56.6794 38.006 56.4914 38.194C56.3034 38.382 56.2094 38.74 56.2094 39.268V39.364H59.8814V39.268C59.8814 38.744 59.7874 38.39 59.5994 38.206C59.4154 38.018 59.0614 37.924 58.5374 37.924H57.5534ZM64.1989 43C63.8629 43 63.6949 42.832 63.6949 42.496V37.42C63.6949 37.084 63.8629 36.916 64.1989 36.916C64.5349 36.916 64.7029 37.084 64.7029 37.42V37.888C64.9389 37.568 65.2389 37.326 65.6029 37.162C65.9709 36.998 66.3909 36.916 66.8629 36.916C67.1989 36.916 67.3669 37.084 67.3669 37.42C67.3669 37.756 67.1989 37.924 66.8629 37.924C66.1709 37.924 65.6429 38.052 65.2789 38.308C64.9149 38.564 64.7229 38.902 64.7029 39.322V42.496C64.7029 42.832 64.5349 43 64.1989 43ZM71.792 42.628C71.74 42.752 71.666 42.846 71.57 42.91C71.478 42.97 71.36 43 71.216 43C70.964 43 70.784 42.868 70.676 42.604L68.636 37.636C68.496 37.316 68.584 37.096 68.9 36.976C69.2 36.836 69.42 36.924 69.56 37.24L71.468 41.896H71L73.088 37.216C73.156 37.084 73.248 36.994 73.364 36.946C73.484 36.898 73.616 36.908 73.76 36.976C74.056 37.116 74.136 37.34 74 37.648L71.792 42.628ZM76.818 40.372V40.66C76.818 41.176 76.912 41.528 77.1 41.716C77.288 41.9 77.642 41.992 78.162 41.992H79.146C79.554 41.992 79.856 41.954 80.052 41.878C80.248 41.802 80.378 41.668 80.442 41.476C80.486 41.324 80.546 41.208 80.622 41.128C80.702 41.048 80.822 41.008 80.982 41.008C81.15 41.008 81.278 41.052 81.366 41.14C81.454 41.228 81.482 41.356 81.45 41.524C81.362 42.02 81.126 42.39 80.742 42.634C80.358 42.878 79.826 43 79.146 43H78.162C77.366 43 76.774 42.808 76.386 42.424C76.002 42.04 75.81 41.452 75.81 40.66V39.268C75.81 38.456 76.002 37.86 76.386 37.48C76.774 37.096 77.366 36.908 78.162 36.916H79.146C79.946 36.916 80.538 37.108 80.922 37.492C81.306 37.872 81.498 38.464 81.498 39.268V39.868C81.498 40.204 81.33 40.372 80.994 40.372H76.818ZM78.162 37.924C77.642 37.916 77.288 38.006 77.1 38.194C76.912 38.382 76.818 38.74 76.818 39.268V39.364H80.49V39.268C80.49 38.744 80.396 38.39 80.208 38.206C80.024 38.018 79.67 37.924 79.146 37.924H78.162ZM86.3675 43C85.5715 43 84.9795 42.808 84.5915 42.424C84.2075 42.036 84.0155 41.444 84.0155 40.648V39.268C84.0155 38.468 84.2075 37.876 84.5915 37.492C84.9795 37.108 85.5715 36.916 86.3675 36.916H88.6955V35.056C88.6955 34.72 88.8635 34.552 89.1995 34.552C89.5355 34.552 89.7035 34.72 89.7035 35.056V42.496C89.7035 42.832 89.5355 43 89.1995 43C88.8635 43 88.6955 42.832 88.6955 42.496V42.412C88.5075 42.604 88.2615 42.75 87.9575 42.85C87.6535 42.95 87.2755 43 86.8235 43H86.3675ZM86.3675 41.992H86.8235C87.3515 41.992 87.7955 41.924 88.1555 41.788C88.5155 41.652 88.6955 41.444 88.6955 41.164V37.924H86.3675C85.8475 37.924 85.4935 38.02 85.3055 38.212C85.1175 38.4 85.0235 38.752 85.0235 39.268V40.648C85.0235 41.168 85.1175 41.522 85.3055 41.71C85.4975 41.898 85.8515 41.992 86.3675 41.992ZM99.4942 43C99.3262 43 99.2002 42.958 99.1162 42.874C99.0322 42.79 98.9902 42.664 98.9902 42.496V35.884H96.6622C96.4942 35.884 96.3682 35.842 96.2842 35.758C96.2002 35.674 96.1582 35.548 96.1582 35.38C96.1582 35.212 96.2002 35.086 96.2842 35.002C96.3682 34.918 96.4942 34.876 96.6622 34.876H102.326C102.494 34.876 102.62 34.918 102.704 35.002C102.788 35.086 102.83 35.212 102.83 35.38C102.83 35.548 102.788 35.674 102.704 35.758C102.62 35.842 102.494 35.884 102.326 35.884H99.9982V42.496C99.9982 42.656 99.9542 42.78 99.8662 42.868C99.7822 42.956 99.6582 43 99.4942 43ZM105.365 35.932C104.985 35.932 104.795 35.74 104.795 35.356V35.002C104.795 34.626 104.985 34.438 105.365 34.438H105.713C106.077 34.438 106.259 34.626 106.259 35.002V35.356C106.259 35.74 106.077 35.932 105.713 35.932H105.365ZM105.533 43C105.197 43 105.029 42.832 105.029 42.496V37.42C105.029 37.084 105.197 36.916 105.533 36.916C105.869 36.916 106.037 37.084 106.037 37.42V42.496C106.037 42.832 105.869 43 105.533 43ZM115.793 36.916C116.549 36.916 117.091 37.094 117.419 37.45C117.751 37.806 117.917 38.396 117.917 39.22V42.496C117.917 42.832 117.749 43 117.413 43C117.077 43 116.909 42.832 116.909 42.496V39.22C116.909 38.764 116.821 38.434 116.645 38.23C116.473 38.026 116.189 37.924 115.793 37.924H115.301C114.845 37.924 114.519 38.026 114.323 38.23C114.127 38.434 114.029 38.764 114.029 39.22V42.496C114.029 42.832 113.861 43 113.525 43C113.189 43 113.021 42.832 113.021 42.496V39.22C113.021 38.764 112.933 38.434 112.757 38.23C112.585 38.026 112.301 37.924 111.905 37.924H111.413C110.957 37.924 110.631 38.026 110.435 38.23C110.239 38.434 110.141 38.764 110.141 39.22V42.496C110.141 42.832 109.973 43 109.637 43C109.301 43 109.133 42.832 109.133 42.496V37.42C109.133 37.084 109.301 36.916 109.637 36.916C109.973 36.916 110.141 37.084 110.141 37.42V37.696C110.353 37.42 110.585 37.222 110.837 37.102C111.093 36.978 111.397 36.916 111.749 36.916H111.905C112.401 36.916 112.791 36.986 113.075 37.126C113.359 37.262 113.575 37.484 113.723 37.792C113.935 37.476 114.159 37.252 114.395 37.12C114.635 36.984 114.937 36.916 115.301 36.916H115.793ZM121.609 40.372V40.66C121.609 41.176 121.703 41.528 121.891 41.716C122.079 41.9 122.433 41.992 122.953 41.992H123.937C124.345 41.992 124.647 41.954 124.843 41.878C125.039 41.802 125.169 41.668 125.233 41.476C125.277 41.324 125.337 41.208 125.413 41.128C125.493 41.048 125.613 41.008 125.773 41.008C125.941 41.008 126.069 41.052 126.157 41.14C126.245 41.228 126.273 41.356 126.241 41.524C126.153 42.02 125.917 42.39 125.533 42.634C125.149 42.878 124.617 43 123.937 43H122.953C122.157 43 121.565 42.808 121.177 42.424C120.793 42.04 120.601 41.452 120.601 40.66V39.268C120.601 38.456 120.793 37.86 121.177 37.48C121.565 37.096 122.157 36.908 122.953 36.916H123.937C124.737 36.916 125.329 37.108 125.713 37.492C126.097 37.872 126.289 38.464 126.289 39.268V39.868C126.289 40.204 126.121 40.372 125.785 40.372H121.609ZM122.953 37.924C122.433 37.916 122.079 38.006 121.891 38.194C121.703 38.382 121.609 38.74 121.609 39.268V39.364H125.281V39.268C125.281 38.744 125.187 38.39 124.999 38.206C124.815 38.018 124.461 37.924 123.937 37.924H122.953Z" fill="white"/>
</g>
<circle cx="155.76" cy="38.76" r="14.76" fill="url(#paint1_linear_652_2995)"/>
<path d="M161.088 34.8001C160.944 34.3681 160.512 34.0801 160.08 34.0801H152.16C151.656 34.0801 151.296 34.3681 151.152 34.8001L149.64 39.1201V44.8801C149.64 45.2401 150 45.6001 150.36 45.6001H151.08C151.512 45.6001 151.8 45.2401 151.8 44.8801V44.1601H160.44V44.8801C160.44 45.2401 160.8 45.6001 161.16 45.6001H161.88C162.24 45.6001 162.6 45.2401 162.6 44.8801V39.1201L161.088 34.8001ZM152.376 35.5201H159.792L160.584 37.6801H151.656L152.376 35.5201ZM161.16 42.7201H151.08V39.1201H161.16V42.7201ZM152.88 39.8401C153.456 39.8401 153.96 40.3441 153.96 40.9201C153.96 41.4961 153.456 42.0001 152.88 42.0001C152.304 42.0001 151.8 41.4961 151.8 40.9201C151.8 40.3441 152.304 39.8401 152.88 39.8401ZM159.36 39.8401C159.936 39.8401 160.44 40.3441 160.44 40.9201C160.44 41.4961 159.936 42.0001 159.36 42.0001C158.784 42.0001 158.28 41.4961 158.28 40.9201C158.28 40.3441 158.784 39.8401 159.36 39.8401Z" fill="white"/>
<g filter="url(#filter3_d_652_2995)">
<rect x="32" y="82" width="3" height="50" rx="1.5" fill="white"/>
</g>
<rect x="124.5" y="147.5" width="46" height="22" rx="11" stroke="white"/>
<g filter="url(#filter4_d_652_2995)">
<path d="M151.705 164C151.285 164 151.075 163.79 151.075 163.37V155.63L151.42 155.39L149.77 156.935C149.645 157.055 149.513 157.127 149.373 157.152C149.233 157.172 149.095 157.115 148.96 156.98C148.69 156.71 148.705 156.425 149.005 156.125L151.015 154.145C151.225 153.935 151.485 153.83 151.795 153.83C152.155 153.83 152.335 154.04 152.335 154.46V163.37C152.335 163.79 152.125 164 151.705 164ZM161.645 164H156.035C155.605 164 155.39 163.79 155.39 163.37C155.39 162.7 155.495 162.13 155.705 161.66C155.92 161.185 156.193 160.785 156.523 160.46C156.858 160.13 157.213 159.852 157.588 159.627C157.963 159.397 158.31 159.19 158.63 159.005C159.185 158.69 159.648 158.417 160.018 158.187C160.393 157.957 160.673 157.722 160.858 157.482C161.043 157.242 161.135 156.95 161.135 156.605C161.135 156.01 161.028 155.61 160.813 155.405C160.603 155.195 160.205 155.09 159.62 155.09H158.015C157.545 155.09 157.198 155.152 156.973 155.277C156.748 155.402 156.605 155.635 156.545 155.975C156.51 156.175 156.443 156.327 156.343 156.432C156.243 156.537 156.09 156.59 155.885 156.59C155.675 156.59 155.515 156.535 155.405 156.425C155.295 156.31 155.25 156.145 155.27 155.93C155.375 155.225 155.653 154.7 156.103 154.355C156.553 154.005 157.19 153.83 158.015 153.83H159.62C160.56 153.83 161.258 154.057 161.713 154.512C162.168 154.967 162.395 155.665 162.395 156.605C162.395 157.205 162.248 157.707 161.953 158.112C161.658 158.512 161.27 158.867 160.79 159.177C160.31 159.482 159.795 159.79 159.245 160.1C158.845 160.33 158.465 160.56 158.105 160.79C157.75 161.02 157.445 161.287 157.19 161.592C156.94 161.897 156.775 162.28 156.695 162.74H161.645C162.065 162.74 162.275 162.95 162.275 163.37C162.275 163.79 162.065 164 161.645 164Z" fill="white"/>
</g>
<path fill-rule="evenodd" clip-rule="evenodd" d="M137.647 152.435C137.753 152.369 137.875 152.334 138 152.334C138.125 152.334 138.247 152.369 138.353 152.435L142.956 155.312L138 158.227L133.044 155.312L137.647 152.435ZM132.005 156.248C132.002 156.277 132 156.305 132 156.334V161.667C132 161.78 132.029 161.892 132.084 161.99C132.138 162.089 132.217 162.173 132.313 162.233L137.333 165.37V159.382L132.005 156.248ZM138.667 165.37L143.687 162.233C143.783 162.173 143.862 162.089 143.916 161.99C143.971 161.892 144 161.78 144 161.667V156.334C144 156.305 143.998 156.276 143.995 156.248L138.667 159.381V165.37Z" fill="white"/>
<defs>
<filter id="filter0_d_652_2995" x="0.3" y="0.3" width="194.4" height="194.4" filterUnits="userSpaceOnUse" color-interpolation-filters="sRGB">
<feFlood flood-opacity="0" result="BackgroundImageFix"/>
<feColorMatrix in="SourceAlpha" type="matrix" values="0 0 0 0 0 0 0 0 0 0 0 0 0 0 0 0 0 0 127 0" result="hardAlpha"/>
<feOffset dy="2"/>
<feGaussianBlur stdDeviation="5.85"/>
<feComposite in2="hardAlpha" operator="out"/>
<feColorMatrix type="matrix" values="0 0 0 0 0.645275 0 0 0 0 0.645275 0 0 0 0 0.645275 0 0 0 0.75 0"/>
<feBlend mode="normal" in2="BackgroundImageFix" result="effect1_dropShadow_652_2995"/>
<feBlend mode="normal" in="SourceGraphic" in2="effect1_dropShadow_652_2995" result="shape"/>
</filter>
<filter id="filter1_d_652_2995" x="39.48" y="81.7793" width="111.29" height="35.2207" filterUnits="userSpaceOnUse" color-interpolation-filters="sRGB">
<feFlood flood-opacity="0" result="BackgroundImageFix"/>
<feColorMatrix in="SourceAlpha" type="matrix" values="0 0 0 0 0 0 0 0 0 0 0 0 0 0 0 0 0 0 127 0" result="hardAlpha"/>
<feOffset dy="2"/>
<feGaussianBlur stdDeviation="2"/>
<feComposite in2="hardAlpha" operator="out"/>
<feColorMatrix type="matrix" values="0 0 0 0 0.175791 0 0 0 0 0.28432 0 0 0 0 0.769085 0 0 0 1 0"/>
<feBlend mode="normal" in2="BackgroundImageFix" result="effect1_dropShadow_652_2995"/>
<feBlend mode="normal" in="SourceGraphic" in2="effect1_dropShadow_652_2995" result="shape"/>
</filter>
<filter id="filter2_d_652_2995" x="27.248" y="32.4375" width="103.041" height="16.7129" filterUnits="userSpaceOnUse" color-interpolation-filters="sRGB">
<feFlood flood-opacity="0" result="BackgroundImageFix"/>
<feColorMatrix in="SourceAlpha" type="matrix" values="0 0 0 0 0 0 0 0 0 0 0 0 0 0 0 0 0 0 127 0" result="hardAlpha"/>
<feOffset dy="2"/>
<feGaussianBlur stdDeviation="2"/>
<feComposite in2="hardAlpha" operator="out"/>
<feColorMatrix type="matrix" values="0 0 0 0 0 0 0 0 0 0 0 0 0 0 0 0 0 0 0.35 0"/>
<feBlend mode="normal" in2="BackgroundImageFix" result="effect1_dropShadow_652_2995"/>
<feBlend mode="normal" in="SourceGraphic" in2="effect1_dropShadow_652_2995" result="shape"/>
</filter>
<filter id="filter3_d_652_2995" x="28" y="82" width="11" height="58" filterUnits="userSpaceOnUse" color-interpolation-filters="sRGB">
<feFlood flood-opacity="0" result="BackgroundImageFix"/>
<feColorMatrix in="SourceAlpha" type="matrix" values="0 0 0 0 0 0 0 0 0 0 0 0 0 0 0 0 0 0 127 0" result="hardAlpha"/>
<feOffset dy="4"/>
<feGaussianBlur stdDeviation="2"/>
<feComposite in2="hardAlpha" operator="out"/>
<feColorMatrix type="matrix" values="0 0 0 0 0 0 0 0 0 0 0 0 0 0 0 0 0 0 0.25 0"/>
<feBlend mode="normal" in2="BackgroundImageFix" result="effect1_dropShadow_652_2995"/>
<feBlend mode="normal" in="SourceGraphic" in2="effect1_dropShadow_652_2995" result="shape"/>
</filter>
<filter id="filter4_d_652_2995" x="145.555" y="151.83" width="19.8401" height="16.1699" filterUnits="userSpaceOnUse" color-interpolation-filters="sRGB">
<feFlood flood-opacity="0" result="BackgroundImageFix"/>
<feColorMatrix in="SourceAlpha" type="matrix" values="0 0 0 0 0 0 0 0 0 0 0 0 0 0 0 0 0 0 127 0" result="hardAlpha"/>
<feOffset dy="1"/>
<feGaussianBlur stdDeviation="1.5"/>
<feComposite in2="hardAlpha" operator="out"/>
<feColorMatrix type="matrix" values="0 0 0 0 0 0 0 0 0 0.320611 0 0 0 0 1 0 0 0 0.5 0"/>
<feBlend mode="normal" in2="BackgroundImageFix" result="effect1_dropShadow_652_2995"/>
<feBlend mode="normal" in="SourceGraphic" in2="effect1_dropShadow_652_2995" result="shape"/>
</filter>
<linearGradient id="paint0_linear_652_2995" x1="16.7238" y1="96" x2="178.749" y2="96" gradientUnits="userSpaceOnUse">
<stop stop-color="#3B56E4"/>
<stop offset="1" stop-color="#86DBFF"/>
</linearGradient>
<linearGradient id="paint1_linear_652_2995" x1="141" y1="39" x2="171" y2="41.5" gradientUnits="userSpaceOnUse">
<stop stop-color="#5D9BE4"/>
<stop offset="1" stop-color="#3892FC"/>
</linearGradient>
</defs>
</svg>
