<svg width="179" height="178" viewBox="0 0 179 178" fill="none" xmlns="http://www.w3.org/2000/svg">
<g filter="url(#filter0_d_652_3074)">
<rect x="4" width="171" height="170" rx="30" fill="#24272C"/>
</g>
<path d="M25.48 32.024C25.348 32.108 25.222 32.134 25.102 32.102C24.982 32.07 24.88 31.988 24.796 31.856L22.936 28.76H21.256V31.496C21.256 31.832 21.088 32 20.752 32C20.416 32 20.248 31.832 20.248 31.496V24.368C20.248 24.032 20.416 23.864 20.752 23.864H23.56C24.292 23.864 24.852 24.06 25.24 24.452C25.632 24.84 25.828 25.4 25.828 26.132V26.492C25.828 27.128 25.68 27.636 25.384 28.016C25.088 28.392 24.66 28.626 24.1 28.718L25.672 31.34C25.824 31.62 25.76 31.848 25.48 32.024ZM21.256 27.752H23.56C24.016 27.752 24.34 27.656 24.532 27.464C24.724 27.272 24.82 26.948 24.82 26.492V26.132C24.82 25.68 24.724 25.358 24.532 25.166C24.34 24.97 24.016 24.872 23.56 24.872H21.256V27.752ZM29.068 29.372V29.66C29.068 30.176 29.162 30.528 29.35 30.716C29.538 30.9 29.892 30.992 30.412 30.992H31.396C31.804 30.992 32.106 30.954 32.302 30.878C32.498 30.802 32.628 30.668 32.692 30.476C32.736 30.324 32.796 30.208 32.872 30.128C32.952 30.048 33.072 30.008 33.232 30.008C33.4 30.008 33.528 30.052 33.616 30.14C33.704 30.228 33.732 30.356 33.7 30.524C33.612 31.02 33.376 31.39 32.992 31.634C32.608 31.878 32.076 32 31.396 32H30.412C29.616 32 29.024 31.808 28.636 31.424C28.252 31.04 28.06 30.452 28.06 29.66V28.268C28.06 27.456 28.252 26.86 28.636 26.48C29.024 26.096 29.616 25.908 30.412 25.916H31.396C32.196 25.916 32.788 26.108 33.172 26.492C33.556 26.872 33.748 27.464 33.748 28.268V28.868C33.748 29.204 33.58 29.372 33.244 29.372H29.068ZM30.412 26.924C29.892 26.916 29.538 27.006 29.35 27.194C29.162 27.382 29.068 27.74 29.068 28.268V28.364H32.74V28.268C32.74 27.744 32.646 27.39 32.458 27.206C32.274 27.018 31.92 26.924 31.396 26.924H30.412ZM38.8871 32C38.0951 32 37.5111 31.812 37.1351 31.436C36.7591 31.06 36.5711 30.48 36.5711 29.696V26.924H35.9831C35.6471 26.924 35.4791 26.756 35.4791 26.42C35.4791 26.084 35.6471 25.916 35.9831 25.916H36.5711V25.04C36.5711 24.704 36.7391 24.536 37.0751 24.536C37.4111 24.536 37.5791 24.704 37.5791 25.04V25.916H38.9591C39.2951 25.916 39.4631 26.084 39.4631 26.42C39.4631 26.756 39.2951 26.924 38.9591 26.924H37.5791V29.696C37.5791 30.204 37.6711 30.548 37.8551 30.728C38.0391 30.904 38.3831 30.992 38.8871 30.992C39.0431 30.992 39.1651 31.032 39.2531 31.112C39.3451 31.192 39.3911 31.32 39.3911 31.496C39.3911 31.832 39.2231 32 38.8871 32ZM46.8904 25.916C47.2264 25.916 47.3944 26.084 47.3944 26.42V31.496C47.3944 31.832 47.2264 32 46.8904 32C46.5544 32 46.3864 31.832 46.3864 31.496V31.298C45.9624 31.766 45.3384 32 44.5144 32H44.1784C43.3824 32 42.7904 31.808 42.4024 31.424C42.0184 31.036 41.8264 30.444 41.8264 29.648V26.42C41.8264 26.084 41.9944 25.916 42.3304 25.916C42.6664 25.916 42.8344 26.084 42.8344 26.42V29.648C42.8344 30.168 42.9284 30.522 43.1164 30.71C43.3084 30.898 43.6624 30.992 44.1784 30.992H44.5144C44.9944 30.992 45.4124 30.936 45.7684 30.824C46.1284 30.712 46.3344 30.54 46.3864 30.308V26.42C46.3864 26.084 46.5544 25.916 46.8904 25.916ZM50.9957 32C50.6597 32 50.4917 31.832 50.4917 31.496V26.42C50.4917 26.084 50.6597 25.916 50.9957 25.916C51.3317 25.916 51.4997 26.084 51.4997 26.42V26.888C51.7357 26.568 52.0357 26.326 52.3997 26.162C52.7677 25.998 53.1877 25.916 53.6597 25.916C53.9957 25.916 54.1637 26.084 54.1637 26.42C54.1637 26.756 53.9957 26.924 53.6597 26.924C52.9677 26.924 52.4397 27.052 52.0757 27.308C51.7117 27.564 51.5197 27.902 51.4997 28.322V31.496C51.4997 31.832 51.3317 32 50.9957 32ZM56.7168 32C56.3808 32 56.2128 31.832 56.2128 31.496V26.42C56.2128 26.084 56.3808 25.916 56.7168 25.916C57.0528 25.916 57.2208 26.084 57.2208 26.42V26.618C57.6448 26.15 58.2688 25.916 59.0928 25.916H59.4288C60.2288 25.916 60.8208 26.108 61.2048 26.492C61.5888 26.876 61.7808 27.468 61.7808 28.268V31.496C61.7808 31.832 61.6128 32 61.2768 32C60.9408 32 60.7728 31.832 60.7728 31.496V28.268C60.7728 27.744 60.6768 27.39 60.4848 27.206C60.2968 27.018 59.9448 26.924 59.4288 26.924H59.0928C58.6128 26.924 58.1948 26.98 57.8388 27.092C57.4828 27.2 57.2768 27.372 57.2208 27.608V31.496C57.2208 31.832 57.0528 32 56.7168 32ZM68.8316 33.836C68.6396 33.836 68.4976 33.776 68.4056 33.656C68.3136 33.536 68.2916 33.38 68.3396 33.188L70.7996 23.636C70.8836 23.372 71.0476 23.24 71.2916 23.24C71.4836 23.24 71.6256 23.302 71.7176 23.426C71.8136 23.546 71.8316 23.7 71.7716 23.888L69.3236 33.44C69.2516 33.704 69.0876 33.836 68.8316 33.836ZM83.2042 32.024C83.0722 32.108 82.9462 32.134 82.8262 32.102C82.7062 32.07 82.6042 31.988 82.5202 31.856L80.6602 28.76H78.9802V31.496C78.9802 31.832 78.8122 32 78.4762 32C78.1402 32 77.9722 31.832 77.9722 31.496V24.368C77.9722 24.032 78.1402 23.864 78.4762 23.864H81.2842C82.0162 23.864 82.5762 24.06 82.9642 24.452C83.3562 24.84 83.5522 25.4 83.5522 26.132V26.492C83.5522 27.128 83.4042 27.636 83.1082 28.016C82.8122 28.392 82.3842 28.626 81.8242 28.718L83.3962 31.34C83.5482 31.62 83.4842 31.848 83.2042 32.024ZM78.9802 27.752H81.2842C81.7402 27.752 82.0642 27.656 82.2562 27.464C82.4482 27.272 82.5442 26.948 82.5442 26.492V26.132C82.5442 25.68 82.4482 25.358 82.2562 25.166C82.0642 24.97 81.7402 24.872 81.2842 24.872H78.9802V27.752ZM86.7922 29.372V29.66C86.7922 30.176 86.8862 30.528 87.0742 30.716C87.2622 30.9 87.6162 30.992 88.1362 30.992H89.1202C89.5282 30.992 89.8302 30.954 90.0262 30.878C90.2222 30.802 90.3522 30.668 90.4162 30.476C90.4602 30.324 90.5202 30.208 90.5962 30.128C90.6762 30.048 90.7962 30.008 90.9562 30.008C91.1242 30.008 91.2522 30.052 91.3402 30.14C91.4282 30.228 91.4562 30.356 91.4242 30.524C91.3362 31.02 91.1002 31.39 90.7162 31.634C90.3322 31.878 89.8002 32 89.1202 32H88.1362C87.3402 32 86.7482 31.808 86.3602 31.424C85.9762 31.04 85.7842 30.452 85.7842 29.66V28.268C85.7842 27.456 85.9762 26.86 86.3602 26.48C86.7482 26.096 87.3402 25.908 88.1362 25.916H89.1202C89.9202 25.916 90.5122 26.108 90.8962 26.492C91.2802 26.872 91.4722 27.464 91.4722 28.268V28.868C91.4722 29.204 91.3042 29.372 90.9682 29.372H86.7922ZM88.1362 26.924C87.6162 26.916 87.2622 27.006 87.0742 27.194C86.8862 27.382 86.7922 27.74 86.7922 28.268V28.364H90.4642V28.268C90.4642 27.744 90.3702 27.39 90.1822 27.206C89.9982 27.018 89.6442 26.924 89.1202 26.924H88.1362ZM95.0097 32C94.6737 32 94.5057 31.832 94.5057 31.496V26.924H94.0617C93.7257 26.924 93.5577 26.756 93.5577 26.42C93.5577 26.084 93.7257 25.916 94.0617 25.916H94.5057V25.868C94.5057 25.08 94.6957 24.498 95.0757 24.122C95.4557 23.742 96.0377 23.552 96.8217 23.552C97.1097 23.552 97.2537 23.72 97.2537 24.056C97.2537 24.392 97.1097 24.56 96.8217 24.56C96.3177 24.56 95.9737 24.65 95.7897 24.83C95.6057 25.01 95.5137 25.356 95.5137 25.868V25.916H96.7497C97.0857 25.916 97.2537 26.084 97.2537 26.42C97.2537 26.756 97.0857 26.924 96.7497 26.924H95.5137V31.496C95.5137 31.832 95.3457 32 95.0097 32ZM104.451 25.916C104.787 25.916 104.955 26.084 104.955 26.42V31.496C104.955 31.832 104.787 32 104.451 32C104.115 32 103.947 31.832 103.947 31.496V31.298C103.523 31.766 102.899 32 102.075 32H101.739C100.943 32 100.351 31.808 99.9626 31.424C99.5786 31.036 99.3866 30.444 99.3866 29.648V26.42C99.3866 26.084 99.5546 25.916 99.8906 25.916C100.227 25.916 100.395 26.084 100.395 26.42V29.648C100.395 30.168 100.489 30.522 100.677 30.71C100.869 30.898 101.223 30.992 101.739 30.992H102.075C102.555 30.992 102.973 30.936 103.329 30.824C103.689 30.712 103.895 30.54 103.947 30.308V26.42C103.947 26.084 104.115 25.916 104.451 25.916ZM108.556 32C108.22 32 108.052 31.832 108.052 31.496V26.42C108.052 26.084 108.22 25.916 108.556 25.916C108.892 25.916 109.06 26.084 109.06 26.42V26.618C109.484 26.15 110.108 25.916 110.932 25.916H111.268C112.068 25.916 112.66 26.108 113.044 26.492C113.428 26.876 113.62 27.468 113.62 28.268V31.496C113.62 31.832 113.452 32 113.116 32C112.78 32 112.612 31.832 112.612 31.496V28.268C112.612 27.744 112.516 27.39 112.324 27.206C112.136 27.018 111.784 26.924 111.268 26.924H110.932C110.452 26.924 110.034 26.98 109.678 27.092C109.322 27.2 109.116 27.372 109.06 27.608V31.496C109.06 31.832 108.892 32 108.556 32ZM118.661 32C117.865 32 117.273 31.808 116.885 31.424C116.501 31.036 116.309 30.444 116.309 29.648V28.268C116.309 27.468 116.501 26.876 116.885 26.492C117.273 26.108 117.865 25.916 118.661 25.916H120.989V24.056C120.989 23.72 121.157 23.552 121.493 23.552C121.829 23.552 121.997 23.72 121.997 24.056V31.496C121.997 31.832 121.829 32 121.493 32C121.157 32 120.989 31.832 120.989 31.496V31.412C120.801 31.604 120.555 31.75 120.251 31.85C119.947 31.95 119.569 32 119.117 32H118.661ZM118.661 30.992H119.117C119.645 30.992 120.089 30.924 120.449 30.788C120.809 30.652 120.989 30.444 120.989 30.164V26.924H118.661C118.141 26.924 117.787 27.02 117.599 27.212C117.411 27.4 117.317 27.752 117.317 28.268V29.648C117.317 30.168 117.411 30.522 117.599 30.71C117.791 30.898 118.145 30.992 118.661 30.992Z" fill="white"/>
<rect x="19.5" y="136.5" width="46" height="22" rx="11" stroke="#B6B6B6"/>
<path d="M51.215 153C50.34 153 49.6625 152.817 49.1825 152.452C48.7075 152.082 48.42 151.515 48.32 150.75C48.3 150.54 48.345 150.377 48.455 150.262C48.565 150.147 48.725 150.09 48.935 150.09C49.32 150.09 49.535 150.295 49.58 150.705C49.65 151.095 49.8075 151.365 50.0525 151.515C50.2975 151.665 50.685 151.74 51.215 151.74H52.775C53.42 151.74 53.8575 151.622 54.0875 151.387C54.3225 151.147 54.44 150.71 54.44 150.075V149.04C54.44 148.395 54.3225 147.957 54.0875 147.727C53.8525 147.492 53.415 147.375 52.775 147.375H51.665C50.925 147.375 50.39 147.465 50.06 147.645C49.91 147.735 49.7725 147.802 49.6475 147.847C49.5275 147.892 49.385 147.89 49.22 147.84L49.07 147.795C48.72 147.695 48.545 147.46 48.545 147.09V143.46C48.545 143.04 48.755 142.83 49.175 142.83H55.07C55.49 142.83 55.7 143.04 55.7 143.46C55.7 143.88 55.49 144.09 55.07 144.09H49.805V146.385C50.315 146.205 50.935 146.115 51.665 146.115H52.775C53.765 146.115 54.5 146.355 54.98 146.835C55.46 147.315 55.7 148.05 55.7 149.04V150.075C55.7 151.065 55.46 151.8 54.98 152.28C54.5 152.76 53.765 153 52.775 153H51.215Z" fill="#B6B6B6"/>
<path fill-rule="evenodd" clip-rule="evenodd" d="M32.6467 141.435C32.7526 141.369 32.8751 141.334 33 141.334C33.1249 141.334 33.2474 141.369 33.3533 141.435L37.956 144.312L33 147.227L28.044 144.312L32.6467 141.435ZM27.0053 145.248C27.0017 145.277 26.9999 145.305 27 145.334V150.667C27 150.78 27.0288 150.892 27.0836 150.99C27.1384 151.089 27.2175 151.173 27.3133 151.233L32.3333 154.37V148.382L27.0053 145.248ZM33.6667 154.37L38.6867 151.233C38.7826 151.173 38.8616 151.089 38.9164 150.99C38.9712 150.892 39 150.78 39 150.667V145.334C39 145.305 38.998 145.276 38.9947 145.248L33.6667 148.381V154.37Z" fill="#B6B6B6"/>
<rect x="17" y="48" width="146" height="80" rx="10" fill="#1E2023"/>
<path d="M30.1043 60.272H29.0483V59.744H30.2003L30.3843 58.672H29.3363V58.144H30.4803L30.7843 56.416H31.3683L30.3843 62H29.8003L30.1043 60.272ZM32.2563 56.416H32.8403L32.5363 58.144H33.5923V58.672H32.4403L32.2563 59.744H33.3043V60.272H32.1603L31.8563 62H31.2723L32.2563 56.416ZM35.5092 62H34.8372V56.416H36.8692C37.3865 56.416 37.7812 56.5573 38.0532 56.84C38.3252 57.1227 38.4612 57.5173 38.4612 58.024C38.4612 58.4773 38.3439 58.84 38.1092 59.112C37.8745 59.384 37.5332 59.5413 37.0852 59.584L38.5092 62H37.7572L36.3972 59.616H35.5092V62ZM36.8532 59.048C37.1359 59.048 37.3545 58.9787 37.5092 58.84C37.6692 58.696 37.7492 58.4933 37.7492 58.232V57.816C37.7492 57.5547 37.6692 57.3547 37.5092 57.216C37.3545 57.072 37.1359 57 36.8532 57H35.5092V59.048H36.8532ZM40.0341 62L39.5941 56.416H40.1941L40.4261 59.616L40.5461 61.304H40.6101L41.3461 57.872H42.0981L42.8341 61.304H42.8981L43.0181 59.616L43.2501 56.416H43.8341L43.3941 62H42.4261L41.7461 58.664H41.6821L41.0021 62H40.0341ZM48.4389 63.312H47.5029C47.1883 63.312 46.9563 63.224 46.8069 63.048C46.6629 62.872 46.5909 62.6453 46.5909 62.368V62.072C46.3083 62.0347 46.0629 61.944 45.8549 61.8C45.6523 61.6507 45.4843 61.456 45.3509 61.216C45.2176 60.9707 45.1189 60.68 45.0549 60.344C44.9909 60.0027 44.9589 59.624 44.9589 59.208C44.9589 58.7547 44.9963 58.3493 45.0709 57.992C45.1456 57.6293 45.2629 57.3253 45.4229 57.08C45.5829 56.8347 45.7856 56.648 46.0309 56.52C46.2763 56.3867 46.5696 56.32 46.9109 56.32C47.2523 56.32 47.5456 56.3867 47.7909 56.52C48.0363 56.648 48.2389 56.8347 48.3989 57.08C48.5589 57.3253 48.6763 57.6293 48.7509 57.992C48.8256 58.3493 48.8629 58.7547 48.8629 59.208C48.8629 60.0453 48.7323 60.7147 48.4709 61.216C48.2096 61.712 47.7963 61.9973 47.2309 62.072V62.768H48.4389V63.312ZM46.9109 61.512C47.1349 61.512 47.3243 61.4693 47.4789 61.384C47.6336 61.2933 47.7616 61.168 47.8629 61.008C47.9643 60.848 48.0363 60.656 48.0789 60.432C48.1269 60.2027 48.1509 59.9467 48.1509 59.664V58.752C48.1509 58.4747 48.1269 58.2213 48.0789 57.992C48.0363 57.7627 47.9643 57.568 47.8629 57.408C47.7616 57.248 47.6336 57.1253 47.4789 57.04C47.3243 56.9493 47.1349 56.904 46.9109 56.904C46.6869 56.904 46.4976 56.9493 46.3429 57.04C46.1883 57.1253 46.0603 57.248 45.9589 57.408C45.8576 57.568 45.7829 57.7627 45.7349 57.992C45.6923 58.2213 45.6709 58.4747 45.6709 58.752V59.664C45.6709 59.9467 45.6923 60.2027 45.7349 60.432C45.7829 60.656 45.8576 60.848 45.9589 61.008C46.0603 61.168 46.1883 61.2933 46.3429 61.384C46.4976 61.4693 46.6869 61.512 46.9109 61.512ZM50.9478 59.904V59.232H53.2678V59.904H50.9478ZM58.9127 57H56.4167L56.2567 59.136H56.3127C56.4514 58.9493 56.606 58.8027 56.7767 58.696C56.9474 58.584 57.182 58.528 57.4807 58.528C57.726 58.528 57.95 58.568 58.1527 58.648C58.3607 58.7227 58.5394 58.8347 58.6887 58.984C58.838 59.1333 58.9554 59.3147 59.0407 59.528C59.126 59.736 59.1687 59.976 59.1687 60.248C59.1687 60.52 59.126 60.7707 59.0407 61C58.9554 61.224 58.83 61.4187 58.6647 61.584C58.4994 61.744 58.2994 61.8693 58.0647 61.96C57.83 62.0507 57.5634 62.096 57.2647 62.096C57.03 62.096 56.8194 62.0693 56.6327 62.016C56.4514 61.9627 56.2887 61.8907 56.1447 61.8C56.006 61.7093 55.8834 61.608 55.7767 61.496C55.67 61.384 55.574 61.2667 55.4887 61.144L55.9927 60.76C56.0674 60.872 56.142 60.9733 56.2167 61.064C56.2967 61.1547 56.3874 61.2347 56.4887 61.304C56.59 61.368 56.7047 61.4187 56.8327 61.456C56.9607 61.4933 57.11 61.512 57.2807 61.512C57.6647 61.512 57.958 61.408 58.1607 61.2C58.3687 60.992 58.4727 60.704 58.4727 60.336V60.272C58.4727 59.904 58.3687 59.616 58.1607 59.408C57.9527 59.2 57.654 59.096 57.2647 59.096C56.998 59.096 56.79 59.1413 56.6407 59.232C56.4967 59.3227 56.3634 59.4347 56.2407 59.568L55.6727 59.488L55.8727 56.416H58.9127V57ZM60.7816 62V61.416H62.3816V56.912H62.3256L60.9176 58.224L60.5256 57.8L62.0056 56.416H63.0536V61.416H64.5256V62H60.7816ZM66.0184 62V56.416H69.5384V57H66.6904V58.88H69.2984V59.464H66.6904V62H66.0184ZM74.7833 58.464C74.7833 58.88 74.7193 59.272 74.5913 59.64C74.4686 60.0027 74.3086 60.336 74.1113 60.64C73.914 60.9387 73.6953 61.2053 73.4553 61.44C73.2206 61.6693 72.9886 61.856 72.7593 62H71.8953C72.1993 61.7813 72.4686 61.568 72.7033 61.36C72.9433 61.152 73.154 60.936 73.3353 60.712C73.5166 60.4827 73.6686 60.24 73.7913 59.984C73.914 59.7227 74.0153 59.4293 74.0953 59.104L74.0553 59.088C73.9166 59.3173 73.738 59.5093 73.5193 59.664C73.306 59.8133 73.026 59.888 72.6793 59.888C72.434 59.888 72.2073 59.848 71.9993 59.768C71.7966 59.688 71.6206 59.5733 71.4713 59.424C71.3273 59.2747 71.2126 59.096 71.1273 58.888C71.0473 58.6747 71.0073 58.4347 71.0073 58.168C71.0073 57.896 71.05 57.648 71.1353 57.424C71.226 57.1947 71.354 57 71.5193 56.84C71.6846 56.6747 71.882 56.5467 72.1113 56.456C72.346 56.3653 72.6046 56.32 72.8873 56.32C73.1806 56.32 73.4446 56.3707 73.6793 56.472C73.914 56.568 74.1113 56.7093 74.2713 56.896C74.4366 57.0773 74.562 57.3013 74.6473 57.568C74.738 57.8347 74.7833 58.1333 74.7833 58.464ZM72.8953 59.336C73.2793 59.336 73.5753 59.232 73.7833 59.024C73.9966 58.816 74.1033 58.5227 74.1033 58.144V58.08C74.1033 57.7013 73.9966 57.408 73.7833 57.2C73.5753 56.992 73.2793 56.888 72.8953 56.888C72.5113 56.888 72.2126 56.992 71.9993 57.2C71.7913 57.408 71.6873 57.7013 71.6873 58.08V58.144C71.6873 58.5227 71.7913 58.816 71.9993 59.024C72.2126 59.232 72.5113 59.336 72.8953 59.336ZM77.0762 62L79.2602 56.992H76.8122V58.032H76.2122V56.416H79.9402V57.008L77.7962 62H77.0762ZM81.5691 62V61.416H83.1691V56.912H83.1131L81.7051 58.224L81.3131 57.8L82.7931 56.416H83.8411V61.416H85.3131V62H81.5691ZM86.7659 62V61.416H88.3659V56.912H88.3099L86.9019 58.224L86.5099 57.8L87.9899 56.416H89.0379V61.416H90.5099V62H86.7659ZM92.0428 56.416H93.6028C94.2855 56.416 94.7948 56.6507 95.1308 57.12C95.4668 57.5893 95.6348 58.2853 95.6348 59.208C95.6348 60.1307 95.4668 60.8267 95.1308 61.296C94.7948 61.7653 94.2855 62 93.6028 62H92.0428V56.416ZM93.5708 61.416C94.0188 61.416 94.3548 61.2613 94.5788 60.952C94.8081 60.6427 94.9228 60.2053 94.9228 59.64V58.776C94.9228 58.2107 94.8081 57.7733 94.5788 57.464C94.3548 57.1547 94.0188 57 93.5708 57H92.7148V61.416H93.5708Z" fill="#AEAEAE"/>
<path d="M55.9 76C55.7827 76 55.7027 75.932 55.66 75.796L54.144 71.092C54.12 71.0173 54.1307 70.9427 54.176 70.868C54.224 70.7907 54.2933 70.752 54.384 70.752C54.4373 70.752 54.4853 70.768 54.528 70.8C54.5707 70.8293 54.6013 70.876 54.62 70.94L56.004 75.24H55.868L57.18 70.96C57.2013 70.888 57.2387 70.836 57.292 70.804C57.348 70.7693 57.4053 70.752 57.464 70.752C57.528 70.752 57.588 70.7693 57.644 70.804C57.7 70.836 57.7373 70.888 57.756 70.96L59.068 75.24H58.932L60.316 70.94C60.3373 70.876 60.368 70.8293 60.408 70.8C60.4507 70.7707 60.4973 70.756 60.548 70.756C60.6467 70.756 60.7187 70.792 60.764 70.864C60.8093 70.9333 60.8187 71.0093 60.792 71.092L59.276 75.796C59.2333 75.932 59.1453 76 59.012 76H58.996C58.86 76 58.772 75.932 58.732 75.796L57.388 71.468H57.524L56.176 75.796C56.1547 75.8707 56.1227 75.924 56.08 75.956C56.0373 75.9853 55.9773 76 55.9 76ZM62.3733 76C62.3013 76 62.2413 75.976 62.1933 75.928C62.1453 75.88 62.1213 75.82 62.1213 75.748V71.008C62.1213 70.936 62.1453 70.876 62.1933 70.828C62.2413 70.78 62.3013 70.756 62.3733 70.756C62.4453 70.756 62.5053 70.78 62.5533 70.828C62.6013 70.876 62.6253 70.936 62.6253 71.008V73.092H65.9493V71.008C65.9493 70.936 65.9733 70.876 66.0213 70.828C66.0693 70.78 66.1293 70.756 66.2013 70.756C66.2733 70.756 66.3333 70.78 66.3813 70.828C66.4293 70.876 66.4533 70.936 66.4533 71.008V75.748C66.4533 75.82 66.4293 75.88 66.3813 75.928C66.3333 75.976 66.2733 76 66.2013 76C66.1293 76 66.0693 75.976 66.0213 75.928C65.9733 75.88 65.9493 75.82 65.9493 75.748V73.596H62.6253V75.748C62.6253 75.82 62.6013 75.88 62.5533 75.928C62.5053 75.976 62.4453 76 62.3733 76ZM69.5041 76C69.3361 76 69.2521 75.916 69.2521 75.748V71.408L69.4401 71.348L68.5681 72.188C68.5148 72.2387 68.4588 72.268 68.4001 72.276C68.3441 72.2813 68.2881 72.256 68.2321 72.2C68.1255 72.088 68.1295 71.972 68.2441 71.852L69.2321 70.884C69.3148 70.7987 69.4188 70.756 69.5441 70.756C69.6855 70.756 69.7561 70.84 69.7561 71.008V75.748C69.7561 75.916 69.6721 76 69.5041 76ZM73.2578 76.008C72.6685 76.008 72.2365 75.8707 71.9618 75.596C71.6871 75.3213 71.5498 74.8893 71.5498 74.3V72.468C71.5498 71.876 71.6871 71.444 71.9618 71.172C72.2391 70.8973 72.6711 70.7627 73.2578 70.768H73.7378C74.3298 70.768 74.7618 70.9053 75.0338 71.18C75.3085 71.452 75.4458 71.884 75.4458 72.476V74.3C75.4458 74.8893 75.3085 75.3213 75.0338 75.596C74.7618 75.8707 74.3298 76.008 73.7378 76.008H73.2578ZM73.2578 75.504H73.7378C74.0391 75.504 74.2765 75.4653 74.4498 75.388C74.6258 75.3107 74.7511 75.1853 74.8258 75.012C74.9031 74.836 74.9418 74.5987 74.9418 74.3V72.476C74.9418 72.1747 74.9031 71.9373 74.8258 71.764C74.7511 71.588 74.6258 71.4627 74.4498 71.388C74.2765 71.3107 74.0391 71.272 73.7378 71.272H73.2578C72.9591 71.2693 72.7218 71.3053 72.5458 71.38C72.3725 71.452 72.2471 71.576 72.1698 71.752C72.0925 71.928 72.0538 72.1667 72.0538 72.468V74.3C72.0538 74.5987 72.0911 74.836 72.1658 75.012C72.2431 75.1853 72.3698 75.3107 72.5458 75.388C72.7218 75.4653 72.9591 75.504 73.2578 75.504ZM73.4178 73.728C73.2445 73.728 73.1578 73.64 73.1578 73.464V73.296C73.1578 73.1253 73.2445 73.04 73.4178 73.04H73.5818C73.7498 73.04 73.8338 73.1253 73.8338 73.296V73.464C73.8338 73.64 73.7498 73.728 73.5818 73.728H73.4178ZM78.3559 75.996C77.8973 75.996 77.5479 75.8987 77.3079 75.704C77.0706 75.5093 76.9319 75.2053 76.8919 74.792C76.8866 74.7067 76.9053 74.6413 76.9479 74.596C76.9933 74.5507 77.0573 74.528 77.1399 74.528C77.2946 74.528 77.3799 74.612 77.3959 74.78C77.4253 75.044 77.5119 75.2293 77.6559 75.336C77.8026 75.44 78.0359 75.492 78.3559 75.492H79.2679C79.6359 75.492 79.8893 75.4227 80.0279 75.284C80.1693 75.1427 80.2399 74.8907 80.2399 74.528C80.2399 74.1653 80.1693 73.9147 80.0279 73.776C79.8893 73.6347 79.6359 73.564 79.2679 73.564H78.5679C78.3999 73.564 78.3159 73.48 78.3159 73.312C78.3159 73.144 78.3999 73.06 78.5679 73.06H79.4399C79.6959 73.0573 79.8719 72.9787 79.9679 72.824C80.0639 72.6693 80.1119 72.4453 80.1119 72.152C80.1119 71.8133 80.0479 71.58 79.9199 71.452C79.7919 71.324 79.5586 71.26 79.2199 71.26H78.4439C78.1559 71.26 77.9439 71.3067 77.8079 71.4C77.6746 71.4933 77.5946 71.6587 77.5679 71.896C77.5493 72.0613 77.4626 72.144 77.3079 72.144C77.2253 72.144 77.1613 72.1213 77.1159 72.076C77.0733 72.0307 77.0559 71.9653 77.0639 71.88C77.1039 71.496 77.2359 71.2133 77.4599 71.032C77.6866 70.848 78.0146 70.756 78.4439 70.756H79.2199C79.6999 70.756 80.0519 70.8693 80.2759 71.096C80.5026 71.32 80.6159 71.672 80.6159 72.152C80.6159 72.6747 80.4413 73.036 80.0919 73.236C80.3159 73.3453 80.4799 73.5067 80.5839 73.72C80.6906 73.9307 80.7439 74.2 80.7439 74.528C80.7439 75.032 80.6253 75.4027 80.3879 75.64C80.1506 75.8773 79.7773 75.996 79.2679 75.996H78.3559ZM85.3421 76C85.2701 76 85.2101 75.976 85.1621 75.928C85.1141 75.88 85.0901 75.82 85.0901 75.748V71.008C85.0901 70.936 85.1141 70.876 85.1621 70.828C85.2101 70.78 85.2701 70.756 85.3421 70.756C85.4141 70.756 85.4741 70.78 85.5221 70.828C85.5701 70.876 85.5941 70.936 85.5941 71.008V73.092H88.9181V71.008C88.9181 70.936 88.9421 70.876 88.9901 70.828C89.0381 70.78 89.0981 70.756 89.1701 70.756C89.2421 70.756 89.3021 70.78 89.3501 70.828C89.3981 70.876 89.4221 70.936 89.4221 71.008V75.748C89.4221 75.82 89.3981 75.88 89.3501 75.928C89.3021 75.976 89.2421 76 89.1701 76C89.0981 76 89.0381 75.976 88.9901 75.928C88.9421 75.88 88.9181 75.82 88.9181 75.748V73.596H85.5941V75.748C85.5941 75.82 85.5701 75.88 85.5221 75.928C85.4741 75.976 85.4141 76 85.3421 76ZM91.7409 74.264V74.524C91.7409 74.8893 91.8115 75.1427 91.9529 75.284C92.0969 75.4253 92.3529 75.496 92.7209 75.496H93.3769C93.6942 75.496 93.9249 75.4587 94.0689 75.384C94.2155 75.3093 94.3049 75.18 94.3369 74.996C94.3555 74.916 94.3849 74.856 94.4249 74.816C94.4649 74.776 94.5249 74.756 94.6049 74.756C94.6875 74.756 94.7502 74.7787 94.7929 74.824C94.8382 74.8667 94.8542 74.9307 94.8409 75.016C94.7982 75.3493 94.6555 75.5973 94.4129 75.76C94.1729 75.92 93.8275 76 93.3769 76H92.7209C92.2115 76 91.8369 75.88 91.5969 75.64C91.3569 75.4 91.2369 75.028 91.2369 74.524V73.612C91.2369 73.0947 91.3569 72.7173 91.5969 72.48C91.8369 72.24 92.2115 72.1227 92.7209 72.128H93.3769C93.8889 72.128 94.2635 72.248 94.5009 72.488C94.7409 72.7253 94.8609 73.1 94.8609 73.612V74.012C94.8609 74.18 94.7769 74.264 94.6089 74.264H91.7409ZM92.7209 72.632C92.3529 72.6267 92.0969 72.6947 91.9529 72.836C91.8115 72.9773 91.7409 73.236 91.7409 73.612V73.76H94.3569V73.612C94.3569 73.2413 94.2862 72.9853 94.1449 72.844C94.0035 72.7027 93.7475 72.632 93.3769 72.632H92.7209ZM97.8431 76C97.4191 76 97.1058 75.8987 96.9031 75.696C96.7005 75.4933 96.5991 75.18 96.5991 74.756C96.5991 74.3293 96.7005 74.0147 96.9031 73.812C97.1058 73.6093 97.4191 73.508 97.8431 73.508H99.6231C99.6125 73.18 99.5338 72.952 99.3871 72.824C99.2431 72.696 98.9951 72.632 98.6431 72.632H98.1791C97.8645 72.632 97.6325 72.6627 97.4831 72.724C97.3365 72.7827 97.2418 72.8853 97.1991 73.032C97.1725 73.112 97.1391 73.1707 97.0991 73.208C97.0618 73.2427 97.0045 73.26 96.9271 73.26C96.8445 73.26 96.7791 73.2373 96.7311 73.192C96.6858 73.144 96.6698 73.08 96.6831 73C96.7338 72.696 96.8818 72.4747 97.1271 72.336C97.3725 72.1973 97.7231 72.128 98.1791 72.128H98.6431C99.1551 72.128 99.5298 72.248 99.7671 72.488C100.007 72.7253 100.127 73.1 100.127 73.612V75.748C100.127 75.916 100.043 76 99.8751 76C99.7071 76 99.6231 75.916 99.6231 75.748V75.42C99.3591 75.8067 98.9151 76 98.2911 76H97.8431ZM97.8431 75.496H98.2911C98.5311 75.496 98.7445 75.4707 98.9311 75.42C99.1205 75.3693 99.2751 75.2853 99.3951 75.168C99.5178 75.0507 99.5938 74.892 99.6231 74.692V74.012H97.8431C97.5578 74.012 97.3631 74.064 97.2591 74.168C97.1551 74.272 97.1031 74.468 97.1031 74.756C97.1031 75.0413 97.1551 75.236 97.2591 75.34C97.3631 75.444 97.5578 75.496 97.8431 75.496ZM103.349 76C102.84 76 102.465 75.88 102.225 75.64C101.985 75.4 101.865 75.0253 101.865 74.516V73.612C101.865 73.1 101.985 72.7253 102.225 72.488C102.465 72.248 102.84 72.128 103.349 72.128H104.985V70.676C104.985 70.508 105.069 70.424 105.237 70.424C105.405 70.424 105.489 70.508 105.489 70.676V75.748C105.489 75.916 105.405 76 105.237 76C105.069 76 104.985 75.916 104.985 75.748V75.5C104.868 75.6627 104.701 75.7867 104.485 75.872C104.269 75.9573 103.992 76 103.653 76H103.349ZM103.349 75.496H103.653C104.048 75.496 104.368 75.4373 104.613 75.32C104.861 75.2 104.985 75.0213 104.985 74.784V72.632H103.349C102.981 72.632 102.725 72.704 102.581 72.848C102.44 72.9893 102.369 73.244 102.369 73.612V74.516C102.369 74.884 102.44 75.14 102.581 75.284C102.725 75.4253 102.981 75.496 103.349 75.496ZM107.614 77.6C107.446 77.6 107.362 77.516 107.362 77.348V72.38C107.362 72.212 107.446 72.128 107.614 72.128C107.782 72.128 107.866 72.212 107.866 72.38V72.648C107.994 72.4773 108.167 72.348 108.386 72.26C108.607 72.172 108.878 72.128 109.198 72.128H109.502C110.014 72.128 110.389 72.248 110.626 72.488C110.866 72.7253 110.986 73.1 110.986 73.612V74.516C110.986 75.0253 110.866 75.4 110.626 75.64C110.389 75.88 110.014 76 109.502 76H107.866V77.348C107.866 77.516 107.782 77.6 107.614 77.6ZM107.866 75.496H109.502C109.873 75.496 110.129 75.4253 110.27 75.284C110.411 75.14 110.482 74.884 110.482 74.516V73.612C110.482 73.2413 110.411 72.9853 110.27 72.844C110.129 72.7027 109.873 72.632 109.502 72.632H109.198C108.803 72.632 108.489 72.6893 108.254 72.804C108.022 72.9187 107.893 73.0973 107.866 73.34V75.496ZM113.053 76C112.885 76 112.801 75.916 112.801 75.748V70.676C112.801 70.508 112.885 70.424 113.053 70.424C113.221 70.424 113.305 70.508 113.305 70.676V72.676C113.569 72.3107 114.013 72.128 114.637 72.128H114.861C115.373 72.128 115.748 72.248 115.985 72.488C116.225 72.7253 116.345 73.1 116.345 73.612V75.748C116.345 75.916 116.261 76 116.093 76C115.925 76 115.841 75.916 115.841 75.748V73.612C115.841 73.2413 115.769 72.9853 115.625 72.844C115.484 72.7027 115.229 72.632 114.861 72.632H114.637C114.256 72.632 113.946 72.688 113.709 72.8C113.472 72.912 113.337 73.0867 113.305 73.324V75.748C113.305 75.916 113.221 76 113.053 76ZM119.572 76C119.063 76 118.688 75.88 118.448 75.64C118.208 75.4 118.088 75.028 118.088 74.524V73.612C118.088 73.0973 118.208 72.7213 118.448 72.484C118.688 72.244 119.063 72.1253 119.572 72.128H120.228C120.74 72.128 121.115 72.248 121.352 72.488C121.592 72.7253 121.712 73.1 121.712 73.612V74.516C121.712 75.0253 121.592 75.4 121.352 75.64C121.115 75.88 120.74 76 120.228 76H119.572ZM118.592 74.524C118.592 74.8893 118.663 75.1427 118.804 75.284C118.948 75.4253 119.204 75.496 119.572 75.496H120.228C120.599 75.496 120.855 75.4253 120.996 75.284C121.138 75.14 121.208 74.884 121.208 74.516V73.612C121.208 73.2413 121.138 72.9853 120.996 72.844C120.855 72.7027 120.599 72.632 120.228 72.632H119.572C119.327 72.6293 119.132 72.6587 118.988 72.72C118.847 72.7787 118.746 72.88 118.684 73.024C118.623 73.1653 118.592 73.3613 118.592 73.612V74.524ZM123.783 76C123.615 76 123.531 75.916 123.531 75.748V72.38C123.531 72.212 123.615 72.128 123.783 72.128C123.951 72.128 124.035 72.212 124.035 72.38V72.676C124.299 72.3107 124.743 72.128 125.367 72.128H125.591C126.103 72.128 126.477 72.248 126.715 72.488C126.955 72.7253 127.075 73.1 127.075 73.612V75.748C127.075 75.916 126.991 76 126.823 76C126.655 76 126.571 75.916 126.571 75.748V73.612C126.571 73.2413 126.499 72.9853 126.355 72.844C126.213 72.7027 125.959 72.632 125.591 72.632H125.367C124.985 72.632 124.676 72.688 124.439 72.8C124.201 72.912 124.067 73.0867 124.035 73.324V75.748C124.035 75.916 123.951 76 123.783 76ZM129.322 74.264V74.524C129.322 74.8893 129.393 75.1427 129.534 75.284C129.678 75.4253 129.934 75.496 130.302 75.496H130.958C131.275 75.496 131.506 75.4587 131.65 75.384C131.797 75.3093 131.886 75.18 131.918 74.996C131.937 74.916 131.966 74.856 132.006 74.816C132.046 74.776 132.106 74.756 132.186 74.756C132.269 74.756 132.331 74.7787 132.374 74.824C132.419 74.8667 132.435 74.9307 132.422 75.016C132.379 75.3493 132.237 75.5973 131.994 75.76C131.754 75.92 131.409 76 130.958 76H130.302C129.793 76 129.418 75.88 129.178 75.64C128.938 75.4 128.818 75.028 128.818 74.524V73.612C128.818 73.0947 128.938 72.7173 129.178 72.48C129.418 72.24 129.793 72.1227 130.302 72.128H130.958C131.47 72.128 131.845 72.248 132.082 72.488C132.322 72.7253 132.442 73.1 132.442 73.612V74.012C132.442 74.18 132.358 74.264 132.19 74.264H129.322ZM130.302 72.632C129.934 72.6267 129.678 72.6947 129.534 72.836C129.393 72.9773 129.322 73.236 129.322 73.612V73.76H131.938V73.612C131.938 73.2413 131.867 72.9853 131.726 72.844C131.585 72.7027 131.329 72.632 130.958 72.632H130.302Z" fill="white"/>
<path d="M32.264 108.012C32.1973 108.052 32.1333 108.064 32.072 108.048C32.0133 108.035 31.9627 107.996 31.92 107.932L30.632 105.852H29.28V107.748C29.28 107.916 29.196 108 29.028 108C28.86 108 28.776 107.916 28.776 107.748V103.008C28.776 102.84 28.86 102.756 29.028 102.756H30.9C31.3667 102.756 31.7213 102.877 31.964 103.12C32.2067 103.363 32.328 103.717 32.328 104.184V104.424C32.328 104.832 32.2333 105.155 32.044 105.392C31.8573 105.629 31.5813 105.775 31.216 105.828L32.352 107.668C32.4347 107.809 32.4053 107.924 32.264 108.012ZM29.28 105.348H30.9C31.228 105.348 31.464 105.276 31.608 105.132C31.752 104.985 31.824 104.749 31.824 104.424V104.184C31.824 103.859 31.752 103.624 31.608 103.48C31.464 103.333 31.228 103.26 30.9 103.26H29.28V105.348ZM34.3721 106.264V106.524C34.3721 106.889 34.4428 107.143 34.5841 107.284C34.7281 107.425 34.9841 107.496 35.3521 107.496H36.0081C36.3255 107.496 36.5561 107.459 36.7001 107.384C36.8468 107.309 36.9361 107.18 36.9681 106.996C36.9868 106.916 37.0161 106.856 37.0561 106.816C37.0961 106.776 37.1561 106.756 37.2361 106.756C37.3188 106.756 37.3815 106.779 37.4241 106.824C37.4695 106.867 37.4855 106.931 37.4721 107.016C37.4295 107.349 37.2868 107.597 37.0441 107.76C36.8041 107.92 36.4588 108 36.0081 108H35.3521C34.8428 108 34.4681 107.88 34.2281 107.64C33.9881 107.4 33.8681 107.028 33.8681 106.524V105.612C33.8681 105.095 33.9881 104.717 34.2281 104.48C34.4681 104.24 34.8428 104.123 35.3521 104.128H36.0081C36.5201 104.128 36.8948 104.248 37.1321 104.488C37.3721 104.725 37.4921 105.1 37.4921 105.612V106.012C37.4921 106.18 37.4081 106.264 37.2401 106.264H34.3721ZM35.3521 104.632C34.9841 104.627 34.7281 104.695 34.5841 104.836C34.4428 104.977 34.3721 105.236 34.3721 105.612V105.76H36.9881V105.612C36.9881 105.241 36.9175 104.985 36.7761 104.844C36.6348 104.703 36.3788 104.632 36.0081 104.632H35.3521ZM40.4744 108C40.0504 108 39.737 107.899 39.5344 107.696C39.3317 107.493 39.2304 107.18 39.2304 106.756C39.2304 106.329 39.3317 106.015 39.5344 105.812C39.737 105.609 40.0504 105.508 40.4744 105.508H42.2544C42.2437 105.18 42.165 104.952 42.0184 104.824C41.8744 104.696 41.6264 104.632 41.2744 104.632H40.8104C40.4957 104.632 40.2637 104.663 40.1144 104.724C39.9677 104.783 39.873 104.885 39.8304 105.032C39.8037 105.112 39.7704 105.171 39.7304 105.208C39.693 105.243 39.6357 105.26 39.5584 105.26C39.4757 105.26 39.4104 105.237 39.3624 105.192C39.317 105.144 39.301 105.08 39.3144 105C39.365 104.696 39.513 104.475 39.7584 104.336C40.0037 104.197 40.3544 104.128 40.8104 104.128H41.2744C41.7864 104.128 42.161 104.248 42.3984 104.488C42.6384 104.725 42.7584 105.1 42.7584 105.612V107.748C42.7584 107.916 42.6744 108 42.5064 108C42.3384 108 42.2544 107.916 42.2544 107.748V107.42C41.9904 107.807 41.5464 108 40.9224 108H40.4744ZM40.4744 107.496H40.9224C41.1624 107.496 41.3757 107.471 41.5624 107.42C41.7517 107.369 41.9064 107.285 42.0264 107.168C42.149 107.051 42.225 106.892 42.2544 106.692V106.012H40.4744C40.189 106.012 39.9944 106.064 39.8904 106.168C39.7864 106.272 39.7344 106.468 39.7344 106.756C39.7344 107.041 39.7864 107.236 39.8904 107.34C39.9944 107.444 40.189 107.496 40.4744 107.496ZM45.5002 107.996C45.1696 107.996 44.9136 107.927 44.7322 107.788C44.5509 107.647 44.4389 107.433 44.3962 107.148C44.3856 107.063 44.4029 106.997 44.4482 106.952C44.4962 106.904 44.5616 106.88 44.6442 106.88C44.7269 106.88 44.7869 106.901 44.8242 106.944C44.8642 106.984 44.8922 107.045 44.9082 107.128C44.9349 107.264 44.9936 107.359 45.0842 107.412C45.1749 107.465 45.3136 107.492 45.5002 107.492H46.8122C47.0496 107.492 47.2109 107.449 47.2962 107.364C47.3816 107.279 47.4242 107.117 47.4242 106.88C47.4242 106.643 47.3816 106.481 47.2962 106.396C47.2109 106.311 47.0496 106.268 46.8122 106.268H45.5202C45.1602 106.268 44.8909 106.18 44.7122 106.004C44.5362 105.828 44.4482 105.56 44.4482 105.2C44.4482 104.832 44.5362 104.561 44.7122 104.388C44.8882 104.212 45.1576 104.124 45.5202 104.124H46.7722C47.3856 104.124 47.7322 104.389 47.8122 104.92C47.8283 105.003 47.8123 105.068 47.7643 105.116C47.7189 105.161 47.6536 105.184 47.5682 105.184C47.4883 105.184 47.4282 105.164 47.3882 105.124C47.3509 105.081 47.3229 105.021 47.3043 104.944C47.2802 104.824 47.2282 104.741 47.1482 104.696C47.0682 104.651 46.9429 104.628 46.7722 104.628H45.5202C45.2989 104.628 45.1482 104.667 45.0682 104.744C44.9909 104.821 44.9522 104.973 44.9522 105.2C44.9522 105.416 44.9922 105.564 45.0722 105.644C45.1522 105.724 45.3016 105.764 45.5202 105.764H46.8122C47.1909 105.764 47.4709 105.856 47.6523 106.04C47.8362 106.221 47.9282 106.501 47.9282 106.88C47.9282 107.259 47.8362 107.54 47.6523 107.724C47.4709 107.905 47.1909 107.996 46.8122 107.996H45.5002ZM50.9896 108C50.4803 108 50.1056 107.88 49.8656 107.64C49.6256 107.4 49.5056 107.028 49.5056 106.524V105.612C49.5056 105.097 49.6256 104.721 49.8656 104.484C50.1056 104.244 50.4803 104.125 50.9896 104.128H51.6456C52.1576 104.128 52.5323 104.248 52.7696 104.488C53.0096 104.725 53.1296 105.1 53.1296 105.612V106.516C53.1296 107.025 53.0096 107.4 52.7696 107.64C52.5323 107.88 52.1576 108 51.6456 108H50.9896ZM50.0096 106.524C50.0096 106.889 50.0803 107.143 50.2216 107.284C50.3656 107.425 50.6216 107.496 50.9896 107.496H51.6456C52.0163 107.496 52.2723 107.425 52.4136 107.284C52.555 107.14 52.6256 106.884 52.6256 106.516V105.612C52.6256 105.241 52.555 104.985 52.4136 104.844C52.2723 104.703 52.0163 104.632 51.6456 104.632H50.9896C50.7443 104.629 50.5496 104.659 50.4056 104.72C50.2643 104.779 50.163 104.88 50.1016 105.024C50.0403 105.165 50.0096 105.361 50.0096 105.612V106.524ZM55.1999 108C55.0319 108 54.9479 107.916 54.9479 107.748V104.38C54.9479 104.212 55.0319 104.128 55.1999 104.128C55.3679 104.128 55.4519 104.212 55.4519 104.38V104.676C55.7159 104.311 56.1599 104.128 56.7839 104.128H57.0079C57.5199 104.128 57.8945 104.248 58.1319 104.488C58.3719 104.725 58.4919 105.1 58.4919 105.612V107.748C58.4919 107.916 58.4079 108 58.2399 108C58.0719 108 57.9879 107.916 57.9879 107.748V105.612C57.9879 105.241 57.9159 104.985 57.7719 104.844C57.6305 104.703 57.3759 104.632 57.0079 104.632H56.7839C56.4025 104.632 56.0932 104.688 55.8559 104.8C55.6185 104.912 55.4839 105.087 55.4519 105.324V107.748C55.4519 107.916 55.3679 108 55.1999 108ZM61.2393 107.996C60.9086 107.996 60.6526 107.927 60.4713 107.788C60.29 107.647 60.178 107.433 60.1353 107.148C60.1246 107.063 60.142 106.997 60.1873 106.952C60.2353 106.904 60.3006 106.88 60.3833 106.88C60.466 106.88 60.526 106.901 60.5633 106.944C60.6033 106.984 60.6313 107.045 60.6473 107.128C60.674 107.264 60.7326 107.359 60.8233 107.412C60.914 107.465 61.0526 107.492 61.2393 107.492H62.5513C62.7886 107.492 62.95 107.449 63.0353 107.364C63.1206 107.279 63.1633 107.117 63.1633 106.88C63.1633 106.643 63.1206 106.481 63.0353 106.396C62.95 106.311 62.7886 106.268 62.5513 106.268H61.2593C60.8993 106.268 60.63 106.18 60.4513 106.004C60.2753 105.828 60.1873 105.56 60.1873 105.2C60.1873 104.832 60.2753 104.561 60.4513 104.388C60.6273 104.212 60.8966 104.124 61.2593 104.124H62.5113C63.1246 104.124 63.4713 104.389 63.5513 104.92C63.5673 105.003 63.5513 105.068 63.5033 105.116C63.458 105.161 63.3926 105.184 63.3073 105.184C63.2273 105.184 63.1673 105.164 63.1273 105.124C63.09 105.081 63.062 105.021 63.0433 104.944C63.0193 104.824 62.9673 104.741 62.8873 104.696C62.8073 104.651 62.682 104.628 62.5113 104.628H61.2593C61.038 104.628 60.8873 104.667 60.8073 104.744C60.73 104.821 60.6913 104.973 60.6913 105.2C60.6913 105.416 60.7313 105.564 60.8113 105.644C60.8913 105.724 61.0406 105.764 61.2593 105.764H62.5513C62.93 105.764 63.21 105.856 63.3913 106.04C63.5753 106.221 63.6673 106.501 63.6673 106.88C63.6673 107.259 63.5753 107.54 63.3913 107.724C63.21 107.905 62.93 107.996 62.5513 107.996H61.2393ZM65.4807 108C65.3074 108 65.2207 107.912 65.2207 107.736V107.568C65.2207 107.397 65.3074 107.312 65.4807 107.312H65.6447C65.8127 107.312 65.8967 107.397 65.8967 107.568V107.736C65.8967 107.912 65.8127 108 65.6447 108H65.4807ZM65.4807 105.36C65.3074 105.36 65.2207 105.272 65.2207 105.096V104.928C65.2207 104.757 65.3074 104.672 65.4807 104.672H65.6447C65.8127 104.672 65.8967 104.757 65.8967 104.928V105.096C65.8967 105.272 65.8127 105.36 65.6447 105.36H65.4807Z" fill="#4C5057"/>
<path d="M30.375 119C30.2283 119 30.1283 118.915 30.075 118.745L28.18 112.865C28.15 112.772 28.1633 112.678 28.22 112.585C28.28 112.488 28.3667 112.44 28.48 112.44C28.5467 112.44 28.6067 112.46 28.66 112.5C28.7133 112.537 28.7517 112.595 28.775 112.675L30.505 118.05H30.335L31.975 112.7C32.0017 112.61 32.0483 112.545 32.115 112.505C32.185 112.462 32.2567 112.44 32.33 112.44C32.41 112.44 32.485 112.462 32.555 112.505C32.625 112.545 32.6717 112.61 32.695 112.7L34.335 118.05H34.165L35.895 112.675C35.9217 112.595 35.96 112.537 36.01 112.5C36.0633 112.463 36.1217 112.445 36.185 112.445C36.3083 112.445 36.3983 112.49 36.455 112.58C36.5117 112.667 36.5233 112.762 36.49 112.865L34.595 118.745C34.5417 118.915 34.4317 119 34.265 119H34.245C34.075 119 33.965 118.915 33.915 118.745L32.235 113.335H32.405L30.72 118.745C30.6933 118.838 30.6533 118.905 30.6 118.945C30.5467 118.982 30.4717 119 30.375 119ZM38.2713 119C38.0613 119 37.9563 118.895 37.9563 118.685V114.475C37.9563 114.265 38.0613 114.16 38.2713 114.16C38.4813 114.16 38.5863 114.265 38.5863 114.475V115.115C38.7697 114.805 39.0213 114.568 39.3413 114.405C39.6613 114.242 40.0363 114.16 40.4663 114.16C40.6763 114.16 40.7813 114.265 40.7813 114.475C40.7813 114.685 40.6763 114.79 40.4663 114.79C39.8797 114.79 39.4263 114.915 39.1063 115.165C38.7897 115.415 38.6163 115.763 38.5863 116.21V118.685C38.5863 118.895 38.4813 119 38.2713 119ZM43.8816 119C43.2449 119 42.7766 118.85 42.4766 118.55C42.1766 118.25 42.0266 117.785 42.0266 117.155V116.015C42.0266 115.372 42.1766 114.902 42.4766 114.605C42.7766 114.305 43.2449 114.157 43.8816 114.16H44.7016C45.3416 114.16 45.8099 114.31 46.1066 114.61C46.4066 114.907 46.5566 115.375 46.5566 116.015V117.145C46.5566 117.782 46.4066 118.25 46.1066 118.55C45.8099 118.85 45.3416 119 44.7016 119H43.8816ZM42.6566 117.155C42.6566 117.612 42.7449 117.928 42.9216 118.105C43.1016 118.282 43.4216 118.37 43.8816 118.37H44.7016C45.1649 118.37 45.4849 118.282 45.6616 118.105C45.8382 117.925 45.9266 117.605 45.9266 117.145V116.015C45.9266 115.552 45.8382 115.232 45.6616 115.055C45.4849 114.878 45.1649 114.79 44.7016 114.79H43.8816C43.5749 114.787 43.3316 114.823 43.1516 114.9C42.9749 114.973 42.8482 115.1 42.7716 115.28C42.6949 115.457 42.6566 115.702 42.6566 116.015V117.155ZM49.1444 119C48.9344 119 48.8294 118.895 48.8294 118.685V114.475C48.8294 114.265 48.9344 114.16 49.1444 114.16C49.3544 114.16 49.4594 114.265 49.4594 114.475V114.845C49.7894 114.388 50.3444 114.16 51.1244 114.16H51.4044C52.0444 114.16 52.5127 114.31 52.8094 114.61C53.1094 114.907 53.2594 115.375 53.2594 116.015V118.685C53.2594 118.895 53.1544 119 52.9444 119C52.7344 119 52.6294 118.895 52.6294 118.685V116.015C52.6294 115.552 52.5394 115.232 52.3594 115.055C52.1827 114.878 51.8644 114.79 51.4044 114.79H51.1244C50.6477 114.79 50.261 114.86 49.9644 115C49.6677 115.14 49.4994 115.358 49.4594 115.655V118.685C49.4594 118.895 49.3544 119 49.1444 119ZM56.7737 121C56.377 121 56.072 120.918 55.8587 120.755C55.6453 120.592 55.5137 120.34 55.4637 120C55.4503 119.893 55.4703 119.81 55.5237 119.75C55.5803 119.693 55.662 119.665 55.7687 119.665C55.8687 119.665 55.942 119.69 55.9887 119.74C56.0353 119.793 56.0703 119.872 56.0937 119.975C56.1237 120.125 56.1903 120.228 56.2937 120.285C56.397 120.342 56.557 120.37 56.7737 120.37H58.6337C58.9137 120.37 59.1003 120.322 59.1937 120.225C59.2903 120.128 59.3387 119.942 59.3387 119.665V118.32C59.1787 118.543 58.9603 118.713 58.6837 118.83C58.4103 118.943 58.0737 119 57.6737 119H57.2937C56.657 119 56.1887 118.85 55.8887 118.55C55.5887 118.25 55.4387 117.785 55.4387 117.155V116.015C55.4387 115.372 55.587 114.902 55.8837 114.605C56.1837 114.308 56.6537 114.16 57.2937 114.16H58.1137C58.4103 114.16 58.6587 114.202 58.8587 114.285C59.0587 114.365 59.2187 114.49 59.3387 114.66V114.475C59.3387 114.265 59.4437 114.16 59.6537 114.16C59.8637 114.16 59.9687 114.265 59.9687 114.475V119.665C59.9687 120.122 59.8603 120.458 59.6437 120.675C59.4303 120.892 59.0937 121 58.6337 121H56.7737ZM57.2937 118.37H57.6737C58.167 118.37 58.567 118.297 58.8737 118.15C59.1837 118.003 59.3387 117.78 59.3387 117.48V115.7C59.3387 115.36 59.2353 115.123 59.0287 114.99C58.8253 114.857 58.5203 114.79 58.1137 114.79H57.2937C56.8337 114.79 56.5137 114.877 56.3337 115.05C56.157 115.223 56.0687 115.545 56.0687 116.015V117.155C56.0687 117.608 56.157 117.925 56.3337 118.105C56.5137 118.282 56.8337 118.37 57.2937 118.37ZM67.2195 119C66.5828 119 66.1145 118.85 65.8145 118.55C65.5145 118.25 65.3645 117.782 65.3645 117.145V116.005C65.3645 115.365 65.5128 114.897 65.8095 114.6C66.1095 114.3 66.5795 114.153 67.2195 114.16H68.0395C68.5328 114.16 68.9128 114.243 69.1795 114.41C69.4461 114.573 69.6095 114.832 69.6695 115.185C69.6895 115.288 69.6695 115.37 69.6095 115.43C69.5528 115.487 69.4695 115.515 69.3595 115.515C69.2628 115.515 69.1911 115.49 69.1445 115.44C69.0978 115.387 69.0595 115.315 69.0295 115.225C68.9895 115.065 68.8928 114.953 68.7395 114.89C68.5895 114.823 68.3561 114.79 68.0395 114.79H67.2195C66.7595 114.783 66.4395 114.868 66.2595 115.045C66.0828 115.218 65.9945 115.538 65.9945 116.005V117.145C65.9945 117.605 66.0828 117.925 66.2595 118.105C66.4395 118.282 66.7595 118.37 67.2195 118.37H68.0395C68.3561 118.37 68.5895 118.338 68.7395 118.275C68.8928 118.208 68.9895 118.095 69.0295 117.935C69.0595 117.838 69.0978 117.767 69.1445 117.72C69.1945 117.67 69.2678 117.645 69.3645 117.645C69.4711 117.645 69.5528 117.673 69.6095 117.73C69.6695 117.787 69.6895 117.868 69.6695 117.975C69.6095 118.322 69.4461 118.58 69.1795 118.75C68.9128 118.917 68.5328 119 68.0395 119H67.2195ZM73.53 119C72.8933 119 72.425 118.85 72.125 118.55C71.825 118.25 71.675 117.785 71.675 117.155V116.015C71.675 115.372 71.825 114.902 72.125 114.605C72.425 114.305 72.8933 114.157 73.53 114.16H74.35C74.99 114.16 75.4583 114.31 75.755 114.61C76.055 114.907 76.205 115.375 76.205 116.015V117.145C76.205 117.782 76.055 118.25 75.755 118.55C75.4583 118.85 74.99 119 74.35 119H73.53ZM72.305 117.155C72.305 117.612 72.3933 117.928 72.57 118.105C72.75 118.282 73.07 118.37 73.53 118.37H74.35C74.8133 118.37 75.1333 118.282 75.31 118.105C75.4867 117.925 75.575 117.605 75.575 117.145V116.015C75.575 115.552 75.4867 115.232 75.31 115.055C75.1333 114.878 74.8133 114.79 74.35 114.79H73.53C73.2233 114.787 72.98 114.823 72.8 114.9C72.6233 114.973 72.4967 115.1 72.42 115.28C72.3433 115.457 72.305 115.702 72.305 116.015V117.155ZM79.8978 119C79.4145 119 79.0561 118.885 78.8228 118.655C78.5928 118.422 78.4778 118.065 78.4778 117.585V112.345C78.4778 112.135 78.5828 112.03 78.7928 112.03C79.0028 112.03 79.1078 112.135 79.1078 112.345V117.585C79.1078 117.888 79.1628 118.095 79.2728 118.205C79.3828 118.315 79.5895 118.37 79.8928 118.37C80.1095 118.37 80.2178 118.475 80.2178 118.685C80.2245 118.895 80.1178 119 79.8978 119ZM83.5534 119C82.9168 119 82.4484 118.85 82.1484 118.55C81.8484 118.25 81.6984 117.785 81.6984 117.155V116.015C81.6984 115.372 81.8484 114.902 82.1484 114.605C82.4484 114.305 82.9168 114.157 83.5534 114.16H84.3734C85.0134 114.16 85.4818 114.31 85.7784 114.61C86.0784 114.907 86.2284 115.375 86.2284 116.015V117.145C86.2284 117.782 86.0784 118.25 85.7784 118.55C85.4818 118.85 85.0134 119 84.3734 119H83.5534ZM82.3284 117.155C82.3284 117.612 82.4168 117.928 82.5934 118.105C82.7734 118.282 83.0934 118.37 83.5534 118.37H84.3734C84.8368 118.37 85.1568 118.282 85.3334 118.105C85.5101 117.925 85.5984 117.605 85.5984 117.145V116.015C85.5984 115.552 85.5101 115.232 85.3334 115.055C85.1568 114.878 84.8368 114.79 84.3734 114.79H83.5534C83.2468 114.787 83.0034 114.823 82.8234 114.9C82.6468 114.973 82.5201 115.1 82.4434 115.28C82.3668 115.457 82.3284 115.702 82.3284 116.015V117.155ZM88.8162 119C88.6063 119 88.5013 118.895 88.5013 118.685V114.475C88.5013 114.265 88.6063 114.16 88.8162 114.16C89.0263 114.16 89.1313 114.265 89.1313 114.475V115.115C89.3146 114.805 89.5663 114.568 89.8863 114.405C90.2063 114.242 90.5813 114.16 91.0113 114.16C91.2213 114.16 91.3263 114.265 91.3263 114.475C91.3263 114.685 91.2213 114.79 91.0113 114.79C90.4246 114.79 89.9713 114.915 89.6513 115.165C89.3346 115.415 89.1613 115.763 89.1313 116.21V118.685C89.1313 118.895 89.0263 119 88.8162 119ZM97.8464 119C97.2097 119 96.7414 118.85 96.4414 118.55C96.1414 118.25 95.9914 117.785 95.9914 117.155V116.015C95.9914 115.372 96.1414 114.902 96.4414 114.605C96.7414 114.305 97.2097 114.157 97.8464 114.16H98.6664C99.3064 114.16 99.7747 114.31 100.071 114.61C100.371 114.907 100.521 115.375 100.521 116.015V117.145C100.521 117.782 100.371 118.25 100.071 118.55C99.7747 118.85 99.3064 119 98.6664 119H97.8464ZM96.6214 117.155C96.6214 117.612 96.7097 117.928 96.8864 118.105C97.0664 118.282 97.3864 118.37 97.8464 118.37H98.6664C99.1297 118.37 99.4497 118.282 99.6264 118.105C99.8031 117.925 99.8914 117.605 99.8914 117.145V116.015C99.8914 115.552 99.8031 115.232 99.6264 115.055C99.4497 114.878 99.1297 114.79 98.6664 114.79H97.8464C97.5397 114.787 97.2964 114.823 97.1164 114.9C96.9397 114.973 96.8131 115.1 96.7364 115.28C96.6597 115.457 96.6214 115.702 96.6214 116.015V117.155ZM103.109 119C102.899 119 102.794 118.895 102.794 118.685V114.475C102.794 114.265 102.899 114.16 103.109 114.16C103.319 114.16 103.424 114.265 103.424 114.475V115.115C103.608 114.805 103.859 114.568 104.179 114.405C104.499 114.242 104.874 114.16 105.304 114.16C105.514 114.16 105.619 114.265 105.619 114.475C105.619 114.685 105.514 114.79 105.304 114.79C104.718 114.79 104.264 114.915 103.944 115.165C103.628 115.415 103.454 115.763 103.424 116.21V118.685C103.424 118.895 103.319 119 103.109 119ZM111.539 118.995C111.126 118.995 110.806 118.908 110.579 118.735C110.353 118.558 110.213 118.292 110.159 117.935C110.146 117.828 110.168 117.747 110.224 117.69C110.284 117.63 110.366 117.6 110.469 117.6C110.573 117.6 110.648 117.627 110.694 117.68C110.744 117.73 110.779 117.807 110.799 117.91C110.833 118.08 110.906 118.198 111.019 118.265C111.133 118.332 111.306 118.365 111.539 118.365H113.179C113.476 118.365 113.678 118.312 113.784 118.205C113.891 118.098 113.944 117.897 113.944 117.6C113.944 117.303 113.891 117.102 113.784 116.995C113.678 116.888 113.476 116.835 113.179 116.835H111.564C111.114 116.835 110.778 116.725 110.554 116.505C110.334 116.285 110.224 115.95 110.224 115.5C110.224 115.04 110.334 114.702 110.554 114.485C110.774 114.265 111.111 114.155 111.564 114.155H113.129C113.896 114.155 114.329 114.487 114.429 115.15C114.449 115.253 114.429 115.335 114.369 115.395C114.313 115.452 114.231 115.48 114.124 115.48C114.024 115.48 113.949 115.455 113.899 115.405C113.853 115.352 113.818 115.277 113.794 115.18C113.764 115.03 113.699 114.927 113.599 114.87C113.499 114.813 113.343 114.785 113.129 114.785H111.564C111.288 114.785 111.099 114.833 110.999 114.93C110.903 115.027 110.854 115.217 110.854 115.5C110.854 115.77 110.904 115.955 111.004 116.055C111.104 116.155 111.291 116.205 111.564 116.205H113.179C113.653 116.205 114.003 116.32 114.229 116.55C114.459 116.777 114.574 117.127 114.574 117.6C114.574 118.073 114.459 118.425 114.229 118.655C114.003 118.882 113.653 118.995 113.179 118.995H111.539ZM116.911 113.28C116.651 113.28 116.521 113.148 116.521 112.885V112.635C116.521 112.378 116.651 112.25 116.911 112.25H117.156C117.406 112.25 117.531 112.378 117.531 112.635V112.885C117.531 113.148 117.406 113.28 117.156 113.28H116.911ZM117.031 119C116.821 119 116.716 118.895 116.716 118.685V114.475C116.716 114.265 116.821 114.16 117.031 114.16C117.241 114.16 117.346 114.265 117.346 114.475V118.685C117.346 118.895 117.241 119 117.031 119ZM119.759 119C119.549 119 119.444 118.895 119.444 118.685C119.444 118.585 119.489 118.478 119.579 118.365L122.579 114.645L122.719 114.79H120.579C120.363 114.79 120.203 114.818 120.099 114.875C119.999 114.928 119.933 115.033 119.899 115.19C119.883 115.29 119.849 115.367 119.799 115.42C119.753 115.47 119.679 115.495 119.579 115.495C119.473 115.495 119.391 115.467 119.334 115.41C119.278 115.35 119.256 115.268 119.269 115.165C119.319 114.822 119.451 114.568 119.664 114.405C119.881 114.242 120.186 114.16 120.579 114.16H123.029C123.239 114.16 123.344 114.265 123.344 114.475C123.344 114.582 123.299 114.692 123.209 114.805L120.259 118.475L120.099 118.365L122.399 118.37C122.606 118.37 122.763 118.34 122.869 118.28C122.976 118.217 123.044 118.112 123.074 117.965C123.104 117.865 123.141 117.79 123.184 117.74C123.231 117.69 123.304 117.665 123.404 117.665C123.514 117.665 123.598 117.693 123.654 117.75C123.711 117.807 123.729 117.888 123.709 117.995C123.603 118.665 123.166 119 122.399 119H119.759ZM125.803 116.83V117.155C125.803 117.612 125.891 117.928 126.068 118.105C126.248 118.282 126.568 118.37 127.028 118.37H127.848C128.245 118.37 128.533 118.323 128.713 118.23C128.896 118.137 129.008 117.975 129.048 117.745C129.071 117.645 129.108 117.57 129.158 117.52C129.208 117.47 129.283 117.445 129.383 117.445C129.486 117.445 129.565 117.473 129.618 117.53C129.675 117.583 129.695 117.663 129.678 117.77C129.625 118.187 129.446 118.497 129.143 118.7C128.843 118.9 128.411 119 127.848 119H127.028C126.391 119 125.923 118.85 125.623 118.55C125.323 118.25 125.173 117.785 125.173 117.155V116.015C125.173 115.368 125.323 114.897 125.623 114.6C125.923 114.3 126.391 114.153 127.028 114.16H127.848C128.488 114.16 128.956 114.31 129.253 114.61C129.553 114.907 129.703 115.375 129.703 116.015V116.515C129.703 116.725 129.598 116.83 129.388 116.83H125.803ZM127.028 114.79C126.568 114.783 126.248 114.868 126.068 115.045C125.891 115.222 125.803 115.545 125.803 116.015V116.2H129.073V116.015C129.073 115.552 128.985 115.232 128.808 115.055C128.631 114.878 128.311 114.79 127.848 114.79H127.028Z" fill="#32FF9D"/>
<path d="M145.43 88.955C145.318 88.8783 145.302 88.78 145.38 88.66L146.295 87.31L145.33 85.95C145.255 85.84 145.273 85.7417 145.385 85.655C145.5 85.5767 145.597 85.595 145.675 85.71L146.57 86.965L147.47 85.71C147.557 85.5983 147.653 85.5833 147.76 85.665C147.873 85.7483 147.89 85.845 147.81 85.955L146.825 87.325L147.77 88.655C147.848 88.77 147.83 88.87 147.715 88.955C147.6 89.0333 147.503 89.015 147.425 88.9L146.555 87.675L145.725 88.905C145.648 89.0133 145.55 89.03 145.43 88.955ZM152.178 89C151.954 89 151.842 88.888 151.842 88.664V84.536L152.026 84.408L151.146 85.232C151.079 85.296 151.009 85.3347 150.934 85.348C150.859 85.3587 150.786 85.328 150.714 85.256C150.57 85.112 150.578 84.96 150.738 84.8L151.81 83.744C151.922 83.632 152.061 83.576 152.226 83.576C152.418 83.576 152.514 83.688 152.514 83.912V88.664C152.514 88.888 152.402 89 152.178 89Z" fill="white"/>
<path d="M56.052 89C55.5667 89 55.2093 88.8853 54.98 88.656C54.7533 88.424 54.64 88.068 54.64 87.588C54.64 87.516 54.664 87.456 54.712 87.408C54.76 87.36 54.82 87.336 54.892 87.336C54.964 87.336 55.024 87.36 55.072 87.408C55.12 87.456 55.144 87.516 55.144 87.588C55.144 87.932 55.2093 88.1693 55.34 88.3C55.4733 88.4307 55.7107 88.496 56.052 88.496H57.156C57.5 88.496 57.7373 88.4307 57.868 88.3C57.9987 88.1693 58.064 87.932 58.064 87.588C58.064 87.2413 57.9987 87.004 57.868 86.876C57.7373 86.7453 57.5 86.68 57.156 86.68H56.172C55.7107 86.68 55.3707 86.568 55.152 86.344C54.9333 86.1173 54.824 85.776 54.824 85.32C54.824 84.8587 54.9333 84.52 55.152 84.304C55.3707 84.088 55.708 83.98 56.164 83.98H57.132C57.5907 83.98 57.928 84.088 58.144 84.304C58.3627 84.52 58.472 84.856 58.472 85.312C58.472 85.384 58.448 85.444 58.4 85.492C58.352 85.54 58.292 85.564 58.22 85.564C58.148 85.564 58.088 85.54 58.04 85.492C57.992 85.444 57.968 85.384 57.968 85.312C57.968 84.9973 57.908 84.7813 57.788 84.664C57.6707 84.544 57.452 84.484 57.132 84.484H56.164C55.8467 84.484 55.628 84.544 55.508 84.664C55.388 84.7813 55.328 85 55.328 85.32C55.328 85.6347 55.388 85.856 55.508 85.984C55.6307 86.112 55.852 86.176 56.172 86.176H57.156C57.6387 86.176 57.9947 86.2907 58.224 86.52C58.4533 86.7493 58.568 87.1053 58.568 87.588C58.568 88.068 58.4533 88.424 58.224 88.656C57.9947 88.8853 57.6387 89 57.156 89H56.052ZM56.616 89.688C56.4667 89.688 56.392 89.6133 56.392 89.464V86.524L56.432 86.312V83.404C56.432 83.2547 56.5067 83.18 56.656 83.18C56.8053 83.18 56.88 83.2547 56.88 83.404V86.344L56.84 86.54V89.464C56.84 89.6133 56.7653 89.688 56.616 89.688ZM60.9244 89C60.7564 89 60.6724 88.916 60.6724 88.748V84.408L60.8604 84.348L59.9884 85.188C59.9351 85.2387 59.8791 85.268 59.8204 85.276C59.7644 85.2813 59.7084 85.256 59.6524 85.2C59.5458 85.088 59.5498 84.972 59.6644 84.852L60.6524 83.884C60.7351 83.7987 60.8391 83.756 60.9644 83.756C61.1058 83.756 61.1764 83.84 61.1764 84.008V88.748C61.1764 88.916 61.0924 89 60.9244 89ZM66.1581 86.28C66.6088 86.4987 66.8341 86.916 66.8341 87.532C66.8341 88.036 66.7155 88.4067 66.4781 88.644C66.2408 88.8813 65.8675 89 65.3581 89H64.4461C63.9395 89 63.5661 88.8813 63.3261 88.644C63.0888 88.4067 62.9701 88.036 62.9701 87.532C62.9701 86.9027 63.2035 86.4813 63.6701 86.268C63.3155 86.0333 63.1381 85.6573 63.1381 85.14C63.1381 84.6653 63.2515 84.316 63.4781 84.092C63.7048 83.868 64.0568 83.756 64.5341 83.756H65.3101C65.7901 83.756 66.1421 83.868 66.3661 84.092C66.5928 84.316 66.7061 84.6653 66.7061 85.14C66.7061 85.676 66.5235 86.056 66.1581 86.28ZM64.5341 84.26C64.1981 84.26 63.9648 84.324 63.8341 84.452C63.7061 84.58 63.6421 84.8093 63.6421 85.14C63.6421 85.4893 63.7048 85.7307 63.8301 85.864C63.9581 85.9973 64.1728 86.064 64.4741 86.064H65.3941C65.6101 86.064 65.7768 86.0293 65.8941 85.96C66.0115 85.8907 66.0915 85.788 66.1341 85.652C66.1795 85.5133 66.2021 85.3427 66.2021 85.14C66.2021 84.8093 66.1381 84.58 66.0101 84.452C65.8821 84.324 65.6488 84.26 65.3101 84.26H64.5341ZM65.3581 88.496C65.7261 88.496 65.9795 88.4267 66.1181 88.288C66.2595 88.1467 66.3301 87.8947 66.3301 87.532C66.3301 87.1667 66.2595 86.9147 66.1181 86.776C65.9795 86.6373 65.7261 86.568 65.3581 86.568H64.4461C64.0781 86.568 63.8235 86.6373 63.6821 86.776C63.5435 86.9147 63.4741 87.1667 63.4741 87.532C63.4741 87.8947 63.5435 88.1467 63.6821 88.288C63.8235 88.4267 64.0781 88.496 64.4461 88.496H65.3581ZM70.725 83.76C71.2343 83.76 71.6077 83.8787 71.845 84.116C72.0823 84.3533 72.201 84.724 72.201 85.228V87.604C72.201 88.0813 72.0877 88.4333 71.861 88.66C71.637 88.8867 71.285 89 70.805 89H69.813C69.3837 89 69.0557 88.908 68.829 88.724C68.605 88.54 68.473 88.2573 68.433 87.876C68.425 87.788 68.4423 87.7227 68.485 87.68C68.5303 87.6347 68.593 87.612 68.673 87.612C68.8303 87.612 68.9183 87.6947 68.937 87.86C68.9637 88.0947 69.0437 88.26 69.177 88.356C69.3103 88.4493 69.5223 88.496 69.813 88.496H70.805C71.1437 88.496 71.377 88.432 71.505 88.304C71.633 88.1733 71.697 87.94 71.697 87.604V86.788C71.5077 87.0947 71.1837 87.248 70.725 87.248H69.893C69.389 87.248 69.017 87.128 68.777 86.888C68.537 86.648 68.417 86.276 68.417 85.772V85.236C68.417 84.7267 68.537 84.3533 68.777 84.116C69.017 83.8787 69.389 83.76 69.893 83.76H70.725ZM70.725 84.264H69.893C69.5277 84.264 69.2743 84.3347 69.133 84.476C68.9917 84.6173 68.921 84.8707 68.921 85.236V85.772C68.921 86.1373 68.9917 86.3907 69.133 86.532C69.277 86.6733 69.5303 86.744 69.893 86.744H70.725C71.093 86.744 71.3463 86.6733 71.485 86.532C71.6263 86.3907 71.697 86.14 71.697 85.78V85.228C71.697 84.8627 71.6263 84.6107 71.485 84.472C71.3463 84.3333 71.093 84.264 70.725 84.264ZM76.0938 83.76C76.6031 83.76 76.9764 83.8787 77.2138 84.116C77.4511 84.3533 77.5698 84.724 77.5698 85.228V87.604C77.5698 88.0813 77.4564 88.4333 77.2298 88.66C77.0058 88.8867 76.6538 89 76.1738 89H75.1818C74.7524 89 74.4244 88.908 74.1978 88.724C73.9738 88.54 73.8418 88.2573 73.8018 87.876C73.7938 87.788 73.8111 87.7227 73.8538 87.68C73.8991 87.6347 73.9618 87.612 74.0418 87.612C74.1991 87.612 74.2871 87.6947 74.3058 87.86C74.3324 88.0947 74.4124 88.26 74.5458 88.356C74.6791 88.4493 74.8911 88.496 75.1818 88.496H76.1738C76.5124 88.496 76.7458 88.432 76.8738 88.304C77.0018 88.1733 77.0658 87.94 77.0658 87.604V86.788C76.8764 87.0947 76.5524 87.248 76.0938 87.248H75.2618C74.7578 87.248 74.3858 87.128 74.1458 86.888C73.9058 86.648 73.7858 86.276 73.7858 85.772V85.236C73.7858 84.7267 73.9058 84.3533 74.1458 84.116C74.3858 83.8787 74.7578 83.76 75.2618 83.76H76.0938ZM76.0938 84.264H75.2618C74.8964 84.264 74.6431 84.3347 74.5018 84.476C74.3604 84.6173 74.2898 84.8707 74.2898 85.236V85.772C74.2898 86.1373 74.3604 86.3907 74.5018 86.532C74.6458 86.6733 74.8991 86.744 75.2618 86.744H76.0938C76.4618 86.744 76.7151 86.6733 76.8538 86.532C76.9951 86.3907 77.0658 86.14 77.0658 85.78V85.228C77.0658 84.8627 76.9951 84.6107 76.8538 84.472C76.7151 84.3333 76.4618 84.264 76.0938 84.264Z" fill="#5A5C60"/>
<path d="M84.052 89C83.5667 89 83.2093 88.8853 82.98 88.656C82.7533 88.424 82.64 88.068 82.64 87.588C82.64 87.516 82.664 87.456 82.712 87.408C82.76 87.36 82.82 87.336 82.892 87.336C82.964 87.336 83.024 87.36 83.072 87.408C83.12 87.456 83.144 87.516 83.144 87.588C83.144 87.932 83.2093 88.1693 83.34 88.3C83.4733 88.4307 83.7107 88.496 84.052 88.496H85.156C85.5 88.496 85.7373 88.4307 85.868 88.3C85.9987 88.1693 86.064 87.932 86.064 87.588C86.064 87.2413 85.9987 87.004 85.868 86.876C85.7373 86.7453 85.5 86.68 85.156 86.68H84.172C83.7107 86.68 83.3707 86.568 83.152 86.344C82.9333 86.1173 82.824 85.776 82.824 85.32C82.824 84.8587 82.9333 84.52 83.152 84.304C83.3707 84.088 83.708 83.98 84.164 83.98H85.132C85.5907 83.98 85.928 84.088 86.144 84.304C86.3627 84.52 86.472 84.856 86.472 85.312C86.472 85.384 86.448 85.444 86.4 85.492C86.352 85.54 86.292 85.564 86.22 85.564C86.148 85.564 86.088 85.54 86.04 85.492C85.992 85.444 85.968 85.384 85.968 85.312C85.968 84.9973 85.908 84.7813 85.788 84.664C85.6707 84.544 85.452 84.484 85.132 84.484H84.164C83.8467 84.484 83.628 84.544 83.508 84.664C83.388 84.7813 83.328 85 83.328 85.32C83.328 85.6347 83.388 85.856 83.508 85.984C83.6307 86.112 83.852 86.176 84.172 86.176H85.156C85.6387 86.176 85.9947 86.2907 86.224 86.52C86.4533 86.7493 86.568 87.1053 86.568 87.588C86.568 88.068 86.4533 88.424 86.224 88.656C85.9947 88.8853 85.6387 89 85.156 89H84.052ZM84.616 89.688C84.4667 89.688 84.392 89.6133 84.392 89.464V86.524L84.432 86.312V83.404C84.432 83.2547 84.5067 83.18 84.656 83.18C84.8053 83.18 84.88 83.2547 84.88 83.404V86.344L84.84 86.54V89.464C84.84 89.6133 84.7653 89.688 84.616 89.688ZM88.9244 89C88.7564 89 88.6724 88.916 88.6724 88.748V84.408L88.8604 84.348L87.9884 85.188C87.9351 85.2387 87.8791 85.268 87.8204 85.276C87.7644 85.2813 87.7084 85.256 87.6524 85.2C87.5458 85.088 87.5498 84.972 87.6644 84.852L88.6524 83.884C88.7351 83.7987 88.8391 83.756 88.9644 83.756C89.1058 83.756 89.1764 83.84 89.1764 84.008V88.748C89.1764 88.916 89.0924 89 88.9244 89ZM92.6781 89.008C92.0888 89.008 91.6568 88.8707 91.3821 88.596C91.1075 88.3213 90.9701 87.8893 90.9701 87.3V85.468C90.9701 84.876 91.1075 84.444 91.3821 84.172C91.6595 83.8973 92.0915 83.7627 92.6781 83.768H93.1581C93.7501 83.768 94.1821 83.9053 94.4541 84.18C94.7288 84.452 94.8661 84.884 94.8661 85.476V87.3C94.8661 87.8893 94.7288 88.3213 94.4541 88.596C94.1821 88.8707 93.7501 89.008 93.1581 89.008H92.6781ZM92.6781 88.504H93.1581C93.4595 88.504 93.6968 88.4653 93.8701 88.388C94.0461 88.3107 94.1715 88.1853 94.2461 88.012C94.3235 87.836 94.3621 87.5987 94.3621 87.3V85.476C94.3621 85.1747 94.3235 84.9373 94.2461 84.764C94.1715 84.588 94.0461 84.4627 93.8701 84.388C93.6968 84.3107 93.4595 84.272 93.1581 84.272H92.6781C92.3795 84.2693 92.1421 84.3053 91.9661 84.38C91.7928 84.452 91.6675 84.576 91.5901 84.752C91.5128 84.928 91.4741 85.1667 91.4741 85.468V87.3C91.4741 87.5987 91.5115 87.836 91.5861 88.012C91.6635 88.1853 91.7901 88.3107 91.9661 88.388C92.1421 88.4653 92.3795 88.504 92.6781 88.504ZM92.8381 86.728C92.6648 86.728 92.5781 86.64 92.5781 86.464V86.296C92.5781 86.1253 92.6648 86.04 92.8381 86.04H93.0021C93.1701 86.04 93.2541 86.1253 93.2541 86.296V86.464C93.2541 86.64 93.1701 86.728 93.0021 86.728H92.8381ZM98.7562 83.76C99.2656 83.76 99.6389 83.8787 99.8762 84.116C100.114 84.3533 100.232 84.724 100.232 85.228V87.604C100.232 88.0813 100.119 88.4333 99.8923 88.66C99.6683 88.8867 99.3163 89 98.8363 89H97.8442C97.4149 89 97.0869 88.908 96.8602 88.724C96.6362 88.54 96.5042 88.2573 96.4642 87.876C96.4562 87.788 96.4736 87.7227 96.5162 87.68C96.5616 87.6347 96.6242 87.612 96.7042 87.612C96.8616 87.612 96.9496 87.6947 96.9682 87.86C96.9949 88.0947 97.0749 88.26 97.2082 88.356C97.3416 88.4493 97.5536 88.496 97.8442 88.496H98.8363C99.1749 88.496 99.4082 88.432 99.5362 88.304C99.6642 88.1733 99.7283 87.94 99.7283 87.604V86.788C99.5389 87.0947 99.2149 87.248 98.7562 87.248H97.9242C97.4202 87.248 97.0482 87.128 96.8082 86.888C96.5682 86.648 96.4482 86.276 96.4482 85.772V85.236C96.4482 84.7267 96.5682 84.3533 96.8082 84.116C97.0482 83.8787 97.4202 83.76 97.9242 83.76H98.7562ZM98.7562 84.264H97.9242C97.5589 84.264 97.3056 84.3347 97.1642 84.476C97.0229 84.6173 96.9522 84.8707 96.9522 85.236V85.772C96.9522 86.1373 97.0229 86.3907 97.1642 86.532C97.3082 86.6733 97.5616 86.744 97.9242 86.744H98.7562C99.1242 86.744 99.3776 86.6733 99.5162 86.532C99.6576 86.3907 99.7283 86.14 99.7283 85.78V85.228C99.7283 84.8627 99.6576 84.6107 99.5162 84.472C99.3776 84.3333 99.1242 84.264 98.7562 84.264ZM104.125 83.76C104.634 83.76 105.008 83.8787 105.245 84.116C105.482 84.3533 105.601 84.724 105.601 85.228V87.604C105.601 88.0813 105.488 88.4333 105.261 88.66C105.037 88.8867 104.685 89 104.205 89H103.213C102.784 89 102.456 88.908 102.229 88.724C102.005 88.54 101.873 88.2573 101.833 87.876C101.825 87.788 101.842 87.7227 101.885 87.68C101.93 87.6347 101.993 87.612 102.073 87.612C102.23 87.612 102.318 87.6947 102.337 87.86C102.364 88.0947 102.444 88.26 102.577 88.356C102.71 88.4493 102.922 88.496 103.213 88.496H104.205C104.544 88.496 104.777 88.432 104.905 88.304C105.033 88.1733 105.097 87.94 105.097 87.604V86.788C104.908 87.0947 104.584 87.248 104.125 87.248H103.293C102.789 87.248 102.417 87.128 102.177 86.888C101.937 86.648 101.817 86.276 101.817 85.772V85.236C101.817 84.7267 101.937 84.3533 102.177 84.116C102.417 83.8787 102.789 83.76 103.293 83.76H104.125ZM104.125 84.264H103.293C102.928 84.264 102.674 84.3347 102.533 84.476C102.392 84.6173 102.321 84.8707 102.321 85.236V85.772C102.321 86.1373 102.392 86.3907 102.533 86.532C102.677 86.6733 102.93 86.744 103.293 86.744H104.125C104.493 86.744 104.746 86.6733 104.885 86.532C105.026 86.3907 105.097 86.14 105.097 85.78V85.228C105.097 84.8627 105.026 84.6107 104.885 84.472C104.746 84.3333 104.493 84.264 104.125 84.264Z" fill="#32FF9D"/>
<path d="M136.3 62.008C135.711 62.008 135.279 61.8707 135.004 61.596C134.729 61.3213 134.592 60.8893 134.592 60.3V58.468C134.592 57.876 134.729 57.444 135.004 57.172C135.281 56.8973 135.713 56.7627 136.3 56.768H136.78C137.372 56.768 137.804 56.9053 138.076 57.18C138.351 57.452 138.488 57.884 138.488 58.476V60.3C138.488 60.8893 138.351 61.3213 138.076 61.596C137.804 61.8707 137.372 62.008 136.78 62.008H136.3ZM136.3 61.504H136.78C137.081 61.504 137.319 61.4653 137.492 61.388C137.668 61.3107 137.793 61.1853 137.868 61.012C137.945 60.836 137.984 60.5987 137.984 60.3V58.476C137.984 58.1747 137.945 57.9373 137.868 57.764C137.793 57.588 137.668 57.4627 137.492 57.388C137.319 57.3107 137.081 57.272 136.78 57.272H136.3C136.001 57.2693 135.764 57.3053 135.588 57.38C135.415 57.452 135.289 57.576 135.212 57.752C135.135 57.928 135.096 58.1667 135.096 58.468V60.3C135.096 60.5987 135.133 60.836 135.208 61.012C135.285 61.1853 135.412 61.3107 135.588 61.388C135.764 61.4653 136.001 61.504 136.3 61.504ZM136.46 59.728C136.287 59.728 136.2 59.64 136.2 59.464V59.296C136.2 59.1253 136.287 59.04 136.46 59.04H136.624C136.792 59.04 136.876 59.1253 136.876 59.296V59.464C136.876 59.64 136.792 59.728 136.624 59.728H136.46ZM141.534 62C141.075 62 140.726 61.9027 140.486 61.708C140.249 61.5133 140.11 61.2093 140.07 60.796C140.065 60.7107 140.083 60.6453 140.126 60.6C140.171 60.5547 140.235 60.532 140.318 60.532C140.473 60.532 140.558 60.6147 140.574 60.78C140.603 61.044 140.69 61.2293 140.834 61.336C140.981 61.4427 141.214 61.496 141.534 61.496H142.366C142.734 61.496 142.987 61.4253 143.126 61.284C143.267 61.14 143.338 60.8867 143.338 60.524V59.972C143.338 59.604 143.267 59.3507 143.126 59.212C142.987 59.0707 142.734 59 142.366 59H141.774C141.31 59 140.985 59.0733 140.798 59.22C140.742 59.26 140.689 59.2893 140.638 59.308C140.59 59.3267 140.531 59.3253 140.462 59.304L140.406 59.288C140.265 59.248 140.194 59.1547 140.194 59.008V57.008C140.194 56.84 140.278 56.756 140.446 56.756H143.562C143.73 56.756 143.814 56.84 143.814 57.008C143.814 57.176 143.73 57.26 143.562 57.26H140.698V58.692C140.967 58.5613 141.326 58.496 141.774 58.496H142.366C142.873 58.496 143.245 58.616 143.482 58.856C143.722 59.0933 143.842 59.4653 143.842 59.972V60.524C143.842 61.028 143.722 61.4 143.482 61.64C143.245 61.88 142.873 62 142.366 62H141.534ZM145.431 63.14C145.335 63.14 145.265 63.1093 145.219 63.048C145.174 62.9867 145.163 62.9093 145.187 62.816L146.827 56.44C146.865 56.3093 146.946 56.244 147.071 56.244C147.173 56.244 147.245 56.2733 147.287 56.332C147.333 56.3907 147.342 56.4693 147.315 56.568L145.675 62.944C145.643 63.0747 145.562 63.14 145.431 63.14ZM149.545 62C149.377 62 149.293 61.916 149.293 61.748V57.408L149.481 57.348L148.609 58.188C148.555 58.2387 148.499 58.268 148.441 58.276C148.385 58.2813 148.329 58.256 148.273 58.2C148.166 58.088 148.17 57.972 148.285 57.852L149.273 56.884C149.355 56.7987 149.459 56.756 149.585 56.756C149.726 56.756 149.797 56.84 149.797 57.008V61.748C149.797 61.916 149.713 62 149.545 62ZM153.066 61.996C152.56 61.996 152.186 61.8773 151.946 61.64C151.709 61.4027 151.59 61.032 151.59 60.528V58.152C151.59 57.672 151.704 57.32 151.93 57.096C152.157 56.8693 152.509 56.756 152.986 56.756H153.978C154.41 56.756 154.738 56.848 154.962 57.032C155.189 57.2133 155.321 57.496 155.358 57.88C155.369 57.9653 155.352 58.0307 155.306 58.076C155.264 58.1213 155.201 58.144 155.118 58.144C154.964 58.144 154.876 58.0613 154.854 57.896C154.83 57.6587 154.752 57.4933 154.618 57.4C154.485 57.3067 154.272 57.26 153.978 57.26H152.986C152.65 57.26 152.417 57.3253 152.286 57.456C152.158 57.584 152.094 57.816 152.094 58.152V58.968C152.284 58.6613 152.608 58.508 153.066 58.508H153.898C154.405 58.508 154.777 58.628 155.014 58.868C155.254 59.1053 155.374 59.4773 155.374 59.984V60.52C155.374 61.0267 155.254 61.4 155.014 61.64C154.777 61.8773 154.405 61.996 153.898 61.996H153.066ZM153.066 61.492H153.898C154.266 61.492 154.52 61.4213 154.658 61.28C154.8 61.136 154.87 60.8827 154.87 60.52V59.984C154.87 59.616 154.8 59.3627 154.658 59.224C154.517 59.0827 154.264 59.012 153.898 59.012H153.066C152.698 59.012 152.444 59.0827 152.302 59.224C152.164 59.3627 152.094 59.6133 152.094 59.976V60.528C152.094 60.8907 152.164 61.1427 152.302 61.284C152.444 61.4227 152.698 61.492 153.066 61.492Z" fill="#AEAEAE"/>
<line x1="24.25" y1="95.75" x2="157.75" y2="95.75" stroke="#A8B3C5" stroke-width="0.5" stroke-linecap="round" stroke-dasharray="2 2"/>
<circle cx="147.76" cy="27.76" r="14.76" fill="url(#paint0_linear_652_3074)"/>
<circle cx="155.5" cy="20.5" r="1.5" fill="#FF862E"/>
<path d="M148 21V25M141.5 25H154.5V33C154.5 33.2652 154.395 33.5196 154.207 33.7071C154.02 33.8946 153.765 34 153.5 34H142.5C142.235 34 141.98 33.8946 141.793 33.7071C141.605 33.5196 141.5 33.2652 141.5 33V25Z" stroke="white" stroke-linecap="round" stroke-linejoin="round"/>
<path d="M141.5 25L143 22.11C143.162 21.7843 143.409 21.5088 143.716 21.3132C144.022 21.1176 144.376 21.0093 144.74 21H151.26C151.632 21.0002 151.997 21.1042 152.313 21.3003C152.629 21.4964 152.884 21.7768 153.05 22.11L154.5 25M148 31.846V27.234M149.75 28.955L148 27.205L146.25 28.955" stroke="white" stroke-linecap="round" stroke-linejoin="round"/>
<path d="M53 86.5H79" stroke="#5A5C60" stroke-width="0.54" stroke-linecap="round"/>
<defs>
<filter id="filter0_d_652_3074" x="0" y="0" width="179" height="178" filterUnits="userSpaceOnUse" color-interpolation-filters="sRGB">
<feFlood flood-opacity="0" result="BackgroundImageFix"/>
<feColorMatrix in="SourceAlpha" type="matrix" values="0 0 0 0 0 0 0 0 0 0 0 0 0 0 0 0 0 0 127 0" result="hardAlpha"/>
<feOffset dy="4"/>
<feGaussianBlur stdDeviation="2"/>
<feComposite in2="hardAlpha" operator="out"/>
<feColorMatrix type="matrix" values="0 0 0 0 0 0 0 0 0 0 0 0 0 0 0 0 0 0 0.25 0"/>
<feBlend mode="normal" in2="BackgroundImageFix" result="effect1_dropShadow_652_3074"/>
<feBlend mode="normal" in="SourceGraphic" in2="effect1_dropShadow_652_3074" result="shape"/>
</filter>
<linearGradient id="paint0_linear_652_3074" x1="161.5" y1="28" x2="134" y2="29" gradientUnits="userSpaceOnUse">
<stop stop-color="#1E2023"/>
<stop offset="1" stop-color="#1E2023"/>
</linearGradient>
</defs>
</svg>
