<svg width="16" height="16" viewBox="0 0 16 16" fill="none" xmlns="http://www.w3.org/2000/svg">
<path d="M2.90294 8.05843H15.215M2.90294 8.05843L0.944204 13.8231C0.915177 13.8997 0.909194 13.983 0.926964 14.0628C0.944735 14.1427 0.985512 14.2159 1.04445 14.2738C1.10339 14.3316 1.17801 14.3716 1.25945 14.389C1.34088 14.4065 1.42571 14.4006 1.50384 14.3721L15.215 8.05843M2.90294 8.05843L0.944204 2.29378C0.915177 2.21712 0.909193 2.13391 0.926964 2.05402C0.944735 1.97413 0.985512 1.90093 1.04445 1.84311C1.10339 1.78529 1.17801 1.74528 1.25945 1.72785C1.34088 1.71041 1.42571 1.71628 1.50384 1.74476L15.215 8.05843" stroke="#1E2023" stroke-width="1.5" stroke-linecap="round" stroke-linejoin="round"/>
</svg>
