<svg width="268" height="84" viewBox="0 0 268 84" fill="none" xmlns="http://www.w3.org/2000/svg">
<mask id="path-1-inside-1_423_3750" fill="white">
<path fill-rule="evenodd" clip-rule="evenodd" d="M33 0C14.7746 0 0 14.7746 0 33C0 51.2254 14.7746 66 33 66H115.703C117.478 66 119.119 66.9407 120.017 68.4718L127.148 80.64C129.08 83.9356 133.844 83.9356 135.776 80.64L142.908 68.4718C143.805 66.9407 145.447 66 147.221 66H235C253.225 66 268 51.2254 268 33C268 14.7746 253.225 0 235 0H33Z"/>
</mask>
<path d="M142.908 68.4718L142.476 68.2189L142.908 68.4718ZM127.148 80.64L126.717 80.8928L127.148 80.64ZM135.776 80.64L136.207 80.8928L135.776 80.64ZM120.017 68.4718L119.585 68.7246L120.017 68.4718ZM-0.34102 36.2842C-0.314272 36.5591 -0.0697835 36.7602 0.20506 36.7335C0.479904 36.7067 0.681026 36.4622 0.654278 36.1874L-0.34102 36.2842ZM1.89136 42.4377C1.81129 42.1734 1.53214 42.0241 1.26786 42.1041C1.00358 42.1842 0.854248 42.4633 0.934317 42.7276L1.89136 42.4377ZM3.44998 48.7949C3.58036 49.0384 3.88339 49.13 4.12681 48.9996C4.37023 48.8692 4.46187 48.5662 4.33149 48.3228L3.44998 48.7949ZM7.87601 53.6179C7.7007 53.4045 7.38563 53.3737 7.17226 53.549C6.9589 53.7243 6.92805 54.0394 7.10335 54.2527L7.87601 53.6179ZM11.7473 58.8966C11.9606 59.072 12.2757 59.0411 12.451 58.8277C12.6263 58.6144 12.5955 58.2993 12.3821 58.124L11.7473 58.8966ZM17.6772 61.6685C17.4338 61.5381 17.1308 61.6298 17.0004 61.8732C16.87 62.1166 16.9616 62.4196 17.2051 62.55L17.6772 61.6685ZM23.2724 65.0657C23.5367 65.1458 23.8158 64.9964 23.8959 64.7321C23.9759 64.4679 23.8266 64.1887 23.5623 64.1086L23.2724 65.0657ZM29.8126 65.3457C29.5378 65.319 29.2933 65.5201 29.2665 65.7949C29.2398 66.0698 29.4409 66.3143 29.7157 66.341L29.8126 65.3457ZM36.4459 66.5C36.7221 66.5 36.9459 66.2761 36.9459 66C36.9459 65.7239 36.7221 65.5 36.4459 65.5V66.5ZM43.3379 65.5C43.0617 65.5 42.8379 65.7239 42.8379 66C42.8379 66.2761 43.0617 66.5 43.3379 66.5V65.5ZM50.2298 66.5C50.5059 66.5 50.7298 66.2761 50.7298 66C50.7298 65.7239 50.5059 65.5 50.2298 65.5V66.5ZM57.1217 65.5C56.8455 65.5 56.6217 65.7239 56.6217 66C56.6217 66.2761 56.8455 66.5 57.1217 66.5V65.5ZM64.0136 66.5C64.2897 66.5 64.5136 66.2761 64.5136 66C64.5136 65.7239 64.2897 65.5 64.0136 65.5V66.5ZM70.9055 65.5C70.6294 65.5 70.4055 65.7239 70.4055 66C70.4055 66.2761 70.6294 66.5 70.9055 66.5V65.5ZM77.7974 66.5C78.0736 66.5 78.2974 66.2761 78.2974 66C78.2974 65.7239 78.0736 65.5 77.7974 65.5V66.5ZM84.6893 65.5C84.4132 65.5 84.1893 65.7239 84.1893 66C84.1893 66.2761 84.4132 66.5 84.6893 66.5V65.5ZM91.5812 66.5C91.8574 66.5 92.0812 66.2761 92.0812 66C92.0812 65.7239 91.8574 65.5 91.5812 65.5V66.5ZM98.4731 65.5C98.197 65.5 97.9731 65.7239 97.9731 66C97.9731 66.2761 98.197 66.5 98.4731 66.5V65.5ZM105.365 66.5C105.641 66.5 105.865 66.2761 105.865 66C105.865 65.7239 105.641 65.5 105.365 65.5V66.5ZM112.257 65.5C111.981 65.5 111.757 65.7239 111.757 66C111.757 66.2761 111.981 66.5 112.257 66.5V65.5ZM121.368 71.7666C121.508 72.0049 121.814 72.0848 122.052 71.9452C122.291 71.8055 122.371 71.4992 122.231 71.261L121.368 71.7666ZM125.797 77.3451C125.657 77.1069 125.351 77.0269 125.113 77.1665C124.874 77.3062 124.794 77.6125 124.934 77.8507L125.797 77.3451ZM128.725 82.8904C128.964 83.0273 129.27 82.9439 129.407 82.7041C129.544 82.4643 129.46 82.1589 129.221 82.022L128.725 82.8904ZM133.704 82.022C133.464 82.1589 133.38 82.4643 133.517 82.7041C133.654 82.9439 133.96 83.0273 134.2 82.8904L133.704 82.022ZM137.99 77.8507C138.13 77.6125 138.05 77.3062 137.812 77.1665C137.573 77.0269 137.267 77.1069 137.127 77.3451L137.99 77.8507ZM140.693 71.261C140.554 71.4992 140.634 71.8055 140.872 71.9452C141.11 72.0848 141.416 72.0049 141.556 71.7666L140.693 71.261ZM150.879 66.5C151.155 66.5 151.379 66.2761 151.379 66C151.379 65.7239 151.155 65.5 150.879 65.5V66.5ZM158.194 65.5C157.917 65.5 157.694 65.7239 157.694 66C157.694 66.2761 157.917 66.5 158.194 66.5V65.5ZM165.508 66.5C165.785 66.5 166.008 66.2761 166.008 66C166.008 65.7239 165.785 65.5 165.508 65.5V66.5ZM172.823 65.5C172.547 65.5 172.323 65.7239 172.323 66C172.323 66.2761 172.547 66.5 172.823 66.5V65.5ZM180.138 66.5C180.414 66.5 180.638 66.2761 180.638 66C180.638 65.7239 180.414 65.5 180.138 65.5V66.5ZM187.453 65.5C187.177 65.5 186.953 65.7239 186.953 66C186.953 66.2761 187.177 66.5 187.453 66.5V65.5ZM194.768 66.5C195.044 66.5 195.268 66.2761 195.268 66C195.268 65.7239 195.044 65.5 194.768 65.5V66.5ZM202.083 65.5C201.807 65.5 201.583 65.7239 201.583 66C201.583 66.2761 201.807 66.5 202.083 66.5V65.5ZM209.398 66.5C209.674 66.5 209.898 66.2761 209.898 66C209.898 65.7239 209.674 65.5 209.398 65.5V66.5ZM216.713 65.5C216.437 65.5 216.213 65.7239 216.213 66C216.213 66.2761 216.437 66.5 216.713 66.5V65.5ZM224.028 66.5C224.304 66.5 224.528 66.2761 224.528 66C224.528 65.7239 224.304 65.5 224.028 65.5V66.5ZM231.343 65.5C231.066 65.5 230.843 65.7239 230.843 66C230.843 66.2761 231.066 66.5 231.343 66.5V65.5ZM238.284 66.341C238.559 66.3143 238.76 66.0698 238.733 65.7949C238.707 65.5201 238.462 65.319 238.187 65.3457L238.284 66.341ZM244.438 64.1086C244.173 64.1887 244.024 64.4679 244.104 64.7321C244.184 64.9964 244.463 65.1458 244.728 65.0657L244.438 64.1086ZM250.795 62.55C251.038 62.4196 251.13 62.1166 251 61.8732C250.869 61.6298 250.566 61.5381 250.323 61.6685L250.795 62.55ZM255.618 58.124C255.405 58.2993 255.374 58.6144 255.549 58.8277C255.724 59.0411 256.039 59.0719 256.253 58.8966L255.618 58.124ZM260.897 54.2527C261.072 54.0394 261.041 53.7243 260.828 53.549C260.614 53.3737 260.299 53.4045 260.124 53.6179L260.897 54.2527ZM263.669 48.3228C263.538 48.5662 263.63 48.8692 263.873 48.9996C264.117 49.13 264.42 49.0384 264.55 48.7949L263.669 48.3228ZM267.066 42.7276C267.146 42.4633 266.996 42.1842 266.732 42.1041C266.468 42.024 266.189 42.1734 266.109 42.4377L267.066 42.7276ZM267.346 36.1874C267.319 36.4622 267.52 36.7067 267.795 36.7335C268.07 36.7602 268.314 36.5591 268.341 36.2842L267.346 36.1874ZM268.341 29.7158C268.314 29.4409 268.07 29.2398 267.795 29.2665C267.52 29.2933 267.319 29.5378 267.346 29.8126L268.341 29.7158ZM266.109 23.5623C266.189 23.8266 266.468 23.9759 266.732 23.8959C266.996 23.8158 267.146 23.5367 267.066 23.2724L266.109 23.5623ZM264.55 17.2051C264.42 16.9616 264.117 16.87 263.873 17.0004C263.63 17.1308 263.538 17.4338 263.669 17.6772L264.55 17.2051ZM260.124 12.3821C260.299 12.5955 260.614 12.6263 260.828 12.451C261.041 12.2757 261.072 11.9606 260.897 11.7473L260.124 12.3821ZM256.253 7.10335C256.039 6.92805 255.724 6.9589 255.549 7.17226C255.374 7.38563 255.405 7.7007 255.618 7.876L256.253 7.10335ZM250.323 4.33149C250.566 4.46187 250.869 4.37024 251 4.12681C251.13 3.88339 251.038 3.58036 250.795 3.44998L250.323 4.33149ZM244.728 0.934316C244.463 0.854247 244.184 1.00358 244.104 1.26786C244.024 1.53214 244.173 1.81129 244.438 1.89136L244.728 0.934316ZM238.187 0.654277C238.462 0.681026 238.707 0.479904 238.733 0.20506C238.76 -0.0697837 238.559 -0.314272 238.284 -0.34102L238.187 0.654277ZM231.393 -0.5C231.117 -0.5 230.893 -0.276142 230.893 0C230.893 0.276142 231.117 0.5 231.393 0.5V-0.5ZM224.179 0.5C224.455 0.5 224.679 0.276142 224.679 0C224.679 -0.276142 224.455 -0.5 224.179 -0.5V0.5ZM216.964 -0.5C216.688 -0.5 216.464 -0.276142 216.464 0C216.464 0.276142 216.688 0.5 216.964 0.5V-0.5ZM209.75 0.5C210.026 0.5 210.25 0.276142 210.25 0C210.25 -0.276142 210.026 -0.5 209.75 -0.5V0.5ZM202.536 -0.5C202.26 -0.5 202.036 -0.276142 202.036 0C202.036 0.276142 202.26 0.5 202.536 0.5V-0.5ZM195.321 0.5C195.598 0.5 195.821 0.276142 195.821 0C195.821 -0.276142 195.598 -0.5 195.321 -0.5V0.5ZM188.107 -0.5C187.831 -0.5 187.607 -0.276142 187.607 0C187.607 0.276142 187.831 0.5 188.107 0.5V-0.5ZM180.893 0.5C181.169 0.5 181.393 0.276142 181.393 0C181.393 -0.276142 181.169 -0.5 180.893 -0.5V0.5ZM173.679 -0.5C173.402 -0.5 173.179 -0.276142 173.179 0C173.179 0.276142 173.402 0.5 173.679 0.5V-0.5ZM166.464 0.5C166.74 0.5 166.964 0.276142 166.964 0C166.964 -0.276142 166.74 -0.5 166.464 -0.5V0.5ZM159.25 -0.5C158.974 -0.5 158.75 -0.276142 158.75 0C158.75 0.276142 158.974 0.5 159.25 0.5V-0.5ZM152.036 0.5C152.312 0.5 152.536 0.276142 152.536 0C152.536 -0.276142 152.312 -0.5 152.036 -0.5V0.5ZM144.821 -0.5C144.545 -0.5 144.321 -0.276142 144.321 0C144.321 0.276142 144.545 0.5 144.821 0.5V-0.5ZM137.607 0.5C137.883 0.5 138.107 0.276142 138.107 0C138.107 -0.276142 137.883 -0.5 137.607 -0.5V0.5ZM130.393 -0.5C130.117 -0.5 129.893 -0.276142 129.893 0C129.893 0.276142 130.117 0.5 130.393 0.5V-0.5ZM123.179 0.5C123.455 0.5 123.679 0.276142 123.679 0C123.679 -0.276142 123.455 -0.5 123.179 -0.5V0.5ZM115.964 -0.5C115.688 -0.5 115.464 -0.276142 115.464 0C115.464 0.276142 115.688 0.5 115.964 0.5V-0.5ZM108.75 0.5C109.026 0.5 109.25 0.276142 109.25 0C109.25 -0.276142 109.026 -0.5 108.75 -0.5V0.5ZM101.536 -0.5C101.26 -0.5 101.036 -0.276142 101.036 0C101.036 0.276142 101.26 0.5 101.536 0.5V-0.5ZM94.3214 0.5C94.5976 0.5 94.8214 0.276142 94.8214 0C94.8214 -0.276142 94.5976 -0.5 94.3214 -0.5V0.5ZM87.1072 -0.5C86.831 -0.5 86.6072 -0.276142 86.6072 0C86.6072 0.276142 86.831 0.5 87.1072 0.5V-0.5ZM79.8929 0.5C80.169 0.5 80.3929 0.276142 80.3929 0C80.3929 -0.276142 80.169 -0.5 79.8929 -0.5V0.5ZM72.6786 -0.5C72.4024 -0.5 72.1786 -0.276142 72.1786 0C72.1786 0.276142 72.4024 0.5 72.6786 0.5V-0.5ZM65.4643 0.5C65.7404 0.5 65.9643 0.276142 65.9643 0C65.9643 -0.276142 65.7404 -0.5 65.4643 -0.5V0.5ZM58.25 -0.5C57.9739 -0.5 57.75 -0.276142 57.75 0C57.75 0.276142 57.9739 0.5 58.25 0.5V-0.5ZM51.0358 0.5C51.3119 0.5 51.5358 0.276142 51.5358 0C51.5358 -0.276142 51.3119 -0.5 51.0358 -0.5V0.5ZM43.8215 -0.5C43.5453 -0.5 43.3215 -0.276142 43.3215 0C43.3215 0.276142 43.5453 0.5 43.8215 0.5V-0.5ZM36.6072 0.5C36.8833 0.5 37.1072 0.276142 37.1072 0C37.1072 -0.276142 36.8833 -0.5 36.6072 -0.5V0.5ZM29.7158 -0.34102C29.4409 -0.314272 29.2398 -0.0697834 29.2665 0.20506C29.2933 0.479904 29.5378 0.681026 29.8126 0.654278L29.7158 -0.34102ZM23.5623 1.89136C23.8266 1.81129 23.9759 1.53214 23.8959 1.26786C23.8158 1.00358 23.5367 0.854248 23.2724 0.934317L23.5623 1.89136ZM17.2051 3.44998C16.9616 3.58036 16.87 3.88339 17.0004 4.12681C17.1308 4.37024 17.4338 4.46187 17.6772 4.33149L17.2051 3.44998ZM12.3821 7.87601C12.5955 7.7007 12.6263 7.38563 12.451 7.17227C12.2757 6.9589 11.9606 6.92805 11.7473 7.10335L12.3821 7.87601ZM7.10335 11.7473C6.92805 11.9606 6.9589 12.2757 7.17226 12.451C7.38563 12.6263 7.7007 12.5955 7.876 12.3821L7.10335 11.7473ZM4.33149 17.6772C4.46187 17.4338 4.37024 17.1308 4.12681 17.0004C3.88339 16.87 3.58036 16.9616 3.44998 17.2051L4.33149 17.6772ZM0.934316 23.2724C0.854247 23.5367 1.00358 23.8158 1.26786 23.8959C1.53214 23.976 1.81129 23.8266 1.89136 23.5623L0.934316 23.2724ZM0.654277 29.8126C0.681026 29.5378 0.479904 29.2933 0.20506 29.2665C-0.0697836 29.2398 -0.314272 29.4409 -0.34102 29.7158L0.654277 29.8126ZM-0.5 33C-0.5 34.108 -0.446192 35.2036 -0.34102 36.2842L0.654278 36.1874C0.552234 35.1389 0.5 34.0756 0.5 33H-0.5ZM0.934317 42.7276C1.57629 44.8465 2.4225 46.8766 3.44998 48.7949L4.33149 48.3228C3.33477 46.4619 2.514 44.4928 1.89136 42.4377L0.934317 42.7276ZM7.10335 54.2527C8.49614 55.9479 10.0521 57.5039 11.7473 58.8966L12.3821 58.124C10.7373 56.7726 9.22745 55.2627 7.87601 53.6179L7.10335 54.2527ZM17.2051 62.55C19.1234 63.5775 21.1535 64.4237 23.2724 65.0657L23.5623 64.1086C21.5072 63.486 19.5381 62.6652 17.6772 61.6685L17.2051 62.55ZM29.7157 66.341C30.7964 66.4462 31.892 66.5 33 66.5V65.5C31.9244 65.5 30.8611 65.4478 29.8126 65.3457L29.7157 66.341ZM33 66.5H36.4459V65.5H33V66.5ZM43.3379 66.5H50.2298V65.5H43.3379V66.5ZM57.1217 66.5H64.0136V65.5H57.1217V66.5ZM70.9055 66.5H77.7974V65.5H70.9055V66.5ZM84.6893 66.5H91.5812V65.5H84.6893V66.5ZM98.4731 66.5H105.365V65.5H98.4731V66.5ZM112.257 66.5H115.703V65.5H112.257V66.5ZM115.703 66.5C117.3 66.5 118.778 67.3466 119.585 68.7246L120.448 68.2189C119.461 66.5348 117.655 65.5 115.703 65.5V66.5ZM119.585 68.7246L121.368 71.7666L122.231 71.261L120.448 68.2189L119.585 68.7246ZM124.934 77.8507L126.717 80.8928L127.58 80.3872L125.797 77.3451L124.934 77.8507ZM126.717 80.8928C127.23 81.7687 127.929 82.4361 128.725 82.8904L129.221 82.022C128.574 81.6531 128.003 81.1097 127.58 80.3872L126.717 80.8928ZM134.2 82.8904C134.995 82.4361 135.694 81.7687 136.207 80.8928L135.344 80.3872C134.921 81.1097 134.35 81.6531 133.704 82.022L134.2 82.8904ZM136.207 80.8928L137.99 77.8507L137.127 77.3451L135.344 80.3872L136.207 80.8928ZM141.556 71.7666L143.339 68.7246L142.476 68.2189L140.693 71.261L141.556 71.7666ZM143.339 68.7246C144.147 67.3466 145.624 66.5 147.221 66.5V65.5C145.269 65.5 143.463 66.5348 142.476 68.2189L143.339 68.7246ZM147.221 66.5H150.879V65.5H147.221V66.5ZM158.194 66.5H165.508V65.5H158.194V66.5ZM172.823 66.5H180.138V65.5H172.823V66.5ZM187.453 66.5H194.768V65.5H187.453V66.5ZM202.083 66.5H209.398V65.5H202.083V66.5ZM216.713 66.5H224.028V65.5H216.713V66.5ZM231.343 66.5H235V65.5H231.343V66.5ZM235 66.5C236.108 66.5 237.204 66.4462 238.284 66.341L238.187 65.3457C237.139 65.4478 236.076 65.5 235 65.5V66.5ZM244.728 65.0657C246.847 64.4237 248.877 63.5775 250.795 62.55L250.323 61.6685C248.462 62.6652 246.493 63.486 244.438 64.1086L244.728 65.0657ZM256.253 58.8966C257.948 57.5039 259.504 55.9479 260.897 54.2527L260.124 53.6179C258.773 55.2627 257.263 56.7726 255.618 58.124L256.253 58.8966ZM264.55 48.7949C265.578 46.8766 266.424 44.8465 267.066 42.7276L266.109 42.4377C265.486 44.4928 264.665 46.4619 263.669 48.3228L264.55 48.7949ZM268.341 36.2842C268.446 35.2036 268.5 34.108 268.5 33H267.5C267.5 34.0756 267.448 35.1389 267.346 36.1874L268.341 36.2842ZM268.5 33C268.5 31.892 268.446 30.7964 268.341 29.7158L267.346 29.8126C267.448 30.8611 267.5 31.9244 267.5 33H268.5ZM267.066 23.2724C266.424 21.1535 265.578 19.1234 264.55 17.2051L263.669 17.6772C264.665 19.5381 265.486 21.5072 266.109 23.5623L267.066 23.2724ZM260.897 11.7473C259.504 10.0521 257.948 8.49614 256.253 7.10335L255.618 7.876C257.263 9.22745 258.773 10.7373 260.124 12.3821L260.897 11.7473ZM250.795 3.44998C248.877 2.4225 246.847 1.57629 244.728 0.934316L244.438 1.89136C246.493 2.514 248.462 3.33477 250.323 4.33149L250.795 3.44998ZM238.284 -0.34102C237.204 -0.446192 236.108 -0.5 235 -0.5V0.5C236.076 0.5 237.139 0.552234 238.187 0.654277L238.284 -0.34102ZM235 -0.5H231.393V0.5H235V-0.5ZM224.179 -0.5H216.964V0.5H224.179V-0.5ZM209.75 -0.5H202.536V0.5H209.75V-0.5ZM195.321 -0.5H188.107V0.5H195.321V-0.5ZM180.893 -0.5H173.679V0.5H180.893V-0.5ZM166.464 -0.5H159.25V0.5H166.464V-0.5ZM152.036 -0.5H144.821V0.5H152.036V-0.5ZM137.607 -0.5H130.393V0.5H137.607V-0.5ZM123.179 -0.5H115.964V0.5H123.179V-0.5ZM108.75 -0.5H101.536V0.5H108.75V-0.5ZM94.3214 -0.5H87.1072V0.5H94.3214V-0.5ZM79.8929 -0.5H72.6786V0.5H79.8929V-0.5ZM65.4643 -0.5H58.25V0.5H65.4643V-0.5ZM51.0358 -0.5H43.8215V0.5H51.0358V-0.5ZM36.6072 -0.5H33V0.5H36.6072V-0.5ZM33 -0.5C31.892 -0.5 30.7964 -0.446192 29.7158 -0.34102L29.8126 0.654278C30.8611 0.552234 31.9244 0.5 33 0.5V-0.5ZM23.2724 0.934317C21.1535 1.57629 19.1234 2.4225 17.2051 3.44998L17.6772 4.33149C19.5381 3.33477 21.5072 2.514 23.5623 1.89136L23.2724 0.934317ZM11.7473 7.10335C10.0521 8.49614 8.49614 10.0521 7.10335 11.7473L7.876 12.3821C9.22745 10.7373 10.7373 9.22745 12.3821 7.87601L11.7473 7.10335ZM3.44998 17.2051C2.4225 19.1234 1.57629 21.1535 0.934316 23.2724L1.89136 23.5623C2.514 21.5072 3.33477 19.5381 4.33149 17.6772L3.44998 17.2051ZM-0.34102 29.7158C-0.446192 30.7964 -0.5 31.892 -0.5 33H0.5C0.5 31.9244 0.552234 30.8611 0.654277 29.8126L-0.34102 29.7158ZM142.908 68.4718L142.045 67.9661L142.908 68.4718ZM127.148 80.64L126.286 81.1456L127.148 80.64ZM135.776 80.64L136.639 81.1456L135.776 80.64ZM120.017 68.4718L119.154 68.9774L120.017 68.4718ZM-0.838669 36.3327C-0.785173 36.8824 -0.296196 37.2846 0.253492 37.2311C0.80318 37.1776 1.20542 36.6886 1.15193 36.139L-0.838669 36.3327ZM2.36988 42.2927C2.20974 41.7641 1.65144 41.4655 1.12288 41.6256C0.594323 41.7857 0.295659 42.344 0.455797 42.8726L2.36988 42.2927ZM3.00922 49.031C3.26998 49.5179 3.87604 49.7011 4.36289 49.4404C4.84974 49.1796 5.03301 48.5736 4.77225 48.0867L3.00922 49.031ZM8.26233 53.3005C7.91173 52.8737 7.28158 52.812 6.85485 53.1626C6.42813 53.5133 6.36642 54.1434 6.71702 54.5701L8.26233 53.3005ZM11.4299 59.283C11.8566 59.6336 12.4867 59.5719 12.8374 59.1451C13.188 58.7184 13.1262 58.0883 12.6995 57.7377L11.4299 59.283ZM17.9133 61.2277C17.4264 60.967 16.8204 61.1503 16.5596 61.6371C16.2989 62.124 16.4821 62.73 16.969 62.9908L17.9133 61.2277ZM23.1274 65.5442C23.656 65.7043 24.2143 65.4057 24.3744 64.8771C24.5345 64.3486 24.2359 63.7903 23.7073 63.6301L23.1274 65.5442ZM29.861 64.8481C29.3114 64.7946 28.8224 65.1968 28.7689 65.7465C28.7154 66.2962 29.1176 66.7852 29.6673 66.8387L29.861 64.8481ZM36.4459 67C36.9982 67 37.4459 66.5523 37.4459 66C37.4459 65.4477 36.9982 65 36.4459 65V67ZM43.3379 65C42.7856 65 42.3379 65.4477 42.3379 66C42.3379 66.5523 42.7856 67 43.3379 67V65ZM50.2298 67C50.7821 67 51.2298 66.5523 51.2298 66C51.2298 65.4477 50.7821 65 50.2298 65V67ZM57.1217 65C56.5694 65 56.1217 65.4477 56.1217 66C56.1217 66.5523 56.5694 67 57.1217 67V65ZM64.0136 67C64.5659 67 65.0136 66.5523 65.0136 66C65.0136 65.4477 64.5659 65 64.0136 65V67ZM70.9055 65C70.3532 65 69.9055 65.4477 69.9055 66C69.9055 66.5523 70.3532 67 70.9055 67V65ZM77.7974 67C78.3497 67 78.7974 66.5523 78.7974 66C78.7974 65.4477 78.3497 65 77.7974 65V67ZM84.6893 65C84.137 65 83.6893 65.4477 83.6893 66C83.6893 66.5523 84.137 67 84.6893 67V65ZM91.5812 67C92.1335 67 92.5812 66.5523 92.5812 66C92.5812 65.4477 92.1335 65 91.5812 65V67ZM98.4731 65C97.9209 65 97.4731 65.4477 97.4731 66C97.4731 66.5523 97.9209 67 98.4731 67V65ZM105.365 67C105.917 67 106.365 66.5523 106.365 66C106.365 65.4477 105.917 65 105.365 65V67ZM112.257 65C111.705 65 111.257 65.4477 111.257 66C111.257 66.5523 111.705 67 112.257 67V65ZM120.937 72.0195C121.216 72.4959 121.829 72.6558 122.305 72.3765C122.782 72.0973 122.942 71.4846 122.662 71.0082L120.937 72.0195ZM126.228 77.0923C125.949 76.6158 125.336 76.4559 124.86 76.7352C124.383 77.0144 124.223 77.6271 124.503 78.1036L126.228 77.0923ZM128.477 83.3246C128.956 83.5984 129.567 83.4317 129.841 82.9521C130.115 82.4725 129.948 81.8616 129.468 81.5878L128.477 83.3246ZM133.456 81.5878C132.976 81.8616 132.809 82.4725 133.083 82.9521C133.357 83.4317 133.968 83.5984 134.447 83.3246L133.456 81.5878ZM138.421 78.1036C138.701 77.6271 138.541 77.0144 138.064 76.7352C137.588 76.4559 136.975 76.6158 136.696 77.0923L138.421 78.1036ZM140.262 71.0082C139.983 71.4846 140.142 72.0973 140.619 72.3765C141.095 72.6558 141.708 72.4959 141.987 72.0195L140.262 71.0082ZM150.879 67C151.431 67 151.879 66.5523 151.879 66C151.879 65.4477 151.431 65 150.879 65V67ZM158.194 65C157.641 65 157.194 65.4477 157.194 66C157.194 66.5523 157.641 67 158.194 67V65ZM165.508 67C166.061 67 166.508 66.5523 166.508 66C166.508 65.4477 166.061 65 165.508 65V67ZM172.823 65C172.271 65 171.823 65.4477 171.823 66C171.823 66.5523 172.271 67 172.823 67V65ZM180.138 67C180.691 67 181.138 66.5523 181.138 66C181.138 65.4477 180.691 65 180.138 65V67ZM187.453 65C186.901 65 186.453 65.4477 186.453 66C186.453 66.5523 186.901 67 187.453 67V65ZM194.768 67C195.32 67 195.768 66.5523 195.768 66C195.768 65.4477 195.32 65 194.768 65V67ZM202.083 65C201.531 65 201.083 65.4477 201.083 66C201.083 66.5523 201.531 67 202.083 67V65ZM209.398 67C209.95 67 210.398 66.5523 210.398 66C210.398 65.4477 209.95 65 209.398 65V67ZM216.713 65C216.16 65 215.713 65.4477 215.713 66C215.713 66.5523 216.16 67 216.713 67V65ZM224.028 67C224.58 67 225.028 66.5523 225.028 66C225.028 65.4477 224.58 65 224.028 65V67ZM231.343 65C230.79 65 230.343 65.4477 230.343 66C230.343 66.5523 230.79 67 231.343 67V65ZM238.333 66.8387C238.882 66.7852 239.285 66.2962 239.231 65.7465C239.178 65.1968 238.689 64.7946 238.139 64.8481L238.333 66.8387ZM244.293 63.6301C243.764 63.7903 243.465 64.3486 243.626 64.8771C243.786 65.4057 244.344 65.7043 244.873 65.5442L244.293 63.6301ZM251.031 62.9908C251.518 62.73 251.701 62.124 251.44 61.6371C251.18 61.1503 250.574 60.967 250.087 61.2277L251.031 62.9908ZM255.3 57.7377C254.874 58.0883 254.812 58.7184 255.163 59.1451C255.513 59.5719 256.143 59.6336 256.57 59.283L255.3 57.7377ZM261.283 54.5701C261.634 54.1434 261.572 53.5133 261.145 53.1626C260.718 52.812 260.088 52.8737 259.738 53.3005L261.283 54.5701ZM263.228 48.0867C262.967 48.5735 263.15 49.1796 263.637 49.4404C264.124 49.7011 264.73 49.5179 264.991 49.031L263.228 48.0867ZM267.544 42.8726C267.704 42.344 267.406 41.7857 266.877 41.6256C266.349 41.4655 265.79 41.7641 265.63 42.2927L267.544 42.8726ZM266.848 36.1389C266.795 36.6886 267.197 37.1776 267.747 37.2311C268.296 37.2846 268.785 36.8824 268.839 36.3327L266.848 36.1389ZM268.839 29.6673C268.785 29.1176 268.296 28.7154 267.747 28.7689C267.197 28.8224 266.795 29.3114 266.848 29.861L268.839 29.6673ZM265.63 23.7073C265.79 24.2359 266.349 24.5345 266.877 24.3744C267.406 24.2143 267.704 23.656 267.544 23.1274L265.63 23.7073ZM264.991 16.969C264.73 16.4821 264.124 16.2989 263.637 16.5596C263.15 16.8204 262.967 17.4265 263.228 17.9133L264.991 16.969ZM259.738 12.6995C260.088 13.1262 260.718 13.188 261.145 12.8374C261.572 12.4867 261.634 11.8566 261.283 11.4299L259.738 12.6995ZM256.57 6.71702C256.143 6.36642 255.513 6.42813 255.163 6.85485C254.812 7.28158 254.874 7.91173 255.3 8.26233L256.57 6.71702ZM250.087 4.77225C250.574 5.03301 251.18 4.84974 251.44 4.36289C251.701 3.87604 251.518 3.26998 251.031 3.00922L250.087 4.77225ZM244.873 0.455796C244.344 0.295658 243.786 0.594322 243.626 1.12288C243.465 1.65144 243.764 2.20974 244.293 2.36988L244.873 0.455796ZM238.139 1.15193C238.689 1.20542 239.178 0.80318 239.231 0.253492C239.285 -0.296196 238.882 -0.785173 238.333 -0.838669L238.139 1.15193ZM231.393 -1C230.841 -1 230.393 -0.552285 230.393 0C230.393 0.552285 230.841 1 231.393 1V-1ZM224.179 1C224.731 1 225.179 0.552285 225.179 0C225.179 -0.552285 224.731 -1 224.179 -1V1ZM216.964 -1C216.412 -1 215.964 -0.552285 215.964 0C215.964 0.552285 216.412 1 216.964 1V-1ZM209.75 1C210.302 1 210.75 0.552285 210.75 0C210.75 -0.552285 210.302 -1 209.75 -1V1ZM202.536 -1C201.983 -1 201.536 -0.552285 201.536 0C201.536 0.552285 201.983 1 202.536 1V-1ZM195.321 1C195.874 1 196.321 0.552285 196.321 0C196.321 -0.552285 195.874 -1 195.321 -1V1ZM188.107 -1C187.555 -1 187.107 -0.552285 187.107 0C187.107 0.552285 187.555 1 188.107 1V-1ZM180.893 1C181.445 1 181.893 0.552285 181.893 0C181.893 -0.552285 181.445 -1 180.893 -1V1ZM173.679 -1C173.126 -1 172.679 -0.552285 172.679 0C172.679 0.552285 173.126 1 173.679 1V-1ZM166.464 1C167.017 1 167.464 0.552285 167.464 0C167.464 -0.552285 167.017 -1 166.464 -1V1ZM159.25 -1C158.698 -1 158.25 -0.552285 158.25 0C158.25 0.552285 158.698 1 159.25 1V-1ZM152.036 1C152.588 1 153.036 0.552285 153.036 0C153.036 -0.552285 152.588 -1 152.036 -1V1ZM144.821 -1C144.269 -1 143.821 -0.552285 143.821 0C143.821 0.552285 144.269 1 144.821 1V-1ZM137.607 1C138.159 1 138.607 0.552285 138.607 0C138.607 -0.552285 138.159 -1 137.607 -1V1ZM130.393 -1C129.841 -1 129.393 -0.552285 129.393 0C129.393 0.552285 129.841 1 130.393 1V-1ZM123.179 1C123.731 1 124.179 0.552285 124.179 0C124.179 -0.552285 123.731 -1 123.179 -1V1ZM115.964 -1C115.412 -1 114.964 -0.552285 114.964 0C114.964 0.552285 115.412 1 115.964 1V-1ZM108.75 1C109.302 1 109.75 0.552285 109.75 0C109.75 -0.552285 109.302 -1 108.75 -1V1ZM101.536 -1C100.983 -1 100.536 -0.552285 100.536 0C100.536 0.552285 100.983 1 101.536 1V-1ZM94.3214 1C94.8737 1 95.3214 0.552285 95.3214 0C95.3214 -0.552285 94.8737 -1 94.3214 -1V1ZM87.1072 -1C86.5549 -1 86.1072 -0.552285 86.1072 0C86.1072 0.552285 86.5549 1 87.1072 1V-1ZM79.8929 1C80.4452 1 80.8929 0.552285 80.8929 0C80.8929 -0.552285 80.4452 -1 79.8929 -1V1ZM72.6786 -1C72.1263 -1 71.6786 -0.552285 71.6786 0C71.6786 0.552285 72.1263 1 72.6786 1V-1ZM65.4643 1C66.0166 1 66.4643 0.552285 66.4643 0C66.4643 -0.552285 66.0166 -1 65.4643 -1V1ZM58.25 -1C57.6978 -1 57.25 -0.552285 57.25 0C57.25 0.552285 57.6978 1 58.25 1V-1ZM51.0358 1C51.588 1 52.0358 0.552285 52.0358 0C52.0358 -0.552285 51.588 -1 51.0358 -1V1ZM43.8215 -1C43.2692 -1 42.8215 -0.552285 42.8215 0C42.8215 0.552285 43.2692 1 43.8215 1V-1ZM36.6072 1C37.1595 1 37.6072 0.552285 37.6072 0C37.6072 -0.552285 37.1595 -1 36.6072 -1V1ZM29.6673 -0.838669C29.1176 -0.785173 28.7154 -0.296196 28.7689 0.253492C28.8224 0.80318 29.3114 1.20542 29.861 1.15193L29.6673 -0.838669ZM23.7073 2.36988C24.2359 2.20974 24.5345 1.65144 24.3744 1.12288C24.2143 0.594323 23.656 0.295659 23.1274 0.455797L23.7073 2.36988ZM16.969 3.00922C16.4821 3.26998 16.2989 3.87604 16.5596 4.36289C16.8204 4.84974 17.4265 5.03301 17.9133 4.77225L16.969 3.00922ZM12.6995 8.26233C13.1262 7.91173 13.188 7.28158 12.8374 6.85485C12.4867 6.42813 11.8566 6.36642 11.4299 6.71703L12.6995 8.26233ZM6.71702 11.4299C6.36642 11.8566 6.42813 12.4867 6.85485 12.8374C7.28158 13.188 7.91173 13.1263 8.26233 12.6995L6.71702 11.4299ZM4.77225 17.9133C5.03301 17.4265 4.84974 16.8204 4.36289 16.5596C3.87604 16.2989 3.26998 16.4821 3.00922 16.969L4.77225 17.9133ZM0.455796 23.1274C0.295658 23.656 0.594322 24.2143 1.12288 24.3744C1.65144 24.5345 2.20974 24.2359 2.36988 23.7073L0.455796 23.1274ZM1.15193 29.861C1.20542 29.3114 0.80318 28.8224 0.253492 28.7689C-0.296196 28.7154 -0.785173 29.1176 -0.838669 29.6673L1.15193 29.861ZM-1 33C-1 34.1242 -0.945405 35.2359 -0.838669 36.3327L1.15193 36.139C1.05145 35.1065 1 34.0594 1 33H-1ZM0.455797 42.8726C1.10744 45.0234 1.96636 47.084 3.00922 49.031L4.77225 48.0867C3.79091 46.2545 2.98286 44.3159 2.36988 42.2927L0.455797 42.8726ZM6.71702 54.5701C8.13048 56.2905 9.70954 57.8695 11.4299 59.283L12.6995 57.7377C11.0798 56.4069 9.5931 54.9202 8.26233 53.3005L6.71702 54.5701ZM16.969 62.9908C18.916 64.0336 20.9766 64.8926 23.1274 65.5442L23.7073 63.6301C21.6841 63.0171 19.7455 62.2091 17.9133 61.2277L16.969 62.9908ZM29.6673 66.8387C30.7641 66.9454 31.8758 67 33 67V65C31.9406 65 30.8935 64.9486 29.861 64.8481L29.6673 66.8387ZM33 67H36.4459V65H33V67ZM43.3379 67H50.2298V65H43.3379V67ZM57.1217 67H64.0136V65H57.1217V67ZM70.9055 67H77.7974V65H70.9055V67ZM84.6893 67H91.5812V65H84.6893V67ZM98.4731 67H105.365V65H98.4731V67ZM112.257 67H115.703V65H112.257V67ZM115.703 67C117.123 67 118.436 67.7525 119.154 68.9774L120.879 67.9661C119.803 66.1288 117.833 65 115.703 65V67ZM119.154 68.9774L120.937 72.0195L122.662 71.0082L120.879 67.9661L119.154 68.9774ZM124.503 78.1036L126.286 81.1456L128.011 80.1343L126.228 77.0923L124.503 78.1036ZM126.286 81.1456C126.844 82.0982 127.607 82.8277 128.477 83.3246L129.468 81.5878C128.897 81.2615 128.39 80.7802 128.011 80.1343L126.286 81.1456ZM134.447 83.3246C135.318 82.8277 136.08 82.0982 136.639 81.1456L134.913 80.1343C134.535 80.7802 134.027 81.2615 133.456 81.5878L134.447 83.3246ZM136.639 81.1456L138.421 78.1036L136.696 77.0923L134.913 80.1343L136.639 81.1456ZM141.987 72.0195L143.77 68.9774L142.045 67.9661L140.262 71.0082L141.987 72.0195ZM143.77 68.9774C144.488 67.7525 145.802 67 147.221 67V65C145.092 65 143.122 66.1288 142.045 67.9661L143.77 68.9774ZM147.221 67H150.879V65H147.221V67ZM158.194 67H165.508V65H158.194V67ZM172.823 67H180.138V65H172.823V67ZM187.453 67H194.768V65H187.453V67ZM202.083 67H209.398V65H202.083V67ZM216.713 67H224.028V65H216.713V67ZM231.343 67H235V65H231.343V67ZM235 67C236.124 67 237.236 66.9454 238.333 66.8387L238.139 64.8481C237.106 64.9486 236.059 65 235 65V67ZM244.873 65.5442C247.023 64.8926 249.084 64.0336 251.031 62.9908L250.087 61.2277C248.255 62.2091 246.316 63.0171 244.293 63.6301L244.873 65.5442ZM256.57 59.283C258.29 57.8695 259.87 56.2905 261.283 54.5701L259.738 53.3005C258.407 54.9202 256.92 56.4069 255.3 57.7377L256.57 59.283ZM264.991 49.031C266.034 47.084 266.893 45.0234 267.544 42.8726L265.63 42.2927C265.017 44.3159 264.209 46.2545 263.228 48.0867L264.991 49.031ZM268.839 36.3327C268.945 35.2359 269 34.1242 269 33H267C267 34.0594 266.949 35.1065 266.848 36.1389L268.839 36.3327ZM269 33C269 31.8758 268.945 30.7641 268.839 29.6673L266.848 29.861C266.949 30.8935 267 31.9406 267 33H269ZM267.544 23.1274C266.893 20.9766 266.034 18.916 264.991 16.969L263.228 17.9133C264.209 19.7455 265.017 21.6841 265.63 23.7073L267.544 23.1274ZM261.283 11.4299C259.87 9.70954 258.29 8.13048 256.57 6.71702L255.3 8.26233C256.92 9.5931 258.407 11.0798 259.738 12.6995L261.283 11.4299ZM251.031 3.00922C249.084 1.96636 247.023 1.10744 244.873 0.455796L244.293 2.36988C246.316 2.98286 248.255 3.79091 250.087 4.77225L251.031 3.00922ZM238.333 -0.838669C237.236 -0.945405 236.124 -1 235 -1V1C236.059 1 237.106 1.05145 238.139 1.15193L238.333 -0.838669ZM235 -1H231.393V1H235V-1ZM224.179 -1H216.964V1H224.179V-1ZM209.75 -1H202.536V1H209.75V-1ZM195.321 -1H188.107V1H195.321V-1ZM180.893 -1H173.679V1H180.893V-1ZM166.464 -1H159.25V1H166.464V-1ZM152.036 -1H144.821V1H152.036V-1ZM137.607 -1H130.393V1H137.607V-1ZM123.179 -1H115.964V1H123.179V-1ZM108.75 -1H101.536V1H108.75V-1ZM94.3214 -1H87.1072V1H94.3214V-1ZM79.8929 -1H72.6786V1H79.8929V-1ZM65.4643 -1H58.25V1H65.4643V-1ZM51.0358 -1H43.8215V1H51.0358V-1ZM36.6072 -1H33V1H36.6072V-1ZM33 -1C31.8758 -1 30.7641 -0.945405 29.6673 -0.838669L29.861 1.15193C30.8935 1.05145 31.9406 1 33 1V-1ZM23.1274 0.455797C20.9766 1.10744 18.916 1.96636 16.969 3.00922L17.9133 4.77225C19.7455 3.79091 21.6841 2.98286 23.7073 2.36988L23.1274 0.455797ZM11.4299 6.71703C9.70954 8.13048 8.13048 9.70954 6.71702 11.4299L8.26233 12.6995C9.5931 11.0798 11.0798 9.5931 12.6995 8.26233L11.4299 6.71703ZM3.00922 16.969C1.96636 18.916 1.10744 20.9766 0.455796 23.1274L2.36988 23.7073C2.98286 21.6841 3.79091 19.7455 4.77225 17.9133L3.00922 16.969ZM-0.838669 29.6673C-0.945405 30.7641 -1 31.8758 -1 33H1C1 31.9406 1.05145 30.8935 1.15193 29.861L-0.838669 29.6673Z" fill="white" mask="url(#path-1-inside-1_423_3750)"/>
</svg>
