<svg width="14" height="13" viewBox="0 0 14 13" fill="none" xmlns="http://www.w3.org/2000/svg">
<circle cx="7" cy="6.5" r="6.5" fill="#FF862E"/>
<path d="M6.12892 2.72722C6.51143 2.04857 7.4887 2.04857 7.87122 2.72722L8.46335 3.77777C8.60605 4.03094 8.85183 4.20951 9.13672 4.26699L10.3188 4.50551C11.0825 4.65959 11.3845 5.58903 10.8572 6.16254L10.0411 7.05033C9.84439 7.26428 9.75051 7.55321 9.78387 7.84192L9.92233 9.03988C10.0118 9.81375 9.22113 10.3882 8.51277 10.064L7.41623 9.56211C7.15197 9.44116 6.84816 9.44116 6.5839 9.56211L5.48736 10.064C4.779 10.3882 3.98837 9.81375 4.07781 9.03988L4.21626 7.84192C4.24963 7.55321 4.15575 7.26428 3.95906 7.05033L3.1429 6.16254C2.61568 5.58903 2.91767 4.65959 3.6813 4.50551L4.86342 4.26699C5.1483 4.20951 5.39408 4.03094 5.53678 3.77777L6.12892 2.72722Z" fill="white"/>
</svg>
