<svg width="105" height="115" viewBox="0 0 105 115" fill="none" xmlns="http://www.w3.org/2000/svg">
<path d="M-4.56983e-07 104.545L-4.56983e-06 10.4546C-4.69103e-06 7.68183 1.10624 5.02268 3.07537 3.06207C5.04451 1.10146 7.71522 7.29215e-06 10.5 7.17042e-06L94.5 3.49867e-06C97.2848 3.37694e-06 99.9555 1.10146 101.925 3.06207C103.894 5.02268 105 7.68183 105 10.4545L105 104.545C105 107.318 103.894 109.977 101.925 111.938C99.9555 113.899 97.2848 115 94.5 115L10.5 115C7.71523 115 5.04451 113.899 3.07538 111.938C1.10625 109.977 -3.35783e-07 107.318 -4.56983e-07 104.545ZM10.5 52.2727L94.5 52.2727L94.5 10.4545L10.5 10.4546L10.5 52.2727ZM10.5 104.545L94.5 104.545L94.5 62.7273L10.5 62.7273L10.5 104.545ZM57.75 94.0909L57.75 83.6364L78.75 83.6364L78.75 94.0909L57.75 94.0909ZM21 94.0909L21 73.1818L28.875 73.1818L28.875 94.0909L21 94.0909ZM36.75 94.0909L36.75 73.1818L44.625 73.1818L44.625 94.0909L36.75 94.0909ZM57.75 41.8182L57.75 31.3636L78.75 31.3636L78.75 41.8182L57.75 41.8182ZM21 41.8182L21 20.9091L28.875 20.9091L28.875 41.8182L21 41.8182ZM36.75 41.8182L36.75 20.9091L44.625 20.9091L44.625 41.8182L36.75 41.8182Z" fill="#32FF9D"/>
</svg>
