<svg width="9" height="9" viewBox="0 0 9 9" fill="none" xmlns="http://www.w3.org/2000/svg">
<path d="M4.49975 7.65C4.6191 7.65 4.73357 7.69741 4.81797 7.7818C4.90236 7.86619 4.94978 7.98065 4.94978 8.1V8.55C4.94978 8.66935 4.90236 8.78381 4.81797 8.8682C4.73357 8.95259 4.6191 9 4.49975 9C4.3804 9 4.26593 8.95259 4.18154 8.8682C4.09714 8.78381 4.04973 8.66935 4.04973 8.55V8.1C4.04973 7.98065 4.09714 7.86619 4.18154 7.7818C4.26593 7.69741 4.3804 7.65 4.49975 7.65ZM7.36371 6.7275L7.68188 7.04565C7.76385 7.13052 7.80921 7.24419 7.80819 7.36218C7.80716 7.48017 7.75983 7.59303 7.6764 7.67647C7.59296 7.7599 7.48008 7.80723 7.36209 7.80825C7.24409 7.80928 7.13042 7.76392 7.04554 7.68195L6.72737 7.3638C6.6454 7.27893 6.60004 7.16526 6.60106 7.04727C6.60209 6.92928 6.64942 6.81641 6.73286 6.73298C6.81629 6.64955 6.92917 6.60222 7.04716 6.6012C7.16516 6.60017 7.27883 6.64553 7.36371 6.7275ZM1.63579 6.7275C1.71678 6.64679 1.82545 6.59994 1.93973 6.59645C2.05402 6.59296 2.16534 6.6331 2.2511 6.70871C2.33686 6.78433 2.39062 6.88975 2.40146 7.00356C2.41231 7.11738 2.37942 7.23105 2.30948 7.3215L2.27213 7.3638L1.95396 7.68195C1.87297 7.76266 1.7643 7.80951 1.65002 7.813C1.53574 7.81649 1.42441 7.77635 1.33865 7.70074C1.25289 7.62512 1.19913 7.5197 1.18829 7.40589C1.17745 7.29207 1.21033 7.1784 1.28027 7.08795L1.31762 7.04565L1.63579 6.7275ZM4.49975 1.8C5.21587 1.8 5.90267 2.08446 6.40905 2.59081C6.91542 3.09716 7.1999 3.78392 7.1999 4.5C7.1999 5.21608 6.91542 5.90284 6.40905 6.40919C5.90267 6.91554 5.21587 7.2 4.49975 7.2C3.78363 7.2 3.09683 6.91554 2.59046 6.40919C2.08408 5.90284 1.7996 5.21608 1.7996 4.5C1.7996 3.78392 2.08408 3.09716 2.59046 2.59081C3.09683 2.08446 3.78363 1.8 4.49975 1.8ZM0.899551 4.05C1.01425 4.05013 1.12458 4.09405 1.20798 4.17278C1.29139 4.25152 1.34158 4.35913 1.3483 4.47363C1.35503 4.58813 1.31777 4.70087 1.24415 4.78882C1.17053 4.87678 1.0661 4.9333 0.952204 4.94685L0.899551 4.95H0.449526C0.334824 4.94987 0.224499 4.90595 0.141094 4.82722C0.0576877 4.74848 0.00749614 4.64087 0.000774059 4.52637C-0.00594802 4.41187 0.0313068 4.29913 0.104926 4.21118C0.178546 4.12322 0.282974 4.0667 0.396873 4.05315L0.449526 4.05H0.899551ZM8.54998 4.05C8.66933 4.05 8.78379 4.09741 8.86819 4.1818C8.95259 4.26619 9 4.38065 9 4.5C9 4.61935 8.95259 4.73381 8.86819 4.8182C8.78379 4.90259 8.66933 4.95 8.54998 4.95H8.09995C7.9806 4.95 7.86613 4.90259 7.78173 4.8182C7.69734 4.73381 7.64993 4.61935 7.64993 4.5C7.64993 4.38065 7.69734 4.26619 7.78173 4.1818C7.86613 4.09741 7.9806 4.05 8.09995 4.05H8.54998ZM1.31762 1.31805C1.39512 1.24057 1.49822 1.19403 1.60758 1.18715C1.71695 1.18027 1.82507 1.21354 1.91166 1.2807L1.95396 1.31805L2.27213 1.6362C2.35284 1.71718 2.3997 1.82585 2.40319 1.94012C2.40668 2.0544 2.36654 2.16572 2.29092 2.25148C2.2153 2.33723 2.10987 2.39099 1.99605 2.40183C1.88223 2.41267 1.76855 2.37979 1.67809 2.30985L1.63579 2.2725L1.31762 1.95435C1.23326 1.86996 1.18586 1.75552 1.18586 1.6362C1.18586 1.51688 1.23326 1.40244 1.31762 1.31805ZM7.68188 1.31805C7.76624 1.40244 7.81364 1.51688 7.81364 1.6362C7.81364 1.75552 7.76624 1.86996 7.68188 1.95435L7.36371 2.2725C7.3222 2.31548 7.27254 2.34976 7.21763 2.37335C7.16273 2.39693 7.10368 2.40934 7.04392 2.40986C6.98417 2.41038 6.92491 2.399 6.8696 2.37637C6.8143 2.35374 6.76405 2.32033 6.7218 2.27808C6.67954 2.23583 6.64613 2.18558 6.6235 2.13028C6.60087 2.07498 6.58948 2.01572 6.59 1.95597C6.59052 1.89622 6.60294 1.83717 6.62652 1.78227C6.65011 1.72737 6.68439 1.67771 6.72737 1.6362L7.04554 1.31805C7.12993 1.23369 7.24438 1.1863 7.36371 1.1863C7.48304 1.1863 7.59748 1.23369 7.68188 1.31805ZM4.49975 0C4.6191 0 4.73357 0.0474106 4.81797 0.131802C4.90236 0.216193 4.94978 0.330653 4.94978 0.45V0.9C4.94978 1.01935 4.90236 1.13381 4.81797 1.2182C4.73357 1.30259 4.6191 1.35 4.49975 1.35C4.3804 1.35 4.26593 1.30259 4.18154 1.2182C4.09714 1.13381 4.04973 1.01935 4.04973 0.9V0.45C4.04973 0.330653 4.09714 0.216193 4.18154 0.131802C4.26593 0.0474106 4.3804 0 4.49975 0Z" fill="#FF7A2F"/>
</svg>
