<svg width="41" height="41" viewBox="0 0 41 41" fill="none" xmlns="http://www.w3.org/2000/svg">
<path d="M30.7242 3.00194C32.5221 3.08736 33.8149 3.44066 34.6339 4.18998C35.4432 4.93153 35.8585 6.00503 35.9404 7.42601V11.4968C35.9363 11.8435 35.7942 12.1743 35.5452 12.4167C35.2962 12.6592 34.9607 12.7933 34.6125 12.7896C34.4399 12.7917 34.2686 12.7599 34.1083 12.696C33.9481 12.6322 33.802 12.5375 33.6786 12.4174C33.5551 12.2974 33.4565 12.1543 33.3886 11.9963C33.3207 11.8384 33.2846 11.6686 33.2826 11.4968L33.2845 7.49978C33.2416 6.76211 33.0642 6.30398 32.8107 6.07103C32.565 5.84585 31.8162 5.64396 30.6598 5.58572H5.16165C4.1145 5.62455 3.43395 5.82256 3.1044 6.10403C2.8509 6.31951 2.6598 6.91353 2.65785 7.94044L2.652 30.7888C2.7495 31.7866 2.96985 32.4524 3.2526 32.7844C3.4671 33.0367 4.13205 33.2891 5.11095 33.4133H30.6872C31.8845 33.4366 32.5904 33.258 32.8283 33.0193C33.0915 32.7533 33.2826 32.0545 33.2826 30.9111V26.9412C33.2826 26.2288 33.8773 25.6484 34.6125 25.6484C35.3457 25.6484 35.9404 26.2288 35.9404 26.9412V30.9111C35.9404 32.6582 35.5816 33.9646 34.7412 34.813C33.8754 35.6865 32.4987 36.0359 30.6598 35.9971L4.953 35.9913C3.20385 35.7894 1.95 35.3118 1.20315 34.4325C0.5265 33.6366 0.15015 32.5009 0 30.913V7.9385C0.0039 6.23798 0.4134 4.95871 1.3533 4.15892C2.2152 3.42125 3.4593 3.06212 5.11095 3L30.7242 3.00194Z" fill="white"/>
<circle cx="27" cy="19" r="1" fill="#32FF9D"/>
<rect x="23" y="15" width="16" height="8" rx="2" stroke="#32FF9D" stroke-width="2"/>
</svg>
