<svg width="143" height="127" viewBox="0 0 143 127" fill="none" xmlns="http://www.w3.org/2000/svg">
<path d="M136.591 103.695C136.802 103.675 137.015 103.722 137.196 103.832C141.363 106.374 142.905 109.118 141.687 111.834C140.441 114.61 136.35 117.269 129.776 119.577C123.201 121.885 114.346 123.769 103.995 125.064C93.6441 126.359 82.1165 127.024 70.4334 126.999C58.7503 126.975 47.2724 126.263 37.0163 124.926C26.7601 123.589 18.0425 121.668 11.6354 119.334C5.22832 116.999 1.32965 114.323 0.284715 111.543C-0.738857 108.819 1.00675 106.078 5.36825 103.551C5.54672 103.448 5.75493 103.405 5.96012 103.425L18.4288 104.69C19.3999 104.788 19.7099 106.159 18.9945 106.823C17.4701 108.238 16.9623 109.709 17.5127 111.173C18.3032 113.277 21.2527 115.301 26.0998 117.067C30.947 118.833 37.5422 120.287 45.3013 121.298C53.0604 122.31 61.7438 122.848 70.5825 122.867C79.4211 122.885 88.1422 122.382 95.9731 121.402C103.804 120.423 110.503 118.997 115.477 117.251C120.451 115.505 123.546 113.493 124.488 111.393C125.142 109.935 124.744 108.464 123.329 107.046C122.645 106.361 122.968 105.011 123.932 104.917L136.591 103.695Z" fill="white"/>
<path d="M98.3289 12.7524L88.7724 7.24661C80.3817 2.41728 76.1863 0 71.6756 0C67.1649 0 62.9696 2.41204 54.5789 7.24661L53.0451 8.13278L95.6818 34.8697L114.871 24.3302C111.785 20.4919 106.806 17.6236 98.3289 12.7419M118.254 31.2726L99.1508 41.7598V57.6793C99.1508 58.7223 98.7732 59.7226 98.1012 60.4601C97.4291 61.1976 96.5176 61.6119 95.5671 61.6119C94.6166 61.6119 93.7051 61.1976 93.033 60.4601C92.3609 59.7226 91.9834 58.7223 91.9834 57.6793V45.6925L75.2593 54.8687V104.368C78.6902 103.429 82.594 101.185 88.7724 97.6248L98.3289 92.119C108.607 86.199 113.748 83.2417 116.606 77.9194C119.459 72.6025 119.459 65.9798 119.459 52.7503V52.1368C119.459 42.2107 119.459 36.0023 118.254 31.2726ZM68.0919 104.368V54.8687L25.0968 31.2726C23.8927 36.0023 23.8927 42.2107 23.8927 52.1263V52.7398C23.8927 65.9798 23.8927 72.6025 26.7453 77.9194C29.6028 83.2417 34.7442 86.2043 45.0223 92.1243L54.5789 97.6248C60.7572 101.185 64.6611 103.429 68.0919 104.368ZM28.4799 24.3354L71.6756 48.0363L87.9744 39.096L45.5145 12.4692L45.0223 12.7524C36.5504 17.6289 31.5666 20.4971 28.4799 24.3406" fill="#D9D9D9"/>
<circle cx="137" cy="5" r="5" fill="#32FF9D"/>
</svg>
