<svg width="189" height="187" viewBox="0 0 189 187" fill="none" xmlns="http://www.w3.org/2000/svg">
<circle cx="16.5" cy="16.5" r="16.5" fill="#32FF9D" fill-opacity="0.12"/>
<circle cx="16.5" cy="16.5" r="13.5" fill="#32FF9D" fill-opacity="0.54"/>
<circle cx="16.5" cy="16.5" r="11.5" fill="#32FF9D" fill-opacity="0.8"/>
<path d="M20.6489 9.87299C20.6866 9.32283 20.044 9.00269 19.589 9.34441L16.266 11.8443C16.1825 11.9071 16.1191 11.9918 16.0836 12.0878C16.0482 12.1838 16.0423 12.287 16.0667 12.3845L17.3136 17.3521C17.3501 17.4957 17.1456 17.5807 17.0691 17.4537L14.4286 13.0659C14.3767 12.9798 14.2994 12.9112 14.2063 12.8686C14.1132 12.8259 14.0085 12.8112 13.905 12.8261L9.78682 13.4181C9.22415 13.4994 8.99773 14.1807 9.41378 14.5422L18.7028 22.6136C19.1127 22.9699 19.7802 22.6925 19.8173 22.1504L20.6489 9.87299Z" fill="white"/>
<path d="M182.836 152H179.671C179.503 152 179.342 152.069 179.223 152.193C179.105 152.316 179.038 152.484 179.038 152.658V152.736L183.469 156.422V152.658C183.469 152.484 183.402 152.316 183.283 152.193C183.164 152.069 183.003 152 182.836 152Z" fill="#32FF9D"/>
<path fill-rule="evenodd" clip-rule="evenodd" d="M185.684 162.479L186.674 163.303C186.871 163.463 187.12 163.535 187.368 163.505C187.617 163.474 187.843 163.343 187.999 163.14C188.155 162.937 188.228 162.679 188.201 162.42C188.175 162.162 188.052 161.925 187.858 161.76L177.574 153.203C176.732 152.503 175.686 152.121 174.608 152.121C173.53 152.121 172.484 152.503 171.642 153.203L161.357 161.76C161.16 161.924 161.034 162.162 161.006 162.422C160.978 162.682 161.051 162.944 161.208 163.148C161.366 163.353 161.595 163.484 161.845 163.513C162.095 163.542 162.346 163.467 162.543 163.303L163.532 162.479V176.025H161.949C161.698 176.025 161.456 176.129 161.278 176.314C161.1 176.5 161 176.751 161 177.013C161 177.275 161.1 177.526 161.278 177.711C161.456 177.896 161.698 178 161.949 178H187.266C187.518 178 187.759 177.896 187.937 177.711C188.115 177.526 188.215 177.275 188.215 177.013C188.215 176.751 188.115 176.5 187.937 176.314C187.759 176.129 187.518 176.025 187.266 176.025H185.684V162.479ZM171.127 160.557C171.127 159.597 171.493 158.676 172.146 157.997C172.799 157.318 173.684 156.937 174.608 156.937C175.531 156.937 176.416 157.318 177.069 157.997C177.722 158.676 178.089 159.597 178.089 160.557C178.089 161.517 177.722 162.438 177.069 163.117C176.416 163.796 175.531 164.177 174.608 164.177C173.684 164.177 172.799 163.796 172.146 163.117C171.493 162.438 171.127 161.517 171.127 160.557ZM174.671 165.494C175.512 165.494 176.237 165.494 176.818 165.575C177.441 165.662 178.037 165.858 178.52 166.361C179.004 166.864 179.193 167.484 179.276 168.132C179.35 168.698 179.355 169.396 179.355 170.203V176.025H177.456V170.43C177.456 169.472 177.453 168.851 177.395 168.395C177.339 167.967 177.251 167.833 177.177 167.758C177.105 167.683 176.976 167.589 176.565 167.531C176.125 167.471 175.529 167.468 174.608 167.468C173.686 167.468 173.089 167.471 172.651 167.531C172.239 167.589 172.11 167.683 172.038 167.758C171.966 167.833 171.876 167.967 171.82 168.395C171.762 168.852 171.76 169.472 171.76 170.43V176.025H169.861V170.365C169.861 169.49 169.861 168.736 169.939 168.132C170.023 167.484 170.211 166.864 170.695 166.361C171.179 165.858 171.776 165.662 172.398 165.575C172.979 165.494 173.704 165.494 174.546 165.494H174.67H174.671Z" fill="#32FF9D"/>
<path d="M173.025 160.557C173.025 160.121 173.192 159.702 173.489 159.393C173.786 159.085 174.188 158.911 174.608 158.911C175.027 158.911 175.43 159.085 175.727 159.393C176.023 159.702 176.19 160.121 176.19 160.557C176.19 160.993 176.023 161.412 175.727 161.721C175.43 162.029 175.027 162.203 174.608 162.203C174.188 162.203 173.786 162.029 173.489 161.721C173.192 161.412 173.025 160.993 173.025 160.557Z" fill="#32FF9D"/>
<path d="M22.4632 33.8118C22.3593 33.556 22.0676 33.4328 21.8118 33.5368C21.556 33.6407 21.4328 33.9324 21.5368 34.1882L22.4632 33.8118ZM158.333 183.5C158.333 184.973 159.527 186.167 161 186.167C162.473 186.167 163.667 184.973 163.667 183.5C163.667 182.027 162.473 180.833 161 180.833C159.527 180.833 158.333 182.027 158.333 183.5ZM115.717 58.2126L115.564 57.7364L115.717 58.2126ZM120.738 60.7748L120.263 60.9307L120.738 60.7748ZM40.1044 78.5646L39.6411 78.7528L40.1044 78.5646ZM45.0311 80.8682L45.1837 81.3444L45.0311 80.8682ZM22.442 36.4164C22.5459 36.6723 22.8376 36.7954 23.0934 36.6915C23.3492 36.5875 23.4724 36.2959 23.3685 36.04L22.442 36.4164ZM25.1789 40.4965C25.075 40.2407 24.7833 40.1175 24.5275 40.2215C24.2716 40.3254 24.1485 40.617 24.2524 40.8729L25.1789 40.4965ZM26.0629 45.3293C26.1668 45.5852 26.4584 45.7083 26.7143 45.6044C26.9701 45.5005 27.0933 45.2088 26.9893 44.953L26.0629 45.3293ZM28.7998 49.4094C28.6958 49.1536 28.4042 49.0304 28.1483 49.1344C27.8925 49.2383 27.7694 49.53 27.8733 49.7858L28.7998 49.4094ZM29.6837 54.2423C29.7877 54.4981 30.0793 54.6212 30.3352 54.5173C30.591 54.4134 30.7141 54.1217 30.6102 53.8659L29.6837 54.2423ZM32.4206 58.3223C32.3167 58.0665 32.0251 57.9434 31.7692 58.0473C31.5134 58.1512 31.3902 58.4429 31.4942 58.6987L32.4206 58.3223ZM33.3046 63.1552C33.4085 63.411 33.7002 63.5342 33.956 63.4302C34.2119 63.3263 34.335 63.0346 34.2311 62.7788L33.3046 63.1552ZM36.0415 67.2353C35.9376 66.9794 35.6459 66.8563 35.3901 66.9602C35.1343 67.0642 35.0111 67.3558 35.115 67.6116L36.0415 67.2353ZM36.9255 72.0681C37.0294 72.3239 37.3211 72.4471 37.5769 72.3432C37.8327 72.2392 37.9559 71.9476 37.852 71.6917L36.9255 72.0681ZM39.6624 76.1482C39.5585 75.8924 39.2668 75.7692 39.011 75.8731C38.7551 75.9771 38.632 76.2687 38.7359 76.5246L39.6624 76.1482ZM40.547 80.1588C40.7372 80.3589 41.0537 80.367 41.2538 80.1768C41.454 79.9865 41.4621 79.67 41.2718 79.4699L40.547 80.1588ZM43.5879 80.5528C43.3123 80.5352 43.0746 80.7443 43.057 81.0199C43.0393 81.2954 43.2484 81.5331 43.524 81.5508L43.5879 80.5528ZM47.7082 80.5352C47.9712 80.451 48.116 80.1695 48.0317 79.9065C47.9475 79.6435 47.666 79.4987 47.403 79.583L47.7082 80.5352ZM52.452 77.9647C52.189 78.049 52.0442 78.3305 52.1284 78.5934C52.2127 78.8564 52.4942 79.0013 52.7572 78.917L52.452 77.9647ZM57.8062 77.2987C58.0691 77.2144 58.214 76.9329 58.1297 76.67C58.0454 76.407 57.7639 76.2622 57.5009 76.3464L57.8062 77.2987ZM62.5499 74.7282C62.287 74.8125 62.1421 75.094 62.2264 75.3569C62.3107 75.6199 62.5922 75.7647 62.8551 75.6805L62.5499 74.7282ZM67.9041 74.0622C68.1671 73.9779 68.3119 73.6964 68.2277 73.4334C68.1434 73.1705 67.8619 73.0256 67.5989 73.1099L67.9041 74.0622ZM72.6479 71.4916C72.3849 71.5759 72.2401 71.8574 72.3244 72.1204C72.4086 72.3834 72.6901 72.5282 72.9531 72.4439L72.6479 71.4916ZM78.0021 70.8257C78.265 70.7414 78.4099 70.4599 78.3256 70.1969C78.2413 69.934 77.9598 69.7891 77.6969 69.8734L78.0021 70.8257ZM82.7458 68.2551C82.4829 68.3394 82.338 68.6209 82.4223 68.8839C82.5066 69.1468 82.7881 69.2917 83.0511 69.2074L82.7458 68.2551ZM88.1 67.5891C88.363 67.5049 88.5079 67.2234 88.4236 66.9604C88.3393 66.6974 88.0578 66.5526 87.7948 66.6369L88.1 67.5891ZM92.8438 65.0186C92.5808 65.1029 92.436 65.3844 92.5203 65.6474C92.6045 65.9103 92.886 66.0552 93.149 65.9709L92.8438 65.0186ZM98.198 64.3526C98.461 64.2683 98.6058 63.9868 98.5215 63.7239C98.4372 63.4609 98.1557 63.3161 97.8928 63.4003L98.198 64.3526ZM102.942 61.7821C102.679 61.8664 102.534 62.1479 102.618 62.4108C102.702 62.6738 102.984 62.8186 103.247 62.7344L102.942 61.7821ZM108.296 61.1161C108.559 61.0318 108.704 60.7503 108.619 60.4873C108.535 60.2244 108.254 60.0795 107.991 60.1638L108.296 61.1161ZM113.04 58.5456C112.777 58.6298 112.632 58.9113 112.716 59.1743C112.8 59.4373 113.082 59.5821 113.345 59.4978L113.04 58.5456ZM117.22 58.5321C117.495 58.5545 117.737 58.3495 117.759 58.0743C117.781 57.7991 117.577 57.5578 117.301 57.5354L117.22 58.5321ZM120.357 59.0945C120.177 58.8848 119.862 58.8604 119.652 59.0401C119.442 59.2197 119.418 59.5354 119.597 59.7451L120.357 59.0945ZM121.038 63.2908C121.124 63.5532 121.406 63.6961 121.669 63.61C121.931 63.5239 122.074 63.2414 121.988 62.9791L121.038 63.2908ZM123.536 67.6993C123.45 67.4369 123.168 67.294 122.905 67.38C122.643 67.4661 122.5 67.7486 122.586 68.011L123.536 67.6993ZM124.135 72.7312C124.221 72.9936 124.503 73.1365 124.766 73.0504C125.028 72.9643 125.171 72.6818 125.085 72.4195L124.135 72.7312ZM126.633 77.1397C126.547 76.8773 126.265 76.7344 126.002 76.8204C125.74 76.9065 125.597 77.189 125.683 77.4514L126.633 77.1397ZM127.232 82.1716C127.318 82.434 127.6 82.5769 127.863 82.4908C128.125 82.4047 128.268 82.1222 128.182 81.8599L127.232 82.1716ZM129.73 86.5801C129.644 86.3177 129.362 86.1748 129.099 86.2608C128.837 86.3469 128.694 86.6294 128.78 86.8918L129.73 86.5801ZM130.329 91.612C130.415 91.8744 130.697 92.0173 130.96 91.9312C131.222 91.8451 131.365 91.5626 131.279 91.3003L130.329 91.612ZM132.827 96.0205C132.741 95.7581 132.459 95.6152 132.196 95.7012C131.934 95.7873 131.791 96.0698 131.877 96.3322L132.827 96.0205ZM133.426 101.052C133.512 101.315 133.794 101.458 134.057 101.372C134.319 101.286 134.462 101.003 134.376 100.741L133.426 101.052ZM135.924 105.461C135.838 105.198 135.556 105.056 135.293 105.142C135.031 105.228 134.888 105.51 134.974 105.773L135.924 105.461ZM136.523 110.493C136.609 110.755 136.891 110.898 137.154 110.812C137.416 110.726 137.559 110.443 137.473 110.181L136.523 110.493ZM139.021 114.901C138.935 114.639 138.653 114.496 138.391 114.582C138.128 114.668 137.985 114.951 138.071 115.213L139.021 114.901ZM139.62 119.933C139.706 120.196 139.988 120.338 140.251 120.252C140.513 120.166 140.656 119.884 140.57 119.621L139.62 119.933ZM142.119 124.342C142.032 124.079 141.75 123.936 141.488 124.022C141.225 124.109 141.082 124.391 141.168 124.653L142.119 124.342ZM142.717 129.374C142.803 129.636 143.085 129.779 143.348 129.693C143.61 129.607 143.753 129.324 143.667 129.062L142.717 129.374ZM145.216 133.782C145.13 133.52 144.847 133.377 144.585 133.463C144.322 133.549 144.179 133.831 144.265 134.094L145.216 133.782ZM145.814 138.814C145.9 139.076 146.183 139.219 146.445 139.133C146.707 139.047 146.85 138.765 146.764 138.502L145.814 138.814ZM148.313 143.222C148.227 142.96 147.944 142.817 147.682 142.903C147.419 142.989 147.276 143.272 147.362 143.534L148.313 143.222ZM148.911 148.254C148.997 148.517 149.28 148.66 149.542 148.574C149.804 148.488 149.947 148.205 149.861 147.943L148.911 148.254ZM151.41 152.663C151.324 152.4 151.041 152.258 150.779 152.344C150.516 152.43 150.373 152.712 150.46 152.975L151.41 152.663ZM152.008 157.695C152.094 157.957 152.377 158.1 152.639 158.014C152.901 157.928 153.044 157.645 152.958 157.383L152.008 157.695ZM154.507 162.103C154.421 161.841 154.138 161.698 153.876 161.784C153.613 161.87 153.47 162.153 153.557 162.415L154.507 162.103ZM155.105 167.135C155.191 167.398 155.474 167.54 155.736 167.454C155.998 167.368 156.141 167.086 156.055 166.823L155.105 167.135ZM157.604 171.544C157.518 171.281 157.235 171.138 156.973 171.224C156.71 171.311 156.568 171.593 156.654 171.855L157.604 171.544ZM158.202 176.576C158.288 176.838 158.571 176.981 158.833 176.895C159.095 176.809 159.238 176.526 159.152 176.264L158.202 176.576ZM160.701 180.984C160.615 180.722 160.332 180.579 160.07 180.665C159.808 180.751 159.665 181.033 159.751 181.296L160.701 180.984ZM21.5368 34.1882L22.442 36.4164L23.3685 36.04L22.4632 33.8118L21.5368 34.1882ZM24.2524 40.8729L26.0629 45.3293L26.9893 44.953L25.1789 40.4965L24.2524 40.8729ZM27.8733 49.7858L29.6837 54.2423L30.6102 53.8659L28.7998 49.4094L27.8733 49.7858ZM31.4942 58.6987L33.3046 63.1552L34.2311 62.7788L32.4206 58.3223L31.4942 58.6987ZM35.115 67.6116L36.9255 72.0681L37.852 71.6917L36.0415 67.2353L35.115 67.6116ZM38.7359 76.5246L39.6411 78.7528L40.5676 78.3764L39.6624 76.1482L38.7359 76.5246ZM39.6411 78.7528C39.8587 79.2883 40.169 79.7611 40.547 80.1588L41.2718 79.4699C40.9786 79.1614 40.7373 78.7941 40.5676 78.3764L39.6411 78.7528ZM43.524 81.5508C44.0715 81.5858 44.6333 81.5208 45.1837 81.3444L44.8785 80.3921C44.4492 80.5297 44.0126 80.58 43.5879 80.5528L43.524 81.5508ZM45.1837 81.3444L47.7082 80.5352L47.403 79.583L44.8785 80.3921L45.1837 81.3444ZM52.7572 78.917L57.8062 77.2987L57.5009 76.3464L52.452 77.9647L52.7572 78.917ZM62.8551 75.6805L67.9041 74.0622L67.5989 73.1099L62.5499 74.7282L62.8551 75.6805ZM72.9531 72.4439L78.0021 70.8257L77.6969 69.8734L72.6479 71.4916L72.9531 72.4439ZM83.0511 69.2074L88.1 67.5891L87.7948 66.6369L82.7458 68.2551L83.0511 69.2074ZM93.149 65.9709L98.198 64.3526L97.8928 63.4003L92.8438 65.0186L93.149 65.9709ZM103.247 62.7344L108.296 61.1161L107.991 60.1638L102.942 61.7821L103.247 62.7344ZM113.345 59.4978L115.869 58.6887L115.564 57.7364L113.04 58.5456L113.345 59.4978ZM115.869 58.6887C116.32 58.5443 116.777 58.4961 117.22 58.5321L117.301 57.5354C116.73 57.4889 116.142 57.5513 115.564 57.7364L115.869 58.6887ZM119.597 59.7451C119.886 60.0824 120.116 60.481 120.263 60.9307L121.213 60.619C121.024 60.0428 120.729 59.5294 120.357 59.0945L119.597 59.7451ZM120.263 60.9307L121.038 63.2908L121.988 62.9791L121.213 60.619L120.263 60.9307ZM122.586 68.011L124.135 72.7312L125.085 72.4195L123.536 67.6993L122.586 68.011ZM125.683 77.4514L127.232 82.1716L128.182 81.8599L126.633 77.1397L125.683 77.4514ZM128.78 86.8918L130.329 91.612L131.279 91.3003L129.73 86.5801L128.78 86.8918ZM131.877 96.3322L133.426 101.052L134.376 100.741L132.827 96.0205L131.877 96.3322ZM134.974 105.773L136.523 110.493L137.473 110.181L135.924 105.461L134.974 105.773ZM138.071 115.213L139.62 119.933L140.57 119.621L139.021 114.901L138.071 115.213ZM141.168 124.653L142.717 129.374L143.667 129.062L142.119 124.342L141.168 124.653ZM144.265 134.094L145.814 138.814L146.764 138.502L145.216 133.782L144.265 134.094ZM147.362 143.534L148.911 148.254L149.861 147.943L148.313 143.222L147.362 143.534ZM150.46 152.975L152.008 157.695L152.958 157.383L151.41 152.663L150.46 152.975ZM153.557 162.415L155.105 167.135L156.055 166.823L154.507 162.103L153.557 162.415ZM156.654 171.855L158.202 176.576L159.152 176.264L157.604 171.544L156.654 171.855ZM159.751 181.296L160.525 183.656L161.475 183.344L160.701 180.984L159.751 181.296Z" fill="#32FF9D"/>
</svg>
