<svg width="165" height="22" viewBox="0 0 165 22" fill="none" xmlns="http://www.w3.org/2000/svg">
<path d="M5.6875 16C4.11328 16 2.77181 15.4456 1.66309 14.3369C0.554362 13.2282 0 11.8867 0 10.3125V4.625H2.4375V10.3125C2.4375 11.2096 2.75488 11.9756 3.38965 12.6104C4.02441 13.2451 4.79036 13.5625 5.6875 13.5625V16ZM11.375 16C9.80078 16 8.45931 15.4456 7.35059 14.3369C6.24186 13.2282 5.6875 11.8867 5.6875 10.3125V4.625H8.125V10.3125C8.125 11.2096 8.44238 11.9756 9.07715 12.6104C9.71191 13.2451 10.4779 13.5625 11.375 13.5625V4.625H13.8125V16H11.375ZM23.3873 15.7842C22.8795 15.9281 22.3421 16 21.775 16C20.2008 16 18.8593 15.4456 17.7506 14.3369C16.6419 13.2282 16.0875 11.8867 16.0875 10.3125C16.0875 8.73828 16.6419 7.39681 17.7506 6.28809C18.8593 5.17936 20.2008 4.625 21.775 4.625C23.3492 4.625 24.6907 5.17936 25.7994 6.28809C26.9081 7.39681 27.4625 8.73828 27.4625 10.3125V16H25.025V10.2236C25.0081 9.36882 24.6907 8.63249 24.0729 8.01465C23.4381 7.37988 22.6721 7.0625 21.775 7.0625C20.8779 7.0625 20.1119 7.37988 19.4771 8.01465C18.8424 8.64941 18.525 9.41536 18.525 10.3125C18.525 11.2096 18.8424 11.9756 19.4771 12.6104C20.1119 13.2451 20.8779 13.5625 21.775 13.5625C22.3674 13.5625 22.9049 13.4229 23.3873 13.1436V15.7842ZM23.4 10.3125C23.4 10.7611 23.2392 11.1462 22.9176 11.4678C22.6044 11.7809 22.2236 11.9375 21.775 11.9375C21.3264 11.9375 20.9413 11.7809 20.6197 11.4678C20.3066 11.1462 20.15 10.7611 20.15 10.3125C20.15 9.86393 20.3066 9.48307 20.6197 9.16992C20.9413 8.84831 21.3264 8.6875 21.775 8.6875C22.2236 8.6875 22.6044 8.84831 22.9176 9.16992C23.2392 9.48307 23.4 9.86393 23.4 10.3125ZM32.175 4.625V16H29.7375V4.625H32.175ZM32.5178 2.1875C32.5178 2.63607 32.357 3.02116 32.0354 3.34277C31.7222 3.65592 31.3413 3.8125 30.8928 3.8125C30.4442 3.8125 30.0591 3.65592 29.7375 3.34277C29.4243 3.02116 29.2678 2.63607 29.2678 2.1875C29.2678 1.73893 29.4243 1.35807 29.7375 1.04492C30.0591 0.723307 30.4442 0.5625 30.8928 0.5625C31.3413 0.5625 31.7222 0.723307 32.0354 1.04492C32.357 1.35807 32.5178 1.73893 32.5178 2.1875ZM36.8875 7.0625V10.3125C36.8875 11.2096 37.2049 11.9756 37.8396 12.6104C38.4744 13.2451 39.2404 13.5625 40.1375 13.5625V16C38.5633 16 37.2218 15.4456 36.1131 14.3369C35.0044 13.2282 34.45 11.8867 34.45 10.3125V1.375H36.8875V4.625H40.1375V7.0625H36.8875ZM50.4766 6.25H53.625V8.6875H50.375V16H47.9375V7.0625C47.9375 6.80013 47.9544 6.54199 47.9883 6.28809V6.2627C48.1491 5.02702 48.6865 3.95215 49.6006 3.03809C50.7093 1.92936 52.0508 1.375 53.625 1.375V3.8125C52.7279 3.8125 51.9619 4.12988 51.3271 4.76465C50.8955 5.19629 50.612 5.69141 50.4766 6.25ZM61.5875 16C60.0133 16 58.6718 15.4456 57.5631 14.3369C56.4544 13.2282 55.9 11.8867 55.9 10.3125C55.9 8.73828 56.4544 7.39681 57.5631 6.28809C58.6718 5.17936 60.0133 4.625 61.5875 4.625C63.1617 4.625 64.5032 5.17936 65.6119 6.28809C66.7206 7.39681 67.275 8.73828 67.275 10.3125C67.275 11.8867 66.7206 13.2282 65.6119 14.3369C64.5032 15.4456 63.1617 16 61.5875 16ZM61.5875 13.5625C62.4846 13.5625 63.2506 13.2451 63.8854 12.6104C64.5201 11.9756 64.8375 11.2096 64.8375 10.3125C64.8375 9.41536 64.5201 8.64941 63.8854 8.01465C63.2506 7.37988 62.4846 7.0625 61.5875 7.0625C60.6904 7.0625 59.9244 7.37988 59.2896 8.01465C58.6549 8.64941 58.3375 9.41536 58.3375 10.3125C58.3375 11.2096 58.6549 11.9756 59.2896 12.6104C59.9244 13.2451 60.6904 13.5625 61.5875 13.5625ZM63.2125 10.3125C63.2125 10.7611 63.0517 11.1462 62.7301 11.4678C62.4169 11.7809 62.0361 11.9375 61.5875 11.9375C61.1389 11.9375 60.7538 11.7809 60.4322 11.4678C60.1191 11.1462 59.9625 10.7611 59.9625 10.3125C59.9625 9.86393 60.1191 9.48307 60.4322 9.16992C60.7538 8.84831 61.1389 8.6875 61.5875 8.6875C62.0361 8.6875 62.4169 8.84831 62.7301 9.16992C63.0517 9.48307 63.2125 9.86393 63.2125 10.3125ZM75.2375 7.0625C74.3404 7.0625 73.5744 7.37988 72.9397 8.01465C72.3049 8.64941 71.9875 9.41536 71.9875 10.3125V16H69.55V10.3125C69.55 8.73828 70.1044 7.39681 71.2131 6.28809C72.3218 5.17936 73.6633 4.625 75.2375 4.625V7.0625ZM90.3373 7.48145C89.8549 7.20215 89.3174 7.0625 88.725 7.0625C87.8279 7.0625 87.0619 7.37988 86.4271 8.01465C85.7924 8.64941 85.475 9.41536 85.475 10.3125C85.475 11.2096 85.7924 11.9756 86.4271 12.6104C87.0619 13.2451 87.8279 13.5625 88.725 13.5625C89.6221 13.5625 90.3881 13.2451 91.0229 12.6104C91.6407 11.9925 91.9581 11.2562 91.975 10.4014V1.375H94.4125V10.3125C94.4125 11.8867 93.8581 13.2282 92.7494 14.3369C91.6407 15.4456 90.2992 16 88.725 16C87.1508 16 85.8093 15.4456 84.7006 14.3369C83.5919 13.2282 83.0375 11.8867 83.0375 10.3125C83.0375 8.73828 83.5919 7.39681 84.7006 6.28809C85.8093 5.17936 87.1508 4.625 88.725 4.625C89.2921 4.625 89.8295 4.69694 90.3373 4.84082V7.48145ZM90.35 10.3125C90.35 10.7611 90.1892 11.1462 89.8676 11.4678C89.5544 11.7809 89.1736 11.9375 88.725 11.9375C88.2764 11.9375 87.8913 11.7809 87.5697 11.4678C87.2566 11.1462 87.1 10.7611 87.1 10.3125C87.1 9.86393 87.2566 9.48307 87.5697 9.16992C87.8913 8.84831 88.2764 8.6875 88.725 8.6875C89.1736 8.6875 89.5544 8.84831 89.8676 9.16992C90.1892 9.48307 90.35 9.86393 90.35 10.3125ZM105.523 9.5C105.388 8.94141 105.104 8.44629 104.673 8.01465C104.038 7.37988 103.272 7.0625 102.375 7.0625C101.478 7.0625 100.712 7.37988 100.077 8.01465C99.4424 8.64941 99.125 9.41536 99.125 10.3125C99.125 11.2096 99.4424 11.9756 100.077 12.6104C100.712 13.2451 101.478 13.5625 102.375 13.5625C103.272 13.5625 104.034 13.2493 104.66 12.623L106.387 14.3496C105.286 15.4499 103.949 16 102.375 16C100.801 16 99.4593 15.4456 98.3506 14.3369C97.2419 13.2282 96.6875 11.8867 96.6875 10.3125C96.6875 8.73828 97.2419 7.39681 98.3506 6.28809C99.4593 5.17936 100.801 4.625 102.375 4.625C103.949 4.625 105.291 5.17936 106.399 6.28809C107.508 7.39681 108.062 8.73828 108.062 10.3125C108.062 10.888 107.991 11.4297 107.847 11.9375H102.375V9.5H105.523ZM112.775 1.375V16H110.338V1.375H112.775ZM117.488 4.625V16H115.05V4.625H117.488ZM117.83 2.1875C117.83 2.63607 117.669 3.02116 117.348 3.34277C117.035 3.65592 116.654 3.8125 116.205 3.8125C115.757 3.8125 115.372 3.65592 115.05 3.34277C114.737 3.02116 114.58 2.63607 114.58 2.1875C114.58 1.73893 114.737 1.35807 115.05 1.04492C115.372 0.723307 115.757 0.5625 116.205 0.5625C116.654 0.5625 117.035 0.723307 117.348 1.04492C117.669 1.35807 117.83 1.73893 117.83 2.1875ZM119.762 4.625H122.67L125.45 10.3125L128.268 4.625H131.137L125.45 16L119.762 4.625ZM142.248 9.5C142.113 8.94141 141.829 8.44629 141.398 8.01465C140.763 7.37988 139.997 7.0625 139.1 7.0625C138.203 7.0625 137.437 7.37988 136.802 8.01465C136.167 8.64941 135.85 9.41536 135.85 10.3125C135.85 11.2096 136.167 11.9756 136.802 12.6104C137.437 13.2451 138.203 13.5625 139.1 13.5625C139.997 13.5625 140.759 13.2493 141.385 12.623L143.112 14.3496C142.011 15.4499 140.674 16 139.1 16C137.526 16 136.184 15.4456 135.076 14.3369C133.967 13.2282 133.413 11.8867 133.413 10.3125C133.413 8.73828 133.967 7.39681 135.076 6.28809C136.184 5.17936 137.526 4.625 139.1 4.625C140.674 4.625 142.016 5.17936 143.124 6.28809C144.233 7.39681 144.788 8.73828 144.788 10.3125C144.788 10.888 144.716 11.4297 144.572 11.9375H139.1V9.5H142.248ZM152.75 7.0625C151.853 7.0625 151.087 7.37988 150.452 8.01465C149.817 8.64941 149.5 9.41536 149.5 10.3125V16H147.062V10.3125C147.062 8.73828 147.617 7.39681 148.726 6.28809C149.834 5.17936 151.176 4.625 152.75 4.625V7.0625ZM160.712 16C159.138 16 157.797 15.4456 156.688 14.3369C155.579 13.2282 155.025 11.8867 155.025 10.3125V4.625H157.462V10.3125C157.462 11.2096 157.78 11.9756 158.415 12.6104C159.049 13.2451 159.815 13.5625 160.712 13.5625V16ZM164.775 16C164.775 17.5742 164.221 18.9157 163.112 20.0244C162.003 21.1331 160.662 21.6875 159.087 21.6875V19.25C159.985 19.25 160.751 18.9326 161.385 18.2979C162.02 17.6631 162.337 16.8971 162.337 16V4.625H164.775V16Z" fill="white"/>
</svg>
