<svg width="113" height="22" viewBox="0 0 113 22" fill="none" xmlns="http://www.w3.org/2000/svg">
<path d="M3.4375 4.625V16H1V4.625H3.4375ZM3.78027 2.1875C3.78027 2.63607 3.61947 3.02116 3.29785 3.34277C2.9847 3.65592 2.60384 3.8125 2.15527 3.8125C1.70671 3.8125 1.32161 3.65592 1 3.34277C0.686849 3.02116 0.530273 2.63607 0.530273 2.1875C0.530273 1.73893 0.686849 1.35807 1 1.04492C1.32161 0.723307 1.70671 0.5625 2.15527 0.5625C2.60384 0.5625 2.9847 0.723307 3.29785 1.04492C3.61947 1.35807 3.78027 1.73893 3.78027 2.1875ZM9.775 4.625C11.3492 4.625 12.6907 5.17936 13.7994 6.28809C14.9081 7.39681 15.4625 8.73828 15.4625 10.3125V16H13.025V10.3125C13.025 9.41536 12.7076 8.64941 12.0729 8.01465C11.4381 7.37988 10.6721 7.0625 9.775 7.0625V4.625ZM8.15 4.625V16H5.7125V4.625H8.15ZM27.3377 13.1436C27.8201 13.4229 28.3576 13.5625 28.95 13.5625C29.8471 13.5625 30.6131 13.2451 31.2479 12.6104C31.8826 11.9756 32.2 11.2096 32.2 10.3125C32.2 9.41536 31.8826 8.64941 31.2479 8.01465C30.6131 7.37988 29.8471 7.0625 28.95 7.0625C28.0529 7.0625 27.2869 7.37988 26.6521 8.01465C26.0343 8.63249 25.7169 9.36882 25.7 10.2236V19.25H23.2625V10.3125C23.2625 8.73828 23.8169 7.39681 24.9256 6.28809C26.0343 5.17936 27.3758 4.625 28.95 4.625C30.5242 4.625 31.8657 5.17936 32.9744 6.28809C34.0831 7.39681 34.6375 8.73828 34.6375 10.3125C34.6375 11.8867 34.0831 13.2282 32.9744 14.3369C31.8657 15.4456 30.5242 16 28.95 16C28.3829 16 27.8455 15.9281 27.3377 15.7842V13.1436ZM27.325 10.3125C27.325 9.86393 27.4816 9.48307 27.7947 9.16992C28.1163 8.84831 28.5014 8.6875 28.95 8.6875C29.3986 8.6875 29.7794 8.84831 30.0926 9.16992C30.4142 9.48307 30.575 9.86393 30.575 10.3125C30.575 10.7611 30.4142 11.1462 30.0926 11.4678C29.7794 11.7809 29.3986 11.9375 28.95 11.9375C28.5014 11.9375 28.1163 11.7809 27.7947 11.4678C27.4816 11.1462 27.325 10.7611 27.325 10.3125ZM42.6 7.0625C41.7029 7.0625 40.9369 7.37988 40.3021 8.01465C39.6674 8.64941 39.35 9.41536 39.35 10.3125V16H36.9125V10.3125C36.9125 8.73828 37.4669 7.39681 38.5756 6.28809C39.6843 5.17936 41.0258 4.625 42.6 4.625V7.0625ZM50.5625 16C48.9883 16 47.6468 15.4456 46.5381 14.3369C45.4294 13.2282 44.875 11.8867 44.875 10.3125C44.875 8.73828 45.4294 7.39681 46.5381 6.28809C47.6468 5.17936 48.9883 4.625 50.5625 4.625C52.1367 4.625 53.4782 5.17936 54.5869 6.28809C55.6956 7.39681 56.25 8.73828 56.25 10.3125C56.25 11.8867 55.6956 13.2282 54.5869 14.3369C53.4782 15.4456 52.1367 16 50.5625 16ZM50.5625 13.5625C51.4596 13.5625 52.2256 13.2451 52.8604 12.6104C53.4951 11.9756 53.8125 11.2096 53.8125 10.3125C53.8125 9.41536 53.4951 8.64941 52.8604 8.01465C52.2256 7.37988 51.4596 7.0625 50.5625 7.0625C49.6654 7.0625 48.8994 7.37988 48.2646 8.01465C47.6299 8.64941 47.3125 9.41536 47.3125 10.3125C47.3125 11.2096 47.6299 11.9756 48.2646 12.6104C48.8994 13.2451 49.6654 13.5625 50.5625 13.5625ZM52.1875 10.3125C52.1875 10.7611 52.0267 11.1462 51.7051 11.4678C51.3919 11.7809 51.0111 11.9375 50.5625 11.9375C50.1139 11.9375 49.7288 11.7809 49.4072 11.4678C49.0941 11.1462 48.9375 10.7611 48.9375 10.3125C48.9375 9.86393 49.0941 9.48307 49.4072 9.16992C49.7288 8.84831 50.1139 8.6875 50.5625 8.6875C51.0111 8.6875 51.3919 8.84831 51.7051 9.16992C52.0267 9.48307 52.1875 9.86393 52.1875 10.3125ZM69.9 16C69.9 17.5742 69.3456 18.9157 68.2369 20.0244C67.1282 21.1331 65.7867 21.6875 64.2125 21.6875V19.25C65.1096 19.25 65.8756 18.9326 66.5104 18.2979C67.1451 17.6631 67.4625 16.8971 67.4625 16V10.2236C67.4456 9.36882 67.1282 8.63249 66.5104 8.01465C65.8756 7.37988 65.1096 7.0625 64.2125 7.0625C63.3154 7.0625 62.5494 7.37988 61.9146 8.01465C61.2799 8.64941 60.9625 9.41536 60.9625 10.3125C60.9625 11.2096 61.2799 11.9756 61.9146 12.6104C62.5494 13.2451 63.3154 13.5625 64.2125 13.5625C64.8049 13.5625 65.3424 13.4229 65.8248 13.1436V15.7842C65.317 15.9281 64.7796 16 64.2125 16C62.6383 16 61.2968 15.4456 60.1881 14.3369C59.0794 13.2282 58.525 11.8867 58.525 10.3125C58.525 8.73828 59.0794 7.39681 60.1881 6.28809C61.2968 5.17936 62.6383 4.625 64.2125 4.625C65.7867 4.625 67.1282 5.17936 68.2369 6.28809C69.3456 7.39681 69.9 8.73828 69.9 10.3125V16ZM65.8375 10.3125C65.8375 10.7611 65.6767 11.1462 65.3551 11.4678C65.0419 11.7809 64.6611 11.9375 64.2125 11.9375C63.7639 11.9375 63.3788 11.7809 63.0572 11.4678C62.7441 11.1462 62.5875 10.7611 62.5875 10.3125C62.5875 9.86393 62.7441 9.48307 63.0572 9.16992C63.3788 8.84831 63.7639 8.6875 64.2125 8.6875C64.6611 8.6875 65.0419 8.84831 65.3551 9.16992C65.6767 9.48307 65.8375 9.86393 65.8375 10.3125ZM77.8625 7.0625C76.9654 7.0625 76.1994 7.37988 75.5647 8.01465C74.9299 8.64941 74.6125 9.41536 74.6125 10.3125V16H72.175V10.3125C72.175 8.73828 72.7294 7.39681 73.8381 6.28809C74.9468 5.17936 76.2883 4.625 77.8625 4.625V7.0625ZM88.9734 9.5C88.838 8.94141 88.5545 8.44629 88.1228 8.01465C87.4881 7.37988 86.7221 7.0625 85.825 7.0625C84.9279 7.0625 84.1619 7.37988 83.5271 8.01465C82.8924 8.64941 82.575 9.41536 82.575 10.3125C82.575 11.2096 82.8924 11.9756 83.5271 12.6104C84.1619 13.2451 84.9279 13.5625 85.825 13.5625C86.7221 13.5625 87.4839 13.2493 88.1102 12.623L89.8367 14.3496C88.7365 15.4499 87.3992 16 85.825 16C84.2508 16 82.9093 15.4456 81.8006 14.3369C80.6919 13.2282 80.1375 11.8867 80.1375 10.3125C80.1375 8.73828 80.6919 7.39681 81.8006 6.28809C82.9093 5.17936 84.2508 4.625 85.825 4.625C87.3992 4.625 88.7407 5.17936 89.8494 6.28809C90.9581 7.39681 91.5125 8.73828 91.5125 10.3125C91.5125 10.888 91.4406 11.4297 91.2967 11.9375H85.825V9.5H88.9734ZM97.0375 4.625H98.6625V7.0625H97.4057C96.5424 7.07096 96.1234 7.24023 96.1488 7.57031C96.1488 8.0612 97.0502 8.53092 98.8529 8.97949C100.173 9.30957 101.092 9.72005 101.608 10.2109C102.133 10.7018 102.395 11.4085 102.395 12.3311C102.395 13.5413 102.044 14.4554 101.341 15.0732C100.639 15.6911 99.6104 16 98.2562 16H93.7875L93.7748 13.5625H98.1928C99.2592 13.5202 99.8135 13.2409 99.8559 12.7246C99.8559 12.2845 99.5089 11.9756 98.8148 11.7979C96.4704 11.2139 95.0443 10.6341 94.5365 10.0586C94.0372 9.47461 93.7875 8.77214 93.7875 7.95117C93.7875 5.7168 94.8708 4.60807 97.0375 4.625ZM107.438 4.625H109.062V7.0625H107.806C106.942 7.07096 106.523 7.24023 106.549 7.57031C106.549 8.0612 107.45 8.53092 109.253 8.97949C110.573 9.30957 111.492 9.72005 112.008 10.2109C112.533 10.7018 112.795 11.4085 112.795 12.3311C112.795 13.5413 112.444 14.4554 111.741 15.0732C111.039 15.6911 110.01 16 108.656 16H104.188L104.175 13.5625H108.593C109.659 13.5202 110.214 13.2409 110.256 12.7246C110.256 12.2845 109.909 11.9756 109.215 11.7979C106.87 11.2139 105.444 10.6341 104.937 10.0586C104.437 9.47461 104.188 8.77214 104.188 7.95117C104.188 5.7168 105.271 4.60807 107.438 4.625Z" fill="white"/>
</svg>
