<svg width="174" height="22" viewBox="0 0 174 22" fill="none" xmlns="http://www.w3.org/2000/svg">
<path d="M4.0752 13.1436C4.55762 13.4229 5.09505 13.5625 5.6875 13.5625C6.58464 13.5625 7.35059 13.2451 7.98535 12.6104C8.62012 11.9756 8.9375 11.2096 8.9375 10.3125C8.9375 9.41536 8.62012 8.64941 7.98535 8.01465C7.35059 7.37988 6.58464 7.0625 5.6875 7.0625C4.79036 7.0625 4.02441 7.37988 3.38965 8.01465C2.77181 8.63249 2.45443 9.36882 2.4375 10.2236V19.25H0V10.3125C0 8.73828 0.554362 7.39681 1.66309 6.28809C2.77181 5.17936 4.11328 4.625 5.6875 4.625C7.26172 4.625 8.60319 5.17936 9.71191 6.28809C10.8206 7.39681 11.375 8.73828 11.375 10.3125C11.375 11.8867 10.8206 13.2282 9.71191 14.3369C8.60319 15.4456 7.26172 16 5.6875 16C5.12044 16 4.58301 15.9281 4.0752 15.7842V13.1436ZM20.9498 15.7842C20.442 15.9281 19.9046 16 19.3375 16C17.7633 16 16.4218 15.4456 15.3131 14.3369C14.2044 13.2282 13.65 11.8867 13.65 10.3125C13.65 8.73828 14.2044 7.39681 15.3131 6.28809C16.4218 5.17936 17.7633 4.625 19.3375 4.625C20.9117 4.625 22.2532 5.17936 23.3619 6.28809C24.4706 7.39681 25.025 8.73828 25.025 10.3125V16H22.5875V10.2236C22.5706 9.36882 22.2532 8.63249 21.6354 8.01465C21.0006 7.37988 20.2346 7.0625 19.3375 7.0625C18.4404 7.0625 17.6744 7.37988 17.0396 8.01465C16.4049 8.64941 16.0875 9.41536 16.0875 10.3125C16.0875 11.2096 16.4049 11.9756 17.0396 12.6104C17.6744 13.2451 18.4404 13.5625 19.3375 13.5625C19.9299 13.5625 20.4674 13.4229 20.9498 13.1436V15.7842ZM20.9625 10.3125C20.9625 10.7611 20.8017 11.1462 20.4801 11.4678C20.1669 11.7809 19.7861 11.9375 19.3375 11.9375C18.8889 11.9375 18.5038 11.7809 18.1822 11.4678C17.8691 11.1462 17.7125 10.7611 17.7125 10.3125C17.7125 9.86393 17.8691 9.48307 18.1822 9.16992C18.5038 8.84831 18.8889 8.6875 19.3375 8.6875C19.7861 8.6875 20.1669 8.84831 20.4801 9.16992C20.8017 9.48307 20.9625 9.86393 20.9625 10.3125ZM37.0119 14.3369C35.9032 15.4456 34.5617 16 32.9875 16C31.4133 16 30.0718 15.4456 28.9631 14.3369C27.8544 13.2282 27.3 11.8867 27.3 10.3125C27.3 8.73828 27.8544 7.39681 28.9631 6.28809C30.0718 5.17936 31.4133 4.625 32.9875 4.625C34.5617 4.625 35.9032 5.17936 37.0119 6.28809L37.0246 6.30078L35.298 8.02734L35.2854 8.01465C34.6506 7.37988 33.8846 7.0625 32.9875 7.0625C32.0904 7.0625 31.3244 7.37988 30.6896 8.01465C30.0549 8.64941 29.7375 9.41536 29.7375 10.3125C29.7375 11.2096 30.0549 11.9756 30.6896 12.6104C31.3244 13.2451 32.0904 13.5625 32.9875 13.5625C33.8846 13.5625 34.6506 13.2451 35.2854 12.6104L35.298 12.5977L37.0246 14.3242L37.0119 14.3369ZM31.3625 10.3125C31.3625 9.86393 31.5191 9.48307 31.8322 9.16992C32.1538 8.84831 32.5389 8.6875 32.9875 8.6875C33.4361 8.6875 33.8169 8.84831 34.1301 9.16992C34.4517 9.48307 34.6125 9.86393 34.6125 10.3125C34.6125 10.7611 34.4517 11.1462 34.1301 11.4678C33.8169 11.7809 33.4361 11.9375 32.9875 11.9375C32.5389 11.9375 32.1538 11.7809 31.8322 11.4678C31.5191 11.1462 31.3625 10.7611 31.3625 10.3125ZM43.3875 10.3125C44.9617 10.3125 46.3032 10.8669 47.4119 11.9756C48.5206 13.0843 49.075 14.4258 49.075 16H46.6375C46.6375 15.1029 46.3201 14.3369 45.6854 13.7021C45.0506 13.0674 44.2846 12.75 43.3875 12.75V10.3125ZM41.7625 1.375V16H39.325V1.375H41.7625ZM46.1805 4.625L43.3875 8.6875H46.2439L49.075 4.625H46.1805ZM58.6498 15.7842C58.142 15.9281 57.6046 16 57.0375 16C55.4633 16 54.1218 15.4456 53.0131 14.3369C51.9044 13.2282 51.35 11.8867 51.35 10.3125C51.35 8.73828 51.9044 7.39681 53.0131 6.28809C54.1218 5.17936 55.4633 4.625 57.0375 4.625C58.6117 4.625 59.9532 5.17936 61.0619 6.28809C62.1706 7.39681 62.725 8.73828 62.725 10.3125V16H60.2875V10.2236C60.2706 9.36882 59.9532 8.63249 59.3354 8.01465C58.7006 7.37988 57.9346 7.0625 57.0375 7.0625C56.1404 7.0625 55.3744 7.37988 54.7396 8.01465C54.1049 8.64941 53.7875 9.41536 53.7875 10.3125C53.7875 11.2096 54.1049 11.9756 54.7396 12.6104C55.3744 13.2451 56.1404 13.5625 57.0375 13.5625C57.6299 13.5625 58.1674 13.4229 58.6498 13.1436V15.7842ZM58.6625 10.3125C58.6625 10.7611 58.5017 11.1462 58.1801 11.4678C57.8669 11.7809 57.4861 11.9375 57.0375 11.9375C56.5889 11.9375 56.2038 11.7809 55.8822 11.4678C55.5691 11.1462 55.4125 10.7611 55.4125 10.3125C55.4125 9.86393 55.5691 9.48307 55.8822 9.16992C56.2038 8.84831 56.5889 8.6875 57.0375 8.6875C57.4861 8.6875 57.8669 8.84831 58.1801 9.16992C58.5017 9.48307 58.6625 9.86393 58.6625 10.3125ZM76.375 16C76.375 17.5742 75.8206 18.9157 74.7119 20.0244C73.6032 21.1331 72.2617 21.6875 70.6875 21.6875V19.25C71.5846 19.25 72.3506 18.9326 72.9854 18.2979C73.6201 17.6631 73.9375 16.8971 73.9375 16V10.2236C73.9206 9.36882 73.6032 8.63249 72.9854 8.01465C72.3506 7.37988 71.5846 7.0625 70.6875 7.0625C69.7904 7.0625 69.0244 7.37988 68.3896 8.01465C67.7549 8.64941 67.4375 9.41536 67.4375 10.3125C67.4375 11.2096 67.7549 11.9756 68.3896 12.6104C69.0244 13.2451 69.7904 13.5625 70.6875 13.5625C71.2799 13.5625 71.8174 13.4229 72.2998 13.1436V15.7842C71.792 15.9281 71.2546 16 70.6875 16C69.1133 16 67.7718 15.4456 66.6631 14.3369C65.5544 13.2282 65 11.8867 65 10.3125C65 8.73828 65.5544 7.39681 66.6631 6.28809C67.7718 5.17936 69.1133 4.625 70.6875 4.625C72.2617 4.625 73.6032 5.17936 74.7119 6.28809C75.8206 7.39681 76.375 8.73828 76.375 10.3125V16ZM72.3125 10.3125C72.3125 10.7611 72.1517 11.1462 71.8301 11.4678C71.5169 11.7809 71.1361 11.9375 70.6875 11.9375C70.2389 11.9375 69.8538 11.7809 69.5322 11.4678C69.2191 11.1462 69.0625 10.7611 69.0625 10.3125C69.0625 9.86393 69.2191 9.48307 69.5322 9.16992C69.8538 8.84831 70.2389 8.6875 70.6875 8.6875C71.1361 8.6875 71.5169 8.84831 71.8301 9.16992C72.1517 9.48307 72.3125 9.86393 72.3125 10.3125ZM87.4859 9.5C87.3505 8.94141 87.067 8.44629 86.6354 8.01465C86.0006 7.37988 85.2346 7.0625 84.3375 7.0625C83.4404 7.0625 82.6744 7.37988 82.0396 8.01465C81.4049 8.64941 81.0875 9.41536 81.0875 10.3125C81.0875 11.2096 81.4049 11.9756 82.0396 12.6104C82.6744 13.2451 83.4404 13.5625 84.3375 13.5625C85.2346 13.5625 85.9964 13.2493 86.6227 12.623L88.3492 14.3496C87.249 15.4499 85.9117 16 84.3375 16C82.7633 16 81.4218 15.4456 80.3131 14.3369C79.2044 13.2282 78.65 11.8867 78.65 10.3125C78.65 8.73828 79.2044 7.39681 80.3131 6.28809C81.4218 5.17936 82.7633 4.625 84.3375 4.625C85.9117 4.625 87.2532 5.17936 88.3619 6.28809C89.4706 7.39681 90.025 8.73828 90.025 10.3125C90.025 10.888 89.9531 11.4297 89.8092 11.9375H84.3375V9.5H87.4859ZM95.55 4.625H97.175V7.0625H95.9182C95.0549 7.07096 94.6359 7.24023 94.6613 7.57031C94.6613 8.0612 95.5627 8.53092 97.3654 8.97949C98.6857 9.30957 99.604 9.72005 100.12 10.2109C100.645 10.7018 100.907 11.4085 100.907 12.3311C100.907 13.5413 100.556 14.4554 99.8537 15.0732C99.1512 15.6911 98.1229 16 96.7688 16H92.3L92.2873 13.5625H96.7053C97.7717 13.5202 98.326 13.2409 98.3684 12.7246C98.3684 12.2845 98.0214 11.9756 97.3273 11.7979C94.9829 11.2139 93.5568 10.6341 93.049 10.0586C92.5497 9.47461 92.3 8.77214 92.3 7.95117C92.3 5.7168 93.3833 4.60807 95.55 4.625ZM110.662 7.0625V10.3125C110.662 11.2096 110.98 11.9756 111.615 12.6104C112.249 13.2451 113.015 13.5625 113.912 13.5625V16C112.338 16 110.997 15.4456 109.888 14.3369C108.779 13.2282 108.225 11.8867 108.225 10.3125V1.375H110.662V4.625H113.912V7.0625H110.662ZM121.875 16C120.301 16 118.959 15.4456 117.851 14.3369C116.742 13.2282 116.188 11.8867 116.188 10.3125C116.188 8.73828 116.742 7.39681 117.851 6.28809C118.959 5.17936 120.301 4.625 121.875 4.625C123.449 4.625 124.791 5.17936 125.899 6.28809C127.008 7.39681 127.562 8.73828 127.562 10.3125C127.562 11.8867 127.008 13.2282 125.899 14.3369C124.791 15.4456 123.449 16 121.875 16ZM121.875 13.5625C122.772 13.5625 123.538 13.2451 124.173 12.6104C124.808 11.9756 125.125 11.2096 125.125 10.3125C125.125 9.41536 124.808 8.64941 124.173 8.01465C123.538 7.37988 122.772 7.0625 121.875 7.0625C120.978 7.0625 120.212 7.37988 119.577 8.01465C118.942 8.64941 118.625 9.41536 118.625 10.3125C118.625 11.2096 118.942 11.9756 119.577 12.6104C120.212 13.2451 120.978 13.5625 121.875 13.5625ZM123.5 10.3125C123.5 10.7611 123.339 11.1462 123.018 11.4678C122.704 11.7809 122.324 11.9375 121.875 11.9375C121.426 11.9375 121.041 11.7809 120.72 11.4678C120.407 11.1462 120.25 10.7611 120.25 10.3125C120.25 9.86393 120.407 9.48307 120.72 9.16992C121.041 8.84831 121.426 8.6875 121.875 8.6875C122.324 8.6875 122.704 8.84831 123.018 9.16992C123.339 9.48307 123.5 9.86393 123.5 10.3125ZM138.613 4.625H140.238V7.0625H138.981C138.117 7.07096 137.698 7.24023 137.724 7.57031C137.724 8.0612 138.625 8.53092 140.428 8.97949C141.748 9.30957 142.667 9.72005 143.183 10.2109C143.708 10.7018 143.97 11.4085 143.97 12.3311C143.97 13.5413 143.619 14.4554 142.916 15.0732C142.214 15.6911 141.185 16 139.831 16H135.363L135.35 13.5625H139.768C140.834 13.5202 141.389 13.2409 141.431 12.7246C141.431 12.2845 141.084 11.9756 140.39 11.7979C138.045 11.2139 136.619 10.6341 136.112 10.0586C135.612 9.47461 135.363 8.77214 135.363 7.95117C135.363 5.7168 136.446 4.60807 138.613 4.625ZM149.825 4.625C151.399 4.625 152.741 5.17936 153.849 6.28809C154.958 7.39681 155.512 8.73828 155.512 10.3125V16H153.075V10.3125C153.075 9.41536 152.758 8.64941 152.123 8.01465C151.488 7.37988 150.722 7.0625 149.825 7.0625V4.625ZM148.2 1.375V16H145.762V1.375H148.2ZM160.225 4.625V16H157.788V4.625H160.225ZM160.568 2.1875C160.568 2.63607 160.407 3.02116 160.085 3.34277C159.772 3.65592 159.391 3.8125 158.943 3.8125C158.494 3.8125 158.109 3.65592 157.788 3.34277C157.474 3.02116 157.318 2.63607 157.318 2.1875C157.318 1.73893 157.474 1.35807 157.788 1.04492C158.109 0.723307 158.494 0.5625 158.943 0.5625C159.391 0.5625 159.772 0.723307 160.085 1.04492C160.407 1.35807 160.568 1.73893 160.568 2.1875ZM166.575 13.1436C167.058 13.4229 167.595 13.5625 168.188 13.5625C169.085 13.5625 169.851 13.2451 170.485 12.6104C171.12 11.9756 171.438 11.2096 171.438 10.3125C171.438 9.41536 171.12 8.64941 170.485 8.01465C169.851 7.37988 169.085 7.0625 168.188 7.0625C167.29 7.0625 166.524 7.37988 165.89 8.01465C165.272 8.63249 164.954 9.36882 164.938 10.2236V19.25H162.5V10.3125C162.5 8.73828 163.054 7.39681 164.163 6.28809C165.272 5.17936 166.613 4.625 168.188 4.625C169.762 4.625 171.103 5.17936 172.212 6.28809C173.321 7.39681 173.875 8.73828 173.875 10.3125C173.875 11.8867 173.321 13.2282 172.212 14.3369C171.103 15.4456 169.762 16 168.188 16C167.62 16 167.083 15.9281 166.575 15.7842V13.1436ZM166.562 10.3125C166.562 9.86393 166.719 9.48307 167.032 9.16992C167.354 8.84831 167.739 8.6875 168.188 8.6875C168.636 8.6875 169.017 8.84831 169.33 9.16992C169.652 9.48307 169.812 9.86393 169.812 10.3125C169.812 10.7611 169.652 11.1462 169.33 11.4678C169.017 11.7809 168.636 11.9375 168.188 11.9375C167.739 11.9375 167.354 11.7809 167.032 11.4678C166.719 11.1462 166.562 10.7611 166.562 10.3125Z" fill="white"/>
</svg>
