<svg width="170" height="20" viewBox="0 0 170 20" fill="none" xmlns="http://www.w3.org/2000/svg">
<path d="M4.0752 13.1436C4.55762 13.4229 5.09505 13.5625 5.6875 13.5625C6.58464 13.5625 7.35059 13.2451 7.98535 12.6104C8.62012 11.9756 8.9375 11.2096 8.9375 10.3125C8.9375 9.41536 8.62012 8.64941 7.98535 8.01465C7.35059 7.37988 6.58464 7.0625 5.6875 7.0625C4.79036 7.0625 4.02441 7.37988 3.38965 8.01465C2.77181 8.63249 2.45443 9.36882 2.4375 10.2236V19.25H0V10.3125C0 8.73828 0.554362 7.39681 1.66309 6.28809C2.77181 5.17936 4.11328 4.625 5.6875 4.625C7.26172 4.625 8.60319 5.17936 9.71191 6.28809C10.8206 7.39681 11.375 8.73828 11.375 10.3125C11.375 11.8867 10.8206 13.2282 9.71191 14.3369C8.60319 15.4456 7.26172 16 5.6875 16C5.12044 16 4.58301 15.9281 4.0752 15.7842V13.1436ZM19.3375 16C17.7633 16 16.4218 15.4456 15.3131 14.3369C14.2044 13.2282 13.65 11.8867 13.65 10.3125C13.65 8.73828 14.2044 7.39681 15.3131 6.28809C16.4218 5.17936 17.7633 4.625 19.3375 4.625C20.9117 4.625 22.2532 5.17936 23.3619 6.28809C24.4706 7.39681 25.025 8.73828 25.025 10.3125C25.025 11.8867 24.4706 13.2282 23.3619 14.3369C22.2532 15.4456 20.9117 16 19.3375 16ZM19.3375 13.5625C20.2346 13.5625 21.0006 13.2451 21.6354 12.6104C22.2701 11.9756 22.5875 11.2096 22.5875 10.3125C22.5875 9.41536 22.2701 8.64941 21.6354 8.01465C21.0006 7.37988 20.2346 7.0625 19.3375 7.0625C18.4404 7.0625 17.6744 7.37988 17.0396 8.01465C16.4049 8.64941 16.0875 9.41536 16.0875 10.3125C16.0875 11.2096 16.4049 11.9756 17.0396 12.6104C17.6744 13.2451 18.4404 13.5625 19.3375 13.5625ZM20.9625 10.3125C20.9625 10.7611 20.8017 11.1462 20.4801 11.4678C20.1669 11.7809 19.7861 11.9375 19.3375 11.9375C18.8889 11.9375 18.5038 11.7809 18.1822 11.4678C17.8691 11.1462 17.7125 10.7611 17.7125 10.3125C17.7125 9.86393 17.8691 9.48307 18.1822 9.16992C18.5038 8.84831 18.8889 8.6875 19.3375 8.6875C19.7861 8.6875 20.1669 8.84831 20.4801 9.16992C20.8017 9.48307 20.9625 9.86393 20.9625 10.3125ZM31.3752 13.1436C31.8576 13.4229 32.3951 13.5625 32.9875 13.5625C33.8846 13.5625 34.6506 13.2451 35.2854 12.6104C35.9201 11.9756 36.2375 11.2096 36.2375 10.3125C36.2375 9.41536 35.9201 8.64941 35.2854 8.01465C34.6506 7.37988 33.8846 7.0625 32.9875 7.0625C32.0904 7.0625 31.3244 7.37988 30.6896 8.01465C30.0718 8.63249 29.7544 9.36882 29.7375 10.2236V19.25H27.3V10.3125C27.3 8.73828 27.8544 7.39681 28.9631 6.28809C30.0718 5.17936 31.4133 4.625 32.9875 4.625C34.5617 4.625 35.9032 5.17936 37.0119 6.28809C38.1206 7.39681 38.675 8.73828 38.675 10.3125C38.675 11.8867 38.1206 13.2282 37.0119 14.3369C35.9032 15.4456 34.5617 16 32.9875 16C32.4204 16 31.883 15.9281 31.3752 15.7842V13.1436ZM31.3625 10.3125C31.3625 9.86393 31.5191 9.48307 31.8322 9.16992C32.1538 8.84831 32.5389 8.6875 32.9875 8.6875C33.4361 8.6875 33.8169 8.84831 34.1301 9.16992C34.4517 9.48307 34.6125 9.86393 34.6125 10.3125C34.6125 10.7611 34.4517 11.1462 34.1301 11.4678C33.8169 11.7809 33.4361 11.9375 32.9875 11.9375C32.5389 11.9375 32.1538 11.7809 31.8322 11.4678C31.5191 11.1462 31.3625 10.7611 31.3625 10.3125ZM46.6375 16C45.0633 16 43.7218 15.4456 42.6131 14.3369C41.5044 13.2282 40.95 11.8867 40.95 10.3125V4.625H43.3875V10.3125C43.3875 11.2096 43.7049 11.9756 44.3396 12.6104C44.9744 13.2451 45.7404 13.5625 46.6375 13.5625V16ZM48.2625 16V4.625H50.7V16H48.2625ZM55.4125 1.375V16H52.975V1.375H55.4125ZM64.9873 15.7842C64.4795 15.9281 63.9421 16 63.375 16C61.8008 16 60.4593 15.4456 59.3506 14.3369C58.2419 13.2282 57.6875 11.8867 57.6875 10.3125C57.6875 8.73828 58.2419 7.39681 59.3506 6.28809C60.4593 5.17936 61.8008 4.625 63.375 4.625C64.9492 4.625 66.2907 5.17936 67.3994 6.28809C68.5081 7.39681 69.0625 8.73828 69.0625 10.3125V16H66.625V10.2236C66.6081 9.36882 66.2907 8.63249 65.6729 8.01465C65.0381 7.37988 64.2721 7.0625 63.375 7.0625C62.4779 7.0625 61.7119 7.37988 61.0771 8.01465C60.4424 8.64941 60.125 9.41536 60.125 10.3125C60.125 11.2096 60.4424 11.9756 61.0771 12.6104C61.7119 13.2451 62.4779 13.5625 63.375 13.5625C63.9674 13.5625 64.5049 13.4229 64.9873 13.1436V15.7842ZM65 10.3125C65 10.7611 64.8392 11.1462 64.5176 11.4678C64.2044 11.7809 63.8236 11.9375 63.375 11.9375C62.9264 11.9375 62.5413 11.7809 62.2197 11.4678C61.9066 11.1462 61.75 10.7611 61.75 10.3125C61.75 9.86393 61.9066 9.48307 62.2197 9.16992C62.5413 8.84831 62.9264 8.6875 63.375 8.6875C63.8236 8.6875 64.2044 8.84831 64.5176 9.16992C64.8392 9.48307 65 9.86393 65 10.3125ZM77.025 7.0625C76.1279 7.0625 75.3619 7.37988 74.7271 8.01465C74.0924 8.64941 73.775 9.41536 73.775 10.3125V16H71.3375V10.3125C71.3375 8.73828 71.8919 7.39681 73.0006 6.28809C74.1093 5.17936 75.4508 4.625 77.025 4.625V7.0625ZM88.075 4.625H89.7V7.0625H88.4432C87.5799 7.07096 87.1609 7.24023 87.1863 7.57031C87.1863 8.0612 88.0877 8.53092 89.8904 8.97949C91.2107 9.30957 92.129 9.72005 92.6453 10.2109C93.17 10.7018 93.4324 11.4085 93.4324 12.3311C93.4324 13.5413 93.0812 14.4554 92.3787 15.0732C91.6762 15.6911 90.6479 16 89.2937 16H84.825L84.8123 13.5625H89.2303C90.2967 13.5202 90.851 13.2409 90.8934 12.7246C90.8934 12.2845 90.5464 11.9756 89.8523 11.7979C87.5079 11.2139 86.0818 10.6341 85.574 10.0586C85.0747 9.47461 84.825 8.77214 84.825 7.95117C84.825 5.7168 85.9083 4.60807 88.075 4.625ZM104.061 9.5C103.926 8.94141 103.642 8.44629 103.21 8.01465C102.576 7.37988 101.81 7.0625 100.912 7.0625C100.015 7.0625 99.2494 7.37988 98.6146 8.01465C97.9799 8.64941 97.6625 9.41536 97.6625 10.3125C97.6625 11.2096 97.9799 11.9756 98.6146 12.6104C99.2494 13.2451 100.015 13.5625 100.912 13.5625C101.81 13.5625 102.571 13.2493 103.198 12.623L104.924 14.3496C103.824 15.4499 102.487 16 100.912 16C99.3383 16 97.9968 15.4456 96.8881 14.3369C95.7794 13.2282 95.225 11.8867 95.225 10.3125C95.225 8.73828 95.7794 7.39681 96.8881 6.28809C97.9968 5.17936 99.3383 4.625 100.912 4.625C102.487 4.625 103.828 5.17936 104.937 6.28809C106.046 7.39681 106.6 8.73828 106.6 10.3125C106.6 10.888 106.528 11.4297 106.384 11.9375H100.912V9.5H104.061ZM114.562 7.0625C113.665 7.0625 112.899 7.37988 112.265 8.01465C111.63 8.64941 111.312 9.41536 111.312 10.3125V16H108.875V10.3125C108.875 8.73828 109.429 7.39681 110.538 6.28809C111.647 5.17936 112.988 4.625 114.562 4.625V7.0625ZM116.838 4.625H119.745L122.525 10.3125L125.343 4.625H128.213L122.525 16L116.838 4.625ZM132.925 4.625V16H130.488V4.625H132.925ZM133.268 2.1875C133.268 2.63607 133.107 3.02116 132.785 3.34277C132.472 3.65592 132.091 3.8125 131.643 3.8125C131.194 3.8125 130.809 3.65592 130.488 3.34277C130.174 3.02116 130.018 2.63607 130.018 2.1875C130.018 1.73893 130.174 1.35807 130.488 1.04492C130.809 0.723307 131.194 0.5625 131.643 0.5625C132.091 0.5625 132.472 0.723307 132.785 1.04492C133.107 1.35807 133.268 1.73893 133.268 2.1875ZM144.912 14.3369C143.803 15.4456 142.462 16 140.887 16C139.313 16 137.972 15.4456 136.863 14.3369C135.754 13.2282 135.2 11.8867 135.2 10.3125C135.2 8.73828 135.754 7.39681 136.863 6.28809C137.972 5.17936 139.313 4.625 140.887 4.625C142.462 4.625 143.803 5.17936 144.912 6.28809L144.925 6.30078L143.198 8.02734L143.185 8.01465C142.551 7.37988 141.785 7.0625 140.887 7.0625C139.99 7.0625 139.224 7.37988 138.59 8.01465C137.955 8.64941 137.637 9.41536 137.637 10.3125C137.637 11.2096 137.955 11.9756 138.59 12.6104C139.224 13.2451 139.99 13.5625 140.887 13.5625C141.785 13.5625 142.551 13.2451 143.185 12.6104L143.198 12.5977L144.925 14.3242L144.912 14.3369ZM139.262 10.3125C139.262 9.86393 139.419 9.48307 139.732 9.16992C140.054 8.84831 140.439 8.6875 140.887 8.6875C141.336 8.6875 141.717 8.84831 142.03 9.16992C142.352 9.48307 142.512 9.86393 142.512 10.3125C142.512 10.7611 142.352 11.1462 142.03 11.4678C141.717 11.7809 141.336 11.9375 140.887 11.9375C140.439 11.9375 140.054 11.7809 139.732 11.4678C139.419 11.1462 139.262 10.7611 139.262 10.3125ZM156.061 9.5C155.926 8.94141 155.642 8.44629 155.21 8.01465C154.576 7.37988 153.81 7.0625 152.913 7.0625C152.015 7.0625 151.249 7.37988 150.615 8.01465C149.98 8.64941 149.663 9.41536 149.663 10.3125C149.663 11.2096 149.98 11.9756 150.615 12.6104C151.249 13.2451 152.015 13.5625 152.913 13.5625C153.81 13.5625 154.571 13.2493 155.198 12.623L156.924 14.3496C155.824 15.4499 154.487 16 152.913 16C151.338 16 149.997 15.4456 148.888 14.3369C147.779 13.2282 147.225 11.8867 147.225 10.3125C147.225 8.73828 147.779 7.39681 148.888 6.28809C149.997 5.17936 151.338 4.625 152.913 4.625C154.487 4.625 155.828 5.17936 156.937 6.28809C158.046 7.39681 158.6 8.73828 158.6 10.3125C158.6 10.888 158.528 11.4297 158.384 11.9375H152.913V9.5H156.061ZM164.125 4.625H165.75V7.0625H164.493C163.63 7.07096 163.211 7.24023 163.236 7.57031C163.236 8.0612 164.138 8.53092 165.94 8.97949C167.261 9.30957 168.179 9.72005 168.695 10.2109C169.22 10.7018 169.482 11.4085 169.482 12.3311C169.482 13.5413 169.131 14.4554 168.429 15.0732C167.726 15.6911 166.698 16 165.344 16H160.875L160.862 13.5625H165.28C166.347 13.5202 166.901 13.2409 166.943 12.7246C166.943 12.2845 166.596 11.9756 165.902 11.7979C163.558 11.2139 162.132 10.6341 161.624 10.0586C161.125 9.47461 160.875 8.77214 160.875 7.95117C160.875 5.7168 161.958 4.60807 164.125 4.625Z" fill="white"/>
</svg>
