<svg width="29" height="29" viewBox="0 0 29 29" fill="none" xmlns="http://www.w3.org/2000/svg">
<path d="M23.2152 19.9683C23.3498 19.9553 23.4868 19.9833 23.598 20.0604C24.054 20.3769 24.2142 20.7139 24.0644 21.0476C23.8969 21.4211 23.3464 21.7789 22.4618 22.0894C21.5772 22.3999 20.3857 22.6535 18.9929 22.8277C17.6002 23.0019 16.0491 23.0914 14.4771 23.0882C12.9051 23.0849 11.3607 22.9891 9.98071 22.8092C8.60072 22.6293 7.42773 22.3708 6.56564 22.0567C5.70355 21.7426 5.17897 21.3825 5.03837 21.0084C4.91142 20.6706 5.10107 20.3307 5.59117 20.0134C5.69855 19.9439 5.8279 19.9188 5.95517 19.9317L6.82311 20.0197C7.15691 20.0536 7.23841 20.6446 7.35644 20.9587V20.9587C7.46281 21.2417 7.85967 21.5141 8.51187 21.7517C9.16407 21.9894 10.0515 22.1849 11.0955 22.321C12.1395 22.4571 13.3079 22.5296 14.4972 22.5321C15.6864 22.5345 16.8599 22.4668 17.9135 22.3351C18.9672 22.2033 19.8686 22.0114 20.5378 21.7765C21.2071 21.5416 21.6235 21.2709 21.7503 20.9883V20.9883C21.8874 20.6828 21.9879 20.0868 22.3212 20.0546L23.2152 19.9683Z" fill="white"/>
<path d="M18.2304 7.71587L16.9445 6.97505C15.8155 6.32525 15.2511 6 14.6441 6C14.0372 6 13.4727 6.32455 12.3437 6.97505L12.1373 7.09429L17.8742 10.6918L20.4562 9.2737C20.0409 8.75724 19.371 8.37131 18.2304 7.71446M20.9114 10.2078L18.341 11.6189V13.7609C18.341 13.9013 18.2902 14.0359 18.1998 14.1351C18.1093 14.2343 17.9867 14.2901 17.8588 14.2901C17.7309 14.2901 17.6083 14.2343 17.5178 14.1351C17.4274 14.0359 17.3766 13.9013 17.3766 13.7609V12.1481L15.1263 13.3828V20.043C15.588 19.9167 16.1132 19.6148 16.9445 19.1357L18.2304 18.3949C19.6134 17.5983 20.3052 17.2004 20.6896 16.4843C21.0735 15.7689 21.0735 14.8778 21.0735 13.0977V13.0152C21.0735 11.6796 21.0735 10.8442 20.9114 10.2078ZM14.1619 20.043V13.3828L8.3768 10.2078C8.21478 10.8442 8.21478 11.6796 8.21478 13.0138V13.0963C8.21478 14.8778 8.21478 15.7689 8.59861 16.4843C8.98309 17.2004 9.67489 17.5991 11.0578 18.3956L12.3437 19.1357C13.175 19.6148 13.7003 19.9167 14.1619 20.043ZM8.832 9.2744L14.6441 12.4634L16.8372 11.2605L11.1241 7.67777L11.0578 7.71587C9.91792 8.37202 9.24733 8.75795 8.832 9.27511" fill="#D9D9D9"/>
<circle cx="14.5" cy="14.5" r="14" stroke="white"/>
</svg>
